<?xml version="1.0" encoding="UTF-8" standalone="no"?>
<svg width="145px" height="39px" viewBox="0 0 145 39" version="1.1" xmlns="http://www.w3.org/2000/svg" xmlns:xlink="http://www.w3.org/1999/xlink" xmlns:sketch="http://www.bohemiancoding.com/sketch/ns">
    <!-- Generator: Sketch 3.4.2 (15857) - http://www.bohemiancoding.com/sketch -->
    <title>Terug</title>
    <desc>Created with Sketch.</desc>
    <defs></defs>
    <g id="HOME" stroke="none" stroke-width="1" fill="none" fill-rule="evenodd" sketch:type="MSPage">
        <g id="Home-Copy-2" sketch:type="MSArtboardGroup" transform="translate(-514.000000, -845.000000)">
            <g id="Intro" sketch:type="MSLayerGroup" transform="translate(-2.000000, 0.000000)">
                <g id="Terug" transform="translate(516.000000, 845.000000)">
                    <rect id="base_btn" fill="#FFCE3B" sketch:type="MSShapeGroup" x="0" y="0" width="145" height="39"></rect>
                    <g id="arrow-forward" transform="translate(17.898305, 19.101695) rotate(-90.000000) translate(-17.898305, -19.101695) translate(9.898305, 11.101695)" fill="#FFFFFF" sketch:type="MSShapeGroup">
                        <path d="M8.30321852,0.701523603 C7.91577773,0.314082815 7.27966721,0.322027701 6.88981262,0.711882291 L6.9832806,0.618414319 C6.59011886,1.01157605 6.58832722,1.64722553 6.97801078,2.03690909 L11.5925847,6.65148305 L1.00848644,6.65148305 C0.451514758,6.65148305 0,7.09225516 0,7.6462216 L0,7.55716823 C0,8.10654716 0.440287292,8.55190678 1.00848644,8.55190678 L11.5925847,8.55190678 L6.97801078,13.1664807 C6.58775949,13.556732 6.59342601,14.1951209 6.9832806,14.5849755 L6.88981262,14.4915075 C7.28297436,14.8846693 7.91865222,14.8864325 8.30321852,14.5018662 L14.5018662,8.30321852 C14.889307,7.91577773 14.8864325,7.28473761 14.5018662,6.90017131 L8.30321852,0.701523603 Z" id="Shape" transform="translate(7.601695, 7.601695) rotate(-90.000000) translate(-7.601695, -7.601695) "></path>
                    </g>
                    <text id="ANONIEME-CHAT" sketch:type="MSTextLayer" font-family="VAG Rounded Std" font-size="12" font-weight="bold" line-spacing="20" letter-spacing="0.689999998" fill="#FFFFFF">
                        <tspan x="35" y="22">ANONIEME CHAT</tspan>
                    </text>
                </g>
            </g>
        </g>
    </g>
</svg>