<?xml version="1.0" encoding="UTF-8" standalone="no"?>
<svg width="618px" height="415px" viewBox="0 0 618 415" version="1.1" xmlns="http://www.w3.org/2000/svg" xmlns:xlink="http://www.w3.org/1999/xlink" xmlns:sketch="http://www.bohemiancoding.com/sketch/ns">
    <!-- Generator: Sketch 3.4.2 (15857) - http://www.bohemiancoding.com/sketch -->
    <title>Main chat</title>
    <desc>Created with Sketch.</desc>
    <defs></defs>
    <g id="HOME" stroke="none" stroke-width="1" fill="none" fill-rule="evenodd" sketch:type="MSPage">
        <g id="Home-Copy-2" sketch:type="MSArtboardGroup" transform="translate(-41.000000, -469.000000)">
            <g id="Intro" sketch:type="MSLayerGroup" transform="translate(-2.000000, 0.000000)">
                <g id="Main-chat" transform="translate(43.000000, 469.000000)">
                    <rect id="base" fill="#D2DCFF" sketch:type="MSShapeGroup" x="0" y="0" width="473" height="415"></rect>
                    <g id="Friends" transform="translate(473.000000, 0.000000)">
                        <rect id="BASE" fill="#2ED8B1" sketch:type="MSShapeGroup" x="0" y="0" width="145" height="415"></rect>
                        <rect id="base" fill="#FFFFFF" sketch:type="MSShapeGroup" x="3" y="2" width="139" height="29.8843106"></rect>
                        <g id="search" transform="translate(122.590909, 10.522979)" fill="#2ED8B1" sketch:type="MSShapeGroup">
                            <path d="M8.23863636,7.23454834 L7.71136364,7.23454834 L7.51363636,7.03724247 C8.17272727,6.31378764 8.56818182,5.32725832 8.56818182,4.27496038 C8.56818182,1.90729002 6.65681818,0 4.28409091,0 C1.91136364,0 0,1.90729002 0,4.27496038 C0,6.64263074 1.91136364,8.54992076 4.28409091,8.54992076 C5.33863636,8.54992076 6.32727273,8.15530903 7.05227273,7.49762282 L7.25,7.69492868 L7.25,8.22107765 L10.5454545,11.5095087 L11.5340909,10.5229794 L8.23863636,7.23454834 L8.23863636,7.23454834 Z M4.28409091,7.23454834 C2.63636364,7.23454834 1.31818182,5.91917591 1.31818182,4.27496038 C1.31818182,2.63074485 2.63636364,1.31537242 4.28409091,1.31537242 C5.93181818,1.31537242 7.25,2.63074485 7.25,4.27496038 C7.25,5.91917591 5.93181818,7.23454834 4.28409091,7.23454834 L4.28409091,7.23454834 Z" id="Shape"></path>
                        </g>
                        <text id="ZOEK-STICKS" sketch:type="MSTextLayer" font-family="VAG Rounded Std" font-size="7.89223455" font-weight="bold" line-spacing="16" letter-spacing="0.599999964" fill="#2ED8B1">
                            <tspan x="13.1818182" y="18.496038">ZOEK STICKS</tspan>
                        </text>
                    </g>
                    <rect id="input_chat" fill="#FFFFFF" sketch:type="MSShapeGroup" x="78" y="376" width="357" height="39"></rect>
                    <text id="Wel-accepteren-he!!-" sketch:type="MSTextLayer" font-family="VAG Rounded Std" font-size="14" font-weight="260" line-spacing="20" letter-spacing="0.774063468" fill="#4D73FF">
                        <tspan x="90" y="398">Wel accepteren he!! ;)</tspan>
                    </text>
                    <g id="Stuur" transform="translate(406.000000, 376.000000)" sketch:type="MSShapeGroup">
                        <rect id="base_btn" fill="#FFCE3B" x="28" y="0" width="39" height="39"></rect>
                        <g id="arrow-forward" transform="translate(47.500000, 19.500000) rotate(-90.000000) translate(-47.500000, -19.500000) translate(39.898305, 11.898305)" fill="#FFFFFF">
                            <path d="M8.30321852,0.701523603 C7.91577773,0.314082815 7.27966721,0.322027701 6.88981262,0.711882291 L6.9832806,0.618414319 C6.59011886,1.01157605 6.58832722,1.64722553 6.97801078,2.03690909 L11.5925847,6.65148305 L1.00848644,6.65148305 C0.451514758,6.65148305 0,7.09225516 0,7.6462216 L0,7.55716823 C0,8.10654716 0.440287292,8.55190678 1.00848644,8.55190678 L11.5925847,8.55190678 L6.97801078,13.1664807 C6.58775949,13.556732 6.59342601,14.1951209 6.9832806,14.5849755 L6.88981262,14.4915075 C7.28297436,14.8846693 7.91865222,14.8864325 8.30321852,14.5018662 L14.5018662,8.30321852 C14.889307,7.91577773 14.8864325,7.28473761 14.5018662,6.90017131 L8.30321852,0.701523603 Z" id="Shape"></path>
                        </g>
                        <g id="mood-copy" transform="translate(0.000000, 12.000000)" fill="#FFCE3B">
                            <path d="M8,0 C3.6,0 0,3.6 0,8 C0,12.4 3.6,16 8,16 C12.4,16 16,12.4 16,8 C16,3.6 12.4,0 8,0 L8,0 Z M10.8,4.8 C11.44,4.8 12,5.36 12,6 C12,6.64 11.44,7.2 10.8,7.2 C10.16,7.2 9.6,6.64 9.6,6 C9.6,5.36 10.16,4.8 10.8,4.8 L10.8,4.8 Z M5.2,4.8 C5.84,4.8 6.4,5.36 6.4,6 C6.4,6.64 5.84,7.2 5.2,7.2 C4.56,7.2 4,6.64 4,6 C4,5.36 4.56,4.8 5.2,4.8 L5.2,4.8 Z M8,12.8 C5.92,12.8 4.16,11.44 3.52,9.6 L12.48,9.6 C11.84,11.44 10.08,12.8 8,12.8 L8,12.8 Z" id="Shape"></path>
                        </g>
                    </g>
                    <g id="BTN_normal" transform="translate(0.000000, 376.000000)" sketch:type="MSShapeGroup">
                        <g id="BTN_kick">
                            <rect id="base_btn" fill="#4D73FF" x="0" y="0" width="38.8109375" height="39"></rect>
                            <g id="kick" transform="translate(15.129687, 14.542373)" fill="#FFFFFF">
                                <path d="M4.21412834,9.05570427 C4.1370055,9.61369375 3.87478782,9.97018703 3.65884386,10.1867954 C3.28903982,10.5587884 2.76421886,10.7757843 2.19389542,10.7757843 C1.62318637,10.7757843 1.09875102,10.5587884 0.728561369,10.1867954 C0.450919127,9.9236879 0.127003179,9.42808475 0.127003179,8.63721216 L0.127003179,2.50087785 C0.127003179,1.72589246 0.450919127,1.22951432 0.728561369,0.966019287 C1.09875102,0.578914085 1.62318637,0.377417884 2.19389542,0.377417884 C2.76421886,0.377417884 3.28903982,0.578914085 3.65884386,0.966019287 C3.84393869,1.13690357 4.04445808,1.41589831 4.15243006,1.803391 L4.69190436,1.21401461 C5.21672532,0.625413209 5.72535048,0.377417884 6.38860695,0.377417884 C6.88219316,0.377417884 7.37539375,0.578914085 7.77643254,0.935407364 C8.20870609,1.32290006 8.45511358,1.86500234 8.45511358,2.42299182 C8.45511358,2.94998188 8.22374504,3.47697195 7.79185711,3.94157569 L7.76100797,3.9725751 L6.41945609,5.32104968 L8.00780108,7.05662946 C8.34714159,7.42862244 8.79445409,7.92461309 8.79445409,8.71509819 C8.79445409,9.89268849 7.89982909,10.7757843 6.69709833,10.7757843 C6.23436126,10.7757843 5.80247333,10.6211748 5.40143454,10.3111806 C5.13960248,10.1092969 4.93908308,9.87718878 4.78483739,9.69119229 C4.75398825,9.67569258 4.73817807,9.64469316 4.7227535,9.62919345 L4.21412834,9.05570427" id="Fill-4"></path>
                            </g>
                        </g>
                        <g id="BTN_stick" transform="translate(38.810937, 0.000000)">
                            <rect id="base_btn" fill="#2ED8B1" x="0" y="0" width="38.8109375" height="39"></rect>
                            <g id="stick" transform="translate(15.129687, 14.211864)" fill="#FFFFFF">
                                <path d="M7.92262327,8.76347942 C7.69936641,9.27678269 7.34790658,9.71022094 6.91656953,10.0633929 C6.1497481,10.6734171 5.12731953,10.9940811 3.94553588,10.9940811 C3.1946899,10.9940811 2.36436607,10.8339498 1.72534821,10.5770975 C1.27803571,10.4005115 0.910999833,10.1757657 0.639417243,9.9032615 C0.224055636,9.48587651 -1.82964754e-13,8.97177058 -1.82964754e-13,8.42636077 C-1.82964754e-13,7.89660291 0.176129297,7.38289831 0.495638225,6.98156659 C0.718895089,6.70906235 0.974901618,6.51602179 1.27803571,6.38799697 C1.24608482,6.35589044 1.19815848,6.3237839 1.16620759,6.29167736 C0.495638225,5.68165315 0.144178404,4.86293644 0.144178404,3.83552724 C0.144178404,3.22590436 0.256006529,2.66444128 0.495638225,2.15033535 C0.718895089,1.66913862 1.05437946,1.25175363 1.48571652,0.898581719 C2.22058705,0.321065375 3.21066535,-9.05941988e-14 4.28102026,-9.05941988e-14 C6.88461864,-9.05941988e-14 7.81119453,1.31596671 7.81119453,2.43929419 C7.81119453,3.0011586 7.61908979,3.5148632 7.25205391,3.90014165 C7.15620123,4.01251453 7.0443731,4.10883414 6.91656953,4.18869915 C7.06034855,4.2854201 7.18775273,4.39779298 7.29998025,4.50976453 C7.95457416,5.15189528 8.27408309,6.00271852 8.27408309,7.04577966 C8.27408309,7.67185714 8.16265435,8.24977482 7.92262327,8.76347942" id="Fill-1"></path>
                            </g>
                        </g>
                    </g>
                    <g id="Chat" transform="translate(13.000000, 13.000000)">
                        <path d="M7.59244958,12.8612904 C7.72650889,12.8546164 7.86144717,12.8512397 7.99718572,12.8512397 L165.002814,12.8512397 C169.419538,12.8512397 173,16.4329717 173,20.8611677 L173,43.8413117 C173,48.2650728 169.42636,51.8512397 165.002814,51.8512397 L7.99718572,51.8512397 C3.58046201,51.8512397 0,48.2695076 0,43.8413117 L0,20.9978617 L0,4.56792355 L7.59244958,12.8612904 Z" id="Rectangle-30" fill="#FFFFFF" sketch:type="MSShapeGroup"></path>
                        <text id="Hey-hey,-alles-goed?" sketch:type="MSTextLayer" font-family="VAG Rounded Std" font-size="14" font-weight="260" letter-spacing="1" fill="#4D73FF">
                            <tspan x="13.1719128" y="37.7355372">Hey hey, alles goed</tspan>
                            <tspan x="146.369913" y="37.7355372">?</tspan>
                        </text>
                        <text id="Anoniem-10:12" sketch:type="MSTextLayer" font-family="VAG Rounded Std" font-size="9.22033898" font-weight="bold" letter-spacing="0.699999988" fill="#738FFE">
                            <tspan x="9.58595642" y="7">Anoniem 10:12</tspan>
                        </text>
                    </g>
                    <g id="Chat-Copy" transform="translate(225.000000, 65.000000)">
                        <path d="M8.53372818,11.8616773 C8.6704536,11.8547469 8.80808679,11.8512397 8.94654359,11.8512397 L226.938514,11.8512397 C231.359009,11.8512397 234.942529,15.4307743 234.942529,19.8420192 L234.942529,78.8604601 C234.942529,83.2736458 231.360585,86.8512397 226.938514,86.8512397 L8.94654359,86.8512397 C4.52604825,86.8512397 0.942528736,83.271705 0.942528736,78.8604601 L0.942528736,19.9882875 L0.942528736,3.56792355 L8.53372818,11.8616773 Z" id="Rectangle-30" fill="#4D73FF" sketch:type="MSShapeGroup" transform="translate(117.942529, 45.209582) scale(-1, 1) translate(-117.942529, -45.209582) "></path>
                        <text id="Ja-zeker-en-met-jou?" sketch:type="MSTextLayer" font-family="VAG Rounded Std" font-size="14" font-weight="260" letter-spacing="1" fill="#FFFFFF">
                            <tspan x="17.9425287" y="36.7355372">Ja zeker en met jou? Wist je</tspan>
                            <tspan x="17.9425287" y="53.7355372">dat je met Kick or Stick </tspan>
                            <tspan x="17.9425287" y="70.7355372">vrienden kan blijven :)</tspan>
                        </text>
                        <text id="Jij-10:12" sketch:type="MSTextLayer" font-family="VAG Rounded Std" font-size="9.2183908" font-weight="bold" sketch:alignment="right" letter-spacing="0.699999988" fill="#738FFE">
                            <tspan x="188.135386" y="7">Jij 10:12</tspan>
                        </text>
                    </g>
                    <g id="Chat-Copy-2" transform="translate(281.000000, 235.000000)">
                        <path d="M0.186604709,19.3064264 C0.0643905949,19.8627286 -4.26325641e-14,20.4407406 -4.26325641e-14,21.0338244 L-4.26325641e-14,63.5668895 C-4.26325641e-14,67.9944035 3.58494562,71.5679236 8.00720016,71.5679236 L170.935329,71.5679236 C175.368084,71.5679236 178.942529,67.9857386 178.942529,63.5668895 L178.942529,21.0338244 C178.942529,16.6063104 175.357583,13.0327904 170.935329,13.0327904 L8.00720016,13.0327904 C7.320769,13.0327904 6.65492,13.1186906 6.0197392,13.280296 L-4.35207426e-14,6.56792355 L-4.35207426e-14,19.4976572 L0.186604709,19.3064264 Z" id="Rectangle-30" fill="#4D73FF" sketch:type="MSShapeGroup" transform="translate(89.471264, 39.067924) scale(-1, 1) translate(-89.471264, -39.067924) "></path>
                        <text id="Is-goed-ik-verstuur-" sketch:type="MSTextLayer" font-family="VAG Rounded Std" font-size="14" font-weight="260" letter-spacing="1" fill="#FFFFFF">
                            <tspan x="13" y="39.7355372">Is goed ik verstuur het </tspan>
                            <tspan x="13" y="56.7355372">verzoek wel!</tspan>
                        </text>
                        <text id="Jij-10:13" sketch:type="MSTextLayer" font-family="VAG Rounded Std" font-size="10" font-weight="bold" sketch:alignment="right" letter-spacing="0.759351611" fill="#738FFE">
                            <tspan x="130.041451" y="8">Jij 10:13</tspan>
                        </text>
                    </g>
                    <g id="Chat" transform="translate(13.000000, 152.000000)">
                        <path d="M7.59281542,12.8616901 C7.72942802,12.8547512 7.86694079,12.8512397 8.00526927,12.8512397 L215.994731,12.8512397 C220.415919,12.8512397 224,16.4340003 224,20.8548505 L224,77.8476288 C224,82.267901 220.413551,85.8512397 215.994731,85.8512397 L8.00526927,85.8512397 C3.58408113,85.8512397 0,82.2684791 0,77.8476288 L0,20.9947032 L0,4.56792355 L7.59281542,12.8616901 Z" id="Rectangle-30" fill="#FFFFFF" sketch:type="MSShapeGroup"></path>
                        <text id="Ja,-je-kan-een-‘Stic" sketch:type="MSTextLayer" font-family="VAG Rounded Std" font-size="14" font-weight="260" letter-spacing="1" fill="#4D73FF">
                            <tspan x="13.1719128" y="37.7355372">Ja, je kan een ‘Stick’ verzoek </tspan>
                            <tspan x="13.1719128" y="54.7355372">versturen toch. Zullen we als </tspan>
                            <tspan x="13.1719128" y="71.7355372">vrienden verder praten?</tspan>
                        </text>
                        <text id="Anoniem-10:13" sketch:type="MSTextLayer" font-family="VAG Rounded Std" font-size="9.22033898" font-weight="bold" letter-spacing="0.699999988" fill="#738FFE">
                            <tspan x="9.58595642" y="7">Anoniem 10:13</tspan>
                        </text>
                    </g>
                    <g id="Chat-Copy-2" transform="translate(58.000000, 317.000000)">
                        <rect id="Rectangle-30" fill="#2ED8B1" sketch:type="MSShapeGroup" transform="translate(283.500000, 27.000000) scale(-1, 1) translate(-283.500000, -27.000000) " x="165" y="12" width="237" height="30" rx="8"></rect>
                        <text id="Je-hebt-een-‘Stick’-" sketch:type="MSTextLayer" font-family="VAG Rounded Std" font-size="12" font-weight="260" sketch:alignment="right" letter-spacing="0.600000024" fill="#FFFFFF">
                            <tspan x="181.767999" y="31">Je hebt een ‘Stick’ verzoek verstuurd!</tspan>
                        </text>
                        <text id="Jij-10:14" sketch:type="MSTextLayer" font-family="VAG Rounded Std" font-size="10" font-weight="bold" sketch:alignment="right" letter-spacing="0.5" fill="#738FFE">
                            <tspan x="355.05" y="8">Jij </tspan>
                            <tspan x="368.24" y="8" font-weight="260">10:14</tspan>
                        </text>
                    </g>
                </g>
            </g>
        </g>
    </g>
</svg>