<?xml version="1.0" encoding="UTF-8" standalone="no"?>
<svg width="92px" height="72px" viewBox="0 0 92 72" version="1.1" xmlns="http://www.w3.org/2000/svg" xmlns:xlink="http://www.w3.org/1999/xlink" xmlns:sketch="http://www.bohemiancoding.com/sketch/ns">
    <!-- Generator: Sketch 3.3.3 (12081) - http://www.bohemiancoding.com/sketch -->
    <title>lager dan</title>
    <desc>Created with Sketch.</desc>
    <defs></defs>
    <g id="Page-1" stroke="none" stroke-width="1" fill="none" fill-rule="evenodd" sketch:type="MSPage">
        <g id="collapsed" sketch:type="MSArtboardGroup" transform="translate(-116.000000, -4.000000)">
            <g id="lager-dan" sketch:type="MSLayerGroup" transform="translate(116.000000, 4.000000)">
                <path d="M0.698031746,12.7792653 L0.698031746,0.434938776 L3.43174603,0.434938776 L3.43174603,10.8389388 L8.49685714,10.8389388 L8.49685714,12.7792653 L0.698031746,12.7792653" id="Fill-1" fill="#FFFFFF" sketch:type="MSShapeGroup"></path>
                <path d="M9.40736508,12.0555918 L13.4728889,0.434938776 L16.2942222,0.434938776 L20.378,12.0555918 L20.378,12.7792653 L17.7311746,12.7792653 L16.7155238,9.63991837 L12.5791746,9.63991837 L11.5978413,12.7792653 L9.40736508,12.7792653 L9.40736508,12.0555918 L9.40736508,12.0555918 Z M13.1574603,7.75322449 L16.1021905,7.75322449 L14.6294603,3.20326531 L14.5944127,3.20326531 L13.1574603,7.75322449 L13.1574603,7.75322449 Z" id="Fill-2" fill="#FFFFFF" sketch:type="MSShapeGroup"></path>
                <path d="M20.727746,6.64236735 C20.727746,2.6037551 23.0226349,0.293877551 26.8610794,0.293877551 C28.4031746,0.293877551 29.2800952,0.540734694 30.401619,1.01681633 L30.401619,3.18563265 L29.490381,3.18563265 C28.8770476,2.69191837 28.2629841,2.32163265 26.9136508,2.32163265 C24.7932698,2.32163265 23.6016508,3.5037551 23.6016508,6.53583673 C23.6016508,9.58702041 24.5654603,11.0336327 26.5456508,11.0336327 C27.3349524,11.0336327 27.8073651,10.9447347 28.2461905,10.8036735 L28.2461905,8.1235102 L26.5631746,8.1235102 L26.5631746,6.34261224 L30.9266032,6.34261224 L30.9266032,11.9857959 C29.7006667,12.6205714 28.1928889,12.9203265 26.5456508,12.9203265 C22.8999683,12.9203265 20.727746,10.6802449 20.727746,6.64236735" id="Fill-3" fill="#FFFFFF" sketch:type="MSShapeGroup"></path>
                <path d="M32.9761587,0.434938776 L41.0553651,0.434938776 L41.0553651,2.42816327 L35.6748254,2.42816327 L35.6748254,5.56677551 L39.5307937,5.56677551 L39.5307937,7.45346939 L35.6748254,7.45346939 L35.6748254,10.8389388 L41.248127,10.8389388 L41.248127,12.7792653 L32.9761587,12.7792653 L32.9761587,0.434938776" id="Fill-4" fill="#FFFFFF" sketch:type="MSShapeGroup"></path>
                <path d="M47.2405397,7.94718367 L45.645873,7.94718367 L45.645873,12.7792653 L42.9121587,12.7792653 L42.9121587,0.434938776 L47.030254,0.434938776 C50.0443492,0.434938776 51.7441587,1.66922449 51.7441587,4.05036735 C51.7441587,5.69020408 51.0264127,6.80106122 49.7814921,7.41820408 L52.3574921,12.0555918 L52.3574921,12.7792653 L49.8515873,12.7792653 L47.2405397,7.94718367 L47.2405397,7.94718367 Z M45.645873,6.0604898 L46.9601587,6.0604898 C48.3971111,6.0604898 48.9929206,5.42571429 48.9929206,4.20906122 C48.9929206,3.01004082 48.3971111,2.39216327 46.9601587,2.39216327 L45.645873,2.39216327 L45.645873,6.0604898 L45.645873,6.0604898 Z" id="Fill-5" fill="#FFFFFF" sketch:type="MSShapeGroup"></path>
                <path d="M57.316,0.434938776 L61.1894921,0.434938776 C65.3068571,0.434938776 67.638254,2.32163265 67.638254,6.55420408 C67.638254,10.7515102 65.2900635,12.7792653 61.1186667,12.7792653 L57.316,12.7792653 L57.316,0.434938776 L57.316,0.434938776 Z M61.1186667,10.8389388 C63.6603492,10.8389388 64.8344444,9.63991837 64.8344444,6.58946939 C64.8344444,3.55665306 63.677873,2.40979592 61.1186667,2.40979592 L60.0497143,2.40979592 L60.0497143,10.8389388 L61.1186667,10.8389388 L61.1186667,10.8389388 Z" id="Fill-6" fill="#FFFFFF" sketch:type="MSShapeGroup"></path>
                <path d="M68.0055238,12.0555918 L72.0710476,0.434938776 L74.892381,0.434938776 L78.9761587,12.0555918 L78.9761587,12.7792653 L76.3293333,12.7792653 L75.3136825,9.63991837 L71.1766032,9.63991837 L70.196,12.7792653 L68.0055238,12.7792653 L68.0055238,12.0555918 L68.0055238,12.0555918 Z M71.7548889,7.75322449 L74.7003492,7.75322449 L73.227619,3.20326531 L73.1925714,3.20326531 L71.7548889,7.75322449 L71.7548889,7.75322449 Z" id="Fill-7" fill="#FFFFFF" sketch:type="MSShapeGroup"></path>
                <path d="M80.4299048,0.434938776 L83.531619,0.434938776 L88.0534921,8.35273469 L88.1060635,8.35273469 L88.1060635,0.434938776 L90.4024127,0.434938776 L90.4024127,12.7792653 L87.9133016,12.7792653 L82.7613016,3.7682449 L82.708,3.7682449 L82.708,12.7792653 L80.4299048,12.7792653 L80.4299048,0.434938776" id="Fill-8" fill="#FFFFFF" sketch:type="MSShapeGroup"></path>
                <path d="M54.6290159,71.5099592 L2.47304762,71.5099592 C1.26901587,71.5099592 0.282571429,70.5181224 0.282571429,69.3058776 L0.282571429,27.3056327 C0.282571429,26.0933878 1.26901587,25.101551 2.47304762,25.101551 L54.6290159,25.101551 C55.8337778,25.101551 56.8194921,26.0933878 56.8194921,27.3056327 L56.8194921,69.3058776 C56.8194921,70.5181224 55.8337778,71.5099592 54.6290159,71.5099592" id="Fill-9" fill="#FEA500" sketch:type="MSShapeGroup"></path>
                <path d="M30.9046984,35.3755102 L32.1824762,38.9027755 L17.3230159,61.3858776 L10.3127619,61.3858776 L23.2007937,41.6204082 L13.3429206,41.6204082 L14.2198413,35.3755102 L30.9046984,35.3755102" id="Fill-10" fill="#FFFFFF" sketch:type="MSShapeGroup"></path>
                <path d="M32.9469524,38.3583673 C33.1375238,37.0065306 34.3634603,35.9485714 35.6930794,35.9485714 C37.0080952,35.9485714 37.9426984,37.0065306 37.7528571,38.3583673 C37.5622857,39.681551 36.3210159,40.7835918 35.0213333,40.7835918 C33.6924444,40.7835918 32.7571111,39.6955102 32.9469524,38.3583673 L32.9469524,38.3583673 Z M36.0873651,38.3877551 C36.1311746,37.9910204 35.8836508,37.6236735 35.4594286,37.6236735 C35.0359365,37.6236735 34.6708571,37.9910204 34.6270476,38.3877551 C34.5686349,38.7844898 34.8314921,39.0930612 35.2549841,39.0930612 C35.6784762,39.0930612 36.0296825,38.7844898 36.0873651,38.3877551 L36.0873651,38.3877551 Z" id="Fill-11" fill="#FFFFFF" sketch:type="MSShapeGroup"></path>
                <path d="M45.6239683,44.3549388 C44.3534921,46.1777143 42.8639683,46.692 41.5635556,46.692 C39.5337143,46.692 37.6637778,45.5017959 37.9850476,43.1353469 L38.4815556,39.5485714 C38.8035556,37.197551 41.0239683,35.9919184 43.0968889,35.9919184 C44.3680952,35.9919184 45.8291429,36.5363265 46.3986667,38.3877551 L44.1490476,39.2554286 C43.9146667,38.6669388 43.3020635,38.4171429 42.6887302,38.4171429 C41.9432381,38.4325714 41.1984762,38.8432653 41.096254,39.5485714 L40.6004762,43.1353469 C40.4975238,43.8112653 41.1400635,44.2373878 41.8709524,44.2373878 C42.4696825,44.2373878 43.1414286,43.9582041 43.4919048,43.2969796 L45.6239683,44.3549388" id="Fill-12" fill="#FFFFFF" sketch:type="MSShapeGroup"></path>
                <path d="M81.4864444,47.6559184 C84.4793651,44.6444082 88.407619,41.5697143 88.407619,36.4246531 C88.407619,31.8445714 85.601619,29.2092245 80.3641905,29.2092245 C75.4370794,29.2092245 72.4441587,30.9034286 70.8852698,32.9737959 L69.2635873,32.9737959 L69.2635873,30.338449 C71.4467619,28.3937143 74.814254,26.5738776 80.4255238,26.5738776 C87.4102222,26.5738776 91.7751111,29.899102 91.7751111,36.5502857 C91.7751111,42.3852245 87.722,45.3974694 83.6068254,49.4757551 C80.1772698,52.8009796 78.0561587,55.2482449 78.7425079,61.7113469 L76.0613651,61.7113469 C75.1880952,54.9345306 76.8718413,52.4248163 81.4864444,47.6559184 L81.4864444,47.6559184 Z M75.2501587,68.6137959 C75.2501587,67.2957551 76.2482857,66.1665306 77.620254,66.1665306 C78.9301587,66.1665306 80.0524127,67.2957551 80.0524127,68.6137959 C80.0524127,69.9942857 78.9301587,70.9978776 77.620254,70.9978776 C76.2482857,70.9978776 75.2501587,69.9942857 75.2501587,68.6137959 L75.2501587,68.6137959 Z" id="Fill-13" fill="#FFFFFF" sketch:type="MSShapeGroup"></path>
            </g>
        </g>
    </g>
</svg>