<?xml version="1.0" encoding="UTF-8" standalone="no"?>
<svg width="325px" height="26px" viewBox="0 0 325 26" version="1.1" xmlns="http://www.w3.org/2000/svg" xmlns:xlink="http://www.w3.org/1999/xlink" xmlns:sketch="http://www.bohemiancoding.com/sketch/ns">
    <!-- Generator: Sketch 3.3.3 (12081) - http://www.bohemiancoding.com/sketch -->
    <title>zorgeloos-horizontaal</title>
    <desc>Created with Sketch.</desc>
    <defs></defs>
    <g id="Page-1" stroke="none" stroke-width="1" fill="none" fill-rule="evenodd" sketch:type="MSPage">
        <g id="collapsed" sketch:type="MSArtboardGroup" transform="translate(-502.000000, -26.000000)" fill="#231F1F">
            <g id="zorgeloos-horizontaal" sketch:type="MSLayerGroup" transform="translate(502.000000, 26.000000)">
                <path d="M203.392,13.188 C203.392,5.172 208.398,0.797 214.419,0.797 C220.37,0.797 225.375,5.172 225.375,13.188 C225.375,21.239 220.37,25.579 214.419,25.579 C208.398,25.579 203.392,21.239 203.392,13.188 L203.392,13.188 Z M223.45,13.224 C223.45,6.048 219.495,2.266 214.419,2.266 C209.273,2.266 205.318,6.048 205.318,13.224 C205.318,20.398 209.273,24.109 214.419,24.109 C219.495,24.109 223.45,20.398 223.45,13.224 L223.45,13.224 Z" id="Fill-1" sketch:type="MSShapeGroup"></path>
                <path d="M229.853,0.936 L236.223,0.936 C241.474,0.936 244.904,2.757 244.904,7.937 C244.904,13.224 241.614,15.184 236.188,15.184 L231.708,15.184 L231.708,25.439 L229.853,25.439 L229.853,0.936 L229.853,0.936 Z M231.708,13.678 L236.188,13.678 C240.599,13.678 243.014,12.208 243.014,8.008 C243.014,3.807 240.389,2.476 236.188,2.476 L231.708,2.476 L231.708,13.678 L231.708,13.678 Z" id="Fill-2" sketch:type="MSShapeGroup"></path>
                <path d="M255.681,1.672 L255.681,0.936 L257.396,0.936 L262.857,22.464 L262.963,22.464 L269.018,0.936 L270.628,0.936 L276.718,22.464 L276.824,22.464 L282.25,0.936 L283.859,0.936 L283.859,1.672 L277.734,25.439 L275.704,25.439 L269.823,4.192 L269.753,4.192 L263.838,25.439 L261.807,25.439 L255.681,1.672" id="Fill-3" sketch:type="MSShapeGroup"></path>
                <path d="M287.952,0.936 L302.548,0.936 L302.548,2.512 L289.806,2.512 L289.806,12.033 L299.432,12.033 L299.432,13.573 L289.806,13.573 L289.806,23.899 L303.038,23.899 L303.038,25.439 L287.952,25.439 L287.952,0.936" id="Fill-4" sketch:type="MSShapeGroup"></path>
                <path d="M305.171,13.118 C305.171,4.857 310.247,0.797 316.617,0.797 C320.048,0.797 322.148,1.637 323.793,2.722 L323.793,4.332 L322.883,4.332 C321.623,3.107 319.663,2.302 316.617,2.302 C311.192,2.302 307.167,5.662 307.167,13.048 C307.167,20.434 310.596,24.074 316.442,24.074 C319.628,24.074 321.342,23.409 322.673,22.709 L322.673,14.974 L317.248,14.974 L317.248,13.434 L324.528,13.434 L324.528,23.584 C322.848,24.564 320.397,25.579 316.442,25.579 C309.547,25.579 305.171,21.414 305.171,13.118" id="Fill-5" sketch:type="MSShapeGroup"></path>
                <path d="M0.36,23.149 L15.622,1.797 L15.622,1.763 L1.306,1.763 L1.306,0.257 L17.617,0.257 L17.617,1.902 L2.391,23.22 L2.391,23.29 L17.232,23.29 L17.232,24.76 L0.36,24.76 L0.36,23.149" id="Fill-6" sketch:type="MSShapeGroup"></path>
                <path d="M18.945,12.509 C18.945,4.492 23.951,0.117 29.972,0.117 C35.923,0.117 40.928,4.492 40.928,12.509 C40.928,20.559 35.923,24.899 29.972,24.899 C23.951,24.899 18.945,20.559 18.945,12.509 L18.945,12.509 Z M39.003,12.544 C39.003,5.368 35.048,1.587 29.972,1.587 C24.826,1.587 20.871,5.368 20.871,12.544 C20.871,19.719 24.826,23.43 29.972,23.43 C35.048,23.43 39.003,19.719 39.003,12.544 L39.003,12.544 Z" id="Fill-7" sketch:type="MSShapeGroup"></path>
                <path d="M54.155,13.559 C53.49,13.629 52.756,13.664 52.021,13.664 L47.365,13.664 L47.365,24.76 L45.475,24.76 L45.475,0.257 L52.021,0.257 C56.991,0.257 60.422,2.008 60.422,6.908 C60.422,10.443 58.741,12.368 55.976,13.174 L61.821,24.024 L61.821,24.76 L60.211,24.76 L54.155,13.559 L54.155,13.559 Z M47.365,12.158 L51.95,12.158 C56.046,12.158 58.531,11.038 58.531,6.977 C58.531,3.022 55.836,1.797 51.95,1.797 L47.365,1.797 L47.365,12.158 L47.365,12.158 Z" id="Fill-8" sketch:type="MSShapeGroup"></path>
                <path d="M64.339,12.438 C64.339,4.178 69.415,0.117 75.785,0.117 C79.216,0.117 81.316,0.957 82.961,2.042 L82.961,3.652 L82.051,3.652 C80.791,2.428 78.831,1.622 75.785,1.622 C70.36,1.622 66.335,4.982 66.335,12.368 C66.335,19.754 69.765,23.394 75.61,23.394 C78.796,23.394 80.511,22.73 81.841,22.029 L81.841,14.294 L76.416,14.294 L76.416,12.754 L83.696,12.754 L83.696,22.904 C82.017,23.885 79.566,24.899 75.61,24.899 C68.715,24.899 64.339,20.734 64.339,12.438" id="Fill-9" sketch:type="MSShapeGroup"></path>
                <path d="M89.33,0.257 L103.926,0.257 L103.926,1.832 L91.185,1.832 L91.185,11.353 L100.811,11.353 L100.811,12.894 L91.185,12.894 L91.185,23.22 L104.416,23.22 L104.416,24.76 L89.33,24.76 L89.33,0.257" id="Fill-10" sketch:type="MSShapeGroup"></path>
                <path d="M109.345,24.76 L109.345,0.257 L111.199,0.257 L111.199,23.22 L123.976,23.22 L123.976,24.76 L109.345,24.76" id="Fill-11" sketch:type="MSShapeGroup"></path>
                <path d="M124.743,12.509 C124.743,4.492 129.749,0.117 135.77,0.117 C141.721,0.117 146.726,4.492 146.726,12.509 C146.726,20.559 141.721,24.899 135.77,24.899 C129.749,24.899 124.743,20.559 124.743,12.509 L124.743,12.509 Z M144.801,12.544 C144.801,5.368 140.846,1.587 135.77,1.587 C130.624,1.587 126.669,5.368 126.669,12.544 C126.669,19.719 130.624,23.43 135.77,23.43 C140.846,23.43 144.801,19.719 144.801,12.544 L144.801,12.544 Z" id="Fill-12" sketch:type="MSShapeGroup"></path>
                <path d="M149.663,12.509 C149.663,4.492 154.669,0.117 160.689,0.117 C166.641,0.117 171.646,4.492 171.646,12.509 C171.646,20.559 166.641,24.899 160.689,24.899 C154.669,24.899 149.663,20.559 149.663,12.509 L149.663,12.509 Z M169.721,12.544 C169.721,5.368 165.766,1.587 160.689,1.587 C155.544,1.587 151.589,5.368 151.589,12.544 C151.589,19.719 155.544,23.43 160.689,23.43 C165.766,23.43 169.721,19.719 169.721,12.544 L169.721,12.544 Z" id="Fill-13" sketch:type="MSShapeGroup"></path>
                <path d="M173.918,22.59 L173.918,20.944 L174.759,20.944 C176.054,22.239 177.979,23.394 181.444,23.394 C185.19,23.394 187.78,21.854 187.78,18.144 C187.78,14.539 184.944,13.839 181.409,12.894 C177.034,11.738 174.514,10.338 174.514,6.348 C174.514,2.813 177.104,0.117 181.9,0.117 C184.98,0.117 186.939,0.922 188.445,2.042 L188.445,3.617 L187.569,3.617 C186.274,2.428 184.664,1.622 181.935,1.622 C177.943,1.622 176.299,3.617 176.299,6.208 C176.299,9.568 178.608,10.338 181.935,11.213 C186.87,12.509 189.6,13.733 189.6,18.004 C189.6,22.765 186.239,24.899 181.48,24.899 C177.839,24.899 175.528,23.85 173.918,22.59" id="Fill-14" sketch:type="MSShapeGroup"></path>
            </g>
        </g>
    </g>
</svg>