<svg width="144px" height="75px" viewBox="0 0 144 75" version="1.1" xmlns="http://www.w3.org/2000/svg" xmlns:xlink="http://www.w3.org/1999/xlink" xmlns:sketch="http://www.bohemiancoding.com/sketch/ns" is="gwd-image" source="assets/logo_darkBlue.svg" id="logo_dark" class="gwd-img-1ni9 gwd-gen-xhclgwdanimation" src="assets/logo_darkBlue.svg" data-gwd-node="true" gwd-svg-index="0" style="">
    <!-- Generator: Sketch 3.4 (15588) - http://www.bohemiancoding.com/sketch -->
    <title data-gwd-node="true">logo copy</title>
    <desc data-gwd-node="true">Created with Sketch.</desc>
    <defs data-gwd-node="true"></defs>
    <g id="Page-1" stroke="none" stroke-width="1" fill="none" fill-rule="evenodd" sketch:type="MSPage" data-gwd-node="true">
        <g id="Artboard-8" sketch:type="MSArtboardGroup" transform="translate(-29.000000, -472.000000)" fill="#465DB5" data-gwd-node="true">
            <g id="logo-copy" sketch:type="MSLayerGroup" transform="translate(29.000000, 472.000000)" data-gwd-node="true">
                <path d="M14.2505281,30.2269504 C13.9844988,32.1440836 13.0799991,33.3689188 12.3337868,34.1131392 C11.0581762,35.3912281 9.24917686,36.1367799 7.28189004,36.1367799 C5.31327307,36.1367799 3.50427369,35.3912281 2.22733295,34.1131392 C1.2696274,33.2091576 0.152304252,31.5063705 0.152304252,28.7891004 L0.152304252,7.70462859 C0.152304252,5.04194351 1.2696274,3.33782506 2.22733295,2.43251213 C3.50427369,1.10116959 5.31327307,0.410202812 7.28189004,0.410202812 C9.24917686,0.410202812 11.0581762,1.10116959 12.3337868,2.43251213 C12.9735873,3.01963419 13.6639334,3.97820082 14.0377046,5.30954336 L15.8985797,3.28457136 C17.7089092,1.26226204 19.4633726,0.410202812 21.7512248,0.410202812 C23.4538124,0.410202812 25.1550699,1.10116959 26.5384224,2.32600473 C28.0281866,3.65734727 28.8794804,5.52122683 28.8794804,7.43836008 C28.8794804,9.24898594 28.0813924,11.0596118 26.5916283,12.6558915 L26.4852165,12.7623989 L21.8576365,17.3954709 L27.3365103,23.3585542 C28.5070394,24.636643 30.0500094,26.3407615 30.0500094,29.0567003 C30.0500094,33.1026502 26.9640693,36.1367799 22.8140119,36.1367799 C21.2191661,36.1367799 19.7294019,35.6055742 18.3460495,34.5405002 C17.4415498,33.8468707 16.7512037,33.0493965 16.2178149,32.4103521 C16.1114032,32.3570984 16.0581973,32.250591 16.0049915,32.1973373 L14.2505281,30.2269504" id="Fill-2" sketch:type="MSShapeGroup" data-gwd-node="true"></path>
                <path d="M44.736158,34.1131392 C43.4605475,35.3912281 41.6515481,36.1367799 39.6829311,36.1367799 C37.7143141,36.1367799 35.9053148,35.3912281 34.628374,34.1131392 C33.6706685,33.2091576 32.5546755,31.5063705 32.5546755,28.7891004 L32.5546755,7.70462859 C32.5546755,5.04194351 33.6706685,3.33782506 34.628374,2.43251213 C35.9053148,1.10116959 37.7143141,0.410202812 39.6829311,0.410202812 C41.6515481,0.410202812 43.4605475,1.10116959 44.736158,2.43251213 C45.6951937,3.33782506 46.8111867,5.04194351 46.8111867,7.70462859 L46.8111867,28.7891004 C46.8111867,31.5063705 45.6951937,33.2091576 44.736158,34.1131392" id="Fill-3" sketch:type="MSShapeGroup" data-gwd-node="true"></path>
                <path d="M54.8466024,30.9725022 C51.9202798,27.7253577 50.3254341,23.1987931 50.3254341,18.2994525 C50.3254341,15.7978599 50.7497508,13.4014433 51.5491689,11.2180416 C52.3472569,8.98138609 53.5696616,7.01233047 55.1126317,5.36279706 C56.7088076,3.65734727 58.5696827,2.32600473 60.7524533,1.42202314 C62.9338937,0.516710215 65.3254973,0.0374269006 67.8261729,0.0374269006 C69.7429142,0.0374269006 72.4550831,0.250441707 74.9025528,1.31551574 C78.1999862,2.70011198 80.0608613,5.30954336 80.0608613,8.39692671 C80.0608613,10.0997138 79.476927,11.7519099 78.3596038,13.0286674 C77.135869,14.5211024 75.2749939,15.3718303 73.3582526,15.3718303 C72.0294362,15.3718303 70.8589072,14.9458007 69.9544075,14.5730248 C69.1031136,14.2535026 68.5723851,14.0937414 67.9857905,14.0937414 C65.0607981,14.0937414 65.0607981,17.2357098 65.0607981,18.2994525 C65.0607981,19.2047655 65.2204157,22.2934802 67.455062,22.2934802 C68.9967019,22.2934802 69.6365024,22.0272116 70.3268485,21.7609431 C71.0717306,21.4414209 72.1345177,21.0167227 73.5192004,21.0167227 C75.96534,21.0167227 78.0403687,22.133719 79.2641035,24.0508523 C80.1686032,25.541956 80.3282208,27.1382357 80.3282208,27.9383725 C80.3282208,29.747667 79.6365446,31.3985318 78.4128097,32.7817967 C77.5096402,33.7949484 76.2859053,34.5937539 74.849347,35.1782133 C71.9762303,36.4030484 68.943496,36.5095558 67.7197612,36.5095558 C65.114004,36.5095558 62.6665342,36.0316038 60.4332181,35.0717059 C58.2517777,34.1131392 56.3882423,32.728543 54.8466024,30.9725022" id="Fill-4" sketch:type="MSShapeGroup" data-gwd-node="true"></path>
                <path d="M98.3144632,30.2269504 C98.0484338,32.1440836 97.1439341,33.3689188 96.3990521,34.1131392 C95.1234415,35.3912281 93.3131119,36.1367799 91.3458251,36.1367799 C89.3772081,36.1367799 87.5682088,35.3912281 86.291268,34.1131392 C85.3335625,33.2091576 84.2162393,31.5063705 84.2162393,28.7891004 L84.2162393,7.70462859 C84.2162393,5.04194351 85.3335625,3.33782506 86.291268,2.43251213 C87.5682088,1.10116959 89.3772081,0.410202812 91.3458251,0.410202812 C93.3131119,0.410202812 95.1234415,1.10116959 96.3990521,2.43251213 C97.0375224,3.01963419 97.7291987,3.97820082 98.1016397,5.30954336 L99.9625148,3.28457136 C101.772844,1.26226204 103.527308,0.410202812 105.81516,0.410202812 C107.517747,0.410202812 109.219005,1.10116959 110.602357,2.32600473 C112.093452,3.65734727 112.943415,5.52122683 112.943415,7.43836008 C112.943415,9.24898594 112.145328,11.0596118 110.655563,12.6558915 L110.549152,12.7623989 L105.921572,17.3954709 L111.400445,23.3585542 C112.570974,24.636643 114.113944,26.3407615 114.113944,29.0567003 C114.113944,33.1026502 111.028004,36.1367799 106.879277,36.1367799 C105.283101,36.1367799 103.793337,35.6055742 102.409985,34.5405002 C101.506815,33.8468707 100.815139,33.0493965 100.28308,32.4103521 C100.176668,32.3570984 100.122132,32.250591 100.068927,32.1973373 L98.3144632,30.2269504" id="Fill-5" sketch:type="MSShapeGroup" data-gwd-node="true"></path>
                <path d="M23.1877831,71.8873211 C20.6339016,73.9109618 17.2287263,74.9747045 13.2928225,74.9747045 C10.7921469,74.9747045 8.02677213,74.4434988 5.89853757,73.5914396 C4.40877338,73.0056489 3.18636865,72.2600971 2.28186896,71.3561155 C0.898516496,69.9715192 0.152304252,68.2660694 0.152304252,66.4567749 C0.152304252,64.6994028 0.738898903,62.9952843 1.80301618,61.6639418 C2.54656814,60.7599602 3.39919211,60.1195844 4.40877338,59.6948862 C4.30236165,59.5883787 4.14274406,59.4818713 4.03633233,59.3753639 C1.80301618,57.3517233 0.632487175,54.6357845 0.632487175,51.2275476 C0.632487175,49.2052383 1.00492822,47.3426901 1.80301618,45.6372403 C2.54656814,44.0409606 3.66389128,42.6563643 5.10044961,41.4847829 C7.54791936,39.568981 10.8453528,38.5039069 14.4101457,38.5039069 C23.0813714,38.5039069 26.1673115,42.8693791 26.1673115,46.5958069 C26.1673115,48.4596865 25.527511,50.1638049 24.3051062,51.4418937 C23.9858711,51.8146697 23.61343,52.1341919 23.1877831,52.399129 C23.6666359,52.7199826 24.0909526,53.0927585 24.4647238,53.4642031 C26.6448341,55.5943511 27.7089514,58.4167973 27.7089514,61.8769566 C27.7089514,63.9538509 27.3378405,65.8709842 26.5384224,67.5751027 C25.7948704,69.2778898 24.6243414,70.7157397 23.1877831,71.8873211 Z" id="Fill-1" sketch:type="MSShapeGroup" data-gwd-node="true"></path>
                <path d="M59.0299134,45.9048401 C59.0299134,47.8738957 58.2837012,49.6845216 56.9016789,50.9080254 C55.677944,52.0276845 54.1349739,52.6667289 52.3273047,52.7732363 L51.2671779,52.7732363 L51.2671779,67.149073 C51.2671779,69.8650118 50.1498547,71.5677989 49.2440249,72.4731119 C47.9152084,73.7498694 46.106209,74.4967525 44.1375921,74.4967525 C42.1703053,74.4967525 40.3599757,73.7498694 39.083035,72.4731119 C38.1798654,71.5677989 37.0625423,69.8650118 37.0625423,67.149073 L37.0625423,52.7732363 L35.834817,52.7732363 C34.0271478,52.6667289 32.4309718,52.0276845 31.2604428,50.9080254 C29.8770904,49.6845216 29.1322083,47.8738957 29.1322083,45.9048401 C29.1322083,41.8029737 32.1104065,38.9818589 36.3668756,38.9818589 L51.7939159,38.9818589 C56.0490549,38.9818589 59.0299134,41.8029737 59.0299134,45.9048401" id="Fill-6" sketch:type="MSShapeGroup" data-gwd-node="true"></path>
                <path d="M73.7160621,72.4731119 C72.4404515,73.7498694 70.6301219,74.4967525 68.6628351,74.4967525 C66.6942181,74.4967525 64.8852188,73.7498694 63.608278,72.4731119 C62.6505725,71.5677989 61.5332493,69.8650118 61.5332493,67.149073 L61.5332493,46.0646012 C61.5332493,43.4019161 62.6505725,41.6977977 63.608278,40.7924848 C64.8852188,39.4624736 66.6942181,38.7688441 68.6628351,38.7688441 C70.6301219,38.7688441 72.4404515,39.4624736 73.7160621,40.7924848 C74.6737676,41.6977977 75.7910908,43.4019161 75.7910908,46.0646012 L75.7910908,67.149073 C75.7910908,69.8650118 74.6737676,71.5677989 73.7160621,72.4731119" id="Fill-7" sketch:type="MSShapeGroup" data-gwd-node="true"></path>
                <path d="M83.8265064,69.3311435 C80.9001838,66.083999 79.3053381,61.5574344 79.3053381,56.6594252 C79.3053381,54.1578325 79.7296548,51.761416 80.5290729,49.5780142 C81.3258308,47.3426901 82.5495656,45.3709718 84.0912055,43.7214383 C85.6887116,42.0173199 87.5495867,40.6859774 89.7323573,39.7806644 C91.9124676,38.8753515 94.3054013,38.3973995 96.8060769,38.3973995 C98.721488,38.3973995 101.434987,38.609083 103.881127,39.674157 C107.17989,41.0587533 109.040765,43.6681846 109.040765,46.755568 C109.040765,48.4596865 108.456831,50.1105512 107.339508,51.38864 C106.115773,52.8797437 104.254898,53.7304716 102.338157,53.7304716 C101.00934,53.7304716 99.8388112,53.304442 98.9343115,52.9329974 C98.0830176,52.6134752 97.5522892,52.4523827 96.9656945,52.4523827 C94.0407021,52.4523827 94.0407021,55.5943511 94.0407021,56.6594252 C94.0407021,57.5647381 94.2003197,60.6534528 96.434966,60.6534528 C97.9766059,60.6534528 98.6150763,60.3858529 99.3067525,60.1195844 C100.050304,59.8013936 101.114422,59.3753639 102.497774,59.3753639 C104.945244,59.3753639 107.020273,60.4936917 108.244008,62.4094936 C109.147177,63.9005972 109.306795,65.4982083 109.306795,66.2970138 C109.306795,68.1063083 108.616449,69.7571731 107.392714,71.1431007 C106.488214,72.1535896 105.264479,72.9523952 103.827921,73.5381859 C100.956134,74.7616897 97.9234001,74.8681971 96.6996652,74.8681971 C94.093908,74.8681971 91.6464382,74.3902451 89.411792,73.4316785 C87.2316817,72.4731119 85.3681463,71.0885156 83.8265064,69.3311435" id="Fill-8" sketch:type="MSShapeGroup" data-gwd-node="true"></path>
                <path d="M127.294367,68.586923 C127.028338,70.5027249 126.123838,71.72756 125.377626,72.4731119 C124.102015,73.7498694 122.293016,74.4967525 120.325729,74.4967525 C118.357112,74.4967525 116.548113,73.7498694 115.271172,72.4731119 C114.313466,71.5677989 113.196143,69.8650118 113.196143,67.149073 L113.196143,46.0646012 C113.196143,43.4019161 114.313466,41.6977977 115.271172,40.7924848 C116.548113,39.4624736 118.357112,38.7688441 120.325729,38.7688441 C122.293016,38.7688441 124.102015,39.4624736 125.377626,40.7924848 C126.017426,41.3782755 126.707773,42.3368421 127.081544,43.6681846 L128.942419,41.644544 C130.752748,39.6209033 132.507212,38.7688441 134.795064,38.7688441 C136.497652,38.7688441 138.198909,39.4624736 139.582261,40.6859774 C141.072026,42.0173199 141.923319,43.8811995 141.923319,45.7970014 C141.923319,47.6076272 141.125232,49.4182531 139.635467,51.0145328 L139.529056,51.1210402 L134.901476,55.7541122 L140.380349,61.7171955 C141.550878,62.9952843 143.093849,64.6994028 143.093849,67.4153415 C143.093849,71.4612915 140.007908,74.4967525 135.857851,74.4967525 C134.263005,74.4967525 132.773241,73.9642155 131.389889,72.8991415 C130.485389,72.2068433 129.795043,71.4080378 129.261654,70.7689934 C129.155242,70.7157397 129.102036,70.6092323 129.048831,70.5559786 L127.294367,68.586923" id="Fill-9" sketch:type="MSShapeGroup" data-gwd-node="true"></path>
                <path d="M123.837316,36.1860396 C122.843697,36.1860396 121.912594,36.0169591 121.066621,35.6787981 C120.199365,35.3180042 119.437191,34.8094314 118.823994,34.1530795 C118.210796,33.4967276 117.723962,32.6925967 117.407387,31.8032599 C117.089482,30.9352246 116.920554,29.9606818 116.920554,28.923566 C116.920554,27.9064203 117.089482,26.9332089 117.407387,26.0651736 C117.723962,25.1545353 118.210796,24.3717059 118.823994,23.7140226 C119.437191,23.0576708 120.199365,22.5490979 121.066621,22.1896354 C121.912594,21.8514744 122.843697,21.6810626 123.837316,21.6810626 C124.832266,21.6810626 125.763368,21.8514744 126.630624,22.1896354 C127.476597,22.5490979 128.238771,23.0576708 128.871921,23.7140226 C129.486449,24.3717059 129.952,25.1545353 130.289857,26.0651736 C130.58648,26.9332089 130.755409,27.9064203 130.755409,28.923566 C130.755409,29.9606818 130.58648,30.9352246 130.289857,31.8032599 C129.952,32.6925967 129.486449,33.4967276 128.871921,34.1530795 C128.238771,34.8094314 127.476597,35.3180042 126.630624,35.6787981 C125.763368,36.0169591 124.832266,36.1860396 123.837316,36.1860396" id="Fill-10" sketch:type="MSShapeGroup" data-gwd-node="true"></path>
                <path d="M140.510704,35.9956576 C139.241744,35.9956576 138.605934,35.4018788 138.099148,34.7881299 L138.099148,34.7668284 L137.674831,34.2595869 C137.527185,34.6829538 137.294409,34.9785119 137.082916,35.1901953 C136.57613,35.6987682 135.856521,35.9956576 135.073064,35.9956576 C134.290938,35.9956576 133.571329,35.6987682 133.041931,35.1901953 C132.682791,34.8307329 132.238522,34.1530795 132.238522,33.0733607 L132.238522,24.7098669 C132.238522,23.8831031 132.555097,23.1428767 133.12706,22.6130024 C133.656458,22.1470325 134.332173,21.8714446 135.073064,21.8714446 L138.035301,21.8714446 C139.515754,21.8714446 140.784714,22.3374145 141.737099,23.2267513 C142.710766,24.1160881 143.238834,25.4074904 143.238834,26.8267015 C143.238834,27.9916262 142.879695,29.0500435 142.181368,29.8754759 C142.055004,30.0458878 141.906028,30.1936668 141.737099,30.3414458 L142.435426,31.1043051 C142.879695,31.570275 143.366529,32.2479283 143.366529,33.2424412 C143.366529,33.8348886 143.133753,34.469939 142.732049,34.9572104 C142.20265,35.6348638 141.399242,35.9956576 140.510704,35.9956576" id="Fill-11" sketch:type="MSShapeGroup" data-gwd-node="true"></path>
            </g>
        </g>
    </g>
</svg>