<?xml version="1.0" encoding="utf-8"?>
<!-- Generator: Adobe Illustrator 19.0.0, SVG Export Plug-In . SVG Version: 6.00 Build 0)  -->
<svg version="1.1" id="Layer_1" xmlns:sketch="http://www.bohemiancoding.com/sketch/ns"
	 xmlns="http://www.w3.org/2000/svg" xmlns:xlink="http://www.w3.org/1999/xlink" x="0px" y="0px" viewBox="-304 57.3 233 482"
	 enable-background="new -304 57.3 233 482" xml:space="preserve">
<filter  width="200%" height="200%" filterUnits="objectBoundingBox" id="filter-3" x="-50%" y="-50%">
	<feOffset  dx="0" dy="1" result="shadowOffsetInner1" in="SourceAlpha"></feOffset>
	<feGaussianBlur  stdDeviation="0" result="shadowBlurInner1" in="shadowOffsetInner1"></feGaussianBlur>
	<feComposite  operator="arithmetic" k3="1" k2="-1" in2="SourceAlpha" result="shadowInnerInner1" in="shadowBlurInner1">
		</feComposite>
	
		<feColorMatrix  type="matrix" values="0 0 0 0 0   0 0 0 0 0   0 0 0 0 0  0 0 0 0.007 0" result="shadowMatrixInner1" in="shadowInnerInner1">
		</feColorMatrix>
	<feMerge>
		<feMergeNode  in="SourceGraphic"></feMergeNode>
		<feMergeNode  in="shadowMatrixInner1"></feMergeNode>
	</feMerge>
</filter>
<filter  width="200%" height="200%" filterUnits="objectBoundingBox" id="filter-1" x="-50%" y="-50%">
	<feOffset  dx="0" dy="1" result="shadowOffsetInner1" in="SourceAlpha"></feOffset>
	<feGaussianBlur  stdDeviation="0" result="shadowBlurInner1" in="shadowOffsetInner1"></feGaussianBlur>
	<feComposite  operator="arithmetic" k3="1" k2="-1" in2="SourceAlpha" result="shadowInnerInner1" in="shadowBlurInner1">
		</feComposite>
	
		<feColorMatrix  type="matrix" values="0 0 0 0 0   0 0 0 0 0   0 0 0 0 0  0 0 0 0.014 0" result="shadowMatrixInner1" in="shadowInnerInner1">
		</feColorMatrix>
	<feMerge>
		<feMergeNode  in="SourceGraphic"></feMergeNode>
		<feMergeNode  in="shadowMatrixInner1"></feMergeNode>
	</feMerge>
</filter>
<title>phone</title>
<desc>Created with Sketch.</desc>
<g id="Page-1" sketch:type="MSPage">
	<g id="Artboard-8" transform="translate(-476.000000, -430.000000)" sketch:type="MSArtboardGroup">
		<g id="phone" transform="translate(476.000000, 430.000000)" sketch:type="MSLayerGroup">
			<g id="iPhone">
				<g id="buttons" transform="translate(0.000000, 59.091346)" sketch:type="MSShapeGroup">
					<path id="Shape" fill="#DEDEDE" d="M-302.2,57.7L-302.2,57.7C-302.3,57.7-302.2,57.8-302.2,57.7v20.4c0-0.1-0.2,0,0,0l0,0
						c-1.4,0-1.8-0.4-1.8,0V57.7C-304,58.1-303.5,57.7-302.2,57.7L-302.2,57.7z"/>
					<path id="Shape_1_" fill="#DEDEDE" d="M-81,98.5h1.8c-0.3,0,0,0.4,0,0v37.1c0-0.4-0.3,0,0,0H-81c0.1,0,0-0.1,0,0V98.5
						C-81,98.7-80.9,98.5-81,98.5L-81,98.5z"/>
					<path id="Shape_2_" fill="#DEDEDE" d="M-304,145h1.8c-0.1,0,0,0.1,0,0v37.1c0-0.1-0.1,0,0,0h-1.8c0.3,0,0-0.4,0,0V145
						C-304,145.4-303.7,145-304,145L-304,145z"/>
					<path id="Shape_3_" fill="#DEDEDE" d="M-73.3,100.4h1.8c-0.1,0,0,0.1,0,0v37.1c0-0.1-0.1,0,0,0h-1.8c0.3,0,0-0.4,0,0V100.4
						C-73.3,100.8-73,100.4-73.3,100.4L-73.3,100.4z"/>
				</g>
				<path id="front" sketch:type="MSShapeGroup" fill="#FFFFFF" d="M-285.7,57.3h195.3c9.4,0,17.1,7.7,17.1,17.1v447.8
					c0,9.4-7.7,17.1-17.1,17.1h-195.3c-9.4,0-17.1-7.7-17.1-17.1V74.4C-302.8,64.9-295.2,57.3-285.7,57.3z"/>
				<path id="inner" sketch:type="MSShapeGroup" fill="none" stroke="#000000" stroke-width="0.5" stroke-opacity="0.1" d="
					M-284.3,58.4h192.5c8.9,0,16.2,7.3,16.2,16.2v446.1c0,8.9-7.3,16.2-16.2,16.2h-192.5c-8.9,0-16.2-7.3-16.2-16.2V74.6
					C-300.5,65.7-293.3,58.4-284.3,58.4z"/>
				<ellipse id="homeborder" sketch:type="MSShapeGroup" fill="#A7A7A7" cx="-187.5" cy="512.1" rx="18" ry="18">
				</ellipse>
				<g id="homebutton" filter="url(#filter-1)">
					<g>
						<g id="path-2_2_">
							<ellipse opacity="0.3" fill="#F4F4F4" cx="-187.5" cy="512.1" rx="16.8" ry="16.8"/>
						</g>
					</g>
				</g>
				<path id="earborder" sketch:type="MSShapeGroup" fill="#919191" d="M-205.8,83.9h35.4c1.1,0,2,0.8,2,1.7c0,1-0.9,1.7-2,1.7
					h-35.4c-1.1,0-2-0.8-2-1.7C-207.8,84.7-206.9,83.9-205.8,83.9L-205.8,83.9z"/>
				<g id="ear" sketch:type="MSShapeGroup" filter="url(#filter-3)">
					<path fill="#9A9A9A" d="M-205.8,83.9h35.4c1.1,0,2,0.8,2,1.7c0,1-0.9,1.7-2,1.7h-35.4c-1.1,0-2-0.8-2-1.7
						C-207.8,84.7-206.9,83.9-205.8,83.9L-205.8,83.9z"/>
				</g>
				<ellipse id="circle" sketch:type="MSShapeGroup" fill="#E7E8E8" cx="-225.8" cy="85.7" rx="1.7" ry="1.7">
				</ellipse>
				
					<ellipse id="circle_1_" sketch:type="MSShapeGroup" opacity="0.4" fill="#E7E8E8" enable-background="new    " cx="-188.7" cy="68.3" rx="1.7" ry="1.7">
				</ellipse>
			</g>
			<g id="Friends-_x2B_-Menu---bottom-_x2B_-Menu---Top" transform="translate(10.000000, 57.000000)">
				<g id="Mask" sketch:type="MSShapeGroup">
					<path id="path-4_1_" fill="#2ED8B1" d="M-303.4,57.3h209.8c0.3,0,0.6,0.3,0.6,0.6v371.8c0,0.3-0.3,0.6-0.6,0.6h-209.8
						c-0.3,0-0.6-0.3-0.6-0.6V57.9C-304,57.5-303.7,57.3-303.4,57.3z"/>
				</g>
				<defs>
					<filter id="Adobe_OpacityMaskFilter" filterUnits="userSpaceOnUse" x="-305.6" y="56.3" width="215" height="375.2">
						<feColorMatrix  type="matrix" values="1 0 0 0 0  0 1 0 0 0  0 0 1 0 0  0 0 0 1 0"/>
					</filter>
				</defs>
				<mask maskUnits="userSpaceOnUse" x="-305.6" y="56.3" width="215" height="375.2" id="mask-5">
					<g filter="url(#Adobe_OpacityMaskFilter)">
						<path id="path-4" fill="#FFFFFF" d="M-303.4,57.3h209.8c0.3,0,0.6,0.3,0.6,0.6v371.8c0,0.3-0.3,0.6-0.6,0.6h-209.8
							c-0.3,0-0.6-0.3-0.6-0.6V57.9C-304,57.5-303.7,57.3-303.4,57.3z"/>
					</g>
				</mask>
				<g mask="url(#mask-5)">
					<g transform="translate(-2.318681, -1.158385)">
						<g id="Menu---bottom-Copy" transform="translate(0.000000, 345.830604)">
							
								<g id="backspace" transform="translate(35.931671, 16.058441) rotate(90.000000) translate(-35.931671, -16.058441) translate(21.439913, -19.272305)" sketch:type="MSShapeGroup">
								<path id="base-copy-5" fill="#4D73FF" d="M57.4,374.6V304h27.8v70.6H57.4L57.4,374.6z"/>
								<path id="Shape_4_" fill="#FFFFFF" d="M70.7,332.7c-0.4,0-0.7,0.2-0.9,0.6l-5.8,5.5l5.8,5.5c0.2,0.3,0.5,0.6,0.9,0.6h6.1
									c0.6,0,1.2-0.6,1.2-1.4v-9.5c0-0.7-0.5-1.4-1.2-1.4H70.7z"/>
							</g>
							<g id="textsms" transform="translate(143.722019, 0.676978)" sketch:type="MSShapeGroup">
								<rect id="base-copy-4" x="-304" y="58.3" fill="#FFFFFF" width="70.9" height="27.8"/>
								<path id="Shape_5_" fill="#4D73FF" d="M-268.3,67.5h-9.8c-0.7,0-1.2,0.6-1.2,1.2V80l2.4-2.5h8.6c0.7,0,1.2-0.6,1.2-1.2v-7.5
									C-267,68.1-267.6,67.5-268.3,67.5L-268.3,67.5z M-275,73.1h-1.2v-1.2h1.2V73.1L-275,73.1z M-272.5,73.1h-1.2v-1.2h1.2V73.1
									L-272.5,73.1z M-270.1,73.1h-1.2v-1.2h1.2V73.1L-270.1,73.1z"/>
								<path id="Shape-Copy-3" fill="#FFFFFF" d="M-260.3,64.9h-9.8c-0.7,0-1.2,0.6-1.2,1.2v11.2l2.4-2.5h8.6
									c0.7,0,1.2-0.6,1.2-1.2v-7.5C-259,65.5-259.6,64.9-260.3,64.9L-260.3,64.9z M-267,70.5h-1.2v-1.2h1.2V70.5L-267,70.5z
									 M-264.5,70.5h-1.2v-1.2h1.2V70.5L-264.5,70.5z M-262.1,70.5h-1.2v-1.2h1.2V70.5L-262.1,70.5z"/>
								<path id="Shape-Copy-3_1_" fill="#4D73FF" d="M-259.1,63.7h-9.8c-0.7,0-1.2,0.6-1.2,1.2v11.2l2.4-2.5h8.6
									c0.7,0,1.2-0.6,1.2-1.2V65C-257.9,64.3-258.4,63.7-259.1,63.7L-259.1,63.7z M-265.8,69.4h-1.2v-1.2h1.2V69.4L-265.8,69.4z
									 M-263.4,69.4h-1.2v-1.2h1.2V69.4L-263.4,69.4z M-260.9,69.4h-1.2v-1.2h1.2V69.4L-260.9,69.4z"/>
							</g>
							<rect id="base-copy-5_1_" x="-231.8" y="59" sketch:type="MSShapeGroup" fill="#4D73FF" width="70.9" height="27.8">
							</rect>
							<g id="textsms-copy" transform="translate(99.602702, 5.114947)" sketch:type="MSShapeGroup">
								<path id="Shape_6_" fill="#FFFFFF" d="M-292.4,61.8h-10.3c-0.7,0-1.3,0.6-1.3,1.3v11.6l2.6-2.6h9c0.7,0,1.3-0.6,1.3-1.3
									v-7.7C-291.1,62.4-291.7,61.8-292.4,61.8z M-297.2,67.1c0.9-0.2,1.5-0.8,1.5-1.7c0-0.9-0.8-1.6-1.9-1.6
									c-0.8,0-1.7,0.6-1.7,1.3c0,0.2,0.2,0.4,0.4,0.4c0.2,0,0.3-0.1,0.3-0.3c0.2-0.6,0.6-0.7,1-0.7c0.6,0,1,0.4,1,1
									c0,0.3-0.1,0.8-0.8,0.9c-0.6,0.1-0.6,0.2-0.6,0.6v1c0,0.3,0.1,0.4,0.4,0.4c0.2,0,0.4-0.2,0.4-0.4V67.1z M-298.1,69.6
									c0,0.2,0.2,0.4,0.4,0.4c0.2,0,0.4-0.2,0.4-0.4s-0.2-0.4-0.4-0.4C-297.9,69.2-298.1,69.4-298.1,69.6z"/>
								<ellipse id="Oval-6-Copy" fill="#FF4D6B" cx="-289.8" cy="62.4" rx="5.2" ry="5.2"/>
								<path id="_x33_4-" fill="#FFFFFF" d="M-287.7,63.7c0-0.6-0.3-1.2-1-1.4c0.4-0.3,0.7-0.7,0.7-1.2c0-0.8-0.6-1.5-1.5-1.5
									c-0.9,0-1.5,0.7-1.5,1.4c0,0.2,0.1,0.3,0.3,0.3c0.1,0,0.3,0,0.3-0.3c0-0.4,0.2-0.8,0.8-0.8c0.5,0,0.8,0.4,0.8,0.9
									c0,0.5-0.2,0.8-0.8,0.9c-0.3,0.1-0.4,0.1-0.4,0.3c0,0.2,0.2,0.3,0.4,0.3c0.5,0,1,0.2,1,1.1c0,0.6-0.4,1.1-1.1,1.1
									c-0.5,0-0.8-0.3-1-0.7c-0.1-0.2-0.2-0.4-0.4-0.4c-0.2,0-0.3,0.1-0.3,0.4c0,0.4,0.5,1.3,1.7,1.3
									C-288.5,65.4-287.7,64.8-287.7,63.7L-287.7,63.7z"/>
							</g>
						</g>
						<g id="Menu---Top" transform="translate(2.216387, 0.150953)">
							<rect id="base-copy-2" x="-304" y="57.3" sketch:type="MSShapeGroup" fill="#4D73FF" width="213.4" height="31">
							</rect>
							<g id="textsms-copy_1_" transform="translate(187.756238, 8.207382)" sketch:type="MSShapeGroup">
								<path id="Shape_7_" fill="#FFFFFF" d="M-292.2,61.8h-10.5c-0.7,0-1.3,0.6-1.3,1.3v11.6l2.6-2.6h9.2c0.7,0,1.3-0.6,1.3-1.3
									v-7.8C-290.9,62.4-291.5,61.8-292.2,61.8z M-297.1,67.1c0.9-0.2,1.5-0.8,1.5-1.7c0-0.9-0.8-1.6-1.9-1.6
									c-0.8,0-1.7,0.6-1.7,1.3c0,0.2,0.2,0.4,0.4,0.4c0.2,0,0.3-0.1,0.3-0.3c0.2-0.6,0.6-0.7,1-0.7c0.6,0,1,0.4,1,1
									c0,0.3-0.1,0.8-0.8,1c-0.6,0.1-0.6,0.2-0.6,0.6v1c0,0.3,0.2,0.4,0.4,0.4c0.2,0,0.4-0.2,0.4-0.4V67.1z M-297.9,69.7
									c0,0.2,0.2,0.4,0.5,0.4c0.3,0,0.5-0.2,0.5-0.4c0-0.2-0.2-0.4-0.5-0.4C-297.7,69.2-297.9,69.4-297.9,69.7z"/>
								<ellipse id="Oval-6-Copy_1_" fill="#FF4D6B" cx="-289.6" cy="62.5" rx="5.3" ry="5.2"/>
								<path id="_x33_4-_1_" fill="#FFFFFF" d="M-288.4,63.4c0-0.6-0.3-1.2-1-1.4c0.4-0.3,0.7-0.7,0.7-1.2c0-0.8-0.6-1.5-1.5-1.5
									c-0.9,0-1.5,0.7-1.5,1.4c0,0.2,0.1,0.3,0.3,0.3c0.1,0,0.3,0,0.3-0.3c0-0.4,0.2-0.8,0.8-0.8c0.5,0,0.8,0.4,0.8,0.9
									c0,0.5-0.2,0.8-0.8,0.9c-0.3,0.1-0.4,0.1-0.4,0.3c0,0.2,0.2,0.3,0.4,0.3c0.5,0,1,0.2,1,1.1c0,0.6-0.4,1.1-1.1,1.1
									c-0.5,0-0.8-0.3-1-0.7c-0.1-0.2-0.2-0.4-0.4-0.4c-0.2,0-0.3,0.1-0.3,0.4c0,0.4,0.5,1.3,1.7,1.3
									C-289.2,65.1-288.4,64.5-288.4,63.4L-288.4,63.4z"/>
							</g>
							<path id="VRIENDEN" sketch:type="MSShapeGroup" fill="#FFFFFF" d="M-218.7,78.1c0.1,0.3,0.3,0.5,0.7,0.5
								c0.4,0,0.6-0.2,0.7-0.5l2-5.2c0-0.1,0.1-0.2,0.1-0.3c0-0.4-0.3-0.7-0.7-0.7c-0.3,0-0.5,0.2-0.6,0.5l-1.4,3.9l-1.4-3.9
								c-0.1-0.3-0.3-0.5-0.6-0.5c-0.4,0-0.7,0.3-0.7,0.7c0,0.1,0,0.2,0.1,0.3L-218.7,78.1z M-214,77.9c0,0.5,0.3,0.7,0.7,0.7
								s0.7-0.3,0.7-0.7v-2h0l2.1,2.5c0.1,0.2,0.4,0.2,0.5,0.2c0.4,0,0.7-0.4,0.7-0.7c0-0.1-0.1-0.3-0.2-0.4l-1.6-1.7
								c0.9-0.1,1.7-0.7,1.7-1.8c0-1.5-0.9-2.1-2.3-2.1h-1.6c-0.5,0-0.7,0.3-0.7,0.7V77.9z M-212.6,73.2h1c0.5,0,0.9,0.3,0.9,0.8
								c0,0.5-0.4,0.8-0.9,0.8h-1V73.2z M-208,77.9c0,0.5,0.3,0.7,0.7,0.7s0.7-0.3,0.7-0.7v-5.3c0-0.5-0.3-0.7-0.7-0.7
								s-0.7,0.3-0.7,0.7V77.9z M-205,77.9c0,0.4,0.3,0.7,0.7,0.7h2.4c0.4,0,0.7-0.3,0.7-0.6c0-0.3-0.2-0.6-0.7-0.6h-1.7v-1.4h1.5
								c0.4,0,0.7-0.3,0.7-0.6c0-0.3-0.2-0.6-0.7-0.6h-1.5v-1.4h1.6c0.4,0,0.7-0.3,0.7-0.6c0-0.3-0.2-0.6-0.7-0.6h-2.3
								c-0.5,0-0.7,0.3-0.7,0.8V77.9z M-199.9,77.9c0,0.5,0.3,0.7,0.7,0.7c0.4,0,0.7-0.3,0.7-0.7v-3.5h0l3,3.9
								c0.1,0.2,0.4,0.3,0.6,0.3c0.4,0,0.7-0.3,0.7-0.7v-5.3c0-0.5-0.3-0.7-0.7-0.7c-0.4,0-0.7,0.3-0.7,0.7v3.5h0l-3-3.9
								c-0.1-0.2-0.4-0.3-0.6-0.3c-0.4,0-0.7,0.3-0.7,0.7V77.9z M-192.7,77.9c0,0.5,0.4,0.7,0.7,0.7h1.6c1.9,0,3.2-1.3,3.2-3.2
								c0-2.1-1.2-3.4-3.3-3.4h-1.5c-0.4,0-0.7,0.3-0.7,0.7V77.9z M-191.3,73.2h0.8c1.3,0,1.8,0.9,1.8,2.1c0,1.1-0.5,2-1.8,2h-0.9
								V73.2z M-185.7,77.9c0,0.4,0.3,0.7,0.7,0.7h2.4c0.4,0,0.7-0.3,0.7-0.6c0-0.3-0.2-0.6-0.7-0.6h-1.7v-1.4h1.5
								c0.4,0,0.7-0.3,0.7-0.6c0-0.3-0.2-0.6-0.7-0.6h-1.5v-1.4h1.6c0.4,0,0.7-0.3,0.7-0.6c0-0.3-0.2-0.6-0.7-0.6h-2.3
								c-0.5,0-0.7,0.3-0.7,0.8V77.9z M-180.6,77.9c0,0.5,0.3,0.7,0.7,0.7c0.4,0,0.7-0.3,0.7-0.7v-3.5h0l3,3.9
								c0.1,0.2,0.4,0.3,0.6,0.3c0.4,0,0.7-0.3,0.7-0.7v-5.3c0-0.5-0.3-0.7-0.7-0.7c-0.4,0-0.7,0.3-0.7,0.7v3.5h0l-3-3.9
								c-0.1-0.2-0.4-0.3-0.6-0.3c-0.4,0-0.7,0.3-0.7,0.7V77.9z"/>
						</g>
					</g>
				</g>
			</g>
		</g>
	</g>
</g>
</svg>
