<?xml version="1.0" encoding="utf-8"?>
<!-- Generator: Adobe Illustrator 19.0.0, SVG Export Plug-In . SVG Version: 6.00 Build 0)  -->
<svg version="1.1" id="Layer_1" xmlns:sketch="http://www.bohemiancoding.com/sketch/ns"
	 xmlns="http://www.w3.org/2000/svg" xmlns:xlink="http://www.w3.org/1999/xlink" x="0px" y="0px" viewBox="-319 219.3 203 157"
	 enable-background="new -319 219.3 203 157" xml:space="preserve">
<title>Friends</title>
<desc>Created with Sketch.</desc>
<g id="Page-1" sketch:type="MSPage">
	<g id="Artboard-8" transform="translate(-249.000000, -554.000000)" sketch:type="MSArtboardGroup">
		<g id="Friends" transform="translate(249.000000, 553.000000)" sketch:type="MSLayerGroup">
			<g id="Frederi" transform="translate(0.000000, 0.654866)" sketch:type="MSShapeGroup">
				<ellipse id="Oval-6" fill="#FF4D6B" cx="-124" cy="229.3" rx="7.3" ry="7.3"/>
				<path id="_x33_4" fill="#FFFFFF" d="M-124.6,230.7c0-0.6-0.3-1.1-0.9-1.3c0.4-0.2,0.6-0.7,0.6-1.1c0-0.7-0.5-1.3-1.3-1.3
					c-0.9,0-1.4,0.6-1.4,1.3c0,0.2,0.1,0.3,0.3,0.3c0.1,0,0.3,0,0.3-0.3c0-0.4,0.2-0.8,0.7-0.8c0.4,0,0.7,0.3,0.7,0.8
					c0,0.5-0.2,0.7-0.7,0.8c-0.2,0.1-0.3,0.1-0.3,0.3c0,0.2,0.1,0.3,0.4,0.3c0.5,0,0.9,0.2,0.9,1c0,0.5-0.4,1-1,1
					c-0.5,0-0.7-0.3-0.9-0.7c-0.1-0.2-0.2-0.3-0.4-0.3c-0.2,0-0.3,0.1-0.3,0.4c0,0.4,0.4,1.2,1.5,1.2
					C-125.3,232.3-124.6,231.7-124.6,230.7L-124.6,230.7z M-121.7,230.9v1c0,0.2,0.1,0.3,0.3,0.3c0.2,0,0.3-0.1,0.3-0.3v-1h0.3
					c0.2,0,0.3-0.1,0.3-0.3c0-0.2-0.1-0.3-0.3-0.3h-0.3v-2.8c0-0.4-0.2-0.5-0.5-0.5c-0.2,0-0.4,0.1-0.5,0.3l-1.8,3
					c-0.1,0.2-0.2,0.3-0.2,0.4c0,0.1,0.1,0.2,0.3,0.2H-121.7z M-123.2,230.4l1.5-2.7h0v2.7H-123.2z"/>
				<path id="Frederique" fill="#FFFFFF" d="M-288.2,228.5h2c0.3,0,0.5-0.1,0.5-0.4c0-0.3-0.2-0.4-0.5-0.4h-2v-2.5h2.2
					c0.3,0,0.5-0.1,0.5-0.4s-0.2-0.4-0.5-0.4h-2.7c-0.4,0-0.5,0.2-0.5,0.5v6.6c0,0.3,0.2,0.5,0.5,0.5c0.3,0,0.5-0.2,0.5-0.5V228.5z
					 M-283.8,231.4c0,0.3,0.2,0.5,0.5,0.5c0.3,0,0.5-0.2,0.5-0.5v-2.7c0-1.1,0.7-1.5,1.2-1.6c0.4-0.1,0.6-0.2,0.6-0.5
					s-0.2-0.5-0.5-0.5c-0.5,0-1.1,0.5-1.3,1h0v-0.5c0-0.3-0.2-0.5-0.5-0.5c-0.3,0-0.5,0.2-0.5,0.5V231.4z M-275.3,229.4
					c0.4,0,0.5-0.2,0.5-0.5c0-1.4-0.9-2.8-2.4-2.8c-1.6,0-2.5,1.4-2.5,2.9c0,1.5,0.8,2.9,2.6,2.9c1.1,0,2.3-0.7,2.3-1.2
					c0-0.3-0.2-0.4-0.3-0.4c-0.4,0-0.7,0.8-1.9,0.8c-1.1,0-1.7-0.8-1.7-1.7H-275.3z M-278.8,228.7c0-0.9,0.4-1.8,1.6-1.7
					c1,0,1.5,0.9,1.5,1.7H-278.8z M-269,229.1c0,1-0.4,2.1-1.6,2.1s-1.6-1.1-1.6-2.1c0-1,0.4-2.1,1.6-2.1S-269,228.1-269,229.1
					L-269,229.1z M-269.1,231.4c0,0.3,0.2,0.5,0.5,0.5c0.3,0,0.5-0.2,0.5-0.5v-7.3c0-0.3-0.2-0.5-0.5-0.5c-0.3,0-0.5,0.2-0.5,0.5
					v2.8h0c-0.2-0.4-0.8-0.8-1.5-0.8c-1.5,0-2.4,1.4-2.4,2.9c0,1.5,0.9,2.9,2.4,2.9c0.7,0,1.2-0.3,1.5-0.8h0V231.4z M-261.7,229.4
					c0.4,0,0.5-0.2,0.5-0.5c0-1.4-0.9-2.8-2.4-2.8c-1.6,0-2.5,1.4-2.5,2.9c0,1.5,0.8,2.9,2.6,2.9c1.1,0,2.3-0.7,2.3-1.2
					c0-0.3-0.2-0.4-0.3-0.4c-0.4,0-0.7,0.8-1.9,0.8c-1.1,0-1.7-0.8-1.7-1.7H-261.7z M-265.2,228.7c0-0.9,0.4-1.8,1.6-1.7
					c1,0,1.5,0.9,1.5,1.7H-265.2z M-259.3,231.4c0,0.3,0.2,0.5,0.5,0.5c0.3,0,0.5-0.2,0.5-0.5v-2.7c0-1.1,0.7-1.5,1.2-1.6
					c0.4-0.1,0.6-0.2,0.6-0.5s-0.2-0.5-0.5-0.5c-0.5,0-1.1,0.5-1.3,1h0v-0.5c0-0.3-0.2-0.5-0.5-0.5c-0.3,0-0.5,0.2-0.5,0.5V231.4z
					 M-253.9,226.7c0-0.3-0.2-0.5-0.5-0.5s-0.5,0.2-0.5,0.5v4.8c0,0.3,0.2,0.5,0.5,0.5s0.5-0.2,0.5-0.5V226.7z M-255,224.8
					c0,0.3,0.3,0.6,0.6,0.6c0.3,0,0.6-0.3,0.6-0.6s-0.3-0.6-0.6-0.6C-254.7,224.3-255,224.5-255,224.8L-255,224.8z M-247.8,229.1
					c0,1-0.4,2.1-1.6,2.1s-1.6-1.1-1.6-2.1c0-1,0.4-2.1,1.6-2.1S-247.8,228.1-247.8,229.1L-247.8,229.1z M-251.9,229.1
					c0,1.5,0.9,2.9,2.4,2.9c0.7,0,1.3-0.4,1.5-0.8h0v2.5c0,0.3,0.2,0.5,0.5,0.5s0.5-0.2,0.5-0.5v-7c0-0.3-0.2-0.5-0.5-0.5
					s-0.5,0.2-0.5,0.5v0.3h0c-0.3-0.5-0.8-0.8-1.5-0.8C-251,226.2-251.9,227.6-251.9,229.1L-251.9,229.1z M-244.7,229.7
					c0,1.7,1.1,2.3,2.2,2.3c1.1,0,2.2-0.6,2.2-2.3v-3c0-0.3-0.2-0.5-0.5-0.5c-0.3,0-0.5,0.2-0.5,0.5v3c0,1-0.4,1.5-1.3,1.5
					c-0.9,0-1.3-0.5-1.3-1.5v-3c0-0.3-0.2-0.5-0.5-0.5c-0.3,0-0.5,0.2-0.5,0.5V229.7z M-233.8,229.4c0.4,0,0.5-0.2,0.5-0.5
					c0-1.4-0.9-2.8-2.4-2.8c-1.6,0-2.5,1.4-2.5,2.9c0,1.5,0.8,2.9,2.6,2.9c1.1,0,2.3-0.7,2.3-1.2c0-0.3-0.2-0.4-0.3-0.4
					c-0.4,0-0.7,0.8-1.9,0.8c-1.1,0-1.7-0.8-1.7-1.7H-233.8z M-237.3,228.7c0-0.9,0.4-1.8,1.6-1.7c1,0,1.5,0.9,1.5,1.7H-237.3z"/>
				<g id="account-circle" transform="translate(1.153409, 0.339585)">
					<path id="Shape" fill-opacity="0.1473" d="M-309.9,219.3c-5,0-9.1,4.1-9.1,9.1c0,5,4.1,9.1,9.1,9.1s9.1-4.1,9.1-9.1
						C-300.7,223.4-304.8,219.3-309.9,219.3L-309.9,219.3z M-309.9,222c1.6,0,2.7,1.2,2.7,2.7c0,1.6-1.2,2.7-2.7,2.7
						s-2.7-1.2-2.7-2.7C-312.6,223.2-311.4,222-309.9,222L-309.9,222z M-309.9,235c-2.3,0-4.3-1.2-5.5-2.9c0-1.8,3.7-2.8,5.5-2.8
						s5.5,1,5.5,2.8C-305.6,233.8-307.6,235-309.9,235L-309.9,235z"/>
				</g>
				<rect id="base-copy" x="-319" y="244.2" fill-opacity="0.1485" width="203" height="1.2"/>
			</g>
			<g id="Jaimy" transform="translate(0.000000, 34.426266)" sketch:type="MSShapeGroup">
				<path fill="#FFFFFF" d="M-287.4,229.3c0,0.6-0.2,1.1-0.8,1.1c-0.8,0-0.8-0.4-1.3-0.4c-0.2,0-0.4,0.2-0.4,0.4
					c0,0.6,1.1,0.9,1.6,0.9c1.3,0,1.8-0.8,1.8-2V224c0-0.3-0.2-0.5-0.5-0.5c-0.3,0-0.5,0.2-0.5,0.5V229.3z M-279.5,225.8
					c0-0.3-0.3-0.5-0.4-0.5c-0.2,0-0.4,0.1-0.4,0.5v0.3h0c-0.4-0.5-0.9-0.8-1.5-0.8c-1.6,0-2.5,1.4-2.5,2.9s0.9,2.9,2.5,2.9
					c0.6,0,1.1-0.3,1.5-0.9h0v0.4c0,0.3,0.2,0.5,0.4,0.5c0.2,0,0.4-0.1,0.4-0.5V225.8z M-283.5,228.3c0-1,0.4-2.1,1.6-2.1
					s1.6,1.1,1.6,2.1s-0.4,2.1-1.6,2.1S-283.5,229.2-283.5,228.3L-283.5,228.3z M-276.3,225.9c0-0.3-0.2-0.5-0.5-0.5
					s-0.5,0.2-0.5,0.5v4.8c0,0.3,0.2,0.5,0.5,0.5s0.5-0.2,0.5-0.5V225.9z M-277.3,224c0,0.3,0.3,0.6,0.6,0.6s0.6-0.3,0.6-0.6
					s-0.3-0.6-0.6-0.6S-277.3,223.7-277.3,224L-277.3,224z M-270.6,230.7c0,0.3,0.2,0.5,0.5,0.5c0.3,0,0.5-0.2,0.5-0.5v-3.2
					c0-0.8,0.4-1.3,1.2-1.3c0.8,0,1.2,0.5,1.2,1.3v3.2c0,0.3,0.2,0.5,0.5,0.5s0.5-0.2,0.5-0.5v-3.1c0-1.6-1.1-2.1-2-2.1
					c-0.8,0-1.3,0.4-1.7,1c-0.4-0.7-1-1-1.6-1c-0.9,0-1.2,0.4-1.4,0.7l0,0v-0.2c0-0.3-0.2-0.5-0.5-0.5c-0.3,0-0.5,0.2-0.5,0.5v4.8
					c0,0.3,0.2,0.5,0.5,0.5c0.3,0,0.5-0.2,0.5-0.5v-3.2c0-0.8,0.4-1.3,1.2-1.3c0.8,0,1.2,0.5,1.2,1.3V230.7z M-262.8,230.9l-0.6,1.6
					c-0.1,0.3-0.1,0.4-0.1,0.5c0,0.2,0.2,0.4,0.4,0.4c0.2,0,0.4-0.1,0.5-0.4l2.4-6.7c0.1-0.3,0.1-0.4,0.1-0.5c0-0.2-0.2-0.4-0.4-0.4
					c-0.2,0-0.4,0.1-0.4,0.4l-1.3,3.9h0l-1.3-3.9c-0.1-0.2-0.2-0.4-0.5-0.4c-0.2,0-0.4,0.2-0.4,0.4c0,0.1,0,0.2,0.1,0.5
					L-262.8,230.9z"/>
				<g id="account-circle_1_" transform="translate(1.153409, 0.013441)">
					<path id="Shape_1_" fill-opacity="0.1473" d="M-309.9,219.3c-5,0-9.1,4.1-9.1,9.1c0,5,4.1,9.1,9.1,9.1s9.1-4.1,9.1-9.1
						C-300.7,223.4-304.8,219.3-309.9,219.3L-309.9,219.3z M-309.9,222c1.6,0,2.7,1.2,2.7,2.7c0,1.6-1.2,2.7-2.7,2.7
						s-2.7-1.2-2.7-2.7C-312.6,223.2-311.4,222-309.9,222L-309.9,222z M-309.9,235c-2.3,0-4.3-1.2-5.5-2.9c0-1.8,3.7-2.8,5.5-2.8
						s5.5,1,5.5,2.8C-305.6,233.8-307.6,235-309.9,235L-309.9,235z"/>
				</g>
				<rect id="base-copy_1_" x="-319" y="243.9" fill-opacity="0.1485" width="203" height="1.2"/>
			</g>
			<g id="JAnaise" transform="translate(0.000000, 65.891096)" sketch:type="MSShapeGroup">
				<path fill="#FFFFFF" d="M-287.4,230.8c0,0.6-0.2,1.1-0.8,1.1c-0.8,0-0.8-0.4-1.3-0.4c-0.2,0-0.4,0.2-0.4,0.4
					c0,0.6,1.1,0.9,1.6,0.9c1.3,0,1.8-0.8,1.8-2v-5.2c0-0.3-0.2-0.5-0.5-0.5c-0.3,0-0.5,0.2-0.5,0.5V230.8z M-283.3,231h3.5l0.5,1.4
					c0.1,0.2,0.2,0.4,0.5,0.4c0.2,0,0.4-0.1,0.4-0.4c0-0.1-0.1-0.4-0.1-0.5l-2.3-6.3c-0.1-0.3-0.3-0.6-0.7-0.6s-0.6,0.2-0.7,0.6
					l-2.3,6.3c0,0.1-0.1,0.3-0.1,0.5c0,0.2,0.2,0.4,0.4,0.4c0.3,0,0.4-0.1,0.5-0.4L-283.3,231z M-280.1,230.2h-2.9l1.5-4.1h0
					L-280.1,230.2z M-276.6,232.2c0,0.3,0.2,0.5,0.5,0.5c0.3,0,0.5-0.2,0.5-0.5v-3.1c0-1,0.7-1.4,1.3-1.4c0.6,0,1.3,0.4,1.3,1.4v3.1
					c0,0.3,0.2,0.5,0.5,0.5c0.3,0,0.5-0.2,0.5-0.5v-3.1c0-1.6-1.1-2.1-2-2.1c-0.6,0-1.1,0.2-1.6,0.7l0,0v-0.2c0-0.3-0.2-0.5-0.5-0.5
					c-0.3,0-0.5,0.2-0.5,0.5V232.2z M-265.2,227.4c0-0.3-0.3-0.5-0.4-0.5c-0.2,0-0.4,0.1-0.4,0.5v0.3h0c-0.4-0.5-0.9-0.8-1.5-0.8
					c-1.6,0-2.5,1.4-2.5,2.9s0.9,2.9,2.5,2.9c0.6,0,1.1-0.3,1.5-0.9h0v0.4c0,0.3,0.2,0.5,0.4,0.5c0.2,0,0.4-0.1,0.4-0.5V227.4z
					 M-269.2,229.8c0-1,0.4-2.1,1.6-2.1s1.6,1.1,1.6,2.1s-0.4,2.1-1.6,2.1S-269.2,230.8-269.2,229.8L-269.2,229.8z M-261.9,227.4
					c0-0.3-0.2-0.5-0.5-0.5c-0.3,0-0.5,0.2-0.5,0.5v4.8c0,0.3,0.2,0.5,0.5,0.5c0.3,0,0.5-0.2,0.5-0.5V227.4z M-263,225.6
					c0,0.3,0.3,0.6,0.6,0.6c0.3,0,0.6-0.3,0.6-0.6s-0.3-0.6-0.6-0.6C-262.7,225-263,225.3-263,225.6L-263,225.6z M-259.8,228.5
					c0,1.6,3,1.5,3,2.6c0,0.4-0.4,0.8-1.1,0.8c-1,0-1.4-0.7-1.8-0.7c-0.2,0-0.4,0.2-0.4,0.4c0,0.5,0.9,1.1,2.1,1.1
					c1.1,0,2.1-0.6,2.1-1.7c0-1.6-3-1.5-3-2.5c0-0.5,0.5-0.7,1-0.7c0.9,0,1.1,0.6,1.5,0.6c0.3,0,0.4-0.2,0.4-0.4c0-0.6-1.1-1-1.9-1
					C-258.8,226.9-259.8,227.5-259.8,228.5L-259.8,228.5z M-249.8,230.2c0.4,0,0.5-0.2,0.5-0.5c0-1.4-0.9-2.8-2.4-2.8
					c-1.6,0-2.5,1.4-2.5,2.9c0,1.5,0.8,2.9,2.6,2.9c1.1,0,2.3-0.7,2.3-1.2c0-0.3-0.2-0.4-0.3-0.4c-0.4,0-0.7,0.8-1.9,0.8
					c-1.1,0-1.7-0.8-1.7-1.7H-249.8z M-253.3,229.5c0-0.9,0.4-1.8,1.6-1.7c1,0,1.5,0.9,1.5,1.7H-253.3z"/>
				<g id="account-circle_2_" transform="translate(1.153409, 0.840581)">
					<path id="Shape_2_" fill-opacity="0.1473" d="M-309.9,219.3c-5,0-9.1,4.1-9.1,9.1c0,5,4.1,9.1,9.1,9.1s9.1-4.1,9.1-9.1
						C-300.7,223.4-304.8,219.3-309.9,219.3L-309.9,219.3z M-309.9,222c1.6,0,2.7,1.2,2.7,2.7c0,1.6-1.2,2.7-2.7,2.7
						s-2.7-1.2-2.7-2.7C-312.6,223.2-311.4,222-309.9,222L-309.9,222z M-309.9,235c-2.3,0-4.3-1.2-5.5-2.9c0-1.8,3.7-2.8,5.5-2.8
						s5.5,1,5.5,2.8C-305.6,233.8-307.6,235-309.9,235L-309.9,235z"/>
				</g>
				<rect id="base-copy_2_" x="-319" y="244.7" fill-opacity="0.1485" width="203" height="1.2"/>
			</g>
			<g id="Robert" transform="translate(0.000000, 98.997411)" sketch:type="MSShapeGroup">
				<path id="R0bert" fill="#FFFFFF" d="M-288.2,228.5l2.9,3.2c0.1,0.1,0.2,0.2,0.4,0.2c0.2,0,0.4-0.2,0.4-0.4
					c0-0.2-0.1-0.3-0.2-0.4l-2.4-2.6l0.4,0c1.1,0,2.1-0.6,2.1-2.1c0-1.2-1.1-2-2.3-2h-1.7c-0.4,0-0.5,0.2-0.5,0.5v6.6
					c0,0.3,0.2,0.5,0.5,0.5c0.3,0,0.5-0.2,0.5-0.5V228.5z M-288.2,225h1.3c0.9,0,1.4,0.6,1.4,1.3c0,1-0.4,1.4-1.4,1.4h-1.3V225z
					 M-282.9,228c0,2.4,1.1,3.8,2.5,3.8c1.4,0,2.5-1.4,2.5-3.8s-1.1-3.8-2.5-3.8C-281.8,224.1-282.9,225.5-282.9,228L-282.9,228z
					 M-281.9,228c0-2.1,0.7-3,1.5-3s1.5,0.9,1.5,3s-0.7,3-1.5,3S-281.9,230.1-281.9,228L-281.9,228z M-275,228.9
					c0-1,0.4-2.1,1.6-2.1s1.6,1.1,1.6,2.1s-0.4,2.1-1.6,2.1S-275,229.9-275,228.9L-275,228.9z M-275.8,231.3c0,0.3,0.2,0.5,0.5,0.5
					c0.3,0,0.5-0.2,0.5-0.5v-0.3h0c0.3,0.5,0.8,0.8,1.5,0.8c1.5,0,2.4-1.4,2.4-2.9s-0.9-2.9-2.4-2.9c-0.7,0-1.3,0.4-1.5,0.8h0v-2.8
					c0-0.3-0.2-0.5-0.5-0.5c-0.3,0-0.5,0.2-0.5,0.5V231.3z M-264.8,229.3c0.4,0,0.5-0.2,0.5-0.5c0-1.4-0.9-2.8-2.4-2.8
					c-1.6,0-2.5,1.4-2.5,2.9c0,1.5,0.8,2.9,2.6,2.9c1.1,0,2.3-0.7,2.3-1.2c0-0.3-0.2-0.4-0.3-0.4c-0.4,0-0.7,0.8-1.9,0.8
					c-1.1,0-1.7-0.8-1.7-1.7H-264.8z M-268.3,228.6c0-0.9,0.4-1.8,1.6-1.7c1,0,1.5,0.9,1.5,1.7H-268.3z M-262.3,231.3
					c0,0.3,0.2,0.5,0.5,0.5c0.3,0,0.5-0.2,0.5-0.5v-2.7c0-1.1,0.7-1.5,1.2-1.6c0.4-0.1,0.6-0.2,0.6-0.5c0-0.3-0.2-0.5-0.5-0.5
					c-0.5,0-1.1,0.5-1.3,1h0v-0.5c0-0.3-0.2-0.5-0.5-0.5c-0.3,0-0.5,0.2-0.5,0.5V231.3z M-257.6,226.1h-0.4c-0.3,0-0.5,0.1-0.5,0.4
					s0.2,0.4,0.5,0.4h0.4v4.4c0,0.3,0.2,0.5,0.5,0.5c0.3,0,0.5-0.2,0.5-0.5v-4.4h0.4c0.3,0,0.5-0.1,0.5-0.4s-0.2-0.4-0.5-0.4h-0.4
					v-1.2c0-0.3-0.2-0.5-0.5-0.5c-0.3,0-0.5,0.2-0.5,0.5V226.1z"/>
				<g id="account-circle_3_" transform="translate(1.153409, 0.026237)">
					<path id="Shape_3_" fill-opacity="0.1473" d="M-309.9,219.3c-5,0-9.1,4.1-9.1,9.1c0,5,4.1,9.1,9.1,9.1s9.1-4.1,9.1-9.1
						C-300.7,223.4-304.8,219.3-309.9,219.3L-309.9,219.3z M-309.9,222c1.6,0,2.7,1.2,2.7,2.7c0,1.6-1.2,2.7-2.7,2.7
						s-2.7-1.2-2.7-2.7C-312.6,223.2-311.4,222-309.9,222L-309.9,222z M-309.9,235c-2.3,0-4.3-1.2-5.5-2.9c0-1.8,3.7-2.8,5.5-2.8
						s5.5,1,5.5,2.8C-305.6,233.8-307.6,235-309.9,235L-309.9,235z"/>
				</g>
				<rect id="base-copy_3_" x="-319" y="243.9" fill-opacity="0.1485" width="203" height="1.2"/>
			</g>
			<g id="Elise" transform="translate(0.000000, 131.082943)" sketch:type="MSShapeGroup">
				<rect id="base-copy_4_" x="-319" y="244.1" fill-opacity="0.1485" width="203" height="1.2"/>
				<ellipse id="Oval-6_1_" fill="#FF4D6B" cx="-124" cy="229.3" rx="7.3" ry="7.3"/>
				<path id="_x34_" fill="#FFFFFF" d="M-123.5,230.9v1c0,0.2,0.1,0.3,0.3,0.3s0.3-0.1,0.3-0.3v-1h0.3c0.2,0,0.3-0.1,0.3-0.3
					c0-0.2-0.1-0.3-0.3-0.3h-0.3v-2.8c0-0.4-0.2-0.5-0.5-0.5c-0.2,0-0.4,0.1-0.5,0.3l-1.8,3c-0.1,0.2-0.2,0.3-0.2,0.4
					c0,0.1,0.1,0.2,0.3,0.2H-123.5z M-125,230.4l1.5-2.7h0v2.7H-125z"/>
				<path fill="#FFFFFF" d="M-288.2,229.3h2.1c0.3,0,0.5-0.1,0.5-0.4c0-0.3-0.2-0.4-0.5-0.4h-2.1v-2.5h2.3c0.3,0,0.5-0.1,0.5-0.4
					s-0.2-0.4-0.5-0.4h-2.7c-0.4,0-0.5,0.2-0.5,0.5v6.5c0,0.3,0.1,0.5,0.5,0.5h2.7c0.3,0,0.5-0.1,0.5-0.4c0-0.3-0.2-0.4-0.5-0.4
					h-2.3V229.3z M-282.5,224.9c0-0.3-0.2-0.5-0.5-0.5c-0.3,0-0.5,0.2-0.5,0.5v7.3c0,0.3,0.2,0.5,0.5,0.5c0.3,0,0.5-0.2,0.5-0.5
					V224.9z M-279.2,227.4c0-0.3-0.2-0.5-0.5-0.5c-0.3,0-0.5,0.2-0.5,0.5v4.8c0,0.3,0.2,0.5,0.5,0.5c0.3,0,0.5-0.2,0.5-0.5V227.4z
					 M-280.3,225.6c0,0.3,0.3,0.6,0.6,0.6c0.3,0,0.6-0.3,0.6-0.6c0-0.3-0.3-0.6-0.6-0.6C-280,225-280.3,225.3-280.3,225.6
					L-280.3,225.6z M-277.1,228.5c0,1.6,3,1.5,3,2.6c0,0.4-0.4,0.8-1.1,0.8c-1,0-1.4-0.7-1.8-0.7c-0.2,0-0.4,0.2-0.4,0.4
					c0,0.5,0.9,1.1,2.1,1.1c1.1,0,2.1-0.6,2.1-1.7c0-1.6-3-1.5-3-2.5c0-0.5,0.5-0.7,1-0.7c0.9,0,1.1,0.6,1.5,0.6
					c0.3,0,0.4-0.2,0.4-0.4c0-0.6-1.1-1-1.9-1C-276.1,226.9-277.1,227.5-277.1,228.5L-277.1,228.5z M-267.1,230.2
					c0.4,0,0.5-0.2,0.5-0.5c0-1.4-0.9-2.8-2.4-2.8c-1.6,0-2.5,1.4-2.5,2.9c0,1.5,0.8,2.9,2.6,2.9c1.1,0,2.3-0.7,2.3-1.2
					c0-0.3-0.2-0.4-0.3-0.4c-0.4,0-0.7,0.8-1.9,0.8c-1.1,0-1.7-0.8-1.7-1.7H-267.1z M-270.6,229.5c0-0.9,0.4-1.8,1.6-1.7
					c1,0,1.5,0.9,1.5,1.7H-270.6z"/>
				<g id="account-circle_4_" transform="translate(1.153409, 0.232675)">
					<path id="Shape_4_" fill-opacity="0.1473" d="M-309.9,219.3c-5,0-9.1,4.1-9.1,9.1c0,5,4.1,9.1,9.1,9.1s9.1-4.1,9.1-9.1
						C-300.7,223.4-304.8,219.3-309.9,219.3L-309.9,219.3z M-309.9,222c1.6,0,2.7,1.2,2.7,2.7c0,1.6-1.2,2.7-2.7,2.7
						s-2.7-1.2-2.7-2.7C-312.6,223.2-311.4,222-309.9,222L-309.9,222z M-309.9,235c-2.3,0-4.3-1.2-5.5-2.9c0-1.8,3.7-2.8,5.5-2.8
						s5.5,1,5.5,2.8C-305.6,233.8-307.6,235-309.9,235L-309.9,235z"/>
				</g>
			</g>
		</g>
	</g>
</g>
</svg>
