<?xml version="1.0" encoding="utf-8"?>
<!-- Generator: Adobe Illustrator 19.0.0, SVG Export Plug-In . SVG Version: 6.00 Build 0)  -->
<svg version="1.1" id="Layer_1" xmlns:sketch="http://www.bohemiancoding.com/sketch/ns"
	 xmlns="http://www.w3.org/2000/svg" xmlns:xlink="http://www.w3.org/1999/xlink" x="0px" y="0px" viewBox="-275 239.3 291 118"
	 enable-background="new -275 239.3 291 118" xml:space="preserve">
<title>tekst</title>
<desc>Created with Sketch.</desc>
<g id="Page-1" sketch:type="MSPage">
	<g id="Artboard-8" transform="translate(-415.000000, -147.000000)" sketch:type="MSArtboardGroup">
		<g id="tekst" transform="translate(415.000000, 147.000000)" sketch:type="MSLayerGroup">
			<path id="Ontmoet-anoniem-en-" sketch:type="MSShapeGroup" fill="#FFFFFF" d="M-224.3,246.6c0-2.7,1.2-5.7,4.4-5.7
				c3.2,0,4.4,3,4.4,5.7s-1.2,5.7-4.4,5.7C-223.2,252.3-224.3,249.3-224.3,246.6L-224.3,246.6z M-226.2,246.6c0,3.7,2.2,7.3,6.2,7.3
				s6.2-3.5,6.2-7.3s-2.2-7.3-6.2-7.3S-226.2,242.9-226.2,246.6L-226.2,246.6z M-210.9,252.9c0,0.6,0.3,0.9,0.9,0.9s0.9-0.4,0.9-0.9
				v-5.8c0-1.9,1.3-2.6,2.5-2.6s2.5,0.8,2.5,2.6v5.8c0,0.6,0.3,0.9,0.9,0.9c0.5,0,0.9-0.4,0.9-0.9V247c0-3-2.1-4-3.7-4
				c-1.1,0-2.2,0.4-2.9,1.4l0,0v-0.4c0-0.6-0.3-0.9-0.9-0.9s-0.9,0.4-0.9,0.9V252.9z M-198.6,243h-0.7c-0.6,0-0.9,0.3-0.9,0.8
				c0,0.5,0.3,0.8,0.9,0.8h0.7v8.3c0,0.6,0.3,0.9,0.9,0.9s0.9-0.4,0.9-0.9v-8.3h0.7c0.6,0,0.9-0.3,0.9-0.8c0-0.5-0.3-0.8-0.9-0.8
				h-0.7v-2.3c0-0.6-0.3-0.9-0.9-0.9s-0.9,0.4-0.9,0.9V243z M-186.6,252.9c0,0.6,0.3,0.9,0.9,0.9c0.5,0,0.9-0.4,0.9-0.9v-6
				c0-1.5,0.8-2.5,2.3-2.5c1.4,0,2.3,0.9,2.3,2.5v6c0,0.6,0.3,0.9,0.9,0.9c0.5,0,0.9-0.4,0.9-0.9V247c0-3-2.1-4-3.7-4
				c-1.5,0-2.5,0.7-3.3,1.8c-0.8-1.4-1.9-1.8-2.9-1.8c-1.6,0-2.3,0.8-2.7,1.3l0,0v-0.3c0-0.6-0.3-0.9-0.9-0.9
				c-0.5,0-0.9,0.4-0.9,0.9v9c0,0.6,0.3,0.9,0.9,0.9c0.5,0,0.9-0.4,0.9-0.9v-6c0-1.5,0.8-2.5,2.3-2.5c1.4,0,2.3,0.9,2.3,2.5V252.9z
				 M-175.7,248.4c0,2.8,1.7,5.4,4.7,5.4s4.7-2.6,4.7-5.4s-1.7-5.4-4.7-5.4S-175.7,245.6-175.7,248.4L-175.7,248.4z M-173.9,248.4
				c0-1.8,0.8-3.9,2.9-3.9s2.9,2.1,2.9,3.9s-0.8,3.9-2.9,3.9S-173.9,250.2-173.9,248.4L-173.9,248.4z M-155.7,249.1
				c0.8,0,1-0.3,1-0.9c0-2.6-1.7-5.2-4.6-5.2c-3,0-4.8,2.6-4.8,5.4c0,2.8,1.5,5.4,4.9,5.4c2.1,0,4.3-1.3,4.3-2.2
				c0-0.5-0.3-0.8-0.6-0.8c-0.7,0-1.3,1.4-3.6,1.4c-2,0-3.1-1.4-3.1-3.2H-155.7z M-162.4,247.7c0.1-1.6,0.8-3.4,3-3.3
				c1.9,0,2.8,1.8,2.8,3.3H-162.4z M-151.5,243h-0.7c-0.6,0-0.9,0.3-0.9,0.8c0,0.5,0.3,0.8,0.9,0.8h0.7v8.3c0,0.6,0.3,0.9,0.9,0.9
				c0.5,0,0.9-0.4,0.9-0.9v-8.3h0.7c0.6,0,0.9-0.3,0.9-0.8c0-0.5-0.3-0.8-0.9-0.8h-0.7v-2.3c0-0.6-0.3-0.9-0.9-0.9
				c-0.5,0-0.9,0.4-0.9,0.9V243z M-131,243.8c0-0.6-0.5-0.9-0.8-0.9c-0.4,0-0.8,0.2-0.8,0.9v0.6h0c-0.8-0.9-1.7-1.4-2.9-1.4
				c-3,0-4.7,2.6-4.7,5.4s1.7,5.4,4.7,5.4c1.1,0,2.1-0.5,2.9-1.6h0v0.7c0,0.6,0.5,0.9,0.8,0.9c0.3,0,0.8-0.2,0.8-0.9V243.8z
				 M-138.5,248.4c0-1.8,0.8-3.9,2.9-3.9s2.9,2.1,2.9,3.9s-0.8,3.9-2.9,3.9S-138.5,250.2-138.5,248.4L-138.5,248.4z M-127.7,252.9
				c0,0.6,0.3,0.9,0.9,0.9s0.9-0.4,0.9-0.9v-5.8c0-1.9,1.3-2.6,2.5-2.6c1.2,0,2.5,0.8,2.5,2.6v5.8c0,0.6,0.3,0.9,0.9,0.9
				s0.9-0.4,0.9-0.9V247c0-3-2.1-4-3.7-4c-1.1,0-2.2,0.4-2.9,1.4l0,0v-0.4c0-0.6-0.3-0.9-0.9-0.9s-0.9,0.4-0.9,0.9V252.9z
				 M-116.4,248.4c0,2.8,1.7,5.4,4.7,5.4c3,0,4.7-2.6,4.7-5.4s-1.7-5.4-4.7-5.4C-114.7,242.9-116.4,245.6-116.4,248.4L-116.4,248.4z
				 M-114.6,248.4c0-1.8,0.8-3.9,2.9-3.9c2.2,0,2.9,2.1,2.9,3.9s-0.8,3.9-2.9,3.9C-113.9,252.3-114.6,250.2-114.6,248.4
				L-114.6,248.4z M-104.1,252.9c0,0.6,0.3,0.9,0.9,0.9c0.5,0,0.9-0.4,0.9-0.9v-5.8c0-1.9,1.3-2.6,2.5-2.6c1.2,0,2.5,0.8,2.5,2.6
				v5.8c0,0.6,0.3,0.9,0.9,0.9s0.9-0.4,0.9-0.9V247c0-3-2.1-4-3.7-4c-1.1,0-2.2,0.4-2.9,1.4l0,0v-0.4c0-0.6-0.3-0.9-0.9-0.9
				c-0.5,0-0.9,0.4-0.9,0.9V252.9z M-90.6,243.9c0-0.6-0.3-0.9-0.9-0.9c-0.5,0-0.9,0.4-0.9,0.9v9c0,0.6,0.3,0.9,0.9,0.9
				c0.5,0,0.9-0.4,0.9-0.9V243.9z M-92.6,240.4c0,0.6,0.5,1.1,1.1,1.1c0.6,0,1.1-0.5,1.1-1.1s-0.5-1.1-1.1-1.1
				C-92.1,239.3-92.6,239.8-92.6,240.4L-92.6,240.4z M-79.5,249.1c0.8,0,1-0.3,1-0.9c0-2.6-1.7-5.2-4.6-5.2c-3,0-4.8,2.6-4.8,5.4
				c0,2.8,1.5,5.4,4.9,5.4c2.1,0,4.3-1.3,4.3-2.2c0-0.5-0.3-0.8-0.6-0.8c-0.7,0-1.3,1.4-3.6,1.4c-2,0-3.1-1.4-3.1-3.2H-79.5z
				 M-86.2,247.7c0.1-1.6,0.8-3.4,3-3.3c1.9,0,2.8,1.8,2.8,3.3H-86.2z M-69.6,252.9c0,0.6,0.3,0.9,0.9,0.9c0.5,0,0.9-0.4,0.9-0.9v-6
				c0-1.5,0.8-2.5,2.3-2.5c1.4,0,2.3,0.9,2.3,2.5v6c0,0.6,0.3,0.9,0.9,0.9c0.5,0,0.9-0.4,0.9-0.9V247c0-3-2.1-4-3.7-4
				c-1.5,0-2.5,0.7-3.3,1.8c-0.8-1.4-1.9-1.8-2.9-1.8c-1.6,0-2.3,0.8-2.7,1.3l0,0v-0.3c0-0.6-0.3-0.9-0.9-0.9s-0.9,0.4-0.9,0.9v9
				c0,0.6,0.3,0.9,0.9,0.9s0.9-0.4,0.9-0.9v-6c0-1.5,0.8-2.5,2.3-2.5c1.4,0,2.3,0.9,2.3,2.5V252.9z M-44.4,249.1c0.8,0,1-0.3,1-0.9
				c0-2.6-1.7-5.2-4.6-5.2c-3,0-4.8,2.6-4.8,5.4c0,2.8,1.5,5.4,4.9,5.4c2.1,0,4.3-1.3,4.3-2.2c0-0.5-0.3-0.8-0.6-0.8
				c-0.7,0-1.3,1.4-3.6,1.4c-2,0-3.1-1.4-3.1-3.2H-44.4z M-51,247.7c0.1-1.6,0.8-3.4,3-3.3c1.9,0,2.8,1.8,2.8,3.3H-51z M-40.7,252.9
				c0,0.6,0.3,0.9,0.9,0.9c0.5,0,0.9-0.4,0.9-0.9v-5.8c0-1.9,1.3-2.6,2.5-2.6s2.5,0.8,2.5,2.6v5.8c0,0.6,0.3,0.9,0.9,0.9
				c0.5,0,0.9-0.4,0.9-0.9V247c0-3-2.1-4-3.7-4c-1.1,0-2.2,0.4-2.9,1.4l0,0v-0.4c0-0.6-0.3-0.9-0.9-0.9c-0.5,0-0.9,0.4-0.9,0.9
				V252.9z M-272,277.4c0.3,0.8,0.8,1.5,1.7,1.5c0.9,0,1.4-0.5,1.7-1.3l1.5-4.6h0l1.5,4.6c0.3,0.8,0.8,1.3,1.7,1.3
				c0.9,0,1.4-0.6,1.7-1.5l2.5-7c0.1-0.4,0.3-0.8,0.3-1.1c0-0.9-0.6-1.4-1.4-1.4c-0.7,0-1.2,0.5-1.4,1.1l-1.7,5.5h0l-1.7-5.4
				c-0.2-0.8-0.6-1.3-1.5-1.3s-1.2,0.5-1.5,1.3l-1.7,5.4h0l-1.7-5.5c-0.2-0.7-0.7-1.1-1.4-1.1c-0.8,0-1.4,0.5-1.4,1.2
				c0,0.4,0.1,0.8,0.3,1.4L-272,277.4z M-257.6,277.3c0,1,0.6,1.6,1.4,1.6c0.8,0,1.4-0.6,1.4-1.6v-7.7c0-1-0.6-1.6-1.4-1.6
				c-0.8,0-1.4,0.6-1.4,1.6V277.3z M-256.1,263.6c-0.9,0-1.6,0.8-1.6,1.6c0,0.9,0.8,1.7,1.6,1.7c0.9,0,1.6-0.8,1.6-1.7
				C-254.5,264.4-255.2,263.6-256.1,263.6L-256.1,263.6z M-252.1,277.3c0,1,0.6,1.6,1.4,1.6c0.8,0,1.4-0.6,1.4-1.6v-12.3
				c0-1-0.6-1.6-1.4-1.6c-0.8,0-1.4,0.6-1.4,1.6V277.3z M-246.7,277.3c0,1,0.6,1.6,1.4,1.6c0.8,0,1.4-0.6,1.4-1.6v-12.3
				c0-1-0.6-1.6-1.4-1.6c-0.8,0-1.4,0.6-1.4,1.6V277.3z M-232.7,274.4c0.9,0,1.3-0.4,1.3-1.3c0-2.4-2.1-5.2-5.2-5.2
				c-3,0-5.2,2.7-5.2,5.6c0,3.2,2.2,5.5,5.4,5.5c2.1,0,4.7-1.2,4.7-2.4c0-0.6-0.6-1.2-1.2-1.2c-0.8,0-1.8,1.2-3.3,1.2
				c-1.3,0-2.5-0.7-2.7-2.1H-232.7z M-238.9,272.5c0.1-1.2,1-2.2,2.3-2.2c1.3,0,2.1,0.9,2.3,2.2H-238.9z M-229.4,277.3
				c0,1,0.6,1.6,1.4,1.6s1.4-0.6,1.4-1.6v-3.5h0l3.5,4.3c0.5,0.6,0.9,0.9,1.4,0.9c0.8,0,1.4-0.6,1.4-1.4c0-0.3-0.1-0.7-0.4-1l-3.4-4
				l2.6-2.3c0.4-0.4,0.6-0.7,0.6-1.1c0-0.6-0.5-1.3-1.2-1.3c-0.4,0-0.8,0.2-1.3,0.6l-3.2,3.1v-6.7c0-1-0.6-1.6-1.4-1.6
				s-1.4,0.6-1.4,1.6V277.3z M-209.9,274.4c0.9,0,1.3-0.4,1.3-1.3c0-2.4-2.1-5.2-5.2-5.2c-3,0-5.2,2.7-5.2,5.6
				c0,3.2,2.2,5.5,5.4,5.5c2.1,0,4.7-1.2,4.7-2.4c0-0.6-0.6-1.2-1.2-1.2c-0.8,0-1.8,1.2-3.3,1.2c-1.3,0-2.5-0.7-2.7-2.1H-209.9z
				 M-216.1,272.5c0.1-1.2,1-2.2,2.3-2.2c1.3,0,2.1,0.9,2.3,2.2H-216.1z M-206.6,274.8c0,2.6,1.7,4.2,4.7,4.2s4.7-1.6,4.7-4.2v-5.2
				c0-1-0.6-1.6-1.4-1.6s-1.4,0.6-1.4,1.6v5.1c0,1.2-0.9,1.9-1.9,1.9s-1.9-0.7-1.9-1.9v-5.1c0-1-0.6-1.6-1.4-1.6s-1.4,0.6-1.4,1.6
				V274.8z M-194.5,277.3c0,1,0.6,1.6,1.4,1.6s1.4-0.6,1.4-1.6v-4.4c0-1.1,0.9-1.5,1.7-1.9c0.9-0.4,1.7-0.5,1.7-1.4
				c0-1-0.7-1.5-1.4-1.5c-0.9,0-1.5,0.4-2,1.2h0c0-0.9-0.6-1.2-1.4-1.2c-0.7,0-1.5,0.5-1.5,1.4V277.3z M-186.9,277.3
				c0,1,0.6,1.6,1.4,1.6s1.4-0.6,1.4-1.6v-7.7c0-1-0.6-1.6-1.4-1.6s-1.4,0.6-1.4,1.6V277.3z M-185.4,263.6c-0.9,0-1.6,0.8-1.6,1.6
				c0,0.9,0.8,1.7,1.6,1.7c0.9,0,1.6-0.8,1.6-1.7C-183.8,264.4-184.6,263.6-185.4,263.6L-185.4,263.6z M-171.5,269.6
				c0-1-0.6-1.6-1.4-1.6c-0.8,0-1.3,0.4-1.4,1.2c-0.5-0.9-1.7-1.3-2.6-1.3c-2.9,0-4.7,2.7-4.7,5.6c0,2.9,1.4,5.5,4.4,5.5
				c1.3,0,2.3-0.5,2.9-1.4h0v0.7c0,1.5-1,2.3-2.4,2.3c-1.7,0-2.7-0.9-3.6-0.9c-0.6,0-1.2,0.7-1.2,1.3c0,1.6,3.4,2.2,4.5,2.2
				c3.3,0,5.5-1.7,5.5-5.2V269.6z M-174.4,273.5c0,1.4-0.7,2.8-2.3,2.8c-1.5,0-2.2-1.4-2.2-2.9c0-1.3,0.7-2.9,2.2-2.9
				C-175.1,270.5-174.4,272.1-174.4,273.5L-174.4,273.5z M-155.4,273.4c0,1.8-0.8,3.9-2.9,3.9s-2.9-2.1-2.9-3.9
				c0-1.8,0.8-3.9,2.9-3.9S-155.4,271.6-155.4,273.4L-155.4,273.4z M-155.6,277.9c0,0.6,0.3,0.9,0.9,0.9c0.5,0,0.9-0.4,0.9-0.9
				v-13.7c0-0.6-0.3-0.9-0.9-0.9c-0.5,0-0.9,0.4-0.9,0.9v5.2h0c-0.5-0.7-1.4-1.4-2.8-1.4c-2.9,0-4.5,2.6-4.5,5.4s1.7,5.4,4.5,5.4
				c1.4,0,2.3-0.5,2.8-1.5h0V277.9z M-142.6,274.1c0.8,0,1-0.3,1-0.9c0-2.6-1.7-5.2-4.6-5.2c-3,0-4.8,2.6-4.8,5.4
				c0,2.8,1.5,5.4,4.9,5.4c2.1,0,4.3-1.3,4.3-2.2c0-0.5-0.3-0.8-0.6-0.8c-0.7,0-1.3,1.4-3.6,1.4c-2,0-3.1-1.4-3.1-3.2H-142.6z
				 M-149.3,272.8c0.1-1.6,0.8-3.4,3-3.3c1.9,0,2.8,1.8,2.8,3.3H-149.3z M-131.2,264.2c0-0.6-0.3-0.9-0.9-0.9
				c-0.5,0-0.9,0.4-0.9,0.9v13.7c0,0.6,0.3,0.9,0.9,0.9c0.5,0,0.9-0.4,0.9-0.9V264.2z M-120.1,274.1c0.8,0,1-0.3,1-0.9
				c0-2.6-1.7-5.2-4.6-5.2c-3,0-4.8,2.6-4.8,5.4c0,2.8,1.5,5.4,4.9,5.4c2.1,0,4.3-1.3,4.3-2.2c0-0.5-0.3-0.8-0.6-0.8
				c-0.7,0-1.3,1.4-3.6,1.4c-2,0-3.1-1.4-3.1-3.2H-120.1z M-126.8,272.8c0.1-1.6,0.8-3.4,3-3.3c1.9,0,2.8,1.8,2.8,3.3H-126.8z
				 M-116.5,274.6c0,3.1,2.1,4.2,4.2,4.2c2.1,0,4.2-1.1,4.2-4.2v-5.7c0-0.6-0.3-0.9-0.9-0.9c-0.5,0-0.9,0.4-0.9,0.9v5.6
				c0,1.8-0.8,2.8-2.5,2.8c-1.7,0-2.5-1-2.5-2.8v-5.6c0-0.6-0.3-0.9-0.9-0.9s-0.9,0.4-0.9,0.9V274.6z M-104.7,277.9
				c0,0.6,0.3,0.9,0.9,0.9s0.9-0.4,0.9-0.9v-4.2l4.4,4.6c0.4,0.4,0.6,0.5,1,0.5c0.4,0,0.7-0.3,0.7-0.7c0-0.3-0.1-0.6-0.4-0.9
				l-4.6-4.6l4-3.2c0.3-0.3,0.4-0.5,0.4-0.8c0-0.4-0.3-0.8-0.7-0.8c-0.3,0-0.6,0.2-1,0.5l-3.8,3.2v-7.5c0-0.6-0.3-0.9-0.9-0.9
				s-0.9,0.4-0.9,0.9V277.9z M-94.6,271c0,3,5.7,2.8,5.7,4.9c0,0.7-0.8,1.4-2.1,1.4c-1.9,0-2.6-1.3-3.3-1.3c-0.4,0-0.7,0.3-0.7,0.8
				c0,0.9,1.8,2,4,2c2,0,3.9-1.1,3.9-3.3c0-3.1-5.7-2.9-5.7-4.7c0-0.9,0.9-1.3,1.9-1.3c1.7,0,2,1.1,2.7,1.1c0.5,0,0.8-0.3,0.8-0.7
				c0-1.1-2.1-1.9-3.5-1.9C-92.8,268-94.6,269-94.6,271L-94.6,271z M-84,268.1h-0.7c-0.6,0-0.9,0.3-0.9,0.8c0,0.5,0.3,0.8,0.9,0.8
				h0.7v8.3c0,0.6,0.3,0.9,0.9,0.9c0.5,0,0.9-0.4,0.9-0.9v-8.3h0.7c0.6,0,0.9-0.3,0.9-0.8c0-0.5-0.3-0.8-0.9-0.8h-0.7v-2.3
				c0-0.6-0.3-0.9-0.9-0.9c-0.5,0-0.9,0.4-0.9,0.9V268.1z M-70.6,274.1c0.8,0,1-0.3,1-0.9c0-2.6-1.7-5.2-4.6-5.2
				c-3,0-4.8,2.6-4.8,5.4c0,2.8,1.5,5.4,4.9,5.4c2.1,0,4.3-1.3,4.3-2.2c0-0.5-0.3-0.8-0.6-0.8c-0.7,0-1.3,1.4-3.6,1.4
				c-2,0-3.1-1.4-3.1-3.2H-70.6z M-77.2,272.8c0.1-1.6,0.8-3.4,3-3.3c1.9,0,2.8,1.8,2.8,3.3H-77.2z M-54.6,277.9
				c0,0.6,0.3,0.9,0.9,0.9c0.5,0,0.9-0.4,0.9-0.9v-6c0-1.5,0.8-2.5,2.3-2.5c1.4,0,2.3,0.9,2.3,2.5v6c0,0.6,0.3,0.9,0.9,0.9
				c0.5,0,0.9-0.4,0.9-0.9V272c0-3-2.1-4-3.7-4c-1.5,0-2.5,0.7-3.3,1.8c-0.8-1.4-1.9-1.8-2.9-1.8c-1.6,0-2.3,0.8-2.7,1.3l0,0v-0.3
				c0-0.6-0.3-0.9-0.9-0.9c-0.5,0-0.9,0.4-0.9,0.9v9c0,0.6,0.3,0.9,0.9,0.9c0.5,0,0.9-0.4,0.9-0.9v-6c0-1.5,0.8-2.5,2.3-2.5
				c1.4,0,2.3,0.9,2.3,2.5V277.9z M-35.4,274.1c0.8,0,1-0.3,1-0.9c0-2.6-1.7-5.2-4.6-5.2c-3,0-4.8,2.6-4.8,5.4
				c0,2.8,1.5,5.4,4.9,5.4c2.1,0,4.3-1.3,4.3-2.2c0-0.5-0.3-0.8-0.6-0.8c-0.7,0-1.3,1.4-3.6,1.4c-2,0-3.1-1.4-3.1-3.2H-35.4z
				 M-42.1,272.8c0.1-1.6,0.8-3.4,3-3.3c1.9,0,2.8,1.8,2.8,3.3H-42.1z M-31.8,277.9c0,0.6,0.3,0.9,0.9,0.9c0.5,0,0.9-0.4,0.9-0.9
				v-5.8c0-1.9,1.3-2.6,2.5-2.6s2.5,0.8,2.5,2.6v5.8c0,0.6,0.3,0.9,0.9,0.9c0.5,0,0.9-0.4,0.9-0.9V272c0-3-2.1-4-3.7-4
				c-1.1,0-2.2,0.4-2.9,1.4l0,0v-0.4c0-0.6-0.3-0.9-0.9-0.9c-0.5,0-0.9,0.4-0.9,0.9V277.9z M-20.2,271c0,3,5.7,2.8,5.7,4.9
				c0,0.7-0.8,1.4-2.1,1.4c-1.9,0-2.6-1.3-3.3-1.3c-0.4,0-0.7,0.3-0.7,0.8c0,0.9,1.8,2,4,2c2,0,3.9-1.1,3.9-3.3
				c0-3.1-5.7-2.9-5.7-4.7c0-0.9,0.9-1.3,1.9-1.3c1.7,0,2,1.1,2.7,1.1c0.5,0,0.8-0.3,0.8-0.7c0-1.1-2.1-1.9-3.5-1.9
				C-18.4,268-20.2,269-20.2,271L-20.2,271z M-2.3,274.1c0.8,0,1-0.3,1-0.9c0-2.6-1.7-5.2-4.6-5.2c-3,0-4.8,2.6-4.8,5.4
				c0,2.8,1.5,5.4,4.9,5.4c2.1,0,4.3-1.3,4.3-2.2c0-0.5-0.3-0.8-0.6-0.8c-0.7,0-1.3,1.4-3.6,1.4c-2,0-3.1-1.4-3.1-3.2H-2.3z
				 M-9,272.8c0.1-1.6,0.8-3.4,3-3.3c1.9,0,2.8,1.8,2.8,3.3H-9z M1.3,277.9c0,0.6,0.3,0.9,0.9,0.9s0.9-0.4,0.9-0.9v-5.8
				c0-1.9,1.3-2.6,2.5-2.6c1.2,0,2.5,0.8,2.5,2.6v5.8c0,0.6,0.3,0.9,0.9,0.9c0.5,0,0.9-0.4,0.9-0.9V272c0-3-2.1-4-3.7-4
				c-1.1,0-2.2,0.4-2.9,1.4l0,0v-0.4c0-0.6-0.3-0.9-0.9-0.9s-0.9,0.4-0.9,0.9V277.9z M13.4,277.8c0,0.6,0.5,1,1,1c0.6,0,1-0.5,1-1
				c0-0.6-0.5-1-1-1C13.9,276.8,13.4,277.3,13.4,277.8L13.4,277.8z"/>
			<path id="Blijf-bevriend-met-" sketch:type="MSShapeGroup" fill="#FFFFFF" d="M-204.9,314.8h2.1c1.6,0,2.3,0.9,2.3,2.2
				c0,1.3-0.9,2.3-2.4,2.3h-2V314.8z M-204.9,320.8h2.6c1.8,0,2.9,1.2,2.9,2.6c0,1.6-1.3,2.6-3,2.6h-2.5V320.8z M-206.7,326.6
				c0,0.5,0.3,1,0.9,1h3.4c3,0,4.7-1.9,4.7-4.2c0-1.9-1.4-3.3-3.1-3.5v0c1.2-0.4,2-1.6,2-3.1c0-1.6-1.3-3.4-3.8-3.4h-3.1
				c-0.7,0-0.9,0.4-0.9,1V326.6z M-193.2,313c0-0.6-0.3-0.9-0.9-0.9s-0.9,0.4-0.9,0.9v13.7c0,0.6,0.3,0.9,0.9,0.9s0.9-0.4,0.9-0.9
				V313z M-188.1,317.7c0-0.6-0.3-0.9-0.9-0.9c-0.5,0-0.9,0.4-0.9,0.9v9c0,0.6,0.3,0.9,0.9,0.9c0.5,0,0.9-0.4,0.9-0.9V317.7z
				 M-190,314.2c0,0.6,0.5,1.1,1.1,1.1c0.6,0,1.1-0.5,1.1-1.1s-0.5-1.1-1.1-1.1C-189.6,313.2-190,313.6-190,314.2L-190,314.2z
				 M-183,317.7c0-0.6-0.3-0.9-0.9-0.9s-0.9,0.4-0.9,0.9v13.2c0,0.6,0.3,0.9,0.9,0.9s0.9-0.4,0.9-0.9V317.7z M-185,314.2
				c0,0.6,0.5,1.1,1.1,1.1s1.1-0.5,1.1-1.1s-0.5-1.1-1.1-1.1S-185,313.6-185,314.2L-185,314.2z M-177.3,318.4h1.1
				c0.6,0,0.9-0.3,0.9-0.8s-0.3-0.8-0.9-0.8h-1.1v-2.6c0-0.4,0.2-0.7,0.7-0.7h0.4c0.7,0,1-0.3,1-0.8c0-0.5-0.5-0.8-1-0.8h-0.5
				c-1.3,0-2.3,0.8-2.3,2.3v2.5h-0.7c-0.6,0-0.9,0.3-0.9,0.8s0.3,0.8,0.9,0.8h0.7v8.3c0,0.6,0.3,0.9,0.9,0.9c0.5,0,0.9-0.4,0.9-0.9
				V318.4z M-165.8,322.2c0-1.8,0.8-3.9,2.9-3.9c2.2,0,2.9,2.1,2.9,3.9c0,1.8-0.8,3.9-2.9,3.9C-165,326.1-165.8,324-165.8,322.2
				L-165.8,322.2z M-167.4,326.7c0,0.6,0.3,0.9,0.9,0.9c0.5,0,0.9-0.4,0.9-0.9v-0.5h0c0.5,1,1.4,1.5,2.8,1.5c2.9,0,4.5-2.6,4.5-5.4
				s-1.7-5.4-4.5-5.4c-1.4,0-2.4,0.8-2.8,1.4h0V313c0-0.6-0.3-0.9-0.9-0.9c-0.5,0-0.9,0.4-0.9,0.9V326.7z M-147.6,322.9
				c0.8,0,1-0.3,1-0.9c0-2.6-1.7-5.2-4.6-5.2c-3,0-4.8,2.6-4.8,5.4c0,2.8,1.5,5.4,4.9,5.4c2.1,0,4.3-1.3,4.3-2.2
				c0-0.5-0.3-0.8-0.6-0.8c-0.7,0-1.3,1.4-3.6,1.4c-2,0-3.1-1.4-3.1-3.2H-147.6z M-154.2,321.6c0.1-1.6,0.8-3.4,3-3.3
				c1.9,0,2.8,1.8,2.8,3.3H-154.2z M-141.7,326.9c0.2,0.5,0.4,0.8,0.9,0.8s0.7-0.2,0.9-0.8l3.1-8.6c0.1-0.3,0.2-0.5,0.2-0.7
				c0-0.5-0.4-0.8-0.8-0.8c-0.6,0-0.8,0.3-0.9,0.7l-2.4,7.4h0l-2.4-7.4c-0.1-0.4-0.3-0.7-0.9-0.7c-0.4,0-0.8,0.3-0.8,0.8
				c0,0.2,0.1,0.4,0.2,0.7L-141.7,326.9z M-134.4,326.7c0,0.6,0.3,0.9,0.9,0.9c0.5,0,0.9-0.4,0.9-0.9v-5.1c0-2.1,1.3-2.8,2.3-3
				c0.7-0.1,1.1-0.5,1.1-1c0-0.5-0.4-0.9-1-0.9c-1,0-2,1-2.4,1.8h0v-0.9c0-0.6-0.3-0.9-0.9-0.9c-0.5,0-0.9,0.4-0.9,0.9V326.7z
				 M-125.3,317.7c0-0.6-0.3-0.9-0.9-0.9s-0.9,0.4-0.9,0.9v9c0,0.6,0.3,0.9,0.9,0.9s0.9-0.4,0.9-0.9V317.7z M-127.3,314.2
				c0,0.6,0.5,1.1,1.1,1.1s1.1-0.5,1.1-1.1s-0.5-1.1-1.1-1.1S-127.3,313.6-127.3,314.2L-127.3,314.2z M-114.2,322.9
				c0.8,0,1-0.3,1-0.9c0-2.6-1.7-5.2-4.6-5.2c-3,0-4.8,2.6-4.8,5.4c0,2.8,1.5,5.4,4.9,5.4c2.1,0,4.3-1.3,4.3-2.2
				c0-0.5-0.3-0.8-0.6-0.8c-0.7,0-1.3,1.4-3.6,1.4c-2,0-3.1-1.4-3.1-3.2H-114.2z M-120.9,321.6c0.1-1.6,0.8-3.4,3-3.3
				c1.9,0,2.8,1.8,2.8,3.3H-120.9z M-110.6,326.7c0,0.6,0.3,0.9,0.9,0.9c0.5,0,0.9-0.4,0.9-0.9v-5.8c0-1.9,1.3-2.6,2.5-2.6
				c1.2,0,2.5,0.8,2.5,2.6v5.8c0,0.6,0.3,0.9,0.9,0.9c0.5,0,0.9-0.4,0.9-0.9v-5.9c0-3-2.1-4-3.7-4c-1.1,0-2.2,0.4-2.9,1.4l0,0v-0.4
				c0-0.6-0.3-0.9-0.9-0.9c-0.5,0-0.9,0.4-0.9,0.9V326.7z M-91.6,322.2c0,1.8-0.8,3.9-2.9,3.9s-2.9-2.1-2.9-3.9
				c0-1.8,0.8-3.9,2.9-3.9S-91.6,320.4-91.6,322.2L-91.6,322.2z M-91.8,326.7c0,0.6,0.3,0.9,0.9,0.9c0.5,0,0.9-0.4,0.9-0.9V313
				c0-0.6-0.3-0.9-0.9-0.9c-0.5,0-0.9,0.4-0.9,0.9v5.2h0c-0.5-0.7-1.4-1.4-2.8-1.4c-2.9,0-4.5,2.6-4.5,5.4s1.7,5.4,4.5,5.4
				c1.4,0,2.3-0.5,2.8-1.5h0V326.7z M-74.3,326.7c0,0.6,0.3,0.9,0.9,0.9c0.5,0,0.9-0.4,0.9-0.9v-6c0-1.5,0.8-2.5,2.3-2.5
				c1.4,0,2.3,0.9,2.3,2.5v6c0,0.6,0.3,0.9,0.9,0.9c0.5,0,0.9-0.4,0.9-0.9v-5.9c0-3-2.1-4-3.7-4c-1.5,0-2.5,0.7-3.3,1.8
				c-0.8-1.4-1.9-1.8-2.9-1.8c-1.6,0-2.3,0.8-2.7,1.3l0,0v-0.3c0-0.6-0.3-0.9-0.9-0.9c-0.5,0-0.9,0.4-0.9,0.9v9
				c0,0.6,0.3,0.9,0.9,0.9c0.5,0,0.9-0.4,0.9-0.9v-6c0-1.5,0.8-2.5,2.3-2.5c1.4,0,2.3,0.9,2.3,2.5V326.7z M-55.2,322.9
				c0.8,0,1-0.3,1-0.9c0-2.6-1.7-5.2-4.6-5.2c-3,0-4.8,2.6-4.8,5.4c0,2.8,1.5,5.4,4.9,5.4c2.1,0,4.3-1.3,4.3-2.2
				c0-0.5-0.3-0.8-0.6-0.8c-0.7,0-1.3,1.4-3.6,1.4c-2,0-3.1-1.4-3.1-3.2H-55.2z M-61.8,321.6c0.1-1.6,0.8-3.4,3-3.3
				c1.9,0,2.8,1.8,2.8,3.3H-61.8z M-51,316.9h-0.7c-0.6,0-0.9,0.3-0.9,0.8s0.3,0.8,0.9,0.8h0.7v8.3c0,0.6,0.3,0.9,0.9,0.9
				c0.5,0,0.9-0.4,0.9-0.9v-8.3h0.7c0.6,0,0.9-0.3,0.9-0.8s-0.3-0.8-0.9-0.8h-0.7v-2.3c0-0.6-0.3-0.9-0.9-0.9
				c-0.5,0-0.9,0.4-0.9,0.9V316.9z M-186.8,342.7c0-0.6-0.3-0.9-0.9-0.9s-0.9,0.4-0.9,0.9V356c0,0.6,0.3,0.9,0.9,0.9
				s0.9-0.4,0.9-0.9V342.7z M-188.8,339.3c0,0.6,0.5,1.1,1.1,1.1s1.1-0.5,1.1-1.1c0-0.6-0.5-1.1-1.1-1.1S-188.8,338.7-188.8,339.3
				L-188.8,339.3z M-184,347.3c0,2.8,1.7,5.4,4.7,5.4s4.7-2.6,4.7-5.4c0-2.8-1.7-5.4-4.7-5.4S-184,344.4-184,347.3L-184,347.3z
				 M-182.2,347.3c0-1.8,0.8-3.9,2.9-3.9c2.2,0,2.9,2.1,2.9,3.9c0,1.8-0.8,3.9-2.9,3.9C-181.4,351.2-182.2,349.1-182.2,347.3
				L-182.2,347.3z M-171.7,348.5c0,3.1,2.1,4.2,4.2,4.2s4.2-1.1,4.2-4.2v-5.7c0-0.6-0.3-0.9-0.9-0.9s-0.9,0.4-0.9,0.9v5.6
				c0,1.8-0.8,2.8-2.5,2.8c-1.7,0-2.5-1-2.5-2.8v-5.6c0-0.6-0.3-0.9-0.9-0.9c-0.5,0-0.9,0.4-0.9,0.9V348.5z M-158,351.8
				c0.2,0.7,0.5,0.9,1,0.9c0.5,0,0.8-0.2,1-0.9l2.3-7.2h0l2.3,7.2c0.2,0.7,0.5,0.9,1,0.9c0.5,0,0.8-0.2,1-0.9l2.9-8.5
				c0.1-0.3,0.1-0.5,0.1-0.7c0-0.3-0.2-0.8-0.8-0.8c-0.4,0-0.7,0.1-1,0.9l-2.3,7.3h0l-2.2-7c-0.2-0.8-0.4-1.2-1-1.2
				c-0.6,0-0.8,0.4-1,1.2l-2.2,7h0l-2.3-7.3c-0.2-0.8-0.6-0.9-1-0.9c-0.6,0-0.8,0.4-0.8,0.8c0,0.2,0.1,0.4,0.1,0.7L-158,351.8z
				 M-135.7,343.4h1.1c0.6,0,0.9-0.3,0.9-0.8s-0.3-0.8-0.9-0.8h-1.1v-2.6c0-0.4,0.2-0.7,0.7-0.7h0.4c0.7,0,1-0.3,1-0.8
				s-0.5-0.8-1-0.8h-0.5c-1.3,0-2.3,0.8-2.3,2.3v2.5h-0.7c-0.6,0-0.9,0.3-0.9,0.8s0.3,0.8,0.9,0.8h0.7v8.3c0,0.6,0.3,0.9,0.9,0.9
				s0.9-0.4,0.9-0.9V343.4z M-123.1,342.7c0-0.6-0.5-0.9-0.8-0.9c-0.4,0-0.8,0.2-0.8,0.9v0.6h0c-0.8-0.9-1.7-1.4-2.9-1.4
				c-3,0-4.7,2.6-4.7,5.4c0,2.8,1.7,5.4,4.7,5.4c1.1,0,2.1-0.5,2.9-1.6h0v0.7c0,0.6,0.5,0.9,0.8,0.9c0.3,0,0.8-0.2,0.8-0.9V342.7z
				 M-130.6,347.3c0-1.8,0.8-3.9,2.9-3.9s2.9,2.1,2.9,3.9c0,1.8-0.8,3.9-2.9,3.9S-130.6,349.1-130.6,347.3L-130.6,347.3z
				 M-117.6,351.9c0.2,0.5,0.4,0.8,0.9,0.8c0.6,0,0.7-0.2,0.9-0.8l3.1-8.6c0.1-0.3,0.2-0.5,0.2-0.7c0-0.5-0.4-0.8-0.8-0.8
				c-0.6,0-0.8,0.3-0.9,0.7l-2.4,7.4h0l-2.4-7.4c-0.1-0.4-0.3-0.7-0.9-0.7c-0.4,0-0.8,0.3-0.8,0.8c0,0.2,0.1,0.4,0.2,0.7
				L-117.6,351.9z M-110.7,347.3c0,2.8,1.7,5.4,4.7,5.4c3,0,4.7-2.6,4.7-5.4c0-2.8-1.7-5.4-4.7-5.4
				C-109,341.8-110.7,344.4-110.7,347.3L-110.7,347.3z M-108.9,347.3c0-1.8,0.8-3.9,2.9-3.9c2.2,0,2.9,2.1,2.9,3.9
				c0,1.8-0.8,3.9-2.9,3.9C-108.1,351.2-108.9,349.1-108.9,347.3L-108.9,347.3z M-98.4,351.8c0,0.6,0.3,0.9,0.9,0.9
				c0.5,0,0.9-0.4,0.9-0.9v-5.1c0-2.1,1.3-2.8,2.3-3c0.7-0.1,1.1-0.5,1.1-1c0-0.5-0.4-0.9-1-0.9c-1,0-2,1-2.4,1.8h0v-0.9
				c0-0.6-0.3-0.9-0.9-0.9c-0.5,0-0.9,0.4-0.9,0.9V351.8z M-89.4,342.7c0-0.6-0.3-0.9-0.9-0.9c-0.5,0-0.9,0.4-0.9,0.9v9
				c0,0.6,0.3,0.9,0.9,0.9c0.5,0,0.9-0.4,0.9-0.9V342.7z M-91.3,339.3c0,0.6,0.5,1.1,1.1,1.1c0.6,0,1.1-0.5,1.1-1.1
				c0-0.6-0.5-1.1-1.1-1.1C-90.8,338.2-91.3,338.7-91.3,339.3L-91.3,339.3z M-78.3,347.9c0.8,0,1-0.3,1-0.9c0-2.6-1.7-5.2-4.6-5.2
				c-3,0-4.8,2.6-4.8,5.4c0,2.8,1.5,5.4,4.9,5.4c2.1,0,4.3-1.3,4.3-2.2c0-0.5-0.3-0.8-0.6-0.8c-0.7,0-1.3,1.4-3.6,1.4
				c-2,0-3.1-1.4-3.1-3.2H-78.3z M-84.9,346.6c0.1-1.6,0.8-3.4,3-3.3c1.9,0,2.8,1.8,2.8,3.3H-84.9z M-74.1,341.9h-0.7
				c-0.6,0-0.9,0.3-0.9,0.8s0.3,0.8,0.9,0.8h0.7v8.3c0,0.6,0.3,0.9,0.9,0.9c0.5,0,0.9-0.4,0.9-0.9v-8.3h0.7c0.6,0,0.9-0.3,0.9-0.8
				s-0.3-0.8-0.9-0.8h-0.7v-2.3c0-0.6-0.3-0.9-0.9-0.9c-0.5,0-0.9,0.4-0.9,0.9V341.9z M-68.1,351.7c0,0.6,0.5,1,1,1s1-0.5,1-1
				c0-0.6-0.5-1-1-1S-68.1,351.1-68.1,351.7L-68.1,351.7z"/>
		</g>
	</g>
</g>
</svg>
