<?xml version="1.0" encoding="UTF-8" standalone="no"?>
<svg width="158px" height="68px" viewBox="0 0 158 68" version="1.1" xmlns="http://www.w3.org/2000/svg" xmlns:xlink="http://www.w3.org/1999/xlink" xmlns:sketch="http://www.bohemiancoding.com/sketch/ns">
    <!-- Generator: Sketch 3.4 (15588) - http://www.bohemiancoding.com/sketch -->
    <title>Rectangle 3 + Rectangle 3 + START SPEL</title>
    <desc>Created with Sketch.</desc>
    <defs></defs>
    <g id="Page-1" stroke="none" stroke-width="1" fill="none" fill-rule="evenodd" sketch:type="MSPage">
        <g id="Artboard-7" sketch:type="MSArtboardGroup" transform="translate(-581.000000, -217.000000)">
            <g id="Rectangle-3-+-Rectangle-3-+-START-SPEL" sketch:type="MSLayerGroup" transform="translate(581.000000, 217.000000)">
                <rect id="Rectangle-3" fill="#1E6688" sketch:type="MSShapeGroup" x="0" y="4" width="158" height="64" rx="17"></rect>
                <rect id="Rectangle-3" fill="#46B9EF" sketch:type="MSShapeGroup" x="0" y="0" width="158" height="64" rx="17"></rect>
                <path d="M33.5419922,42.1933594 C32.8544888,42.1933594 32.2493516,42.1127938 31.7265625,41.9516602 C31.2037734,41.7905265 30.7490254,41.5756849 30.3623047,41.3071289 C29.975584,41.0385729 29.6497409,40.7342139 29.3847656,40.394043 C29.1197903,40.053872 28.901368,39.7047544 28.7294922,39.3466797 C28.3284485,38.5159464 28.0992841,37.5670626 28.0419922,36.5 L30.7919922,35.8125 C30.8206382,36.5859414 30.9352204,37.2734345 31.1357422,37.875 C31.2216801,38.1328138 31.3308913,38.3852527 31.4633789,38.6323242 C31.5958665,38.8793958 31.7587881,39.0996084 31.9521484,39.2929688 C32.1455088,39.4863291 32.3728828,39.6420893 32.6342773,39.7602539 C32.8956719,39.8784186 33.1982405,39.9375 33.5419922,39.9375 C34.9169991,39.9375 35.6044922,39.2500069 35.6044922,37.875 C35.6044922,37.5312483 35.5615239,37.2107762 35.4755859,36.9135742 C35.389648,36.6163722 35.260743,36.3299167 35.0888672,36.0541992 C34.9169913,35.7784817 34.7021497,35.5099297 34.4443359,35.2485352 C34.1865221,34.9871406 33.8857439,34.7167983 33.5419922,34.4375 L30.1044922,31.6875 C29.753579,31.4082017 29.4474297,31.0913104 29.1860352,30.7368164 C28.9246406,30.3823224 28.7080087,30.00814 28.5361328,29.6142578 C28.364257,29.2203756 28.2371423,28.819338 28.1547852,28.4111328 C28.072428,28.0029276 28.03125,27.5983093 28.03125,27.1972656 C28.03125,26.5813771 28.1350901,25.9923531 28.3427734,25.4301758 C28.5504568,24.8679985 28.856606,24.3738628 29.2612305,23.9477539 C29.6658549,23.521645 30.1689423,23.1832695 30.7705078,22.9326172 C31.3720733,22.6819649 32.0667278,22.5566406 32.8544922,22.5566406 C33.5419956,22.5566406 34.1471328,22.6282545 34.6699219,22.7714844 C35.1927109,22.9147143 35.647459,23.104491 36.0341797,23.3408203 C36.4209004,23.5771496 36.7467435,23.8457016 37.0117188,24.1464844 C37.276694,24.4472671 37.4951163,24.7516261 37.6669922,25.0595703 C38.0680359,25.7972042 38.2972002,26.6315058 38.3544922,27.5625 L35.6044922,28.25 C35.5758462,27.6054655 35.461264,27.0325546 35.2607422,26.53125 C35.1748043,26.3164052 35.0655931,26.1069346 34.9331055,25.902832 C34.8006178,25.6987294 34.6376963,25.5161141 34.4443359,25.3549805 C34.2509756,25.1938469 34.0236016,25.0631515 33.762207,24.9628906 C33.5008125,24.8626297 33.1982439,24.8125 32.8544922,24.8125 C32.4964175,24.8125 32.1866875,24.8680007 31.925293,24.9790039 C31.6638984,25.0900071 31.4490568,25.2386058 31.2807617,25.4248047 C31.1124666,25.6110035 30.9889327,25.8294258 30.9101562,26.0800781 C30.8313798,26.3307304 30.7919922,26.5957017 30.7919922,26.875 C30.7919922,27.3476586 30.9029937,27.8310522 31.125,28.3251953 C31.3470063,28.8193384 31.6943336,29.2526023 32.1669922,29.625 L35.6044922,32.375 C36.0413433,32.7259132 36.4298486,33.1108377 36.7700195,33.5297852 C37.1101905,33.9487326 37.3984363,34.3873675 37.6347656,34.8457031 C37.8710949,35.3040388 38.0501296,35.7748999 38.171875,36.2583008 C38.2936204,36.7417016 38.3544922,37.2197242 38.3544922,37.6923828 C38.3544922,38.2867868 38.2578135,38.8543267 38.0644531,39.3950195 C37.8710928,39.9357123 37.5756856,40.4137349 37.1782227,40.8291016 C36.7807597,41.2444682 36.281253,41.5756824 35.6796875,41.8227539 C35.078122,42.0698255 34.365564,42.1933594 33.5419922,42.1933594 L33.5419922,42.1933594 Z M49.6982422,22.75 L49.6982422,25.1992188 L46.2607422,25.1992188 L46.2607422,42 L43.5107422,42 L43.5107422,25.1992188 L40.0732422,25.1992188 L40.0732422,22.75 L49.6982422,22.75 Z M53.4794922,37.1875 L52.4482422,42 L49.6982422,42 L53.8232422,22.75 L56.5732422,22.75 L60.6982422,42 L57.9482422,42 L56.9169922,37.1875 L53.4794922,37.1875 Z M56.5732422,35.125 L55.1982422,26.875 L53.8232422,35.125 L56.5732422,35.125 Z M70.3447266,42 L67.5732422,33.0625 L65.5107422,33.0625 L65.5107422,42 L62.7607422,42 L62.7607422,22.75 L66.1982422,22.75 C67.4013732,22.75 68.4003867,22.8735339 69.1953125,23.1206055 C69.9902383,23.367677 70.6240211,23.7167946 71.0966797,24.1679688 C71.5693383,24.6191429 71.9023428,25.1616179 72.0957031,25.7954102 C72.2890635,26.4292024 72.3857422,27.1328086 72.3857422,27.90625 C72.3857422,28.3789086 72.3517256,28.8050111 72.2836914,29.1845703 C72.2156572,29.5641295 72.1243495,29.902505 72.0097656,30.199707 C71.8951817,30.496909 71.7662768,30.7582997 71.6230469,30.9838867 C71.479817,31.2094738 71.3330086,31.4010409 71.1826172,31.5585938 C70.831704,31.9381529 70.4306663,32.2102856 69.9794922,32.375 L73.0732422,42 L70.3447266,42 Z M65.5107422,31 L66.1982422,31 C66.7138698,31 67.1829406,30.9516606 67.6054688,30.8549805 C68.0279969,30.7583003 68.3896469,30.5917981 68.6904297,30.3554688 C68.9912124,30.1191394 69.2239575,29.8022481 69.3886719,29.4047852 C69.5533862,29.0073222 69.6357422,28.5078155 69.6357422,27.90625 C69.6357422,27.3046845 69.5533862,26.8051778 69.3886719,26.4077148 C69.2239575,26.0102519 68.9912124,25.6933606 68.6904297,25.4570312 C68.3896469,25.2207019 68.0279969,25.0541997 67.6054688,24.9575195 C67.1829406,24.8608394 66.7138698,24.8125 66.1982422,24.8125 L65.5107422,24.8125 L65.5107422,31 Z M84.0732422,22.75 L84.0732422,25.1992188 L80.6357422,25.1992188 L80.6357422,42 L77.8857422,42 L77.8857422,25.1992188 L74.4482422,25.1992188 L74.4482422,22.75 L84.0732422,22.75 Z M97.0712891,42.1933594 C96.3837856,42.1933594 95.7786484,42.1127938 95.2558594,41.9516602 C94.7330703,41.7905265 94.2783222,41.5756849 93.8916016,41.3071289 C93.5048809,41.0385729 93.1790378,40.7342139 92.9140625,40.394043 C92.6490872,40.053872 92.4306649,39.7047544 92.2587891,39.3466797 C91.8577454,38.5159464 91.628581,37.5670626 91.5712891,36.5 L94.3212891,35.8125 C94.349935,36.5859414 94.4645172,37.2734345 94.6650391,37.875 C94.750977,38.1328138 94.8601881,38.3852527 94.9926758,38.6323242 C95.1251634,38.8793958 95.288085,39.0996084 95.4814453,39.2929688 C95.6748057,39.4863291 95.9021797,39.6420893 96.1635742,39.7602539 C96.4249688,39.8784186 96.7275373,39.9375 97.0712891,39.9375 C98.4462959,39.9375 99.1337891,39.2500069 99.1337891,37.875 C99.1337891,37.5312483 99.0908207,37.2107762 99.0048828,36.9135742 C98.9189449,36.6163722 98.7900399,36.3299167 98.6181641,36.0541992 C98.4462882,35.7784817 98.2314466,35.5099297 97.9736328,35.2485352 C97.715819,34.9871406 97.4150408,34.7167983 97.0712891,34.4375 L93.6337891,31.6875 C93.2828758,31.4082017 92.9767266,31.0913104 92.715332,30.7368164 C92.4539375,30.3823224 92.2373055,30.00814 92.0654297,29.6142578 C91.8935538,29.2203756 91.7664392,28.819338 91.684082,28.4111328 C91.6017248,28.0029276 91.5605469,27.5983093 91.5605469,27.1972656 C91.5605469,26.5813771 91.664387,25.9923531 91.8720703,25.4301758 C92.0797536,24.8679985 92.3859029,24.3738628 92.7905273,23.9477539 C93.1951518,23.521645 93.6982392,23.1832695 94.2998047,22.9326172 C94.9013702,22.6819649 95.5960247,22.5566406 96.3837891,22.5566406 C97.0712925,22.5566406 97.6764297,22.6282545 98.1992188,22.7714844 C98.7220078,22.9147143 99.1767559,23.104491 99.5634766,23.3408203 C99.9501972,23.5771496 100.27604,23.8457016 100.541016,24.1464844 C100.805991,24.4472671 101.024413,24.7516261 101.196289,25.0595703 C101.597333,25.7972042 101.826497,26.6315058 101.883789,27.5625 L99.1337891,28.25 C99.1051431,27.6054655 98.9905609,27.0325546 98.7900391,26.53125 C98.7041011,26.3164052 98.59489,26.1069346 98.4624023,25.902832 C98.3299147,25.6987294 98.1669932,25.5161141 97.9736328,25.3549805 C97.7802725,25.1938469 97.5528984,25.0631515 97.2915039,24.9628906 C97.0301094,24.8626297 96.7275408,24.8125 96.3837891,24.8125 C96.0257144,24.8125 95.7159844,24.8680007 95.4545898,24.9790039 C95.1931953,25.0900071 94.9783537,25.2386058 94.8100586,25.4248047 C94.6417635,25.6110035 94.5182296,25.8294258 94.4394531,26.0800781 C94.3606767,26.3307304 94.3212891,26.5957017 94.3212891,26.875 C94.3212891,27.3476586 94.4322906,27.8310522 94.6542969,28.3251953 C94.8763032,28.8193384 95.2236304,29.2526023 95.6962891,29.625 L99.1337891,32.375 C99.5706402,32.7259132 99.9591454,33.1108377 100.299316,33.5297852 C100.639487,33.9487326 100.927733,34.3873675 101.164062,34.8457031 C101.400392,35.3040388 101.579426,35.7748999 101.701172,36.2583008 C101.822917,36.7417016 101.883789,37.2197242 101.883789,37.6923828 C101.883789,38.2867868 101.78711,38.8543267 101.59375,39.3950195 C101.40039,39.9357123 101.104982,40.4137349 100.70752,40.8291016 C100.310057,41.2444682 99.8105499,41.5756824 99.2089844,41.8227539 C98.6074189,42.0698255 97.8948609,42.1933594 97.0712891,42.1933594 L97.0712891,42.1933594 Z M109.102539,22.75 C109.961918,22.75 110.69596,22.8753243 111.304688,23.1259766 C111.913415,23.3766289 112.411131,23.7382789 112.797852,24.2109375 C113.184572,24.6835961 113.467447,25.2600877 113.646484,25.9404297 C113.825522,26.6207716 113.915039,27.3906207 113.915039,28.25 C113.915039,29.1093793 113.793295,29.8434214 113.549805,30.4521484 C113.306314,31.0608754 112.969729,31.5585918 112.540039,31.9453125 C112.110349,32.3320332 111.601891,32.614908 111.014648,32.7939453 C110.427406,32.9729827 109.790042,33.0625 109.102539,33.0625 L107.040039,33.0625 L107.040039,42 L104.290039,42 L104.290039,22.75 L109.102539,22.75 Z M107.727539,31 C108.415042,31 108.980792,30.953451 109.424805,30.8603516 C109.868817,30.7672521 110.219725,30.6132823 110.477539,30.3984375 C110.735353,30.1835927 110.914388,29.9007179 111.014648,29.5498047 C111.114909,29.1988915 111.165039,28.7656276 111.165039,28.25 C111.165039,27.7343724 111.147136,27.2653016 111.111328,26.8427734 C111.075521,26.4202453 110.950196,26.0585953 110.735352,25.7578125 C110.520507,25.4570297 110.180341,25.2242847 109.714844,25.0595703 C109.249347,24.8948559 108.586918,24.8125 107.727539,24.8125 L107.040039,24.8125 L107.040039,31 L107.727539,31 Z M122.165039,33.0625 L118.727539,33.0625 L118.727539,39.9375 L123.540039,39.9375 L123.540039,42 L115.977539,42 L115.977539,22.75 L123.540039,22.75 L123.540039,24.8125 L118.727539,24.8125 L118.727539,31 L122.165039,31 L122.165039,33.0625 Z M125.602539,42 L125.602539,22.75 L128.352539,22.75 L128.352539,39.9375 L133.165039,39.9375 L133.165039,42 L125.602539,42 Z" id="START-SPEL" fill="#FFFFFF" sketch:type="MSShapeGroup"></path>
            </g>
        </g>
    </g>
</svg>