<?xml version="1.0" encoding="UTF-8" standalone="no"?>
<svg width="165px" height="24px" viewBox="0 0 165 24" version="1.1" xmlns="http://www.w3.org/2000/svg" xmlns:xlink="http://www.w3.org/1999/xlink" xmlns:sketch="http://www.bohemiancoding.com/sketch/ns">
    <!-- Generator: Sketch 3.4 (15588) - http://www.bohemiancoding.com/sketch -->
    <title>FRUITMACHINES Copy</title>
    <desc>Created with Sketch.</desc>
    <defs></defs>
    <g id="Page-1" stroke="none" stroke-width="1" fill="none" fill-rule="evenodd" sketch:type="MSPage">
        <g id="Artboard-7" sketch:type="MSArtboardGroup" transform="translate(-65.000000, -166.000000)" fill="#FFFFFF">
            <path d="M74.15625,169.46875 L68.6875,169.46875 L68.6875,176.5 L72.59375,176.5 L72.59375,178.84375 L68.6875,178.84375 L68.6875,189 L65.5625,189 L65.5625,167.125 L74.15625,167.125 L74.15625,169.46875 Z M85.1181641,189 L81.96875,178.84375 L79.625,178.84375 L79.625,189 L76.5,189 L76.5,167.125 L80.40625,167.125 C81.7734443,167.125 82.9086869,167.265379 83.8120117,167.546143 C84.7153365,167.826906 85.4355442,168.22363 85.9726562,168.736328 C86.5097683,169.249026 86.8881825,169.865475 87.1079102,170.585693 C87.3276378,171.305912 87.4375,172.105464 87.4375,172.984375 C87.4375,173.521487 87.3988448,174.005694 87.3215332,174.437012 C87.2442216,174.868329 87.1404629,175.252847 87.0102539,175.590576 C86.8800449,175.928306 86.733562,176.225341 86.5708008,176.481689 C86.4080396,176.738038 86.2412118,176.955728 86.0703125,177.134766 C85.6715475,177.566083 85.2158229,177.875325 84.703125,178.0625 L88.21875,189 L85.1181641,189 Z M79.625,176.5 L80.40625,176.5 C80.9921904,176.5 81.5252255,176.445069 82.0053711,176.335205 C82.4855167,176.225341 82.8964827,176.036134 83.2382812,175.767578 C83.5800798,175.499022 83.8445629,175.138918 84.0317383,174.687256 C84.2189137,174.235593 84.3125,173.667972 84.3125,172.984375 C84.3125,172.300778 84.2189137,171.733157 84.0317383,171.281494 C83.8445629,170.829832 83.5800798,170.469728 83.2382812,170.201172 C82.8964827,169.932616 82.4855167,169.743409 82.0053711,169.633545 C81.5252255,169.523681 80.9921904,169.46875 80.40625,169.46875 L79.625,169.46875 L79.625,176.5 Z M96.8125,189.231934 C95.9010371,189.231934 95.1136915,189.124106 94.4504395,188.908447 C93.7871874,188.692789 93.2236351,188.395754 92.7597656,188.017334 C92.2958961,187.638914 91.9215509,187.191327 91.6367188,186.674561 C91.3518866,186.157794 91.1301277,185.602379 90.9714355,185.008301 C90.8127433,184.414222 90.7049156,183.79167 90.6479492,183.140625 C90.5909828,182.48958 90.5625,181.838545 90.5625,181.1875 L90.5625,167.125 L93.6875,167.125 L93.6875,181.1875 C93.6875,181.578127 93.691569,181.985024 93.699707,182.408203 C93.7078451,182.831382 93.7424313,183.244383 93.8034668,183.647217 C93.8645023,184.050051 93.9560541,184.434568 94.078125,184.800781 C94.2001959,185.166994 94.3771961,185.486408 94.6091309,185.759033 C94.8410656,186.031658 95.1360659,186.249348 95.4941406,186.412109 C95.8522153,186.574871 96.2916641,186.65625 96.8125,186.65625 C97.3333359,186.65625 97.7727847,186.574871 98.1308594,186.412109 C98.4889341,186.249348 98.7839344,186.031658 99.0158691,185.759033 C99.2478039,185.486408 99.4248041,185.166994 99.546875,184.800781 C99.6689459,184.434568 99.7604977,184.050051 99.8215332,183.647217 C99.8825687,183.244383 99.9171549,182.831382 99.925293,182.408203 C99.933431,181.985024 99.9375,181.578127 99.9375,181.1875 L99.9375,167.125 L103.0625,167.125 L103.0625,181.1875 C103.0625,181.838545 103.034017,182.48958 102.977051,183.140625 C102.920084,183.79167 102.812257,184.414222 102.653564,185.008301 C102.494872,185.602379 102.273113,186.157794 101.988281,186.674561 C101.703449,187.191327 101.329104,187.638914 100.865234,188.017334 C100.401365,188.395754 99.8378126,188.692789 99.1745605,188.908447 C98.5113085,189.124106 97.7239629,189.231934 96.8125,189.231934 L96.8125,189.231934 Z M106.1875,167.125 L109.3125,167.125 L109.3125,189 L106.1875,189 L106.1875,167.125 Z M122.59375,167.125 L122.59375,169.908203 L118.6875,169.908203 L118.6875,189 L115.5625,189 L115.5625,169.908203 L111.65625,169.908203 L111.65625,167.125 L122.59375,167.125 Z M131.1875,189 L128.0625,171.739258 L128.0625,189 L124.9375,189 L124.9375,167.125 L129.258789,167.125 L132.359375,183.873047 L135.459961,167.125 L139.78125,167.125 L139.78125,189 L136.65625,189 L136.65625,171.739258 L133.53125,189 L131.1875,189 Z M146.421875,183.53125 L145.25,189 L142.125,189 L146.8125,167.125 L149.9375,167.125 L154.625,189 L151.5,189 L150.328125,183.53125 L146.421875,183.53125 Z M149.9375,181.1875 L148.375,171.8125 L146.8125,181.1875 L149.9375,181.1875 Z M169.078125,181.1875 L169.078125,181.96875 C169.078125,182.945317 168.972332,183.873042 168.760742,184.751953 C168.549153,185.630864 168.199221,186.399899 167.710938,187.059082 C167.222654,187.718265 166.579757,188.243162 165.782227,188.633789 C164.984697,189.024416 164.000006,189.219727 162.828125,189.219727 C161.656244,189.219727 160.671553,189.020347 159.874023,188.621582 C159.076493,188.222817 158.433596,187.667403 157.945312,186.955322 C157.457029,186.243242 157.107097,185.394862 156.895508,184.410156 C156.683918,183.425451 156.578125,182.347174 156.578125,181.175293 L156.578125,174.9375 C156.578125,173.765619 156.683918,172.687342 156.895508,171.702637 C157.107097,170.717931 157.457029,169.871586 157.945312,169.163574 C158.433596,168.455563 159.076493,167.902183 159.874023,167.503418 C160.671553,167.104653 161.656244,166.905273 162.828125,166.905273 C163.934901,166.905273 164.885006,167.082274 165.678467,167.436279 C166.471928,167.790285 167.118894,168.284665 167.619385,168.919434 C168.119876,169.554202 168.488117,170.317134 168.724121,171.208252 C168.960125,172.09937 169.078125,173.082026 169.078125,174.15625 L165.953125,174.15625 C165.953125,173.374996 165.900228,172.691409 165.794434,172.105469 C165.688639,171.519528 165.513673,171.031252 165.269531,170.640625 C165.025389,170.249998 164.703941,169.957032 164.305176,169.761719 C163.906411,169.566405 163.414065,169.46875 162.828125,169.46875 C162.242185,169.46875 161.749839,169.566405 161.351074,169.761719 C160.952309,169.957032 160.630861,170.249998 160.386719,170.640625 C160.142577,171.031252 159.967611,171.519528 159.861816,172.105469 C159.756022,172.691409 159.703125,173.374996 159.703125,174.15625 L159.703125,181.96875 C159.703125,182.55469 159.756022,183.128415 159.861816,183.689941 C159.967611,184.251468 160.142577,184.751951 160.386719,185.191406 C160.630861,185.630862 160.952309,185.984862 161.351074,186.253418 C161.749839,186.521974 162.242185,186.65625 162.828125,186.65625 C163.414065,186.65625 163.906411,186.521974 164.305176,186.253418 C164.703941,185.984862 165.025389,185.630862 165.269531,185.191406 C165.513673,184.751951 165.688639,184.251468 165.794434,183.689941 C165.900228,183.128415 165.953125,182.55469 165.953125,181.96875 L165.953125,181.1875 L169.078125,181.1875 Z M180.40625,178.84375 L174.9375,178.84375 L174.9375,189 L171.8125,189 L171.8125,167.125 L174.9375,167.125 L174.9375,176.5 L180.40625,176.5 L180.40625,167.125 L183.53125,167.125 L183.53125,189 L180.40625,189 L180.40625,178.84375 Z M186.65625,167.125 L189.78125,167.125 L189.78125,189 L186.65625,189 L186.65625,167.125 Z M201.62207,189 L196.03125,174.449219 L196.03125,189 L192.90625,189 L192.90625,167.125 L195.25,167.125 L200.71875,180.650391 L200.71875,167.125 L203.84375,167.125 L203.84375,189 L201.62207,189 Z M214,178.84375 L210.09375,178.84375 L210.09375,186.65625 L215.5625,186.65625 L215.5625,189 L206.96875,189 L206.96875,167.125 L215.5625,167.125 L215.5625,169.46875 L210.09375,169.46875 L210.09375,176.5 L214,176.5 L214,178.84375 Z M223.777832,189.219727 C222.996578,189.219727 222.308922,189.128175 221.714844,188.945068 C221.120765,188.761962 220.604006,188.517824 220.164551,188.212646 C219.725095,187.907469 219.354819,187.561607 219.053711,187.175049 C218.752603,186.788491 218.504396,186.391766 218.309082,185.984863 C217.853351,185.040848 217.592937,183.962571 217.527832,182.75 L220.652832,181.96875 C220.685384,182.847661 220.815591,183.628903 221.043457,184.3125 C221.141114,184.60547 221.265217,184.892333 221.415771,185.173096 C221.566326,185.453859 221.751464,185.7041 221.971191,185.923828 C222.190919,186.143556 222.449299,186.320556 222.746338,186.454834 C223.043377,186.589112 223.387205,186.65625 223.777832,186.65625 C225.34034,186.65625 226.121582,185.875008 226.121582,184.3125 C226.121582,183.921873 226.072754,183.5577 225.975098,183.219971 C225.877441,182.882241 225.730958,182.556724 225.535645,182.243408 C225.340331,181.930093 225.096193,181.62492 224.803223,181.327881 C224.510252,181.030842 224.168459,180.723634 223.777832,180.40625 L219.871582,177.28125 C219.472817,176.963866 219.12492,176.603762 218.827881,176.200928 C218.530842,175.798094 218.284669,175.372886 218.089355,174.925293 C217.894042,174.4777 217.749594,174.021975 217.656006,173.558105 C217.562418,173.094236 217.515625,172.634442 217.515625,172.178711 C217.515625,171.478838 217.633625,170.809492 217.869629,170.170654 C218.105633,169.531816 218.45353,168.970299 218.91333,168.486084 C219.373131,168.001869 219.944821,167.617352 220.628418,167.33252 C221.312015,167.047687 222.101395,166.905273 222.996582,166.905273 C223.777836,166.905273 224.465492,166.986653 225.05957,167.149414 C225.653649,167.312175 226.170408,167.527831 226.609863,167.796387 C227.049319,168.064943 227.419595,168.370115 227.720703,168.711914 C228.021811,169.053713 228.270019,169.399575 228.465332,169.749512 C228.921063,170.587732 229.181478,171.535802 229.246582,172.59375 L226.121582,173.375 C226.08903,172.642574 225.958823,171.991539 225.730957,171.421875 C225.6333,171.177733 225.509197,170.939698 225.358643,170.707764 C225.208088,170.475829 225.02295,170.268311 224.803223,170.085205 C224.583495,169.902099 224.325115,169.753581 224.028076,169.639648 C223.731037,169.525716 223.387209,169.46875 222.996582,169.46875 C222.589679,169.46875 222.237713,169.531819 221.940674,169.657959 C221.643635,169.784099 221.399496,169.952961 221.208252,170.164551 C221.017008,170.37614 220.876628,170.624348 220.787109,170.90918 C220.697591,171.194012 220.652832,171.495116 220.652832,171.8125 C220.652832,172.349612 220.77897,172.898923 221.03125,173.460449 C221.28353,174.021975 221.67822,174.514321 222.215332,174.9375 L226.121582,178.0625 C226.618004,178.461265 227.059487,178.898679 227.446045,179.374756 C227.832603,179.850832 228.160155,180.349281 228.428711,180.870117 C228.697267,181.390953 228.900715,181.926023 229.039062,182.475342 C229.17741,183.024661 229.246582,183.567868 229.246582,184.10498 C229.246582,184.78044 229.13672,185.425371 228.916992,186.039795 C228.697265,186.654219 228.361575,187.197426 227.909912,187.669434 C227.45825,188.141441 226.890628,188.517821 226.207031,188.798584 C225.523434,189.079347 224.713709,189.219727 223.777832,189.219727 L223.777832,189.219727 Z" id="FRUITMACHINES-Copy" sketch:type="MSShapeGroup"></path>
        </g>
    </g>
</svg>