<?xml version="1.0" encoding="UTF-8" standalone="no"?>
<svg width="210px" height="52px" viewBox="0 0 210 52" version="1.1" xmlns="http://www.w3.org/2000/svg" xmlns:xlink="http://www.w3.org/1999/xlink" xmlns:sketch="http://www.bohemiancoding.com/sketch/ns">
    <!-- Generator: Sketch 3.4 (15588) - http://www.bohemiancoding.com/sketch -->
    <title>Nu wordt spelen</title>
    <desc>Created with Sketch.</desc>
    <defs></defs>
    <g id="Page-1" stroke="none" stroke-width="1" fill="none" fill-rule="evenodd" sketch:type="MSPage">
        <g id="Artboard-7" sketch:type="MSArtboardGroup" transform="translate(-301.000000, -223.000000)" fill="#FFFFFF">
            <path d="M332.758789,245 L327.167969,230.449219 L327.167969,245 L324.042969,245 L324.042969,223.125 L326.386719,223.125 L331.855469,236.650391 L331.855469,223.125 L334.980469,223.125 L334.980469,245 L332.758789,245 Z M347.480469,245 L344.355469,245 L344.355469,243.31543 C343.826495,243.795575 343.356529,244.163817 342.945557,244.420166 C342.534585,244.676515 342.168377,244.863688 341.846924,244.981689 C341.52547,245.099691 341.242677,245.168864 340.998535,245.189209 C340.754393,245.209554 340.538738,245.219727 340.351562,245.219727 C340.009764,245.219727 339.700522,245.14852 339.423828,245.006104 C339.147134,244.863687 338.911134,244.67448 338.71582,244.438477 C338.520507,244.202473 338.369955,243.931886 338.26416,243.626709 C338.158365,243.321532 338.105469,243.010255 338.105469,242.692871 L338.105469,229.375 L341.230469,229.375 L341.230469,241.740723 C341.230469,242.082521 341.334227,242.351073 341.541748,242.546387 C341.749269,242.7417 342.003579,242.839355 342.304688,242.839355 C342.500001,242.839355 342.689208,242.804769 342.872314,242.735596 C343.055421,242.666422 343.232421,242.578939 343.40332,242.473145 C343.57422,242.36735 343.739013,242.24935 343.897705,242.119141 C344.056397,241.988932 344.208984,241.862794 344.355469,241.740723 L344.355469,229.375 L347.480469,229.375 L347.480469,245 Z M364.191895,234.84375 L362.629395,245 L359.504395,245 L356.379395,229.375 L359.504395,229.375 L361.066895,239.53125 L362.629395,229.375 L365.72998,229.375 L367.29248,239.53125 L368.85498,229.375 L371.97998,229.375 L368.85498,245 L365.72998,245 L364.191895,234.84375 Z M373.933105,234.84375 C373.933105,234.583332 373.941243,234.261883 373.95752,233.879395 C373.973796,233.496906 374.024658,233.096112 374.110107,232.677002 C374.195557,232.257892 374.331868,231.836753 374.519043,231.413574 C374.706218,230.990395 374.972736,230.611981 375.318604,230.27832 C375.664471,229.94466 376.105954,229.674073 376.643066,229.466553 C377.180178,229.259032 377.839352,229.155273 378.620605,229.155273 C379.401859,229.155273 380.061032,229.259032 380.598145,229.466553 C381.135257,229.674073 381.57674,229.94466 381.922607,230.27832 C382.268475,230.611981 382.534993,230.990395 382.722168,231.413574 C382.909343,231.836753 383.045654,232.257892 383.131104,232.677002 C383.216553,233.096112 383.267415,233.496906 383.283691,233.879395 C383.299968,234.261883 383.308105,234.583332 383.308105,234.84375 L383.308105,239.53125 C383.308105,239.791668 383.299968,240.113117 383.283691,240.495605 C383.267415,240.878094 383.216553,241.278888 383.131104,241.697998 C383.045654,242.117108 382.909343,242.538247 382.722168,242.961426 C382.534993,243.384605 382.268475,243.763019 381.922607,244.09668 C381.57674,244.43034 381.135257,244.700927 380.598145,244.908447 C380.061032,245.115968 379.401859,245.219727 378.620605,245.219727 C377.839352,245.219727 377.180178,245.115968 376.643066,244.908447 C376.105954,244.700927 375.664471,244.43034 375.318604,244.09668 C374.972736,243.763019 374.706218,243.384605 374.519043,242.961426 C374.331868,242.538247 374.195557,242.117108 374.110107,241.697998 C374.024658,241.278888 373.973796,240.878094 373.95752,240.495605 C373.941243,240.113117 373.933105,239.791668 373.933105,239.53125 L373.933105,234.84375 Z M377.058105,239.53125 C377.058105,239.921877 377.066243,240.30436 377.08252,240.678711 C377.098796,241.053062 377.155761,241.386717 377.253418,241.679688 C377.351075,241.972658 377.505696,242.208658 377.717285,242.387695 C377.928875,242.566733 378.229979,242.65625 378.620605,242.65625 C379.011232,242.65625 379.312336,242.566733 379.523926,242.387695 C379.735515,242.208658 379.890136,241.972658 379.987793,241.679688 C380.08545,241.386717 380.142415,241.053062 380.158691,240.678711 C380.174968,240.30436 380.183105,239.921877 380.183105,239.53125 L380.183105,234.84375 C380.183105,234.453123 380.174968,234.07064 380.158691,233.696289 C380.142415,233.321938 380.08545,232.988283 379.987793,232.695312 C379.890136,232.402342 379.735515,232.166342 379.523926,231.987305 C379.312336,231.808267 379.011232,231.71875 378.620605,231.71875 C378.229979,231.71875 377.928875,231.808267 377.717285,231.987305 C377.505696,232.166342 377.351075,232.402342 377.253418,232.695312 C377.155761,232.988283 377.098796,233.321938 377.08252,233.696289 C377.066243,234.07064 377.058105,234.453123 377.058105,234.84375 L377.058105,239.53125 Z M389.16748,229.375 L389.16748,231.462402 L389.338379,231.462402 C389.493002,231.161294 389.684244,230.872397 389.912109,230.595703 C390.139975,230.319009 390.392251,230.074871 390.668945,229.863281 C390.945639,229.651692 391.244709,229.480795 391.566162,229.350586 C391.887616,229.220377 392.223306,229.155273 392.573242,229.155273 C392.597656,229.155273 392.636312,229.157308 392.689209,229.161377 C392.742106,229.165446 392.797037,229.171549 392.854004,229.179688 L393.07373,229.204102 L393.07373,232.658691 C392.813312,232.552897 392.528485,232.469483 392.219238,232.408447 C391.909992,232.347412 391.617026,232.316895 391.340332,232.316895 C391.031086,232.316895 390.744223,232.367757 390.479736,232.469482 C390.215249,232.571208 389.985353,232.715657 389.790039,232.902832 C389.594726,233.090007 389.442139,233.315835 389.332275,233.580322 C389.222412,233.844809 389.16748,234.135741 389.16748,234.453125 L389.16748,245 L386.04248,245 L386.04248,229.375 L389.16748,229.375 Z M401.276855,232.341309 C400.951333,232.145995 400.576988,231.993409 400.153809,231.883545 C399.730629,231.773681 399.323732,231.71875 398.933105,231.71875 C398.542479,231.71875 398.241375,231.834716 398.029785,232.06665 C397.818196,232.298585 397.663575,232.620034 397.565918,233.031006 C397.468261,233.441978 397.411296,233.934323 397.39502,234.508057 C397.378743,235.08179 397.370605,235.710446 397.370605,236.394043 C397.370605,237.557786 397.392985,238.538407 397.437744,239.335938 C397.482503,240.133468 397.561848,240.778399 397.675781,241.270752 C397.789714,241.763105 397.948404,242.117105 398.151855,242.332764 C398.355307,242.548422 398.615721,242.65625 398.933105,242.65625 C399.185385,242.65625 399.52311,242.621664 399.946289,242.55249 C400.369468,242.483317 400.812986,242.355144 401.276855,242.167969 L401.276855,232.341309 Z M401.276855,224.6875 L404.401855,224.6875 L404.401855,245 L401.276855,245 L401.276855,243.583984 C401.073404,243.795574 400.851645,244.001057 400.611572,244.200439 C400.371499,244.399822 400.119223,244.574788 399.854736,244.725342 C399.590249,244.875896 399.313559,244.995931 399.024658,245.085449 C398.735757,245.174968 398.444826,245.219727 398.151855,245.219727 C397.647296,245.219727 397.199709,245.105795 396.809082,244.87793 C396.418455,244.650064 396.078696,244.346926 395.789795,243.968506 C395.500894,243.590086 395.256756,243.150637 395.057373,242.650146 C394.857991,242.149656 394.699301,241.630862 394.581299,241.09375 C394.463297,240.556638 394.377849,240.017499 394.324951,239.476318 C394.272054,238.935137 394.245605,238.428551 394.245605,237.956543 C394.245605,236.345207 394.310709,234.982102 394.440918,233.867188 C394.571127,232.752273 394.784748,231.844893 395.081787,231.14502 C395.378826,230.445146 395.773516,229.93856 396.265869,229.625244 C396.758222,229.311929 397.370602,229.155273 398.103027,229.155273 C398.257651,229.155273 398.434651,229.16748 398.634033,229.191895 C398.833416,229.216309 399.061278,229.285481 399.317627,229.399414 C399.573976,229.513347 399.862873,229.688313 400.184326,229.924316 C400.50578,230.16032 400.869952,230.493976 401.276855,230.925293 L401.276855,224.6875 Z M408.308105,223.90625 L411.433105,223.90625 L411.433105,229.375 L413.776855,229.375 L413.776855,231.71875 L411.433105,231.71875 L411.433105,240.837402 C411.433105,241.09782 411.445312,241.339924 411.469727,241.563721 C411.494141,241.787517 411.549072,241.980793 411.634521,242.143555 C411.719971,242.306316 411.850178,242.432454 412.025146,242.521973 C412.200115,242.611491 412.434081,242.65625 412.727051,242.65625 C412.792155,242.65625 412.883707,242.650147 413.001709,242.637939 C413.119711,242.625732 413.235677,242.611491 413.349609,242.595215 C413.487956,242.578939 413.63037,242.558594 413.776855,242.53418 L413.776855,245.073242 C413.3374,245.130209 412.979331,245.168864 412.702637,245.189209 C412.425943,245.209554 412.141115,245.219727 411.848145,245.219727 C411.23779,245.219727 410.727134,245.14852 410.316162,245.006104 C409.90519,244.863687 409.567466,244.670411 409.302979,244.42627 C409.038492,244.182128 408.839112,243.8973 408.704834,243.571777 C408.570556,243.246255 408.472901,242.904461 408.411865,242.546387 C408.35083,242.188312 408.318278,241.82007 408.314209,241.44165 C408.31014,241.063231 408.308105,240.699058 408.308105,240.349121 L408.308105,231.71875 L406.745605,231.71875 L406.745605,229.375 L408.308105,229.375 L408.308105,223.90625 Z M424.628906,240.3125 C424.791667,240.751955 424.986978,241.142576 425.214844,241.484375 C425.3125,241.63086 425.422363,241.775309 425.544434,241.917725 C425.666505,242.060141 425.800781,242.186279 425.947266,242.296143 C426.093751,242.406006 426.252441,242.493489 426.42334,242.558594 C426.594239,242.623698 426.777343,242.65625 426.972656,242.65625 C427.16797,242.65625 427.359211,242.629802 427.546387,242.576904 C427.733562,242.524007 427.90039,242.436524 428.046875,242.314453 C428.19336,242.192382 428.31136,242.031658 428.400879,241.832275 C428.490398,241.632893 428.535156,241.38672 428.535156,241.09375 C428.535156,240.80078 428.494467,240.5424 428.413086,240.318604 C428.331705,240.094807 428.242188,239.9056 428.144531,239.750977 C428.030598,239.571939 427.900391,239.417318 427.753906,239.287109 L424.628906,236.943359 C424.124346,236.593423 423.717449,236.253664 423.408203,235.924072 C423.098957,235.594481 422.860922,235.277101 422.694092,234.971924 C422.527262,234.666747 422.417399,234.373781 422.364502,234.093018 C422.311605,233.812254 422.285156,233.541668 422.285156,233.28125 C422.285156,232.69531 422.382812,232.150068 422.578125,231.645508 C422.773438,231.140948 423.066404,230.705568 423.457031,230.339355 C423.847658,229.973143 424.335935,229.684246 424.921875,229.472656 C425.507815,229.261067 426.191402,229.155273 426.972656,229.155273 C427.46094,229.155273 427.902423,229.214273 428.297119,229.332275 C428.691815,229.450277 429.043781,229.606933 429.353027,229.802246 C429.662274,229.99756 429.934895,230.219318 430.170898,230.467529 C430.406902,230.71574 430.610351,230.965982 430.78125,231.218262 C431.180015,231.828616 431.472981,232.516272 431.660156,233.28125 L429.316406,234.0625 C429.153645,233.623045 428.958334,233.232424 428.730469,232.890625 C428.632812,232.74414 428.52295,232.601726 428.400879,232.463379 C428.278808,232.325032 428.144532,232.200928 427.998047,232.091064 C427.851562,231.981201 427.692872,231.891683 427.521973,231.82251 C427.351073,231.753336 427.16797,231.71875 426.972656,231.71875 C426.777343,231.71875 426.586101,231.745198 426.398926,231.798096 C426.21175,231.850993 426.044923,231.938476 425.898438,232.060547 C425.751952,232.182618 425.633952,232.343342 425.544434,232.542725 C425.454915,232.742107 425.410156,232.98828 425.410156,233.28125 C425.410156,233.476563 425.450846,233.655598 425.532227,233.818359 C425.613607,233.981121 425.703125,234.119466 425.800781,234.233398 C425.914714,234.371745 426.044921,234.493815 426.191406,234.599609 L429.316406,236.943359 C430.05697,237.537438 430.632729,238.170163 431.043701,238.841553 C431.454673,239.512943 431.660156,240.263668 431.660156,241.09375 C431.660156,241.67969 431.562501,242.224932 431.367188,242.729492 C431.171874,243.234052 430.878908,243.669432 430.488281,244.035645 C430.097654,244.401857 429.609378,244.690754 429.023438,244.902344 C428.437497,245.113933 427.75391,245.219727 426.972656,245.219727 C426.484373,245.219727 426.042889,245.160727 425.648193,245.042725 C425.253497,244.924723 424.899497,244.770102 424.586182,244.578857 C424.272866,244.387613 424.000245,244.167889 423.768311,243.919678 C423.536376,243.671467 423.334962,243.417156 423.164062,243.156738 C422.765297,242.554522 422.472332,241.866866 422.285156,241.09375 L424.628906,240.3125 Z M434.394531,229.375 L437.519531,229.375 L437.519531,230.9375 C437.926434,230.506183 438.290607,230.170493 438.612061,229.93042 C438.933514,229.690347 439.222411,229.513347 439.47876,229.399414 C439.735109,229.285481 439.962971,229.216309 440.162354,229.191895 C440.361736,229.16748 440.538736,229.155273 440.693359,229.155273 C441.425785,229.155273 442.038165,229.311929 442.530518,229.625244 C443.02287,229.93856 443.41756,230.445146 443.7146,231.14502 C444.011639,231.844893 444.22526,232.754308 444.355469,233.873291 C444.485678,234.992274 444.550781,236.357414 444.550781,237.96875 C444.550781,238.440758 444.524333,238.947344 444.471436,239.488525 C444.418538,240.029706 444.33309,240.568845 444.215088,241.105957 C444.097086,241.643069 443.938396,242.159828 443.739014,242.65625 C443.539631,243.152672 443.295493,243.590086 443.006592,243.968506 C442.717691,244.346926 442.377932,244.650064 441.987305,244.87793 C441.596678,245.105795 441.149091,245.219727 440.644531,245.219727 C440.351561,245.219727 440.06063,245.174968 439.771729,245.085449 C439.482827,244.995931 439.206137,244.875896 438.94165,244.725342 C438.677163,244.574788 438.424887,244.401856 438.184814,244.206543 C437.944742,244.011229 437.722983,243.807781 437.519531,243.596191 L437.519531,249.6875 L434.394531,249.6875 L434.394531,229.375 Z M437.519531,242.021484 C437.983401,242.29004 438.426918,242.462972 438.850098,242.540283 C439.273277,242.617595 439.611001,242.65625 439.863281,242.65625 C440.180666,242.65625 440.44108,242.548422 440.644531,242.332764 C440.847983,242.117105 441.006673,241.765139 441.120605,241.276855 C441.234538,240.788572 441.313883,240.145675 441.358643,239.348145 C441.403402,238.550615 441.425781,237.569993 441.425781,236.40625 C441.425781,235.722653 441.403402,235.085859 441.358643,234.49585 C441.313883,233.90584 441.224366,233.39315 441.090088,232.957764 C440.95581,232.522377 440.768637,232.180584 440.528564,231.932373 C440.288492,231.684162 439.973146,231.560059 439.58252,231.560059 C439.191893,231.560059 438.831789,231.643472 438.502197,231.810303 C438.172606,231.977133 437.845054,232.158202 437.519531,232.353516 L437.519531,242.021484 Z M451.569824,245.219727 C450.78857,245.219727 450.107018,245.091554 449.525146,244.835205 C448.943275,244.578856 448.457033,244.133304 448.066406,243.498535 C447.675779,242.863766 447.382813,242.005214 447.1875,240.922852 C446.992187,239.840489 446.894531,238.473316 446.894531,236.821289 C446.894531,235.3483 446.992187,234.121506 447.1875,233.140869 C447.382813,232.160233 447.675779,231.374922 448.066406,230.784912 C448.457033,230.194903 448.94531,229.775799 449.53125,229.527588 C450.11719,229.279377 450.800777,229.155273 451.582031,229.155273 C452.363285,229.155273 453.046872,229.279377 453.632812,229.527588 C454.218753,229.775799 454.707029,230.194903 455.097656,230.784912 C455.488283,231.374922 455.781249,232.160233 455.976562,233.140869 C456.171876,234.121506 456.269531,235.3483 456.269531,236.821289 L456.269531,237.1875 L450.019531,237.1875 L450.019531,237.96875 C450.019531,238.55469 450.027669,239.128415 450.043945,239.689941 C450.060221,240.251468 450.117187,240.751951 450.214844,241.191406 C450.3125,241.630862 450.467121,241.984862 450.678711,242.253418 C450.890301,242.521974 451.191404,242.65625 451.582031,242.65625 C451.980796,242.65625 452.285969,242.566733 452.497559,242.387695 C452.709148,242.208658 452.863769,241.972658 452.961426,241.679688 C453.059083,241.386717 453.116048,241.053062 453.132324,240.678711 C453.1486,240.30436 453.156738,239.921877 453.156738,239.53125 L456.269531,239.53125 C456.269531,241.484385 455.87891,242.920731 455.097656,243.840332 C454.316402,244.759933 453.14047,245.219727 451.569824,245.219727 L451.569824,245.219727 Z M451.582031,231.71875 C451.191404,231.71875 450.890301,231.848957 450.678711,232.109375 C450.467121,232.369793 450.3125,232.695311 450.214844,233.085938 C450.117187,233.476564 450.060221,233.899737 450.043945,234.355469 C450.027669,234.8112 450.019531,235.234373 450.019531,235.625 L453.144531,235.625 C453.144531,235.234373 453.138428,234.8112 453.126221,234.355469 C453.114014,233.899737 453.059083,233.476564 452.961426,233.085938 C452.863769,232.695311 452.709148,232.369793 452.497559,232.109375 C452.285969,231.848957 451.980796,231.71875 451.582031,231.71875 L451.582031,231.71875 Z M462.128906,245 L459.003906,245 L459.003906,223.125 L462.128906,223.125 L462.128906,245 Z M469.538574,245.219727 C468.75732,245.219727 468.075768,245.091554 467.493896,244.835205 C466.912025,244.578856 466.425783,244.133304 466.035156,243.498535 C465.644529,242.863766 465.351563,242.005214 465.15625,240.922852 C464.960937,239.840489 464.863281,238.473316 464.863281,236.821289 C464.863281,235.3483 464.960937,234.121506 465.15625,233.140869 C465.351563,232.160233 465.644529,231.374922 466.035156,230.784912 C466.425783,230.194903 466.91406,229.775799 467.5,229.527588 C468.08594,229.279377 468.769527,229.155273 469.550781,229.155273 C470.332035,229.155273 471.015622,229.279377 471.601562,229.527588 C472.187503,229.775799 472.675779,230.194903 473.066406,230.784912 C473.457033,231.374922 473.749999,232.160233 473.945312,233.140869 C474.140626,234.121506 474.238281,235.3483 474.238281,236.821289 L474.238281,237.1875 L467.988281,237.1875 L467.988281,237.96875 C467.988281,238.55469 467.996419,239.128415 468.012695,239.689941 C468.028971,240.251468 468.085937,240.751951 468.183594,241.191406 C468.28125,241.630862 468.435871,241.984862 468.647461,242.253418 C468.859051,242.521974 469.160154,242.65625 469.550781,242.65625 C469.949546,242.65625 470.254719,242.566733 470.466309,242.387695 C470.677898,242.208658 470.832519,241.972658 470.930176,241.679688 C471.027833,241.386717 471.084798,241.053062 471.101074,240.678711 C471.11735,240.30436 471.125488,239.921877 471.125488,239.53125 L474.238281,239.53125 C474.238281,241.484385 473.84766,242.920731 473.066406,243.840332 C472.285152,244.759933 471.10922,245.219727 469.538574,245.219727 L469.538574,245.219727 Z M469.550781,231.71875 C469.160154,231.71875 468.859051,231.848957 468.647461,232.109375 C468.435871,232.369793 468.28125,232.695311 468.183594,233.085938 C468.085937,233.476564 468.028971,233.899737 468.012695,234.355469 C467.996419,234.8112 467.988281,235.234373 467.988281,235.625 L471.113281,235.625 C471.113281,235.234373 471.107178,234.8112 471.094971,234.355469 C471.082764,233.899737 471.027833,233.476564 470.930176,233.085938 C470.832519,232.695311 470.677898,232.369793 470.466309,232.109375 C470.254719,231.848957 469.949546,231.71875 469.550781,231.71875 L469.550781,231.71875 Z M476.972656,229.375 L480.097656,229.375 L480.097656,231.05957 C480.618492,230.587563 481.086424,230.221355 481.501465,229.960938 C481.916506,229.70052 482.284748,229.511312 482.606201,229.393311 C482.927655,229.275309 483.210448,229.206136 483.45459,229.185791 C483.698732,229.165446 483.914387,229.155273 484.101562,229.155273 C484.443361,229.155273 484.752603,229.22648 485.029297,229.368896 C485.305991,229.511313 485.541991,229.70052 485.737305,229.936523 C485.932618,230.172527 486.08317,230.443114 486.188965,230.748291 C486.29476,231.053468 486.347656,231.364745 486.347656,231.682129 L486.347656,245 L483.222656,245 L483.222656,233.28125 C483.222656,233.085937 483.216553,232.894695 483.204346,232.70752 C483.192139,232.520344 483.149414,232.353516 483.076172,232.207031 C483.002929,232.060546 482.886964,231.942546 482.728271,231.853027 C482.569579,231.763509 482.343751,231.71875 482.050781,231.71875 C481.652016,231.71875 481.30005,231.810302 480.994873,231.993408 C480.689696,232.176515 480.390626,232.390135 480.097656,232.634277 L480.097656,245 L476.972656,245 L476.972656,229.375 Z M307.276611,262.659668 C307.276611,262.366698 307.272542,262.102215 307.264404,261.866211 C307.256266,261.630207 307.227783,261.426759 307.178955,261.255859 C307.130127,261.08496 307.052816,260.952719 306.947021,260.859131 C306.841227,260.765543 306.690675,260.71875 306.495361,260.71875 C306.194253,260.71875 305.905356,260.771647 305.628662,260.877441 C305.351968,260.983236 305.103761,261.097167 304.884033,261.219238 C304.753824,261.292481 304.627686,261.369791 304.505615,261.451172 C304.383544,261.532552 304.265544,261.618001 304.151611,261.70752 L304.151611,274 L301.026611,274 L301.026611,258.375 L304.151611,258.375 L304.151611,260.14502 C304.45272,259.778807 304.80672,259.44922 305.213623,259.15625 C305.555422,258.90397 305.964353,258.674073 306.44043,258.466553 C306.916506,258.259032 307.451576,258.155273 308.045654,258.155273 C308.346763,258.155273 308.625487,258.179687 308.881836,258.228516 C309.138185,258.277344 309.366047,258.377034 309.56543,258.527588 C309.764812,258.678142 309.935709,258.887694 310.078125,259.15625 C310.220541,259.424806 310.328369,259.778806 310.401611,260.218262 C310.792238,259.705564 311.17879,259.308839 311.561279,259.028076 C311.943768,258.747313 312.305906,258.543865 312.647705,258.417725 C312.989504,258.291585 313.302814,258.216309 313.587646,258.191895 C313.872479,258.16748 314.112548,258.155273 314.307861,258.155273 C314.893802,258.155273 315.345457,258.263101 315.662842,258.47876 C315.980226,258.694418 316.212157,258.997557 316.358643,259.388184 C316.505128,259.778811 316.590576,260.250811 316.61499,260.804199 C316.639404,261.357587 316.651611,261.967933 316.651611,262.635254 L316.651611,274 L313.526611,274 L313.526611,262.598633 C313.526611,262.321939 313.522542,262.069663 313.514404,261.841797 C313.506266,261.613931 313.477783,261.416586 313.428955,261.249756 C313.380127,261.082926 313.302816,260.952719 313.197021,260.859131 C313.091227,260.765543 312.940675,260.71875 312.745361,260.71875 C312.452391,260.71875 312.165529,260.773681 311.884766,260.883545 C311.604003,260.993409 311.353761,261.113443 311.134033,261.243652 C311.003824,261.325033 310.877686,261.408447 310.755615,261.493896 C310.633544,261.579346 310.515544,261.670898 310.401611,261.768555 L310.401611,274 L307.276611,274 L307.276611,262.659668 Z M324.061279,274.219727 C323.280025,274.219727 322.598473,274.091554 322.016602,273.835205 C321.43473,273.578856 320.948488,273.133304 320.557861,272.498535 C320.167234,271.863766 319.874269,271.005214 319.678955,269.922852 C319.483642,268.840489 319.385986,267.473316 319.385986,265.821289 C319.385986,264.3483 319.483642,263.121506 319.678955,262.140869 C319.874269,261.160233 320.167234,260.374922 320.557861,259.784912 C320.948488,259.194903 321.436765,258.775799 322.022705,258.527588 C322.608646,258.279377 323.292232,258.155273 324.073486,258.155273 C324.85474,258.155273 325.538327,258.279377 326.124268,258.527588 C326.710208,258.775799 327.198484,259.194903 327.589111,259.784912 C327.979738,260.374922 328.272704,261.160233 328.468018,262.140869 C328.663331,263.121506 328.760986,264.3483 328.760986,265.821289 L328.760986,266.1875 L322.510986,266.1875 L322.510986,266.96875 C322.510986,267.55469 322.519124,268.128415 322.5354,268.689941 C322.551677,269.251468 322.608642,269.751951 322.706299,270.191406 C322.803956,270.630862 322.958576,270.984862 323.170166,271.253418 C323.381756,271.521974 323.682859,271.65625 324.073486,271.65625 C324.472251,271.65625 324.777424,271.566733 324.989014,271.387695 C325.200603,271.208658 325.355224,270.972658 325.452881,270.679688 C325.550538,270.386717 325.607503,270.053062 325.623779,269.678711 C325.640055,269.30436 325.648193,268.921877 325.648193,268.53125 L328.760986,268.53125 C328.760986,270.484385 328.370365,271.920731 327.589111,272.840332 C326.807857,273.759933 325.631925,274.219727 324.061279,274.219727 L324.061279,274.219727 Z M324.073486,260.71875 C323.682859,260.71875 323.381756,260.848957 323.170166,261.109375 C322.958576,261.369793 322.803956,261.695311 322.706299,262.085938 C322.608642,262.476564 322.551677,262.899737 322.5354,263.355469 C322.519124,263.8112 322.510986,264.234373 322.510986,264.625 L325.635986,264.625 C325.635986,264.234373 325.629883,263.8112 325.617676,263.355469 C325.605469,262.899737 325.550538,262.476564 325.452881,262.085938 C325.355224,261.695311 325.200603,261.369793 324.989014,261.109375 C324.777424,260.848957 324.472251,260.71875 324.073486,260.71875 L324.073486,260.71875 Z M332.276611,252.90625 L335.401611,252.90625 L335.401611,258.375 L337.745361,258.375 L337.745361,260.71875 L335.401611,260.71875 L335.401611,269.837402 C335.401611,270.09782 335.413818,270.339924 335.438232,270.563721 C335.462647,270.787517 335.517578,270.980793 335.603027,271.143555 C335.688477,271.306316 335.818684,271.432454 335.993652,271.521973 C336.168621,271.611491 336.402586,271.65625 336.695557,271.65625 C336.760661,271.65625 336.852213,271.650147 336.970215,271.637939 C337.088217,271.625732 337.204182,271.611491 337.318115,271.595215 C337.456462,271.578939 337.598876,271.558594 337.745361,271.53418 L337.745361,274.073242 C337.305906,274.130209 336.947837,274.168864 336.671143,274.189209 C336.394448,274.209554 336.109621,274.219727 335.81665,274.219727 C335.206296,274.219727 334.69564,274.14852 334.284668,274.006104 C333.873696,273.863687 333.535971,273.670411 333.271484,273.42627 C333.006997,273.182128 332.807618,272.8973 332.67334,272.571777 C332.539062,272.246255 332.441407,271.904461 332.380371,271.546387 C332.319336,271.188312 332.286784,270.82007 332.282715,270.44165 C332.278646,270.063231 332.276611,269.699058 332.276611,269.349121 L332.276611,260.71875 L330.714111,260.71875 L330.714111,258.375 L332.276611,258.375 L332.276611,252.90625 Z M347.425537,260.71875 L345.863037,260.71875 L345.863037,258.375 L347.425537,258.375 L347.425537,257.776855 C347.425537,257.426919 347.427572,257.062746 347.431641,256.684326 C347.43571,256.305906 347.468261,255.937665 347.529297,255.57959 C347.590332,255.221515 347.687988,254.879722 347.822266,254.554199 C347.956544,254.228677 348.155923,253.943849 348.42041,253.699707 C348.684897,253.455565 349.022622,253.262289 349.433594,253.119873 C349.844566,252.977457 350.355222,252.90625 350.965576,252.90625 C351.258546,252.90625 351.543374,252.916422 351.820068,252.936768 C352.096762,252.957113 352.454832,252.995768 352.894287,253.052734 L352.894287,255.37207 C352.747802,255.355794 352.605388,255.335449 352.467041,255.311035 C352.353108,255.294759 352.237143,255.280518 352.119141,255.268311 C352.001139,255.256103 351.909587,255.25 351.844482,255.25 C351.551512,255.25 351.317546,255.302897 351.142578,255.408691 C350.96761,255.514486 350.837403,255.6569 350.751953,255.835938 C350.666503,256.014975 350.611572,256.222492 350.587158,256.458496 C350.562744,256.6945 350.550537,256.942707 350.550537,257.203125 L350.550537,258.375 L352.894287,258.375 L352.894287,260.71875 L350.550537,260.71875 L350.550537,274 L347.425537,274 L347.425537,260.71875 Z M358.363037,258.375 L358.363037,260.462402 L358.533936,260.462402 C358.688559,260.161294 358.8798,259.872397 359.107666,259.595703 C359.335532,259.319009 359.587808,259.074871 359.864502,258.863281 C360.141196,258.651692 360.440265,258.480795 360.761719,258.350586 C361.083172,258.220377 361.418862,258.155273 361.768799,258.155273 C361.793213,258.155273 361.831868,258.157308 361.884766,258.161377 C361.937663,258.165446 361.992594,258.171549 362.049561,258.179688 L362.269287,258.204102 L362.269287,261.658691 C362.008869,261.552897 361.724041,261.469483 361.414795,261.408447 C361.105549,261.347412 360.812583,261.316895 360.535889,261.316895 C360.226642,261.316895 359.93978,261.367757 359.675293,261.469482 C359.410806,261.571208 359.180909,261.715657 358.985596,261.902832 C358.790282,262.090007 358.637696,262.315835 358.527832,262.580322 C358.417968,262.844809 358.363037,263.135741 358.363037,263.453125 L358.363037,274 L355.238037,274 L355.238037,258.375 L358.363037,258.375 Z M373.206787,274 L370.081787,274 L370.081787,272.31543 C369.552813,272.795575 369.082847,273.163817 368.671875,273.420166 C368.260903,273.676515 367.894696,273.863688 367.573242,273.981689 C367.251789,274.099691 366.968995,274.168864 366.724854,274.189209 C366.480712,274.209554 366.265056,274.219727 366.077881,274.219727 C365.736082,274.219727 365.426841,274.14852 365.150146,274.006104 C364.873452,273.863687 364.637452,273.67448 364.442139,273.438477 C364.246825,273.202473 364.096273,272.931886 363.990479,272.626709 C363.884684,272.321532 363.831787,272.010255 363.831787,271.692871 L363.831787,258.375 L366.956787,258.375 L366.956787,270.740723 C366.956787,271.082521 367.060546,271.351073 367.268066,271.546387 C367.475587,271.7417 367.729898,271.839355 368.031006,271.839355 C368.226319,271.839355 368.415526,271.804769 368.598633,271.735596 C368.781739,271.666422 368.958739,271.578939 369.129639,271.473145 C369.300538,271.36735 369.465331,271.24935 369.624023,271.119141 C369.782716,270.988932 369.935302,270.862794 370.081787,270.740723 L370.081787,258.375 L373.206787,258.375 L373.206787,274 Z M376.331787,258.375 L379.456787,258.375 L379.456787,274 L376.331787,274 L376.331787,258.375 Z M376.331787,252.90625 L379.456787,252.90625 L379.456787,256.03125 L376.331787,256.03125 L376.331787,252.90625 Z M383.363037,252.90625 L386.488037,252.90625 L386.488037,258.375 L388.831787,258.375 L388.831787,260.71875 L386.488037,260.71875 L386.488037,269.837402 C386.488037,270.09782 386.500244,270.339924 386.524658,270.563721 C386.549072,270.787517 386.604003,270.980793 386.689453,271.143555 C386.774903,271.306316 386.90511,271.432454 387.080078,271.521973 C387.255046,271.611491 387.489012,271.65625 387.781982,271.65625 C387.847087,271.65625 387.938639,271.650147 388.056641,271.637939 C388.174643,271.625732 388.290608,271.611491 388.404541,271.595215 C388.542888,271.578939 388.685302,271.558594 388.831787,271.53418 L388.831787,274.073242 C388.392332,274.130209 388.034262,274.168864 387.757568,274.189209 C387.480874,274.209554 387.196046,274.219727 386.903076,274.219727 C386.292722,274.219727 385.782066,274.14852 385.371094,274.006104 C384.960122,273.863687 384.622397,273.670411 384.35791,273.42627 C384.093423,273.182128 383.894044,272.8973 383.759766,272.571777 C383.625488,272.246255 383.527832,271.904461 383.466797,271.546387 C383.405761,271.188312 383.37321,270.82007 383.369141,270.44165 C383.365072,270.063231 383.363037,269.699058 383.363037,269.349121 L383.363037,260.71875 L381.800537,260.71875 L381.800537,258.375 L383.363037,258.375 L383.363037,252.90625 Z M397.730713,258.375 L400.855713,258.375 L400.855713,274 L397.730713,274 L397.730713,258.375 Z M397.730713,252.90625 L400.855713,252.90625 L400.855713,256.03125 L397.730713,256.03125 L397.730713,252.90625 Z M403.980713,258.375 L407.105713,258.375 L407.105713,260.05957 C407.626549,259.587563 408.09448,259.221355 408.509521,258.960938 C408.924563,258.70052 409.292804,258.511312 409.614258,258.393311 C409.935711,258.275309 410.218505,258.206136 410.462646,258.185791 C410.706788,258.165446 410.922444,258.155273 411.109619,258.155273 C411.451418,258.155273 411.760659,258.22648 412.037354,258.368896 C412.314048,258.511313 412.550048,258.70052 412.745361,258.936523 C412.940675,259.172527 413.091227,259.443114 413.197021,259.748291 C413.302816,260.053468 413.355713,260.364745 413.355713,260.682129 L413.355713,274 L410.230713,274 L410.230713,262.28125 C410.230713,262.085937 410.224609,261.894695 410.212402,261.70752 C410.200195,261.520344 410.157471,261.353516 410.084229,261.207031 C410.010986,261.060546 409.89502,260.942546 409.736328,260.853027 C409.577636,260.763509 409.351808,260.71875 409.058838,260.71875 C408.660073,260.71875 408.308107,260.810302 408.00293,260.993408 C407.697752,261.176515 407.398683,261.390135 407.105713,261.634277 L407.105713,274 L403.980713,274 L403.980713,258.375 Z M420.374756,274.219727 C419.593502,274.219727 418.91195,274.091554 418.330078,273.835205 C417.748207,273.578856 417.261965,273.133304 416.871338,272.498535 C416.480711,271.863766 416.187745,271.005214 415.992432,269.922852 C415.797118,268.840489 415.699463,267.473316 415.699463,265.821289 C415.699463,264.3483 415.797118,263.121506 415.992432,262.140869 C416.187745,261.160233 416.480711,260.374922 416.871338,259.784912 C417.261965,259.194903 417.750241,258.775799 418.336182,258.527588 C418.922122,258.279377 419.605709,258.155273 420.386963,258.155273 C421.168217,258.155273 421.851804,258.279377 422.437744,258.527588 C423.023685,258.775799 423.511961,259.194903 423.902588,259.784912 C424.293215,260.374922 424.586181,261.160233 424.781494,262.140869 C424.976808,263.121506 425.074463,264.3483 425.074463,265.821289 L425.074463,266.1875 L418.824463,266.1875 L418.824463,266.96875 C418.824463,267.55469 418.832601,268.128415 418.848877,268.689941 C418.865153,269.251468 418.922119,269.751951 419.019775,270.191406 C419.117432,270.630862 419.272053,270.984862 419.483643,271.253418 C419.695232,271.521974 419.996336,271.65625 420.386963,271.65625 C420.785728,271.65625 421.090901,271.566733 421.30249,271.387695 C421.51408,271.208658 421.668701,270.972658 421.766357,270.679688 C421.864014,270.386717 421.92098,270.053062 421.937256,269.678711 C421.953532,269.30436 421.96167,268.921877 421.96167,268.53125 L425.074463,268.53125 C425.074463,270.484385 424.683842,271.920731 423.902588,272.840332 C423.121334,273.759933 421.945402,274.219727 420.374756,274.219727 L420.374756,274.219727 Z M420.386963,260.71875 C419.996336,260.71875 419.695232,260.848957 419.483643,261.109375 C419.272053,261.369793 419.117432,261.695311 419.019775,262.085938 C418.922119,262.476564 418.865153,262.899737 418.848877,263.355469 C418.832601,263.8112 418.824463,264.234373 418.824463,264.625 L421.949463,264.625 C421.949463,264.234373 421.943359,263.8112 421.931152,263.355469 C421.918945,262.899737 421.864014,262.476564 421.766357,262.085938 C421.668701,261.695311 421.51408,261.369793 421.30249,261.109375 C421.090901,260.848957 420.785728,260.71875 420.386963,260.71875 L420.386963,260.71875 Z M432.093506,274.219727 C431.312252,274.219727 430.6307,274.091554 430.048828,273.835205 C429.466957,273.578856 428.980715,273.133304 428.590088,272.498535 C428.199461,271.863766 427.906495,271.005214 427.711182,269.922852 C427.515868,268.840489 427.418213,267.473316 427.418213,265.821289 C427.418213,264.3483 427.515868,263.121506 427.711182,262.140869 C427.906495,261.160233 428.199461,260.374922 428.590088,259.784912 C428.980715,259.194903 429.468991,258.775799 430.054932,258.527588 C430.640872,258.279377 431.324459,258.155273 432.105713,258.155273 C432.886967,258.155273 433.570554,258.279377 434.156494,258.527588 C434.742435,258.775799 435.230711,259.194903 435.621338,259.784912 C436.011965,260.374922 436.304931,261.160233 436.500244,262.140869 C436.695558,263.121506 436.793213,264.3483 436.793213,265.821289 L436.793213,266.1875 L430.543213,266.1875 L430.543213,266.96875 C430.543213,267.55469 430.551351,268.128415 430.567627,268.689941 C430.583903,269.251468 430.640869,269.751951 430.738525,270.191406 C430.836182,270.630862 430.990803,270.984862 431.202393,271.253418 C431.413982,271.521974 431.715086,271.65625 432.105713,271.65625 C432.504478,271.65625 432.809651,271.566733 433.02124,271.387695 C433.23283,271.208658 433.387451,270.972658 433.485107,270.679688 C433.582764,270.386717 433.63973,270.053062 433.656006,269.678711 C433.672282,269.30436 433.68042,268.921877 433.68042,268.53125 L436.793213,268.53125 C436.793213,270.484385 436.402592,271.920731 435.621338,272.840332 C434.840084,273.759933 433.664152,274.219727 432.093506,274.219727 L432.093506,274.219727 Z M432.105713,260.71875 C431.715086,260.71875 431.413982,260.848957 431.202393,261.109375 C430.990803,261.369793 430.836182,261.695311 430.738525,262.085938 C430.640869,262.476564 430.583903,262.899737 430.567627,263.355469 C430.551351,263.8112 430.543213,264.234373 430.543213,264.625 L433.668213,264.625 C433.668213,264.234373 433.662109,263.8112 433.649902,263.355469 C433.637695,262.899737 433.582764,262.476564 433.485107,262.085938 C433.387451,261.695311 433.23283,261.369793 433.02124,261.109375 C432.809651,260.848957 432.504478,260.71875 432.105713,260.71875 L432.105713,260.71875 Z M439.527588,258.375 L442.652588,258.375 L442.652588,260.05957 C443.173424,259.587563 443.641355,259.221355 444.056396,258.960938 C444.471438,258.70052 444.839679,258.511312 445.161133,258.393311 C445.482586,258.275309 445.76538,258.206136 446.009521,258.185791 C446.253663,258.165446 446.469319,258.155273 446.656494,258.155273 C446.998293,258.155273 447.307534,258.22648 447.584229,258.368896 C447.860923,258.511313 448.096923,258.70052 448.292236,258.936523 C448.48755,259.172527 448.638102,259.443114 448.743896,259.748291 C448.849691,260.053468 448.902588,260.364745 448.902588,260.682129 L448.902588,274 L445.777588,274 L445.777588,262.28125 C445.777588,262.085937 445.771484,261.894695 445.759277,261.70752 C445.74707,261.520344 445.704346,261.353516 445.631104,261.207031 C445.557861,261.060546 445.441895,260.942546 445.283203,260.853027 C445.124511,260.763509 444.898683,260.71875 444.605713,260.71875 C444.206948,260.71875 443.854982,260.810302 443.549805,260.993408 C443.244627,261.176515 442.945558,261.390135 442.652588,261.634277 L442.652588,274 L439.527588,274 L439.527588,258.375 Z M453.590088,269.3125 C453.752849,269.751955 453.94816,270.142576 454.176025,270.484375 C454.273682,270.63086 454.383544,270.775309 454.505615,270.917725 C454.627686,271.060141 454.761962,271.186279 454.908447,271.296143 C455.054932,271.406006 455.213622,271.493489 455.384521,271.558594 C455.555421,271.623698 455.738524,271.65625 455.933838,271.65625 C456.129151,271.65625 456.320393,271.629802 456.507568,271.576904 C456.694744,271.524007 456.861572,271.436524 457.008057,271.314453 C457.154542,271.192382 457.272542,271.031658 457.362061,270.832275 C457.451579,270.632893 457.496338,270.38672 457.496338,270.09375 C457.496338,269.80078 457.455648,269.5424 457.374268,269.318604 C457.292887,269.094807 457.20337,268.9056 457.105713,268.750977 C456.99178,268.571939 456.861573,268.417318 456.715088,268.287109 L453.590088,265.943359 C453.085528,265.593423 452.678631,265.253664 452.369385,264.924072 C452.060138,264.594481 451.822104,264.277101 451.655273,263.971924 C451.488443,263.666747 451.378581,263.373781 451.325684,263.093018 C451.272786,262.812254 451.246338,262.541668 451.246338,262.28125 C451.246338,261.69531 451.343993,261.150068 451.539307,260.645508 C451.73462,260.140948 452.027586,259.705568 452.418213,259.339355 C452.80884,258.973143 453.297116,258.684246 453.883057,258.472656 C454.468997,258.261067 455.152584,258.155273 455.933838,258.155273 C456.422122,258.155273 456.863605,258.214273 457.258301,258.332275 C457.652997,258.450277 458.004963,258.606933 458.314209,258.802246 C458.623455,258.99756 458.896076,259.219318 459.13208,259.467529 C459.368084,259.71574 459.571532,259.965982 459.742432,260.218262 C460.141197,260.828616 460.434162,261.516272 460.621338,262.28125 L458.277588,263.0625 C458.114827,262.623045 457.919516,262.232424 457.69165,261.890625 C457.593994,261.74414 457.484131,261.601726 457.362061,261.463379 C457.23999,261.325032 457.105714,261.200928 456.959229,261.091064 C456.812743,260.981201 456.654054,260.891683 456.483154,260.82251 C456.312255,260.753336 456.129151,260.71875 455.933838,260.71875 C455.738524,260.71875 455.547283,260.745198 455.360107,260.798096 C455.172932,260.850993 455.006104,260.938476 454.859619,261.060547 C454.713134,261.182618 454.595134,261.343342 454.505615,261.542725 C454.416097,261.742107 454.371338,261.98828 454.371338,262.28125 C454.371338,262.476563 454.412028,262.655598 454.493408,262.818359 C454.574789,262.981121 454.664306,263.119466 454.761963,263.233398 C454.875896,263.371745 455.006103,263.493815 455.152588,263.599609 L458.277588,265.943359 C459.018151,266.537438 459.593911,267.170163 460.004883,267.841553 C460.415855,268.512943 460.621338,269.263668 460.621338,270.09375 C460.621338,270.67969 460.523683,271.224932 460.328369,271.729492 C460.133056,272.234052 459.84009,272.669432 459.449463,273.035645 C459.058836,273.401857 458.57056,273.690754 457.984619,273.902344 C457.398679,274.113933 456.715092,274.219727 455.933838,274.219727 C455.445554,274.219727 455.004071,274.160727 454.609375,274.042725 C454.214679,273.924723 453.860679,273.770102 453.547363,273.578857 C453.234048,273.387613 452.961427,273.167889 452.729492,272.919678 C452.497557,272.671467 452.296143,272.417156 452.125244,272.156738 C451.726479,271.554522 451.433513,270.866866 451.246338,270.09375 L453.590088,269.3125 Z M473.035889,274 L469.910889,274 L469.910889,252.125 L473.035889,252.125 L473.035889,274 Z M480.445557,274.219727 C479.664303,274.219727 478.98275,274.091554 478.400879,273.835205 C477.819008,273.578856 477.332766,273.133304 476.942139,272.498535 C476.551512,271.863766 476.258546,271.005214 476.063232,269.922852 C475.867919,268.840489 475.770264,267.473316 475.770264,265.821289 C475.770264,264.3483 475.867919,263.121506 476.063232,262.140869 C476.258546,261.160233 476.551512,260.374922 476.942139,259.784912 C477.332766,259.194903 477.821042,258.775799 478.406982,258.527588 C478.992923,258.279377 479.67651,258.155273 480.457764,258.155273 C481.239018,258.155273 481.922604,258.279377 482.508545,258.527588 C483.094485,258.775799 483.582762,259.194903 483.973389,259.784912 C484.364016,260.374922 484.656981,261.160233 484.852295,262.140869 C485.047608,263.121506 485.145264,264.3483 485.145264,265.821289 L485.145264,266.1875 L478.895264,266.1875 L478.895264,266.96875 C478.895264,267.55469 478.903402,268.128415 478.919678,268.689941 C478.935954,269.251468 478.992919,269.751951 479.090576,270.191406 C479.188233,270.630862 479.342854,270.984862 479.554443,271.253418 C479.766033,271.521974 480.067137,271.65625 480.457764,271.65625 C480.856529,271.65625 481.161701,271.566733 481.373291,271.387695 C481.584881,271.208658 481.739501,270.972658 481.837158,270.679688 C481.934815,270.386717 481.991781,270.053062 482.008057,269.678711 C482.024333,269.30436 482.032471,268.921877 482.032471,268.53125 L485.145264,268.53125 C485.145264,270.484385 484.754643,271.920731 483.973389,272.840332 C483.192135,273.759933 482.016203,274.219727 480.445557,274.219727 L480.445557,274.219727 Z M480.457764,260.71875 C480.067137,260.71875 479.766033,260.848957 479.554443,261.109375 C479.342854,261.369793 479.188233,261.695311 479.090576,262.085938 C478.992919,262.476564 478.935954,262.899737 478.919678,263.355469 C478.903402,263.8112 478.895264,264.234373 478.895264,264.625 L482.020264,264.625 C482.020264,264.234373 482.01416,263.8112 482.001953,263.355469 C481.989746,262.899737 481.934815,262.476564 481.837158,262.085938 C481.739501,261.695311 481.584881,261.369793 481.373291,261.109375 C481.161701,260.848957 480.856529,260.71875 480.457764,260.71875 L480.457764,260.71875 Z M497.254639,274 L494.129639,274 L494.129639,272.31543 C493.600665,272.795575 493.130699,273.163817 492.719727,273.420166 C492.308754,273.676515 491.942547,273.863688 491.621094,273.981689 C491.29964,274.099691 491.016847,274.168864 490.772705,274.189209 C490.528563,274.209554 490.312908,274.219727 490.125732,274.219727 C489.783934,274.219727 489.474692,274.14852 489.197998,274.006104 C488.921304,273.863687 488.685304,273.67448 488.48999,273.438477 C488.294677,273.202473 488.144125,272.931886 488.03833,272.626709 C487.932535,272.321532 487.879639,272.010255 487.879639,271.692871 L487.879639,258.375 L491.004639,258.375 L491.004639,270.740723 C491.004639,271.082521 491.108397,271.351073 491.315918,271.546387 C491.523439,271.7417 491.777749,271.839355 492.078857,271.839355 C492.274171,271.839355 492.463378,271.804769 492.646484,271.735596 C492.829591,271.666422 493.006591,271.578939 493.17749,271.473145 C493.34839,271.36735 493.513183,271.24935 493.671875,271.119141 C493.830567,270.988932 493.983154,270.862794 494.129639,270.740723 L494.129639,258.375 L497.254639,258.375 L497.254639,274 Z M503.504639,252.125 L503.504639,264.148926 L507.410889,258.375 L510.535889,258.375 L507.032471,263.831543 L510.535889,274 L507.410889,274 L505.067139,266.443848 L503.504639,268.53125 L503.504639,274 L500.379639,274 L500.379639,252.125 L503.504639,252.125 Z" id="Nu-wordt-spelen" sketch:type="MSShapeGroup"></path>
        </g>
    </g>
</svg>