<?xml version="1.0" encoding="UTF-8" standalone="no"?>
<svg width="134px" height="33px" viewBox="0 0 134 33" version="1.1" xmlns="http://www.w3.org/2000/svg" xmlns:xlink="http://www.w3.org/1999/xlink" xmlns:sketch="http://www.bohemiancoding.com/sketch/ns">
    <!-- Generator: Sketch 3.4 (15588) - http://www.bohemiancoding.com/sketch -->
    <title>Speel je op</title>
    <desc>Created with Sketch.</desc>
    <defs></defs>
    <g id="Page-1" stroke="none" stroke-width="1" fill="none" fill-rule="evenodd" sketch:type="MSPage">
        <g id="Artboard-7" sketch:type="MSArtboardGroup" transform="translate(-302.000000, -159.000000)" fill="#FFFFFF">
            <path d="M310.047363,186.263672 C309.109859,186.263672 308.284672,186.15381 307.571777,185.934082 C306.858883,185.714354 306.238772,185.421389 305.711426,185.055176 C305.184079,184.688963 304.739748,184.273928 304.378418,183.810059 C304.017088,183.346189 303.719239,182.87012 303.484863,182.381836 C302.937986,181.249018 302.625489,179.955085 302.547363,178.5 L306.297363,177.5625 C306.336426,178.617193 306.492674,179.554683 306.766113,180.375 C306.883301,180.726564 307.032226,181.070799 307.212891,181.407715 C307.393556,181.744631 307.615721,182.044921 307.879395,182.308594 C308.143068,182.572267 308.453123,182.784667 308.80957,182.945801 C309.166017,183.106934 309.578611,183.1875 310.047363,183.1875 C311.922373,183.1875 312.859863,182.250009 312.859863,180.375 C312.859863,179.906248 312.80127,179.46924 312.684082,179.063965 C312.566894,178.658689 312.391114,178.268068 312.156738,177.89209 C311.922362,177.516111 311.629396,177.149904 311.277832,176.793457 C310.926268,176.43701 310.516116,176.068361 310.047363,175.6875 L305.359863,171.9375 C304.881345,171.556639 304.463869,171.124514 304.107422,170.641113 C303.750975,170.157712 303.455568,169.647464 303.221191,169.110352 C302.986815,168.57324 302.813477,168.02637 302.701172,167.469727 C302.588867,166.913083 302.532715,166.361331 302.532715,165.814453 C302.532715,164.974605 302.674315,164.171391 302.95752,163.404785 C303.240724,162.63818 303.6582,161.964358 304.209961,161.383301 C304.761722,160.802243 305.44775,160.340822 306.268066,159.999023 C307.088383,159.657225 308.035639,159.486328 309.109863,159.486328 C310.047368,159.486328 310.872555,159.583983 311.585449,159.779297 C312.298343,159.97461 312.918454,160.233397 313.445801,160.555664 C313.973147,160.877931 314.417479,161.244139 314.778809,161.654297 C315.140139,162.064455 315.437987,162.47949 315.672363,162.899414 C316.219241,163.905278 316.531738,165.042962 316.609863,166.3125 L312.859863,167.25 C312.820801,166.371089 312.664552,165.589847 312.391113,164.90625 C312.273925,164.61328 312.125001,164.327638 311.944336,164.049316 C311.763671,163.770995 311.541505,163.521974 311.277832,163.302246 C311.014159,163.082518 310.704103,162.904298 310.347656,162.767578 C309.991209,162.630859 309.578616,162.5625 309.109863,162.5625 C308.62158,162.5625 308.199221,162.638183 307.842773,162.789551 C307.486326,162.940919 307.193361,163.143553 306.963867,163.397461 C306.734374,163.651368 306.565919,163.949217 306.458496,164.291016 C306.351074,164.632814 306.297363,164.994139 306.297363,165.375 C306.297363,166.019534 306.448729,166.678708 306.751465,167.352539 C307.054201,168.026371 307.527829,168.617185 308.172363,169.125 L312.859863,172.875 C313.455569,173.353518 313.985349,173.878415 314.449219,174.449707 C314.913088,175.020999 315.306151,175.619137 315.628418,176.244141 C315.950685,176.869144 316.194823,177.511227 316.36084,178.17041 C316.526856,178.829593 316.609863,179.481442 316.609863,180.125977 C316.609863,180.936527 316.478029,181.710446 316.214355,182.447754 C315.950682,183.185062 315.547854,183.836911 315.005859,184.40332 C314.463864,184.969729 313.782719,185.421385 312.962402,185.758301 C312.142086,186.095217 311.170416,186.263672 310.047363,186.263672 L310.047363,186.263672 Z M319.891113,167.25 L323.641113,167.25 L323.641113,169.125 C324.129397,168.607419 324.566404,168.204591 324.952148,167.916504 C325.337893,167.628417 325.684569,167.416016 325.992188,167.279297 C326.299806,167.142577 326.573241,167.05957 326.8125,167.030273 C327.051759,167.000976 327.264159,166.986328 327.449707,166.986328 C328.328618,166.986328 329.063474,167.174315 329.654297,167.550293 C330.24512,167.926271 330.718748,168.534175 331.075195,169.374023 C331.431642,170.213871 331.687988,171.305169 331.844238,172.647949 C332.000489,173.990729 332.078613,175.628897 332.078613,177.5625 C332.078613,178.128909 332.046875,178.736813 331.983398,179.38623 C331.919922,180.035648 331.817384,180.682614 331.675781,181.327148 C331.534179,181.971683 331.343751,182.591794 331.104492,183.1875 C330.865233,183.783206 330.572267,184.308103 330.225586,184.762207 C329.878905,185.216311 329.471194,185.580077 329.002441,185.853516 C328.533689,186.126954 327.996585,186.263672 327.391113,186.263672 C327.039549,186.263672 326.690431,186.209961 326.34375,186.102539 C325.997069,185.995117 325.665041,185.851075 325.347656,185.67041 C325.030272,185.489745 324.727541,185.282228 324.439453,185.047852 C324.151366,184.813475 323.885255,184.569337 323.641113,184.31543 L323.641113,191.625 L319.891113,191.625 L319.891113,167.25 Z M323.641113,182.425781 C324.197757,182.748048 324.729978,182.955566 325.237793,183.04834 C325.745608,183.141114 326.150877,183.1875 326.453613,183.1875 C326.834475,183.1875 327.146971,183.058107 327.391113,182.799316 C327.635255,182.540526 327.825683,182.118167 327.962402,181.532227 C328.099122,180.946286 328.194336,180.174809 328.248047,179.217773 C328.301758,178.260737 328.328613,177.083991 328.328613,175.6875 C328.328613,174.867183 328.301758,174.103031 328.248047,173.39502 C328.194336,172.687008 328.086915,172.07178 327.925781,171.549316 C327.764648,171.026853 327.540041,170.616701 327.251953,170.318848 C326.963866,170.020995 326.585452,169.87207 326.116699,169.87207 C325.647947,169.87207 325.215822,169.972167 324.820312,170.172363 C324.424803,170.37256 324.03174,170.589843 323.641113,170.824219 L323.641113,182.425781 Z M340.501465,186.263672 C339.56396,186.263672 338.746097,186.109865 338.047852,185.802246 C337.349606,185.494627 336.766116,184.959965 336.297363,184.198242 C335.828611,183.43652 335.477052,182.406256 335.242676,181.107422 C335.0083,179.808587 334.891113,178.167979 334.891113,176.185547 C334.891113,174.41796 335.0083,172.945807 335.242676,171.769043 C335.477052,170.592279 335.828611,169.649906 336.297363,168.941895 C336.766116,168.233883 337.352047,167.730959 338.055176,167.433105 C338.758304,167.135252 339.578609,166.986328 340.516113,166.986328 C341.453618,166.986328 342.273922,167.135252 342.977051,167.433105 C343.680179,167.730959 344.266111,168.233883 344.734863,168.941895 C345.203616,169.649906 345.555175,170.592279 345.789551,171.769043 C346.023927,172.945807 346.141113,174.41796 346.141113,176.185547 L346.141113,176.625 L338.641113,176.625 L338.641113,177.5625 C338.641113,178.265629 338.650879,178.954098 338.67041,179.62793 C338.689942,180.301761 338.7583,180.902341 338.875488,181.429688 C338.992676,181.957034 339.178221,182.381834 339.432129,182.704102 C339.686036,183.026369 340.047361,183.1875 340.516113,183.1875 C340.994631,183.1875 341.360839,183.080079 341.614746,182.865234 C341.868654,182.65039 342.054199,182.367189 342.171387,182.015625 C342.288575,181.664061 342.356933,181.263674 342.376465,180.814453 C342.395996,180.365232 342.405762,179.906252 342.405762,179.4375 L346.141113,179.4375 C346.141113,181.781262 345.672368,183.504877 344.734863,184.608398 C343.797359,185.71192 342.38624,186.263672 340.501465,186.263672 L340.501465,186.263672 Z M340.516113,170.0625 C340.047361,170.0625 339.686036,170.218748 339.432129,170.53125 C339.178221,170.843752 338.992676,171.234373 338.875488,171.703125 C338.7583,172.171877 338.689942,172.679685 338.67041,173.226562 C338.650879,173.77344 338.641113,174.281248 338.641113,174.75 L342.391113,174.75 C342.391113,174.281248 342.383789,173.77344 342.369141,173.226562 C342.354492,172.679685 342.288575,172.171877 342.171387,171.703125 C342.054199,171.234373 341.868654,170.843752 341.614746,170.53125 C341.360839,170.218748 340.994631,170.0625 340.516113,170.0625 L340.516113,170.0625 Z M354.563965,186.263672 C353.62646,186.263672 352.808597,186.109865 352.110352,185.802246 C351.412106,185.494627 350.828616,184.959965 350.359863,184.198242 C349.891111,183.43652 349.539552,182.406256 349.305176,181.107422 C349.0708,179.808587 348.953613,178.167979 348.953613,176.185547 C348.953613,174.41796 349.0708,172.945807 349.305176,171.769043 C349.539552,170.592279 349.891111,169.649906 350.359863,168.941895 C350.828616,168.233883 351.414547,167.730959 352.117676,167.433105 C352.820804,167.135252 353.641109,166.986328 354.578613,166.986328 C355.516118,166.986328 356.336422,167.135252 357.039551,167.433105 C357.742679,167.730959 358.328611,168.233883 358.797363,168.941895 C359.266116,169.649906 359.617675,170.592279 359.852051,171.769043 C360.086427,172.945807 360.203613,174.41796 360.203613,176.185547 L360.203613,176.625 L352.703613,176.625 L352.703613,177.5625 C352.703613,178.265629 352.713379,178.954098 352.73291,179.62793 C352.752442,180.301761 352.8208,180.902341 352.937988,181.429688 C353.055176,181.957034 353.240721,182.381834 353.494629,182.704102 C353.748536,183.026369 354.109861,183.1875 354.578613,183.1875 C355.057131,183.1875 355.423339,183.080079 355.677246,182.865234 C355.931154,182.65039 356.116699,182.367189 356.233887,182.015625 C356.351075,181.664061 356.419433,181.263674 356.438965,180.814453 C356.458496,180.365232 356.468262,179.906252 356.468262,179.4375 L360.203613,179.4375 C360.203613,181.781262 359.734868,183.504877 358.797363,184.608398 C357.859859,185.71192 356.44874,186.263672 354.563965,186.263672 L354.563965,186.263672 Z M354.578613,170.0625 C354.109861,170.0625 353.748536,170.218748 353.494629,170.53125 C353.240721,170.843752 353.055176,171.234373 352.937988,171.703125 C352.8208,172.171877 352.752442,172.679685 352.73291,173.226562 C352.713379,173.77344 352.703613,174.281248 352.703613,174.75 L356.453613,174.75 C356.453613,174.281248 356.446289,173.77344 356.431641,173.226562 C356.416992,172.679685 356.351075,172.171877 356.233887,171.703125 C356.116699,171.234373 355.931154,170.843752 355.677246,170.53125 C355.423339,170.218748 355.057131,170.0625 354.578613,170.0625 L354.578613,170.0625 Z M367.234863,186 L363.484863,186 L363.484863,159.75 L367.234863,159.75 L367.234863,186 Z M376.976074,187.772461 C377.112794,187.801758 377.273925,187.826172 377.459473,187.845703 C377.64502,187.865234 377.796386,187.875 377.913574,187.875 C378.382327,187.875 378.743651,187.784669 378.997559,187.604004 C379.251466,187.423339 379.437011,187.21338 379.554199,186.974121 C379.671387,186.734862 379.739746,186.493165 379.759277,186.249023 C379.778809,186.004882 379.788574,185.819337 379.788574,185.692383 L379.788574,167.25 L383.538574,167.25 L383.538574,186.102539 C383.538574,186.854496 383.421388,187.51611 383.187012,188.087402 C382.952636,188.658694 382.62549,189.137205 382.205566,189.522949 C381.785642,189.908693 381.290042,190.199218 380.71875,190.394531 C380.147458,190.589845 379.524906,190.6875 378.851074,190.6875 C378.72412,190.6875 378.580079,190.682617 378.418945,190.672852 C378.257812,190.663086 378.091798,190.648438 377.920898,190.628906 C377.749999,190.609375 377.583985,190.584961 377.422852,190.555664 C377.261718,190.526367 377.112794,190.487305 376.976074,190.438477 L376.976074,187.772461 Z M379.788574,160.6875 L383.538574,160.6875 L383.538574,164.4375 L379.788574,164.4375 L379.788574,160.6875 Z M392.430176,186.263672 C391.492671,186.263672 390.674808,186.109865 389.976562,185.802246 C389.278317,185.494627 388.694827,184.959965 388.226074,184.198242 C387.757322,183.43652 387.405763,182.406256 387.171387,181.107422 C386.937011,179.808587 386.819824,178.167979 386.819824,176.185547 C386.819824,174.41796 386.937011,172.945807 387.171387,171.769043 C387.405763,170.592279 387.757322,169.649906 388.226074,168.941895 C388.694827,168.233883 389.280758,167.730959 389.983887,167.433105 C390.687015,167.135252 391.50732,166.986328 392.444824,166.986328 C393.382329,166.986328 394.202633,167.135252 394.905762,167.433105 C395.60889,167.730959 396.194822,168.233883 396.663574,168.941895 C397.132327,169.649906 397.483886,170.592279 397.718262,171.769043 C397.952638,172.945807 398.069824,174.41796 398.069824,176.185547 L398.069824,176.625 L390.569824,176.625 L390.569824,177.5625 C390.569824,178.265629 390.57959,178.954098 390.599121,179.62793 C390.618652,180.301761 390.687011,180.902341 390.804199,181.429688 C390.921387,181.957034 391.106932,182.381834 391.36084,182.704102 C391.614747,183.026369 391.976072,183.1875 392.444824,183.1875 C392.923342,183.1875 393.28955,183.080079 393.543457,182.865234 C393.797365,182.65039 393.98291,182.367189 394.100098,182.015625 C394.217286,181.664061 394.285644,181.263674 394.305176,180.814453 C394.324707,180.365232 394.334473,179.906252 394.334473,179.4375 L398.069824,179.4375 C398.069824,181.781262 397.601079,183.504877 396.663574,184.608398 C395.72607,185.71192 394.314951,186.263672 392.430176,186.263672 L392.430176,186.263672 Z M392.444824,170.0625 C391.976072,170.0625 391.614747,170.218748 391.36084,170.53125 C391.106932,170.843752 390.921387,171.234373 390.804199,171.703125 C390.687011,172.171877 390.618652,172.679685 390.599121,173.226562 C390.57959,173.77344 390.569824,174.281248 390.569824,174.75 L394.319824,174.75 C394.319824,174.281248 394.3125,173.77344 394.297852,173.226562 C394.283203,172.679685 394.217286,172.171877 394.100098,171.703125 C393.98291,171.234373 393.797365,170.843752 393.543457,170.53125 C393.28955,170.218748 392.923342,170.0625 392.444824,170.0625 L392.444824,170.0625 Z M408.748535,173.8125 C408.748535,173.499998 408.758301,173.11426 408.777832,172.655273 C408.797363,172.196287 408.858398,171.715335 408.960938,171.212402 C409.063477,170.70947 409.22705,170.204104 409.45166,169.696289 C409.676271,169.188474 409.996092,168.734377 410.411133,168.333984 C410.826174,167.933592 411.355954,167.608888 412.000488,167.359863 C412.645023,167.110839 413.43603,166.986328 414.373535,166.986328 C415.31104,166.986328 416.102048,167.110839 416.746582,167.359863 C417.391117,167.608888 417.920896,167.933592 418.335938,168.333984 C418.750979,168.734377 419.0708,169.188474 419.29541,169.696289 C419.520021,170.204104 419.683593,170.70947 419.786133,171.212402 C419.888672,171.715335 419.949707,172.196287 419.969238,172.655273 C419.98877,173.11426 419.998535,173.499998 419.998535,173.8125 L419.998535,179.4375 C419.998535,179.750002 419.98877,180.13574 419.969238,180.594727 C419.949707,181.053713 419.888672,181.534665 419.786133,182.037598 C419.683593,182.54053 419.520021,183.045896 419.29541,183.553711 C419.0708,184.061526 418.750979,184.515623 418.335938,184.916016 C417.920896,185.316408 417.391117,185.641112 416.746582,185.890137 C416.102048,186.139161 415.31104,186.263672 414.373535,186.263672 C413.43603,186.263672 412.645023,186.139161 412.000488,185.890137 C411.355954,185.641112 410.826174,185.316408 410.411133,184.916016 C409.996092,184.515623 409.676271,184.061526 409.45166,183.553711 C409.22705,183.045896 409.063477,182.54053 408.960938,182.037598 C408.858398,181.534665 408.797363,181.053713 408.777832,180.594727 C408.758301,180.13574 408.748535,179.750002 408.748535,179.4375 L408.748535,173.8125 Z M412.498535,179.4375 C412.498535,179.906252 412.508301,180.365232 412.527832,180.814453 C412.547363,181.263674 412.615722,181.664061 412.73291,182.015625 C412.850098,182.367189 413.035643,182.65039 413.289551,182.865234 C413.543458,183.080079 413.904783,183.1875 414.373535,183.1875 C414.842287,183.1875 415.203612,183.080079 415.45752,182.865234 C415.711427,182.65039 415.896972,182.367189 416.01416,182.015625 C416.131348,181.664061 416.199707,181.263674 416.219238,180.814453 C416.23877,180.365232 416.248535,179.906252 416.248535,179.4375 L416.248535,173.8125 C416.248535,173.343748 416.23877,172.884768 416.219238,172.435547 C416.199707,171.986326 416.131348,171.585939 416.01416,171.234375 C415.896972,170.882811 415.711427,170.59961 415.45752,170.384766 C415.203612,170.169921 414.842287,170.0625 414.373535,170.0625 C413.904783,170.0625 413.543458,170.169921 413.289551,170.384766 C413.035643,170.59961 412.850098,170.882811 412.73291,171.234375 C412.615722,171.585939 412.547363,171.986326 412.527832,172.435547 C412.508301,172.884768 412.498535,173.343748 412.498535,173.8125 L412.498535,179.4375 Z M423.279785,167.25 L427.029785,167.25 L427.029785,169.125 C427.518069,168.607419 427.955076,168.204591 428.34082,167.916504 C428.726564,167.628417 429.073241,167.416016 429.380859,167.279297 C429.688478,167.142577 429.961913,167.05957 430.201172,167.030273 C430.440431,167.000976 430.652831,166.986328 430.838379,166.986328 C431.71729,166.986328 432.452145,167.174315 433.042969,167.550293 C433.633792,167.926271 434.10742,168.534175 434.463867,169.374023 C434.820314,170.213871 435.076659,171.305169 435.23291,172.647949 C435.389161,173.990729 435.467285,175.628897 435.467285,177.5625 C435.467285,178.128909 435.435547,178.736813 435.37207,179.38623 C435.308593,180.035648 435.206055,180.682614 435.064453,181.327148 C434.922851,181.971683 434.732423,182.591794 434.493164,183.1875 C434.253905,183.783206 433.960939,184.308103 433.614258,184.762207 C433.267576,185.216311 432.859866,185.580077 432.391113,185.853516 C431.922361,186.126954 431.385257,186.263672 430.779785,186.263672 C430.428221,186.263672 430.079103,186.209961 429.732422,186.102539 C429.38574,185.995117 429.053713,185.851075 428.736328,185.67041 C428.418944,185.489745 428.116212,185.282228 427.828125,185.047852 C427.540038,184.813475 427.273927,184.569337 427.029785,184.31543 L427.029785,191.625 L423.279785,191.625 L423.279785,167.25 Z M427.029785,182.425781 C427.586429,182.748048 428.11865,182.955566 428.626465,183.04834 C429.13428,183.141114 429.539549,183.1875 429.842285,183.1875 C430.223146,183.1875 430.535643,183.058107 430.779785,182.799316 C431.023927,182.540526 431.214355,182.118167 431.351074,181.532227 C431.487794,180.946286 431.583008,180.174809 431.636719,179.217773 C431.69043,178.260737 431.717285,177.083991 431.717285,175.6875 C431.717285,174.867183 431.69043,174.103031 431.636719,173.39502 C431.583008,172.687008 431.475587,172.07178 431.314453,171.549316 C431.15332,171.026853 430.928712,170.616701 430.640625,170.318848 C430.352538,170.020995 429.974123,169.87207 429.505371,169.87207 C429.036619,169.87207 428.604494,169.972167 428.208984,170.172363 C427.813475,170.37256 427.420412,170.589843 427.029785,170.824219 L427.029785,182.425781 Z" id="Speel-je-op" sketch:type="MSShapeGroup"></path>
        </g>
    </g>
</svg>