<?xml version="1.0" encoding="utf-8"?>
<!-- Generator: Adobe Illustrator 19.0.0, SVG Export Plug-In . SVG Version: 6.00 Build 0)  -->
<svg version="1.1" id="Layer_1" xmlns:sketch="http://www.bohemiancoding.com/sketch/ns"
	 xmlns="http://www.w3.org/2000/svg" xmlns:xlink="http://www.w3.org/1999/xlink" x="0px" y="0px" viewBox="-324 272.3 192 51"
	 enable-background="new -324 272.3 192 51" xml:space="preserve">
<title>INPUT-make Account Copy</title>
<desc>Created with Sketch.</desc>
<g id="Page-1" sketch:type="MSPage">
	<g id="Artboard-8" transform="translate(-29.000000, -747.000000)" sketch:type="MSArtboardGroup">
		<g id="INPUT-make-Account-Copy" transform="translate(29.000000, 747.000000)" sketch:type="MSLayerGroup">
			<path id="INPUT-YES" sketch:type="MSShapeGroup" fill="#FF3C6E" d="M-298.5,272.3h140c14.1,0,25.5,11.4,25.5,25.5v0
				c0,14.1-14.8,25.5-25.5,25.5h-136.6c-17.4,0-28.9-11.4-28.9-25.5v0C-324,283.7-312.6,272.3-298.5,272.3z"/>
			<path id="NU-CHATTEN" sketch:type="MSShapeGroup" fill="#FFFFFF" d="M-277.4,302.1c0,0.8,0.5,1.3,1.2,1.3c0.7,0,1.2-0.5,1.2-1.3
				v-6h0l5.1,6.7c0.2,0.3,0.7,0.5,1,0.5c0.7,0,1.2-0.5,1.2-1.3V293c0-0.8-0.5-1.3-1.2-1.3s-1.2,0.5-1.2,1.3v6.1h0l-5.1-6.8
				c-0.2-0.3-0.7-0.5-1-0.5c-0.7,0-1.2,0.5-1.2,1.3V302.1z M-265.4,298.7c0,2.7,2.2,4.7,4.9,4.7c2.7,0,4.9-2,4.9-4.7V293
				c0-0.8-0.5-1.3-1.2-1.3s-1.2,0.5-1.2,1.3v5.6c0,1.4-1,2.7-2.5,2.7c-1.5,0-2.5-1.2-2.5-2.7V293c0-0.8-0.5-1.3-1.2-1.3
				c-0.7,0-1.2,0.5-1.2,1.3V298.7z M-248.4,297.6c0,3.3,2.3,5.9,5.5,5.9c1.2,0,3.6-0.4,3.6-1.9c0-0.4-0.3-1.1-1.1-1.1
				c-0.7,0-1.2,0.7-2.6,0.7c-2,0-3-1.6-3-3.6c0-2,1-3.6,3-3.6c1.4,0,1.8,0.6,2.5,0.6c0.6,0,1-0.5,1-1.1c0-1.4-2.3-1.8-3.5-1.8
				C-246.1,291.6-248.4,294.2-248.4,297.6L-248.4,297.6z M-237.1,302.1c0,0.8,0.5,1.3,1.2,1.3s1.2-0.5,1.2-1.3v-3.5h5v3.5
				c0,0.8,0.5,1.3,1.2,1.3s1.2-0.5,1.2-1.3V293c0-0.8-0.5-1.3-1.2-1.3s-1.2,0.5-1.2,1.3v3.4h-5V293c0-0.8-0.5-1.3-1.2-1.3
				s-1.2,0.5-1.2,1.3V302.1z M-225.4,301.7c0,0.1-0.1,0.3-0.1,0.5c0,0.6,0.5,1.1,1.2,1.1c0.7,0,1-0.4,1.2-0.9l0.5-1.5h4.5l0.5,1.5
				c0.2,0.5,0.5,0.8,1.2,0.8c0.6,0,1.1-0.4,1.1-1.1c0-0.1,0-0.3-0.1-0.6l-3.2-8.7c-0.3-0.8-0.9-1.3-1.7-1.3c-0.8,0-1.4,0.6-1.7,1.3
				L-225.4,301.7z M-220.5,294.1L-220.5,294.1l1.5,4.7h-3.1L-220.5,294.1z M-213.2,302.1c0,0.8,0.5,1.3,1.2,1.3
				c0.7,0,1.2-0.5,1.2-1.3v-8.1h1.8c0.8,0,1.1-0.6,1.1-1.1c0-0.6-0.4-1.1-1.1-1.1h-5.9c-0.7,0-1.1,0.5-1.1,1.1
				c0,0.5,0.3,1.1,1.1,1.1h1.8V302.1z M-204.5,302.1c0,0.8,0.5,1.3,1.2,1.3c0.7,0,1.2-0.5,1.2-1.3v-8.1h1.8c0.8,0,1.1-0.6,1.1-1.1
				c0-0.6-0.4-1.1-1.1-1.1h-5.9c-0.7,0-1.1,0.5-1.1,1.1c0,0.5,0.3,1.1,1.1,1.1h1.8V302.1z M-197.7,302.1c0,0.7,0.5,1.2,1.2,1.2h4.1
				c0.8,0,1.1-0.6,1.1-1.1c0-0.6-0.4-1.1-1.1-1.1h-3v-2.4h2.6c0.8,0,1.2-0.6,1.2-1.1c0-0.6-0.4-1.1-1.2-1.1h-2.6v-2.3h2.8
				c0.8,0,1.1-0.6,1.1-1.1c0-0.6-0.4-1.1-1.1-1.1h-4c-0.9,0-1.3,0.6-1.3,1.4V302.1z M-189.4,302.1c0,0.8,0.5,1.3,1.2,1.3
				s1.2-0.5,1.2-1.3v-6h0l5.1,6.7c0.2,0.3,0.7,0.5,1,0.5c0.7,0,1.2-0.5,1.2-1.3V293c0-0.8-0.5-1.3-1.2-1.3c-0.7,0-1.2,0.5-1.2,1.3
				v6.1h0l-5.1-6.8c-0.2-0.3-0.7-0.5-1-0.5c-0.7,0-1.2,0.5-1.2,1.3V302.1z"/>
		</g>
	</g>
</g>
</svg>
