<?xml version="1.0" encoding="UTF-8" standalone="no"?>
<svg width="203px" height="25px" viewBox="0 0 203 25" version="1.1" xmlns="http://www.w3.org/2000/svg" xmlns:xlink="http://www.w3.org/1999/xlink" xmlns:sketch="http://www.bohemiancoding.com/sketch/ns">
    <!-- Generator: Sketch 3.4 (15588) - http://www.bohemiancoding.com/sketch -->
    <title>Dewy</title>
    <desc>Created with Sketch.</desc>
    <defs></defs>
    <g id="Page-1" stroke="none" stroke-width="1" fill="none" fill-rule="evenodd" sketch:type="MSPage">
        <g id="Artboard-8" sketch:type="MSArtboardGroup" transform="translate(-249.000000, -522.000000)">
            <g id="Dewy" sketch:type="MSLayerGroup" transform="translate(249.000000, 522.000000)">
                <path d="M29.8775976,11.0897799 C29.8775976,11.3724508 30.0263663,11.5923059 30.3770351,11.5923059 L32.3429061,11.5923059 C34.372535,11.5923059 35.5733102,10.0533202 35.5733102,7.82336146 C35.5733102,5.85513494 34.4681719,4.13817137 32.2153901,4.13817137 L30.3770351,4.13817137 C30.0263663,4.13817137 29.8775976,4.35802646 29.8775976,4.6406973 L29.8775976,11.0897799 Z M30.8127146,4.93383742 L32.0878741,4.93383742 C33.8730975,4.93383742 34.5744352,6.29484512 34.5744352,7.82336146 C34.5744352,9.34140851 33.9156028,10.7966398 32.1516321,10.7966398 L30.8127146,10.7966398 L30.8127146,4.93383742 Z M41.6899524,9.16343058 C42.093753,9.16343058 42.2106426,8.99592194 42.2106426,8.67137395 C42.2106426,7.33130483 41.3180309,5.95982784 39.7772132,5.95982784 C38.1938901,5.95982784 37.2375204,7.29989696 37.2375204,8.80747472 C37.2375204,10.2836446 38.0238688,11.6551216 39.8303448,11.6551216 C40.9354831,11.6551216 42.093753,10.9641485 42.093753,10.513969 C42.093753,10.2522367 41.9237317,10.1056667 41.7537104,10.1056667 C41.4030415,10.1056667 41.0842517,10.8594556 39.8409711,10.8594556 C38.7889645,10.8594556 38.1726374,10.116136 38.1726374,9.16343058 L41.6899524,9.16343058 Z M38.1726374,8.47245744 C38.2045164,7.62444495 38.6189433,6.71361672 39.7772132,6.75549388 C40.8079671,6.75549388 41.2755256,7.6767914 41.2755256,8.47245744 L38.1726374,8.47245744 Z M45.1925177,11.1735343 C45.3200336,11.5294901 45.4688022,11.6551216 45.7344605,11.6551216 C45.9894924,11.6551216 46.1488873,11.5294901 46.2657769,11.1735343 L47.4771785,7.41505915 L47.4984311,7.41505915 L48.7098327,11.1735343 C48.8267223,11.5294901 48.9861173,11.6551216 49.2411492,11.6551216 C49.5068074,11.6551216 49.655576,11.5294901 49.783092,11.1735343 L51.3345361,6.72408601 C51.3770414,6.58798524 51.4089204,6.46235376 51.4089204,6.36813015 C51.4089204,6.19015222 51.2814044,5.95982784 50.9626145,5.95982784 C50.7607143,5.95982784 50.5694403,6.03311287 50.4419244,6.43094589 L49.2411492,10.2312982 L49.2198965,10.2312982 L48.0403739,6.56704666 C47.912858,6.16921364 47.8278474,5.95982784 47.4878048,5.95982784 C47.1477623,5.95982784 47.0627516,6.16921364 46.9352357,6.56704666 L45.7557131,10.2312982 L45.7344605,10.2312982 L44.5336853,6.43094589 C44.4061693,6.03311287 44.2148954,5.95982784 44.0129951,5.95982784 C43.6942052,5.95982784 43.5666893,6.19015222 43.5666893,6.36813015 C43.5666893,6.46235376 43.5985683,6.58798524 43.6410736,6.72408601 L45.1925177,11.1735343 Z M54.3907955,11.3933894 L53.795721,12.9533136 C53.6788314,13.2673923 53.6575787,13.3616159 53.6575787,13.4663088 C53.6575787,13.6966332 53.8701053,13.8536725 54.0826319,13.8536725 C54.3164111,13.8536725 54.4651798,13.7071024 54.5395641,13.5081859 L56.8986092,6.86018678 C57.0048725,6.54610808 57.0261251,6.45188447 57.0261251,6.34719157 C57.0261251,6.11686719 56.8135985,5.95982784 56.601072,5.95982784 C56.3672927,5.95982784 56.2185241,6.1063979 56.1547661,6.30531441 L54.8796066,10.1266053 L54.8583539,10.1266053 L53.5619418,6.30531441 C53.4981838,6.1063979 53.3281625,5.95982784 53.0943833,5.95982784 C52.8818567,5.95982784 52.6693301,6.11686719 52.6693301,6.34719157 C52.6693301,6.45188447 52.6905828,6.54610808 52.7968461,6.86018678 L54.3907955,11.3933894 Z" fill="#FFFFFF" sketch:type="MSShapeGroup"></path>
                <g id="account-circle" transform="translate(1.153409, 0.000000)" fill-opacity="0.147305254" fill="#000000" sketch:type="MSShapeGroup">
                    <path d="M9.13385229,0 C4.11023353,0 0,4.04738753 0,8.99419452 C0,13.9410015 4.11023353,17.988389 9.13385229,17.988389 C14.1574711,17.988389 18.2677046,13.9410015 18.2677046,8.99419452 C18.2677046,4.04738753 14.1574711,0 9.13385229,0 L9.13385229,0 Z M9.13385229,2.69825836 C10.6866072,2.69825836 11.874008,3.86750364 11.874008,5.39651671 C11.874008,6.92552978 10.6866072,8.09477507 9.13385229,8.09477507 C7.5810974,8.09477507 6.39369661,6.92552978 6.39369661,5.39651671 C6.39369661,3.86750364 7.5810974,2.69825836 9.13385229,2.69825836 L9.13385229,2.69825836 Z M9.13385229,15.4700146 C6.85038922,15.4700146 4.84094172,14.3007693 3.65354092,12.5918723 C3.65354092,10.7930334 7.30708183,9.80367202 9.13385229,9.80367202 C10.9606228,9.80367202 14.6141637,10.7930334 14.6141637,12.5918723 C13.4267629,14.3007693 11.4173154,15.4700146 9.13385229,15.4700146 L9.13385229,15.4700146 Z" id="Shape"></path>
                </g>
                <rect id="base-copy" fill-opacity="0.148494112" fill="#000000" sketch:type="MSShapeGroup" x="0" y="23.1102412" width="203" height="1.13636364"></rect>
            </g>
        </g>
    </g>
</svg>