<?xml version="1.0" encoding="UTF-8" standalone="no"?>
<svg width="119px" height="39px" viewBox="0 0 119 39" version="1.1" xmlns="http://www.w3.org/2000/svg" xmlns:xlink="http://www.w3.org/1999/xlink" xmlns:sketch="http://www.bohemiancoding.com/sketch/ns">
    <!-- Generator: Sketch 3.3.3 (12081) - http://www.bohemiancoding.com/sketch -->
    <title>logo</title>
    <desc>Created with Sketch.</desc>
    <defs></defs>
    <g id="Page-1" stroke="none" stroke-width="1" fill="none" fill-rule="evenodd" sketch:type="MSPage">
        <g id="expanded" sketch:type="MSArtboardGroup" transform="translate(-11.000000, -174.000000)">
            <g id="logo" sketch:type="MSLayerGroup" transform="translate(11.000000, 174.000000)">
                <path d="M102.46508,16.3568571 L118.420635,16.3568571 L118.420635,16.8728571 L102.46508,16.8728571 L102.46508,16.3568571 Z M110.434606,13.8754286 L111.937307,12.4568571 L112.558365,13.0697143 L110.941007,14.4231429 C110.810715,14.5842857 110.712562,14.8422857 110.630912,15.0034286 L109.438307,15.0034286 C109.504321,14.568 110.124511,14.0202857 110.434606,13.8754286 L110.434606,13.8754286 Z M105.420971,4.81885714 C105.372328,4.83514286 104.179723,5.15742857 104.179723,5.15742857 C104.179723,5.15742857 103.624679,5.36657143 103.37973,5.52771429 C103.134781,5.68885714 102.856825,5.96314286 102.84119,6.108 L103.902635,6.34971429 C104.065934,6.17228571 104.245737,5.97942857 104.409036,5.85 L104.653985,5.73771429 L105.535628,4.85142857 C105.535628,4.85142857 105.50262,4.80342857 105.420971,4.81885714 L105.420971,4.81885714 Z M112.640015,7.704 C111.95381,6.96257143 111.382263,6.26914286 110.827219,5.44714286 C111.185956,4.77085714 111.447409,2.982 111.284109,2.28942857 C111.218964,2.07942857 110.630912,1.30628571 110.532759,1.19314286 C110.385964,1.04828571 109.912569,0.516857143 109.684124,0.516857143 C109.634613,0.516857143 109.585971,0.533142857 109.569467,0.548571429 L109.634613,1.14514286 C108.99792,1.548 108.16492,2.09571429 107.413569,2.64342857 C107.413569,2.85342857 107.430073,3.17485714 107.446577,3.288 C107.560365,3.38485714 107.691526,3.46542857 107.838321,3.51428571 C108.131912,3.46542857 109.046562,3.24 109.291511,3.27171429 L108.394234,4.60971429 L107.364927,5.33485714 L106.075036,4.932 C105.993387,4.91571429 105.911737,4.932 105.862226,4.99628571 L104.915438,6.012 C104.865927,6.06 104.833788,6.108 104.833788,6.22114286 L104.800781,7.36457143 C104.800781,7.36457143 104.784277,7.542 104.784277,7.73571429 C104.784277,8.55771429 105.160387,8.94428571 105.160387,8.94428571 L105.780577,8.058 C105.698927,7.92942857 105.552131,7.57457143 105.519124,7.41342857 C105.519124,7.38085714 105.535628,6.43028571 105.535628,6.43028571 L106.140182,5.99485714 L107.740168,7.10742857 C107.740168,7.10742857 108.181423,7.91314286 108.606175,8.39657143 C108.883263,8.73514286 110.271307,9.65314286 110.941007,10.0405714 C111.007022,10.3945714 111.152949,10.9748571 111.267606,11.2808571 L113.228066,13.2625714 L112.068467,14.6965714 C111.660219,14.9554286 111.267606,15.4225714 111.300613,15.8571429 L112.640015,15.8571429 L112.78681,15.0994286 L114.387664,13.3431429 C114.468445,13.2471429 114.468445,13.1982857 114.419803,13.0534286 L113.962044,11.5388571 C114.191358,11.2808571 114.680387,10.6371429 114.680387,9.86314286 C114.680387,8.46085714 113.129912,8.10685714 112.640015,7.704 L112.640015,7.704 Z M115.15465,10.0405714 C115.056496,9.66942857 114.909701,9.25028571 114.795912,9.04114286 C114.795912,9.04114286 114.86019,8.976 114.99135,9.05742857 C115.121642,9.138 115.954642,9.702 115.954642,9.702 C116.379394,10.314 116.640847,12.828 116.65735,13.7305714 C116.264737,13.5531429 115.709693,13.2471429 115.350956,12.9077143 L115.15465,10.0405714 L115.15465,10.0405714 Z" id="Fill-1" fill="#231F20" sketch:type="MSShapeGroup"></path>
                <path d="M73.7061679,9.492 C73.7061679,8.52514286 73.396073,7.76828571 72.5465693,7.76828571 C71.6970657,7.76828571 71.3548321,8.52514286 71.3548321,9.492 L71.3548321,15.8571429 L72.3511314,15.8571429 L72.3511314,16.8728571 L66.8962409,16.8728571 L66.8962409,15.8571429 L67.9081752,15.8571429 L67.9081752,7.09114286 L66.8962409,7.09114286 L66.8962409,6.108 L71.1906642,6.108 L71.1906642,7.75114286 L71.2401752,7.75114286 C71.6484234,6.84857143 72.5952117,5.898 74.1144161,5.898 C75.7152701,5.898 76.6950657,6.86485714 77.0051606,8.13771429 C77.1198175,8.63742857 77.1519562,9.45942857 77.1519562,9.87857143 L77.1519562,15.8571429 L78.4583504,15.8571429 L78.4583504,16.8728571 L73.7061679,16.8728571 L73.7061679,9.492 L73.7061679,9.492 Z M51.6755328,9.492 C51.6755328,8.52514286 51.365438,7.76828571 50.5159343,7.76828571 C49.6672993,7.76828571 49.3241971,8.52514286 49.3241971,9.492 L49.3241971,15.8571429 L50.3204964,15.8571429 L50.3204964,16.8728571 L44.8656058,16.8728571 L44.8656058,15.8571429 L45.8784088,15.8571429 L45.8784088,7.09114286 L44.8656058,7.09114286 L44.8656058,6.108 L49.1608978,6.108 L49.1608978,7.75114286 L49.2095401,7.75114286 C49.6177883,6.84857143 50.5654453,5.898 52.083781,5.898 C53.684635,5.898 54.6644307,6.86485714 54.9745255,8.13771429 C55.0891825,8.63742857 55.1213212,9.45942857 55.1213212,9.87857143 L55.1213212,15.8571429 L56.4285839,15.8571429 L56.4285839,16.8728571 L51.6755328,16.8728571 L51.6755328,9.492 L51.6755328,9.492 Z M83.0802409,7.09114286 L83.0802409,15.0514286 C83.0802409,15.5991429 83.4398467,15.7285714 83.7820803,15.7285714 C84.1086788,15.7285714 84.4187737,15.6162857 84.4187737,15.6162857 L84.4187737,16.5985714 C84.4187737,16.5985714 83.7664453,17.0014286 82.3123869,17.0014286 C80.6142482,17.0014286 79.6179489,16.1794286 79.6179489,14.4394286 L79.6179489,7.09114286 L78.4583504,7.09114286 L78.4583504,6.366 C79.7482409,5.35028571 81.2509416,4.19057143 82.4435474,3.20742857 L83.0802409,3.20742857 L83.0802409,6.108 L84.7462409,6.108 L84.7462409,7.09114286 L83.0802409,7.09114286 L83.0802409,7.09114286 Z M15.0122409,0.516 C15.0122409,0.516 17.6415328,3.10971429 18.8497737,4.44771429 L18.8497737,5.46342857 C17.7231825,4.28742857 15.3874818,3.30342857 13.2159489,3.30342857 C8.29959854,3.30342857 5.21341606,6.96257143 5.21341606,11.49 C5.21341606,16.002 8.13629927,19.6602857 13.2159489,19.6602857 C15.7470876,19.6602857 17.7718248,18.4842857 18.8984161,17.2757143 L18.8984161,18.2417143 C17.3635766,20.3211429 14.5544818,21.6745714 11.0600511,21.6745714 C4.80516788,21.6745714 0.493372263,17.1942857 0.493372263,11.49 C0.493372263,5.78485714 5.27856204,1.32171429 11.0600511,1.32171429 C12.5297445,1.32171429 13.8526423,1.56342857 15.0122409,1.96628571 L15.0122409,0.516 L15.0122409,0.516 Z M65.3118905,14.004 C64.8219927,14.568 64.0541387,15.0025714 62.9119124,15.0025714 C61.9147445,15.0025714 60.3799051,14.4548571 60.3147591,11.958 L66.1448905,11.958 C66.1613942,11.7634286 66.1770292,11.3768571 66.1770292,11.1831429 C66.1770292,8.15485714 64.920146,5.898 61.6376569,5.898 C58.3386642,5.898 56.6561606,8.39657143 56.6561606,11.5062857 C56.6561606,14.6168571 58.3386642,17.0657143 61.6376569,17.0657143 C63.7605474,17.0657143 65.0999489,16.0825714 65.883438,14.5362857 L65.3118905,14.004 L65.3118905,14.004 Z M60.3147591,10.9097143 C60.3147591,8.07342857 60.5432044,7.01057143 61.523,7.01057143 C62.5192993,7.01057143 62.7156058,8.04171429 62.7477445,10.9097143 L60.3147591,10.9097143 L60.3147591,10.9097143 Z M12.1701387,11.4582857 C12.1701387,8.17028571 12.4802336,6.72 13.6076934,6.72 C14.7342847,6.72 15.0443796,8.17028571 15.0443796,11.4582857 C15.0443796,14.7454286 14.7342847,16.1948571 13.6076934,16.1948571 C12.4802336,16.1948571 12.1701387,14.7454286 12.1701387,11.4582857 L12.1701387,11.4582857 Z M8.11979562,11.49 C8.11979562,14.7454286 10.1454015,17.388 13.6076934,17.388 C17.0691168,17.388 19.0947226,14.7454286 19.0947226,11.49 C19.0947226,8.23457143 17.0691168,5.592 13.6076934,5.592 C10.1454015,5.592 8.11979562,8.23457143 8.11979562,11.49 L8.11979562,11.49 Z M26.8192993,9.492 C26.8192993,8.52514286 26.5092044,7.76828571 25.6597007,7.76828571 C24.8101971,7.76828571 24.4679635,8.52514286 24.4679635,9.492 L24.4679635,15.8571429 L25.4633942,15.8571429 L25.4633942,16.8728571 L20.0093723,16.8728571 L20.0093723,15.8571429 L21.0221752,15.8571429 L21.0221752,7.09114286 L20.0093723,7.09114286 L20.0093723,6.108 L24.3046642,6.108 L24.3046642,7.75114286 L24.3533066,7.75114286 C24.7615547,6.84857143 25.7092117,5.898 27.2275474,5.898 C28.8284015,5.898 29.8081971,6.86485714 30.118292,8.13771429 C30.2320803,8.63742857 30.2650876,9.45942857 30.2650876,9.87857143 L30.2650876,15.8571429 L31.5714818,15.8571429 L31.5714818,16.8728571 L26.8192993,16.8728571 L26.8192993,9.492 L26.8192993,9.492 Z M39.1744526,3.25457143 C39.1744526,4.206 40.0395912,4.83514286 41.2808394,4.83514286 C42.5220876,4.83514286 43.3880949,4.206 43.3880949,3.25457143 C43.3880949,2.30485714 42.5220876,1.67657143 41.2808394,1.67657143 C40.0395912,1.67657143 39.1744526,2.30485714 39.1744526,3.25457143 L39.1744526,3.25457143 Z M36.1933723,7.09114286 L36.1933723,15.0514286 C36.1933723,15.5991429 36.5529781,15.7285714 36.8952117,15.7285714 C37.2226788,15.7285714 37.5327737,15.6162857 37.5327737,15.6162857 L37.5327737,16.5985714 C37.5327737,16.5985714 36.8795766,17.0014286 35.4263869,17.0014286 C33.7273796,17.0014286 32.7310803,16.1794286 32.7310803,14.4394286 L32.7310803,7.09114286 L31.5714818,7.09114286 L31.5714818,6.366 C32.8622409,5.35028571 34.3649416,4.19057143 35.5566788,3.20742857 L36.1933723,3.20742857 L36.1933723,6.108 L37.5327737,6.108 L37.5327737,7.09114286 L36.1933723,7.09114286 L36.1933723,7.09114286 Z M99.9009343,15.8571429 L101.240336,15.8571429 L101.240336,16.8728571 L96.455146,16.8728571 L96.455146,3.10971429 L95.2634088,3.10971429 L95.2634088,2.12742857 L99.9009343,2.12742857 L99.9009343,15.8571429 L99.9009343,15.8571429 Z M90.6901606,11.538 C90.5928759,11.442 90.3800657,11.3134286 89.9396788,11.3134286 C88.9103723,11.3134286 88.681927,12.312 88.681927,13.3431429 C88.681927,14.3588571 88.9920219,15.1808571 89.8736642,15.1808571 C90.2984161,15.1808571 90.5598686,15.0025714 90.6901606,14.8585714 L90.6901606,11.538 L90.6901606,11.538 Z M90.8378248,15.5828571 L90.7883139,15.5828571 C90.1516204,16.47 89.3021168,17.0657143 87.9957226,17.0657143 C86.2159343,17.0657143 85.1049781,15.5665714 85.1049781,13.7777143 C85.1049781,11.6194286 86.6571898,10.2488571 89.1388175,10.2488571 C90.1516204,10.2488571 90.6901606,10.4751429 90.6901606,10.4751429 L90.6901606,9.798 C90.6901606,8.49257143 89.8736642,7.79914286 88.681927,7.79914286 C87.0324307,7.79914286 86.182927,9.05742857 86.182927,9.05742857 L85.5792409,8.33228571 C86.6728248,6.65571429 88.3544599,5.898 89.9231752,5.898 C92.5689708,5.898 94.1359489,7.446 94.1359489,9.798 L94.1359489,15.8571429 L95.2469051,15.8571429 L95.2469051,16.8728571 L90.8378248,16.8728571 L90.8378248,15.5828571 L90.8378248,15.5828571 Z M38.5368905,16.8728571 L38.5368905,15.8571429 L39.5340584,15.8571429 L39.5340584,7.09114286 L38.5368905,7.09114286 L38.5368905,6.108 L42.9798467,6.108 L42.9798467,15.8571429 L43.991781,15.8571429 L43.991781,16.8728571 L38.5368905,16.8728571 L38.5368905,16.8728571 Z" id="Fill-2" fill="#231F20" sketch:type="MSShapeGroup"></path>
                <g id="winterbanden" transform="translate(6.389262, 25.071429)" fill="#231F1F" sketch:type="MSShapeGroup">
                    <path d="M0.282033457,3.99710204 L0.282033457,3.64530612 L1.09404187,3.64530612 L3.4572343,11.8926122 L3.49365071,11.8926122 L5.98313834,3.64530612 L6.74090955,3.64530612 L9.17693479,11.8926122 L9.21257638,11.8926122 L11.5757688,3.64530612 L12.3149444,3.64530612 L12.3149444,3.99710204 L9.59146199,13.3013878 L8.79804918,13.3013878 L6.34420315,5.12810204 L6.30778674,5.12810204 L3.8361199,13.3013878 L3.00629069,13.3013878 L0.282033457,3.99710204" id="Fill-1"></path>
                    <path d="M14.0102444,1.53293878 C14.0102444,1.19944898 14.2806556,0.903367347 14.6231248,0.903367347 C14.965594,0.903367347 15.23678,1.19944898 15.23678,1.53293878 C15.23678,1.88473469 14.965594,2.16330612 14.6231248,2.16330612 C14.2806556,2.16330612 14.0102444,1.88473469 14.0102444,1.53293878 L14.0102444,1.53293878 Z M14.1543604,13.3013878 L14.1543604,3.64530612 L14.4433672,3.64530612 C14.9841896,3.64530612 15.0570224,3.75673469 15.0570224,4.64657143 L15.0570224,13.3013878 L14.1543604,13.3013878 L14.1543604,13.3013878 Z" id="Fill-2"></path>
                    <path d="M18.6103341,5.18381633 C19.6749329,4.31308163 21.0820009,3.53387755 22.7416593,3.53387755 C24.0588485,3.53387755 25.1769097,4.09102041 25.1769097,6.11106122 L25.1769097,13.3013878 L24.2750225,13.3013878 L24.2750225,6.22169388 C24.2750225,4.68397959 23.4630141,4.31308163 22.3984153,4.31308163 C21.0091681,4.31308163 19.6749329,5.10979592 18.6103341,5.94391837 L18.6103341,13.3013878 L17.707672,13.3013878 L17.707672,3.64530612 L18.1229741,3.64530612 C18.5196805,3.64530612 18.6103341,3.75673469 18.6103341,4.60916327 L18.6103341,5.18381633" id="Fill-3"></path>
                    <path d="M26.6010237,3.64530612 L27.8453801,3.64530612 L27.8453801,0.958285714 L28.748817,0.958285714 L28.748817,3.64530612 L31.2561254,3.64530612 L31.2561254,4.34969388 L28.748817,4.34969388 L28.748817,11.095898 C28.748817,12.2635102 29.2710438,12.616102 30.3712842,12.616102 L31.4544786,12.616102 L31.4544786,13.2639796 C31.1662466,13.3196939 30.6238746,13.3754082 30.0652314,13.3754082 C28.621747,13.3754082 27.8453801,12.7458367 27.8453801,11.2073265 L27.8453801,4.34969388 L26.6010237,4.34969388 L26.6010237,3.64530612" id="Fill-4"></path>
                    <path d="M36.6504027,12.616102 C38.1473495,12.616102 39.0678323,12.1337755 39.5730131,11.6148367 L39.9697195,11.6148367 L39.9697195,12.3001224 C39.3026019,12.8381633 38.2736447,13.3754082 36.5605239,13.3754082 C33.7270174,13.3754082 32.1580126,11.5034082 32.1580126,8.50120408 C32.1580126,5.46159184 33.9261454,3.53387755 36.3257543,3.53387755 C38.6347095,3.53387755 40.1858935,4.90604082 40.1858935,8.05628571 C40.1858935,8.24173469 40.1680727,8.46459184 40.1680727,8.50120408 L33.0777206,8.50120408 C33.0777206,11.2073265 34.3042562,12.616102 36.6504027,12.616102 L36.6504027,12.616102 Z M33.0963162,7.79681633 L39.2840063,7.79681633 C39.2305439,5.22122449 38.0760663,4.23826531 36.3257543,4.23826531 C34.5940379,4.23826531 33.3124902,5.42418367 33.0963162,7.79681633 L33.0963162,7.79681633 Z" id="Fill-5"></path>
                    <path d="M42.9450175,5.31355102 C43.6663723,4.4245102 44.6953296,3.57128571 46.0295648,3.57128571 C46.2643344,3.57128571 46.427046,3.60869388 46.4626876,3.62779592 L46.4626876,4.38710204 C46.4626876,4.38710204 46.227918,4.368 46.0659812,4.368 C44.6953296,4.368 43.7020139,5.27693878 42.9450175,6.18428571 L42.9450175,13.3013878 L42.0431303,13.3013878 L42.0431303,3.64530612 L42.4576575,3.64530612 C42.8551387,3.64530612 42.9450175,3.75673469 42.9450175,4.70228571 L42.9450175,5.31355102" id="Fill-6"></path>
                    <path d="M49.1327076,5.36926531 C49.872658,4.47942857 51.0449564,3.53387755 52.7046148,3.53387755 C54.4913433,3.53387755 56.3137133,4.64657143 56.3137133,8.35316327 C56.3137133,12.1711837 54.2209321,13.3754082 52.2900876,13.3754082 C50.7745452,13.3754082 49.8362416,12.9121837 49.1148868,12.2452041 C49.0428288,12.8381633 48.8266548,13.3013878 48.46559,13.3013878 L48.2308204,13.3013878 L48.2308204,0.327918367 L48.5554688,0.327918367 C49.0784704,0.327918367 49.1327076,0.439346939 49.1327076,1.2177551 L49.1327076,5.36926531 L49.1327076,5.36926531 Z M49.1327076,6.27740816 L49.1327076,11.3736735 C49.872658,12.2077959 50.7567244,12.6519184 52.1095552,12.6519184 C53.6615141,12.6519184 55.3932305,11.7628776 55.3932305,8.42718367 C55.3932305,5.12810204 53.8776881,4.29477551 52.5604988,4.29477551 C51.0449564,4.29477551 49.944716,5.27693878 49.1327076,6.27740816 L49.1327076,6.27740816 Z" id="Fill-7"></path>
                    <path d="M63.689973,11.9857347 C62.8965602,12.8381633 62.0310894,13.3937143 60.4791305,13.3937143 C58.7288185,13.3937143 57.4480457,12.411551 57.4480457,10.5952653 C57.4480457,8.6492449 59.0178253,7.76020408 61.2190809,7.76020408 C62.1209681,7.76020408 62.9143809,7.85253061 63.689973,8.05628571 L63.689973,6.31481633 C63.689973,4.81371429 62.7524442,4.27567347 61.3810177,4.27567347 C59.9917705,4.27567347 59.0542417,4.64657143 58.4584073,5.12810204 L58.0795217,5.12810204 L58.0795217,4.368 C58.8372929,3.94218367 59.8832961,3.53387755 61.4174341,3.53387755 C63.329683,3.53387755 64.592635,4.25736735 64.592635,6.25830612 L64.592635,13.3013878 L64.3400446,13.3013878 C63.8162682,13.3013878 63.689973,13.1342449 63.689973,12.3558367 L63.689973,11.9857347 L63.689973,11.9857347 Z M63.689973,11.095898 L63.689973,8.72406122 C62.969393,8.55691837 62.1752053,8.42718367 61.2725433,8.42718367 C59.6136597,8.42718367 58.3677537,9.03844898 58.3677537,10.5212449 C58.3677537,12.0589592 59.3424737,12.6710204 60.6054257,12.6710204 C62.1209681,12.6710204 62.9507974,12.0040408 63.689973,11.095898 L63.689973,11.095898 Z" id="Fill-8"></path>
                    <path d="M68.0196514,5.18381633 C69.0842502,4.31308163 70.4920931,3.53387755 72.1509767,3.53387755 C73.4681659,3.53387755 74.5870019,4.09102041 74.5870019,6.11106122 L74.5870019,13.3013878 L73.6851147,13.3013878 L73.6851147,6.22169388 C73.6851147,4.68397959 72.8731063,4.31308163 71.8085075,4.31308163 C70.4192602,4.31308163 69.0842502,5.10979592 68.0196514,5.94391837 L68.0196514,13.3013878 L67.1177642,13.3013878 L67.1177642,3.64530612 L67.5322914,3.64530612 C67.9297726,3.64530612 68.0196514,3.75673469 68.0196514,4.60916327 L68.0196514,5.18381633" id="Fill-9"></path>
                    <path d="M83.5702324,11.6331429 C82.8124612,12.616102 81.6037464,13.3754082 80.1246204,13.3754082 C78.2301923,13.3754082 76.4078223,12.1528776 76.4078223,8.55691837 C76.4078223,4.81371429 78.5006035,3.53387755 80.431448,3.53387755 C81.910574,3.53387755 82.8666984,3.99710204 83.5702324,4.73889796 L83.5702324,0.327918367 L83.87706,0.327918367 C84.4000616,0.327918367 84.4907152,0.439346939 84.4907152,1.2177551 L84.4907152,13.3013878 L84.021176,13.3013878 C83.6422904,13.3013878 83.588828,13.1159388 83.5702324,12.226102 L83.5702324,11.6331429 L83.5702324,11.6331429 Z M83.5702324,10.6883878 L83.5702324,5.57302041 C82.830282,4.75720408 81.9648112,4.25736735 80.575564,4.25736735 C78.9871887,4.25736735 77.3283051,5.14720408 77.3283051,8.5195102 C77.3283051,11.7254694 78.8074311,12.6519184 80.2144991,12.6519184 C81.7478624,12.6519184 82.7589988,11.8193878 83.5702324,10.6883878 L83.5702324,10.6883878 Z" id="Fill-10"></path>
                    <path d="M90.9124001,12.616102 C92.4101217,12.616102 93.3298297,12.1337755 93.8350105,11.6148367 L94.2317169,11.6148367 L94.2317169,12.3001224 C93.5645993,12.8381633 92.5364169,13.3754082 90.8225213,13.3754082 C87.9890148,13.3754082 86.42001,11.5034082 86.42001,8.50120408 C86.42001,5.46159184 88.1881428,3.53387755 90.5877517,3.53387755 C92.8967069,3.53387755 94.4486657,4.90604082 94.4486657,8.05628571 C94.4486657,8.24173469 94.4300701,8.46459184 94.4300701,8.50120408 L87.3404928,8.50120408 C87.3404928,11.2073265 88.5670284,12.616102 90.9124001,12.616102 L90.9124001,12.616102 Z M87.3583136,7.79681633 L93.5460037,7.79681633 C93.4925413,5.22122449 92.3380637,4.23826531 90.5877517,4.23826531 C88.8560353,4.23826531 87.5744876,5.42418367 87.3583136,7.79681633 L87.3583136,7.79681633 Z" id="Fill-11"></path>
                    <path d="M97.2070149,5.18381633 C98.2716137,4.31308163 99.6786818,3.53387755 101.33834,3.53387755 C102.655529,3.53387755 103.774365,4.09102041 103.774365,6.11106122 L103.774365,13.3013878 L102.872478,13.3013878 L102.872478,6.22169388 C102.872478,4.68397959 102.06047,4.31308163 100.995871,4.31308163 C99.6066238,4.31308163 98.2716137,5.10979592 97.2070149,5.94391837 L97.2070149,13.3013878 L96.3051277,13.3013878 L96.3051277,3.64530612 L96.7196549,3.64530612 C97.1171361,3.64530612 97.2070149,3.75673469 97.2070149,4.60916327 L97.2070149,5.18381633" id="Fill-12"></path>
                </g>
            </g>
        </g>
    </g>
</svg>