<?xml version="1.0" encoding="UTF-8" standalone="no"?>
<svg width="140px" height="112px" viewBox="0 0 140 112" version="1.1" xmlns="http://www.w3.org/2000/svg" xmlns:xlink="http://www.w3.org/1999/xlink" xmlns:sketch="http://www.bohemiancoding.com/sketch/ns">
    <!-- Generator: Sketch 3.3.3 (12081) - http://www.bohemiancoding.com/sketch -->
    <title>Imported Layers</title>
    <desc>Created with Sketch.</desc>
    <defs></defs>
    <g id="Page-1" stroke="none" stroke-width="1" fill="none" fill-rule="evenodd" sketch:type="MSPage">
        <g id="Artboard-3" sketch:type="MSArtboardGroup" transform="translate(-45.000000, -227.000000)">
            <g id="Imported-Layers" sketch:type="MSLayerGroup" transform="translate(45.000000, 227.000000)">
                <path d="M107.547,44.248 L32.006,44.248 C19.999,44.248 10.231,34.479 10.231,22.472 C10.231,10.465 19.999,0.697 32.006,0.697 L107.547,0.697 C119.554,0.697 129.322,10.465 129.322,22.472 C129.322,34.479 119.554,44.248 107.547,44.248" id="Fill-1" fill="#231F1F" sketch:type="MSShapeGroup"></path>
                <path d="M39.455,14.1 L39.455,12.855 L43.947,12.855 L47.226,28.247 L47.287,28.247 L50.929,12.855 L54.936,12.855 L58.701,28.247 L58.761,28.247 L61.918,12.855 L65.896,12.855 L65.896,14.1 L61.13,34.106 L55.878,34.106 L52.69,20.202 L52.629,20.202 L49.472,34.106 L44.19,34.106 L39.455,14.1" id="Fill-2" fill="#FEA500" sketch:type="MSShapeGroup"></path>
                <path d="M68.571,12.855 L73.337,12.855 L73.337,34.106 L68.571,34.106 L68.571,12.855 Z" id="Fill-3" fill="#FEA500" sketch:type="MSShapeGroup"></path>
                <path d="M77.195,12.855 L82.568,12.855 L90.4,26.487 L90.491,26.487 L90.491,12.855 L94.468,12.855 L94.468,34.106 L90.157,34.106 L81.232,18.593 L81.141,18.593 L81.141,34.106 L77.195,34.106 L77.195,12.855" id="Fill-4" fill="#FEA500" sketch:type="MSShapeGroup"></path>
                <path d="M50.913,53.521 L60.222,53.521 L60.222,55.803 L54.023,55.803 L54.023,59.397 L58.465,59.397 L58.465,61.558 L54.023,61.558 L54.023,65.435 L60.445,65.435 L60.445,67.656 L50.913,67.656 L50.913,53.521" id="Fill-5" fill="#231F1F" sketch:type="MSShapeGroup"></path>
                <path d="M62.36,53.521 L71.669,53.521 L71.669,55.803 L65.47,55.803 L65.47,59.397 L69.912,59.397 L69.912,61.558 L65.47,61.558 L65.47,65.435 L71.892,65.435 L71.892,67.656 L62.36,67.656 L62.36,53.521" id="Fill-6" fill="#231F1F" sketch:type="MSShapeGroup"></path>
                <path d="M73.807,53.521 L77.382,53.521 L82.592,62.587 L82.652,62.587 L82.652,53.521 L85.298,53.521 L85.298,67.656 L82.43,67.656 L76.493,57.337 L76.433,57.337 L76.433,67.656 L73.807,67.656 L73.807,53.521" id="Fill-7" fill="#231F1F" sketch:type="MSShapeGroup"></path>
                <path d="M0.938,91.044 L0.938,88.098 L2.2,88.098 C2.967,88.915 4.279,89.683 6.309,89.683 C8.414,89.683 9.428,88.89 9.428,87.553 C9.428,85.697 7.695,85.524 5.715,84.93 C2.522,83.99 1.061,82.678 1.061,79.757 C1.061,76.39 3.586,74.707 7.126,74.707 C9.156,74.707 10.863,75.178 11.953,75.846 L11.953,78.643 L10.74,78.643 C9.824,77.974 8.76,77.479 7.275,77.479 C5.393,77.479 4.379,78.073 4.379,79.485 C4.379,80.871 5.517,81.292 7.547,81.811 C11.333,82.776 12.918,83.964 12.918,87.158 C12.918,90.524 10.691,92.43 6.433,92.43 C3.958,92.43 2.398,91.885 0.938,91.044" id="Fill-8" fill="#231F1F" sketch:type="MSShapeGroup"></path>
                <path d="M15.099,92.232 L15.099,74.905 L18.961,74.905 L18.961,89.509 L26.113,89.509 L26.113,92.232 L15.099,92.232" id="Fill-9" fill="#231F1F" sketch:type="MSShapeGroup"></path>
                <path d="M28.467,74.905 L32.353,74.905 L32.353,92.232 L28.467,92.232 L28.467,74.905 Z" id="Fill-10" fill="#231F1F" sketch:type="MSShapeGroup"></path>
                <path d="M35.498,74.905 L41.241,74.905 C45.622,74.905 48.122,76.638 48.122,80.425 C48.122,84.162 45.597,85.969 41.142,85.969 L39.36,85.969 L39.36,92.232 L35.498,92.232 L35.498,74.905 L35.498,74.905 Z M39.36,83.371 L41.142,83.371 C43.493,83.371 44.235,82.306 44.235,80.474 C44.235,78.618 43.593,77.678 41.142,77.678 L39.36,77.678 L39.36,83.371 L39.36,83.371 Z" id="Fill-11" fill="#231F1F" sketch:type="MSShapeGroup"></path>
                <path d="M49.461,83.618 C49.461,78.073 53.001,74.707 58.026,74.707 C60.402,74.707 61.739,75.153 63.075,75.846 L63.075,78.741 L61.689,78.741 C60.947,78.048 59.833,77.504 58.125,77.504 C55.105,77.504 53.422,79.608 53.422,83.469 C53.422,87.677 54.931,89.658 57.902,89.658 C59.957,89.658 61.095,88.89 62.061,87.925 L63.273,87.925 L63.273,90.772 C61.962,91.762 60.155,92.43 57.729,92.43 C52.729,92.43 49.461,89.162 49.461,83.618" id="Fill-12" fill="#231F1F" sketch:type="MSShapeGroup"></path>
                <path d="M76.048,85.548 L76.048,74.905 L79.267,74.905 L79.267,85.45 C79.267,89.905 77.46,92.43 72.558,92.43 C67.855,92.43 65.404,89.905 65.404,85.45 L65.404,74.905 L69.267,74.905 L69.267,85.548 C69.267,88.791 70.553,89.583 72.781,89.583 C74.885,89.583 76.048,88.791 76.048,85.548" id="Fill-13" fill="#231F1F" sketch:type="MSShapeGroup"></path>
                <path d="M88.378,85.45 L86.126,85.45 L86.126,92.232 L82.264,92.232 L82.264,74.905 L88.08,74.905 C92.338,74.905 94.74,76.638 94.74,79.979 C94.74,82.281 93.724,83.841 91.968,84.707 L95.606,91.217 L95.606,92.232 L92.066,92.232 L88.378,85.45 L88.378,85.45 Z M86.126,82.801 L87.982,82.801 C90.012,82.801 90.854,81.91 90.854,80.202 C90.854,78.518 90.012,77.653 87.982,77.653 L86.126,77.653 L86.126,82.801 L86.126,82.801 Z" id="Fill-14" fill="#231F1F" sketch:type="MSShapeGroup"></path>
                <path d="M97.069,91.044 L97.069,88.098 L98.331,88.098 C99.098,88.915 100.41,89.683 102.44,89.683 C104.544,89.683 105.559,88.89 105.559,87.553 C105.559,85.697 103.826,85.524 101.846,84.93 C98.653,83.99 97.192,82.678 97.192,79.757 C97.192,76.39 99.717,74.707 103.257,74.707 C105.287,74.707 106.994,75.178 108.083,75.846 L108.083,78.643 L106.871,78.643 C105.955,77.974 104.89,77.479 103.406,77.479 C101.524,77.479 100.509,78.073 100.509,79.485 C100.509,80.871 101.648,81.292 103.678,81.811 C107.464,82.776 109.048,83.964 109.048,87.158 C109.048,90.524 106.822,92.43 102.564,92.43 C100.089,92.43 98.529,91.885 97.069,91.044" id="Fill-15" fill="#231F1F" sketch:type="MSShapeGroup"></path>
                <path d="M121.798,85.548 L121.798,74.905 L125.016,74.905 L125.016,85.45 C125.016,89.905 123.209,92.43 118.308,92.43 C113.605,92.43 111.154,89.905 111.154,85.45 L111.154,74.905 L115.016,74.905 L115.016,85.548 C115.016,88.791 116.303,89.583 118.531,89.583 C120.634,89.583 121.798,88.791 121.798,85.548" id="Fill-16" fill="#231F1F" sketch:type="MSShapeGroup"></path>
                <path d="M127.05,91.044 L127.05,88.098 L128.312,88.098 C129.079,88.915 130.391,89.683 132.421,89.683 C134.525,89.683 135.54,88.89 135.54,87.553 C135.54,85.697 133.807,85.524 131.827,84.93 C128.634,83.99 127.173,82.678 127.173,79.757 C127.173,76.39 129.698,74.707 133.238,74.707 C135.268,74.707 136.975,75.178 138.064,75.846 L138.064,78.643 L136.852,78.643 C135.936,77.974 134.871,77.479 133.387,77.479 C131.505,77.479 130.49,78.073 130.49,79.485 C130.49,80.871 131.629,81.292 133.659,81.811 C137.445,82.776 139.03,83.964 139.03,87.158 C139.03,90.524 136.803,92.43 132.545,92.43 C130.07,92.43 128.51,91.885 127.05,91.044" id="Fill-17" fill="#231F1F" sketch:type="MSShapeGroup"></path>
                <path d="M7.305,98.452 L7.305,97.624 L10.314,97.624 L13.727,108.044 L13.767,108.044 L17.201,97.624 L19.805,97.624 L19.805,98.452 L15.161,111.759 L11.93,111.759 L7.305,98.452" id="Fill-18" fill="#231F1F" sketch:type="MSShapeGroup"></path>
                <path d="M20.106,104.691 C20.106,100.028 23.276,97.462 26.891,97.462 C30.505,97.462 33.677,100.028 33.677,104.691 C33.677,109.356 30.505,111.921 26.891,111.921 C23.276,111.921 20.106,109.356 20.106,104.691 L20.106,104.691 Z M30.445,104.753 C30.445,101.279 28.951,99.683 26.891,99.683 C24.811,99.683 23.338,101.279 23.338,104.753 C23.338,108.206 24.811,109.741 26.891,109.741 C28.951,109.741 30.445,108.206 30.445,104.753 L30.445,104.753 Z" id="Fill-19" fill="#231F1F" sketch:type="MSShapeGroup"></path>
                <path d="M34.844,104.691 C34.844,100.028 38.014,97.462 41.629,97.462 C45.243,97.462 48.414,100.028 48.414,104.691 C48.414,109.356 45.243,111.921 41.629,111.921 C38.014,111.921 34.844,109.356 34.844,104.691 L34.844,104.691 Z M45.183,104.753 C45.183,101.279 43.688,99.683 41.629,99.683 C39.549,99.683 38.075,101.279 38.075,104.753 C38.075,108.206 39.549,109.741 41.629,109.741 C43.688,109.741 45.183,108.206 45.183,104.753 L45.183,104.753 Z" id="Fill-20" fill="#231F1F" sketch:type="MSShapeGroup"></path>
                <path d="M55.236,106.226 L53.398,106.226 L53.398,111.759 L50.248,111.759 L50.248,97.624 L54.993,97.624 C58.466,97.624 60.425,99.038 60.425,101.764 C60.425,103.641 59.597,104.914 58.164,105.621 L61.132,110.931 L61.132,111.759 L58.244,111.759 L55.236,106.226 L55.236,106.226 Z M53.398,104.065 L54.913,104.065 C56.569,104.065 57.255,103.339 57.255,101.946 C57.255,100.573 56.569,99.866 54.913,99.866 L53.398,99.866 L53.398,104.065 L53.398,104.065 Z" id="Fill-21" fill="#231F1F" sketch:type="MSShapeGroup"></path>
                <path d="M76.415,111.759 L66.661,111.759 L66.661,109.275 L70.619,105.459 C72.476,103.682 73.164,102.693 73.164,101.561 C73.164,100.492 72.476,99.826 71.144,99.826 C69.831,99.826 68.821,100.371 68.135,100.895 L67.145,100.895 L67.145,98.776 C68.075,98.169 69.63,97.462 71.346,97.462 C74.456,97.462 76.313,98.714 76.313,101.44 C76.313,103.46 75.021,104.894 72.819,106.913 L70.215,109.296 L76.415,109.296 L76.415,111.759" id="Fill-22" fill="#231F1F" sketch:type="MSShapeGroup"></path>
                <path d="M82.792,97.624 L87.476,97.624 C91.051,97.624 93.09,99.038 93.09,102.127 C93.09,105.176 91.031,106.65 87.396,106.65 L85.942,106.65 L85.942,111.759 L82.792,111.759 L82.792,97.624 L82.792,97.624 Z M85.942,104.531 L87.396,104.531 C89.314,104.531 89.92,103.662 89.92,102.168 C89.92,100.653 89.395,99.886 87.396,99.886 L85.942,99.886 L85.942,104.531 L85.942,104.531 Z" id="Fill-23" fill="#231F1F" sketch:type="MSShapeGroup"></path>
                <path d="M94.824,97.624 L104.133,97.624 L104.133,99.906 L97.935,99.906 L97.935,103.5 L102.377,103.5 L102.377,105.661 L97.935,105.661 L97.935,109.538 L104.356,109.538 L104.356,111.759 L94.824,111.759 L94.824,97.624" id="Fill-24" fill="#231F1F" sketch:type="MSShapeGroup"></path>
                <path d="M111.26,106.226 L109.422,106.226 L109.422,111.759 L106.271,111.759 L106.271,97.624 L111.017,97.624 C114.49,97.624 116.449,99.038 116.449,101.764 C116.449,103.641 115.621,104.914 114.187,105.621 L117.156,110.931 L117.156,111.759 L114.268,111.759 L111.26,106.226 L111.26,106.226 Z M109.422,104.065 L110.936,104.065 C112.592,104.065 113.278,103.339 113.278,101.946 C113.278,100.573 112.592,99.866 110.936,99.866 L109.422,99.866 L109.422,104.065 L109.422,104.065 Z" id="Fill-25" fill="#231F1F" sketch:type="MSShapeGroup"></path>
                <path d="M118.344,110.79 L118.344,108.387 L119.374,108.387 C120,109.053 121.07,109.679 122.725,109.679 C124.442,109.679 125.27,109.034 125.27,107.942 C125.27,106.428 123.856,106.287 122.241,105.802 C119.636,105.035 118.445,103.965 118.445,101.582 C118.445,98.836 120.504,97.462 123.392,97.462 C125.048,97.462 126.441,97.846 127.33,98.391 L127.33,100.673 L126.34,100.673 C125.593,100.128 124.725,99.724 123.513,99.724 C121.978,99.724 121.15,100.209 121.15,101.36 C121.15,102.491 122.08,102.834 123.735,103.258 C126.825,104.046 128.118,105.015 128.118,107.62 C128.118,110.367 126.3,111.921 122.827,111.921 C120.807,111.921 119.535,111.477 118.344,110.79" id="Fill-26" fill="#231F1F" sketch:type="MSShapeGroup"></path>
                <path d="M129.246,110.265 C129.246,109.356 129.973,108.63 130.902,108.63 C131.811,108.63 132.558,109.356 132.558,110.265 C132.558,111.174 131.811,111.881 130.902,111.881 C129.973,111.881 129.246,111.174 129.246,110.265" id="Fill-27" fill="#231F1F" sketch:type="MSShapeGroup"></path>
                <polygon id="Triangle-2" fill="#FEA500" sketch:type="MSShapeGroup" transform="translate(110.500000, 23.000000) rotate(90.000000) translate(-110.500000, -23.000000) " points="110.5 18 116 28 105 28 "></polygon>
            </g>
        </g>
    </g>
</svg>