<?xml version="1.0" encoding="UTF-8" standalone="no"?>
<svg width="262px" height="37px" viewBox="0 0 262 37" version="1.1" xmlns="http://www.w3.org/2000/svg" xmlns:xlink="http://www.w3.org/1999/xlink" xmlns:sketch="http://www.bohemiancoding.com/sketch/ns">
    <!-- Generator: Sketch 3.3.3 (12081) - http://www.bohemiancoding.com/sketch -->
    <title>Imported Layers Copy</title>
    <desc>Created with Sketch.</desc>
    <defs></defs>
    <g id="Page-1" stroke="none" stroke-width="1" fill="none" fill-rule="evenodd" sketch:type="MSPage">
        <g id="Artboard-3" sketch:type="MSArtboardGroup" transform="translate(-134.000000, -456.000000)">
            <g id="Imported-Layers-Copy" sketch:type="MSLayerGroup" transform="translate(134.000000, 456.000000)">
                <path d="M123.193,24.347 L123.193,21.402 L124.455,21.402 C125.222,22.218 126.534,22.986 128.563,22.986 C130.668,22.986 131.683,22.193 131.683,20.856 C131.683,19 129.949,18.827 127.97,18.233 C124.777,17.293 123.316,15.981 123.316,13.06 C123.316,9.693 125.841,8.011 129.381,8.011 C131.411,8.011 133.118,8.481 134.207,9.149 L134.207,11.946 L132.995,11.946 C132.079,11.278 131.014,10.783 129.53,10.783 C127.648,10.783 126.633,11.376 126.633,12.788 C126.633,14.174 127.772,14.595 129.802,15.114 C133.588,16.079 135.172,17.267 135.172,20.461 C135.172,23.827 132.945,25.733 128.688,25.733 C126.212,25.733 124.653,25.188 123.193,24.347" id="Fill-1" fill="#231F1F" sketch:type="MSShapeGroup"></path>
                <path d="M137.354,25.535 L137.354,8.208 L141.215,8.208 L141.215,22.812 L148.368,22.812 L148.368,25.535 L137.354,25.535" id="Fill-2" fill="#231F1F" sketch:type="MSShapeGroup"></path>
                <path d="M150.721,8.208 L154.607,8.208 L154.607,25.535 L150.721,25.535 L150.721,8.208 Z" id="Fill-3" fill="#231F1F" sketch:type="MSShapeGroup"></path>
                <path d="M157.753,8.208 L163.495,8.208 C167.877,8.208 170.377,9.941 170.377,13.728 C170.377,17.465 167.851,19.272 163.397,19.272 L161.614,19.272 L161.614,25.535 L157.753,25.535 L157.753,8.208 L157.753,8.208 Z M161.614,16.674 L163.397,16.674 C165.748,16.674 166.49,15.609 166.49,13.778 C166.49,11.921 165.847,10.981 163.397,10.981 L161.614,10.981 L161.614,16.674 L161.614,16.674 Z" id="Fill-4" fill="#231F1F" sketch:type="MSShapeGroup"></path>
                <path d="M171.716,16.921 C171.716,11.376 175.256,8.011 180.28,8.011 C182.657,8.011 183.994,8.456 185.329,9.149 L185.329,12.044 L183.943,12.044 C183.201,11.351 182.087,10.807 180.38,10.807 C177.359,10.807 175.677,12.911 175.677,16.772 C175.677,20.981 177.186,22.961 180.157,22.961 C182.212,22.961 183.35,22.193 184.315,21.228 L185.528,21.228 L185.528,24.075 C184.217,25.065 182.41,25.733 179.984,25.733 C174.984,25.733 171.716,22.465 171.716,16.921" id="Fill-5" fill="#231F1F" sketch:type="MSShapeGroup"></path>
                <path d="M198.303,18.851 L198.303,8.208 L201.521,8.208 L201.521,18.753 C201.521,23.209 199.714,25.733 194.813,25.733 C190.11,25.733 187.659,23.209 187.659,18.753 L187.659,8.208 L191.521,8.208 L191.521,18.851 C191.521,22.094 192.808,22.886 195.036,22.886 C197.139,22.886 198.303,22.094 198.303,18.851" id="Fill-6" fill="#231F1F" sketch:type="MSShapeGroup"></path>
                <path d="M210.633,18.753 L208.38,18.753 L208.38,25.535 L204.519,25.535 L204.519,8.208 L210.335,8.208 C214.593,8.208 216.994,9.941 216.994,13.283 C216.994,15.584 215.979,17.144 214.222,18.01 L217.861,24.521 L217.861,25.535 L214.321,25.535 L210.633,18.753 L210.633,18.753 Z M208.38,16.104 L210.237,16.104 C212.266,16.104 213.108,15.213 213.108,13.506 C213.108,11.822 212.266,10.956 210.237,10.956 L208.38,10.956 L208.38,16.104 L208.38,16.104 Z" id="Fill-7" fill="#231F1F" sketch:type="MSShapeGroup"></path>
                <path d="M219.324,24.347 L219.324,21.402 L220.585,21.402 C221.353,22.218 222.665,22.986 224.694,22.986 C226.799,22.986 227.813,22.193 227.813,20.856 C227.813,19 226.08,18.827 224.101,18.233 C220.908,17.293 219.447,15.981 219.447,13.06 C219.447,9.693 221.972,8.011 225.511,8.011 C227.541,8.011 229.249,8.481 230.338,9.149 L230.338,11.946 L229.125,11.946 C228.21,11.278 227.145,10.783 225.66,10.783 C223.778,10.783 222.764,11.376 222.764,12.788 C222.764,14.174 223.903,14.595 225.932,15.114 C229.719,16.079 231.303,17.267 231.303,20.461 C231.303,23.827 229.076,25.733 224.818,25.733 C222.343,25.733 220.784,25.188 219.324,24.347" id="Fill-8" fill="#231F1F" sketch:type="MSShapeGroup"></path>
                <path d="M244.052,18.851 L244.052,8.208 L247.271,8.208 L247.271,18.753 C247.271,23.209 245.464,25.733 240.563,25.733 C235.859,25.733 233.409,23.209 233.409,18.753 L233.409,8.208 L237.271,8.208 L237.271,18.851 C237.271,22.094 238.558,22.886 240.786,22.886 C242.889,22.886 244.052,22.094 244.052,18.851" id="Fill-9" fill="#231F1F" sketch:type="MSShapeGroup"></path>
                <path d="M249.305,24.347 L249.305,21.402 L250.567,21.402 C251.333,22.218 252.646,22.986 254.675,22.986 C256.78,22.986 257.794,22.193 257.794,20.856 C257.794,19 256.061,18.827 254.082,18.233 C250.889,17.293 249.428,15.981 249.428,13.06 C249.428,9.693 251.953,8.011 255.493,8.011 C257.522,8.011 259.23,8.481 260.319,9.149 L260.319,11.946 L259.106,11.946 C258.191,11.278 257.126,10.783 255.641,10.783 C253.759,10.783 252.745,11.376 252.745,12.788 C252.745,14.174 253.884,14.595 255.913,15.114 C259.7,16.079 261.284,17.267 261.284,20.461 C261.284,23.827 259.057,25.733 254.799,25.733 C252.324,25.733 250.765,25.188 249.305,24.347" id="Fill-10" fill="#231F1F" sketch:type="MSShapeGroup"></path>
                <path d="M192.031,29.454 L192.031,28.998 L193.689,28.998 L195.569,34.739 L195.591,34.739 L197.483,28.998 L198.918,28.998 L198.918,29.454 L196.359,36.786 L194.579,36.786 L192.031,29.454" id="Fill-11" fill="#231F1F" sketch:type="MSShapeGroup"></path>
                <path d="M199.084,32.892 C199.084,30.322 200.83,28.909 202.822,28.909 C204.813,28.909 206.56,30.322 206.56,32.892 C206.56,35.462 204.813,36.875 202.822,36.875 C200.83,36.875 199.084,35.462 199.084,32.892 L199.084,32.892 Z M204.78,32.925 C204.78,31.012 203.957,30.133 202.822,30.133 C201.676,30.133 200.864,31.012 200.864,32.925 C200.864,34.828 201.676,35.673 202.822,35.673 C203.957,35.673 204.78,34.828 204.78,32.925 L204.78,32.925 Z" id="Fill-12" fill="#231F1F" sketch:type="MSShapeGroup"></path>
                <path d="M207.203,32.892 C207.203,30.322 208.95,28.909 210.942,28.909 C212.933,28.909 214.68,30.322 214.68,32.892 C214.68,35.462 212.933,36.875 210.942,36.875 C208.95,36.875 207.203,35.462 207.203,32.892 L207.203,32.892 Z M212.9,32.925 C212.9,31.012 212.076,30.133 210.942,30.133 C209.796,30.133 208.984,31.012 208.984,32.925 C208.984,34.828 209.796,35.673 210.942,35.673 C212.076,35.673 212.9,34.828 212.9,32.925 L212.9,32.925 Z" id="Fill-13" fill="#231F1F" sketch:type="MSShapeGroup"></path>
                <path d="M218.438,33.737 L217.426,33.737 L217.426,36.786 L215.69,36.786 L215.69,28.998 L218.305,28.998 C220.218,28.998 221.297,29.777 221.297,31.279 C221.297,32.313 220.841,33.014 220.051,33.404 L221.687,36.33 L221.687,36.786 L220.096,36.786 L218.438,33.737 L218.438,33.737 Z M217.426,32.547 L218.26,32.547 C219.173,32.547 219.551,32.147 219.551,31.379 C219.551,30.622 219.173,30.233 218.26,30.233 L217.426,30.233 L217.426,32.547 L217.426,32.547 Z" id="Fill-14" fill="#231F1F" sketch:type="MSShapeGroup"></path>
                <path d="M230.107,36.786 L224.733,36.786 L224.733,35.417 L226.914,33.315 C227.937,32.335 228.316,31.791 228.316,31.167 C228.316,30.578 227.937,30.211 227.203,30.211 C226.48,30.211 225.923,30.511 225.545,30.8 L225,30.8 L225,29.632 C225.512,29.298 226.369,28.909 227.314,28.909 C229.028,28.909 230.051,29.599 230.051,31.1 C230.051,32.213 229.339,33.003 228.126,34.116 L226.691,35.429 L230.107,35.429 L230.107,36.786" id="Fill-15" fill="#231F1F" sketch:type="MSShapeGroup"></path>
                <path d="M233.62,28.998 L236.201,28.998 C238.171,28.998 239.294,29.777 239.294,31.479 C239.294,33.159 238.16,33.971 236.157,33.971 L235.356,33.971 L235.356,36.786 L233.62,36.786 L233.62,28.998 L233.62,28.998 Z M235.356,32.803 L236.157,32.803 C237.214,32.803 237.548,32.324 237.548,31.501 C237.548,30.667 237.258,30.244 236.157,30.244 L235.356,30.244 L235.356,32.803 L235.356,32.803 Z" id="Fill-16" fill="#231F1F" sketch:type="MSShapeGroup"></path>
                <path d="M240.25,28.998 L245.378,28.998 L245.378,30.255 L241.963,30.255 L241.963,32.236 L244.41,32.236 L244.41,33.426 L241.963,33.426 L241.963,35.562 L245.501,35.562 L245.501,36.786 L240.25,36.786 L240.25,28.998" id="Fill-17" fill="#231F1F" sketch:type="MSShapeGroup"></path>
                <path d="M249.305,33.737 L248.292,33.737 L248.292,36.786 L246.556,36.786 L246.556,28.998 L249.171,28.998 C251.084,28.998 252.164,29.777 252.164,31.279 C252.164,32.313 251.707,33.014 250.918,33.404 L252.553,36.33 L252.553,36.786 L250.962,36.786 L249.305,33.737 L249.305,33.737 Z M248.292,32.547 L249.126,32.547 C250.039,32.547 250.417,32.147 250.417,31.379 C250.417,30.622 250.039,30.233 249.126,30.233 L248.292,30.233 L248.292,32.547 L248.292,32.547 Z" id="Fill-18" fill="#231F1F" sketch:type="MSShapeGroup"></path>
                <path d="M253.208,36.252 L253.208,34.928 L253.775,34.928 C254.12,35.295 254.71,35.64 255.622,35.64 C256.567,35.64 257.024,35.284 257.024,34.683 C257.024,33.849 256.245,33.771 255.355,33.504 C253.92,33.081 253.263,32.491 253.263,31.179 C253.263,29.665 254.398,28.909 255.989,28.909 C256.901,28.909 257.669,29.12 258.159,29.421 L258.159,30.678 L257.613,30.678 C257.202,30.377 256.723,30.155 256.056,30.155 C255.21,30.155 254.754,30.422 254.754,31.056 C254.754,31.679 255.266,31.869 256.178,32.102 C257.88,32.536 258.593,33.07 258.593,34.505 C258.593,36.018 257.591,36.875 255.678,36.875 C254.565,36.875 253.864,36.63 253.208,36.252" id="Fill-19" fill="#231F1F" sketch:type="MSShapeGroup"></path>
                <path d="M259.214,35.962 C259.214,35.462 259.615,35.061 260.126,35.061 C260.627,35.061 261.039,35.462 261.039,35.962 C261.039,36.463 260.627,36.853 260.126,36.853 C259.615,36.853 259.214,36.463 259.214,35.962" id="Fill-20" fill="#231F1F" sketch:type="MSShapeGroup"></path>
                <path d="M98.748,17.77 L103.992,17.77 L103.992,19.056 L100.5,19.056 L100.5,21.08 L103.003,21.08 L103.003,22.298 L100.5,22.298 L100.5,24.482 L104.118,24.482 L104.118,25.733 L98.748,25.733 L98.748,17.77" id="Fill-21" fill="#231F1F" sketch:type="MSShapeGroup"></path>
                <path d="M105.197,17.77 L110.441,17.77 L110.441,19.056 L106.949,19.056 L106.949,21.08 L109.451,21.08 L109.451,22.298 L106.949,22.298 L106.949,24.482 L110.567,24.482 L110.567,25.733 L105.197,25.733 L105.197,17.77" id="Fill-22" fill="#231F1F" sketch:type="MSShapeGroup"></path>
                <path d="M111.646,17.77 L113.659,17.77 L116.594,22.877 L116.628,22.877 L116.628,17.77 L118.119,17.77 L118.119,25.733 L116.503,25.733 L113.158,19.92 L113.125,19.92 L113.125,25.733 L111.646,25.733 L111.646,17.77" id="Fill-23" fill="#231F1F" sketch:type="MSShapeGroup"></path>
                <path d="M71.929,32.091 L16.312,32.091 C7.472,32.091 0.279,24.899 0.279,16.059 C0.279,7.219 7.472,0.026 16.312,0.026 L71.929,0.026 C80.769,0.026 87.961,7.219 87.961,16.059 C87.961,24.899 80.769,32.091 71.929,32.091" id="Fill-24" fill="#231F1F" sketch:type="MSShapeGroup"></path>
                <path d="M21.796,9.895 L21.796,8.978 L25.104,8.978 L27.518,20.31 L27.562,20.31 L30.244,8.978 L33.194,8.978 L35.966,20.31 L36.01,20.31 L38.335,8.978 L41.263,8.978 L41.263,9.895 L37.754,24.624 L33.887,24.624 L31.54,14.387 L31.496,14.387 L29.171,24.624 L25.283,24.624 L21.796,9.895" id="Fill-25" fill="#FEA500" sketch:type="MSShapeGroup"></path>
                <path d="M43.233,8.978 L46.742,8.978 L46.742,24.624 L43.233,24.624 L43.233,8.978 Z" id="Fill-26" fill="#FEA500" sketch:type="MSShapeGroup"></path>
                <path d="M49.582,8.978 L53.538,8.978 L59.304,19.014 L59.372,19.014 L59.372,8.978 L62.3,8.978 L62.3,24.624 L59.125,24.624 L52.554,13.202 L52.488,13.202 L52.488,24.624 L49.582,24.624 L49.582,8.978" id="Fill-27" fill="#FEA500" sketch:type="MSShapeGroup"></path>
            </g>
        </g>
    </g>
</svg>