<?xml version="1.0" encoding="UTF-8" standalone="no"?>
<svg width="119px" height="46px" viewBox="0 0 119 46" version="1.1" xmlns="http://www.w3.org/2000/svg" xmlns:xlink="http://www.w3.org/1999/xlink" xmlns:sketch="http://www.bohemiancoding.com/sketch/ns">
    <!-- Generator: Sketch 3.3.3 (12081) - http://www.bohemiancoding.com/sketch -->
    <title>zorgeloos-vertical</title>
    <desc>Created with Sketch.</desc>
    <defs></defs>
    <g id="Page-1" stroke="none" stroke-width="1" fill="none" fill-rule="evenodd" sketch:type="MSPage">
        <g id="expanded" sketch:type="MSArtboardGroup" transform="translate(-831.000000, -157.000000)" fill="#231F1F">
            <g id="zorgeloos-vertical" sketch:type="MSLayerGroup" transform="translate(831.000000, 157.000000)">
                <path d="M2.54851095,34.1189811 C2.54851095,26.7919623 7.53174453,22.7639245 13.2142117,22.7639245 C18.8958102,22.7639245 23.8799124,26.7919623 23.8799124,34.1189811 C23.8799124,41.446 18.8958102,45.4731698 13.2142117,45.4731698 C7.53174453,45.4731698 2.54851095,41.446 2.54851095,34.1189811 L2.54851095,34.1189811 Z M18.8002628,34.2144528 C18.8002628,28.7586792 16.4515328,26.2529811 13.2142117,26.2529811 C9.94475182,26.2529811 7.62729197,28.7586792 7.62729197,34.2144528 C7.62729197,39.6381132 9.94475182,42.0483396 13.2142117,42.0483396 C16.4515328,42.0483396 18.8002628,39.6381132 18.8002628,34.2144528 L18.8002628,34.2144528 Z" id="Fill-1" sketch:type="MSShapeGroup"></path>
                <path d="M26.7697883,23.0182264 L34.1347591,23.0182264 C39.7538175,23.0182264 42.959,25.2375094 42.959,30.0909434 C42.959,34.879283 39.7208102,37.1957736 34.007073,37.1957736 L31.7217518,37.1957736 L31.7217518,45.2206038 L26.7697883,45.2206038 L26.7697883,23.0182264 L26.7697883,23.0182264 Z M31.7217518,33.8655472 L34.007073,33.8655472 C37.0228978,33.8655472 37.9757664,32.5011698 37.9757664,30.1543019 C37.9757664,27.7753208 37.1497153,26.5697736 34.007073,26.5697736 L31.7217518,26.5697736 L31.7217518,33.8655472 L31.7217518,33.8655472 Z" id="Fill-2" sketch:type="MSShapeGroup"></path>
                <path d="M50.4846642,24.3175094 L50.4846642,23.0182264 L55.1821241,23.0182264 L58.6114088,39.0991321 L58.6748175,39.0991321 L62.4836861,23.0182264 L66.6738759,23.0182264 L70.609562,39.0991321 L70.6729708,39.0991321 L73.9745693,23.0182264 L78.1326204,23.0182264 L78.1326204,24.3175094 L73.1493869,45.2206038 L67.6580146,45.2206038 L64.325146,30.693283 L64.2608686,30.693283 L60.9601387,45.2206038 L55.4366277,45.2206038 L50.4846642,24.3175094" id="Fill-3" sketch:type="MSShapeGroup"></path>
                <path d="M80.8331387,23.0182264 L95.4675328,23.0182264 L95.4675328,26.6010189 L85.7216934,26.6010189 L85.7216934,32.2468679 L92.7062117,32.2468679 L92.7062117,35.6413208 L85.7216934,35.6413208 L85.7216934,41.7315472 L95.8167153,41.7315472 L95.8167153,45.2206038 L80.8331387,45.2206038 L80.8331387,23.0182264" id="Fill-4" sketch:type="MSShapeGroup"></path>
                <path d="M97.3089927,34.1823396 C97.3089927,26.9195472 101.467912,22.7639245 108.419423,22.7639245 C111.212883,22.7639245 112.799839,23.207434 114.831526,24.0649434 L114.831526,27.9653962 L113.181161,27.9653962 C112.070204,27.0775094 110.959248,26.4118113 108.514971,26.4118113 C104.673964,26.4118113 102.514591,28.5364906 102.514591,33.9922642 C102.514591,39.479283 104.261372,42.0795849 107.847876,42.0795849 C109.276745,42.0795849 110.134066,41.9216226 110.927109,41.6681887 L110.927109,36.8468679 L107.880015,36.8468679 L107.880015,33.6433585 L115.784394,33.6433585 L115.784394,43.7928679 C113.561613,44.9341887 110.832431,45.4731698 107.847876,45.4731698 C101.245547,45.4731698 97.3089927,41.446 97.3089927,34.1823396" id="Fill-5" sketch:type="MSShapeGroup"></path>
                <path d="M0.708788321,13.2184906 L7.84357664,3.27901887 L7.84357664,3.19483019 L1.26209489,3.19483019 L1.26209489,0.831471698 L11.3579854,0.831471698 L11.3579854,3.4074717 L4.22319708,13.3460755 L4.22319708,13.4311321 L11.3579854,13.4311321 L11.3579854,15.7293962 L0.708788321,15.7293962 L0.708788321,13.2184906" id="Fill-6" sketch:type="MSShapeGroup"></path>
                <path d="M12.2761095,8.28086792 C12.2761095,3.36407547 15.6194015,0.662226415 19.4326131,0.662226415 C23.2458248,0.662226415 26.5891168,3.36407547 26.5891168,8.28086792 C26.5891168,13.1967925 23.2458248,15.8995094 19.4326131,15.8995094 C15.6194015,15.8995094 12.2761095,13.1967925 12.2761095,8.28086792 L12.2761095,8.28086792 Z M23.1815474,8.34422642 C23.1815474,4.68418868 21.6050146,3.00301887 19.4326131,3.00301887 C17.239365,3.00301887 15.6845474,4.68418868 15.6845474,8.34422642 C15.6845474,11.9843019 17.239365,13.6012453 19.4326131,13.6012453 C21.6050146,13.6012453 23.1815474,11.9843019 23.1815474,8.34422642 L23.1815474,8.34422642 Z" id="Fill-7" sketch:type="MSShapeGroup"></path>
                <path d="M33.7907883,9.89781132 L31.8529124,9.89781132 L31.8529124,15.7293962 L28.5304672,15.7293962 L28.5304672,0.831471698 L33.5345474,0.831471698 C37.1983577,0.831471698 39.2647883,2.32169811 39.2647883,5.1945283 C39.2647883,7.17426415 38.3909635,8.51520755 36.8795766,9.25988679 L40.0100584,14.8571321 L40.0100584,15.7293962 L36.9647007,15.7293962 L33.7907883,9.89781132 L33.7907883,9.89781132 Z M31.8529124,7.62037736 L33.450292,7.62037736 C35.197073,7.62037736 35.9206277,6.854 35.9206277,5.38633962 C35.9206277,3.93864151 35.197073,3.19483019 33.450292,3.19483019 L31.8529124,3.19483019 L31.8529124,7.62037736 L31.8529124,7.62037736 Z" id="Fill-8" sketch:type="MSShapeGroup"></path>
                <path d="M40.9707445,8.32339623 C40.9707445,3.45 43.7615985,0.662226415 48.4251825,0.662226415 C50.2996496,0.662226415 51.365438,0.959056604 52.728292,1.53362264 L52.728292,4.15128302 L51.6208102,4.15128302 C50.8746715,3.55588679 50.1294015,3.10890566 48.4894599,3.10890566 C45.9122847,3.10890566 44.463438,4.53490566 44.463438,8.1949434 C44.463438,11.8775472 45.6351971,13.6220755 48.0421241,13.6220755 C49.0002044,13.6220755 49.5752263,13.5161887 50.1076861,13.3460755 L50.1076861,10.1104528 L48.0638394,10.1104528 L48.0638394,7.9614717 L53.3675912,7.9614717 L53.3675912,14.7712075 C51.8761825,15.5375849 50.0442774,15.8995094 48.0421241,15.8995094 C43.6121971,15.8995094 40.9707445,13.1967925 40.9707445,8.32339623" id="Fill-9" sketch:type="MSShapeGroup"></path>
                <path d="M55.8622482,0.831471698 L65.6801825,0.831471698 L65.6801825,3.23649057 L59.1421314,3.23649057 L59.1421314,7.02498113 L63.8274307,7.02498113 L63.8274307,9.30241509 L59.1421314,9.30241509 L59.1421314,13.3886038 L65.914708,13.3886038 L65.914708,15.7293962 L55.8622482,15.7293962 L55.8622482,0.831471698" id="Fill-10" sketch:type="MSShapeGroup"></path>
                <path d="M67.9403139,15.7293962 L67.9403139,0.831471698 L71.2627591,0.831471698 L71.2627591,13.3886038 L77.4177518,13.3886038 L77.4177518,15.7293962 L67.9403139,15.7293962" id="Fill-11" sketch:type="MSShapeGroup"></path>
                <path d="M77.6123212,8.28086792 C77.6123212,3.36407547 80.9556131,0.662226415 84.7688248,0.662226415 C88.5820365,0.662226415 91.9253285,3.36407547 91.9253285,8.28086792 C91.9253285,13.1967925 88.5820365,15.8995094 84.7688248,15.8995094 C80.9556131,15.8995094 77.6123212,13.1967925 77.6123212,8.28086792 L77.6123212,8.28086792 Z M88.5168905,8.34422642 C88.5168905,4.68418868 86.9412263,3.00301887 84.7688248,3.00301887 C82.574708,3.00301887 81.0198905,4.68418868 81.0198905,8.34422642 C81.0198905,11.9843019 82.574708,13.6012453 84.7688248,13.6012453 C86.9412263,13.6012453 88.5168905,11.9843019 88.5168905,8.34422642 L88.5168905,8.34422642 Z" id="Fill-12" sketch:type="MSShapeGroup"></path>
                <path d="M93.1631022,8.28086792 C93.1631022,3.36407547 96.5063942,0.662226415 100.319606,0.662226415 C104.131949,0.662226415 107.476109,3.36407547 107.476109,8.28086792 C107.476109,13.1967925 104.131949,15.8995094 100.319606,15.8995094 C96.5063942,15.8995094 93.1631022,13.1967925 93.1631022,8.28086792 L93.1631022,8.28086792 Z M104.06854,8.34422642 C104.06854,4.68418868 102.492007,3.00301887 100.319606,3.00301887 C98.1263577,3.00301887 96.5715401,4.68418868 96.5715401,8.34422642 C96.5715401,11.9843019 98.1263577,13.6012453 100.319606,13.6012453 C102.492007,13.6012453 104.06854,11.9843019 104.06854,8.34422642 L104.06854,8.34422642 Z" id="Fill-13" sketch:type="MSShapeGroup"></path>
                <path d="M108.587066,14.7078491 L108.587066,12.1752453 L109.672832,12.1752453 C110.332109,12.8773962 111.461307,13.5378868 113.208088,13.5378868 C115.019146,13.5378868 115.892102,12.856566 115.892102,11.706566 C115.892102,10.1104528 114.400693,9.96116981 112.697343,9.45169811 C109.94992,8.64279245 108.693036,7.51449057 108.693036,5.00358491 C108.693036,2.1090566 110.865438,0.662226415 113.911664,0.662226415 C115.657577,0.662226415 117.12727,1.06581132 118.064504,1.64124528 L118.064504,4.04539623 L117.021299,4.04539623 C116.233467,3.47083019 115.31708,3.04554717 114.03935,3.04554717 C112.420255,3.04554717 111.547299,3.55588679 111.547299,4.76924528 C111.547299,5.96090566 112.527095,6.32283019 114.273876,6.76981132 C117.532044,7.59954717 118.894898,8.62109434 118.894898,11.3672075 C118.894898,14.2608679 116.978737,15.8995094 113.314927,15.8995094 C111.185088,15.8995094 109.84308,15.4308302 108.587066,14.7078491" id="Fill-14" sketch:type="MSShapeGroup"></path>
            </g>
        </g>
    </g>
</svg>