<?xml version="1.0" encoding="utf-8"?>
<!-- Generator: Adobe Illustrator 19.0.0, SVG Export Plug-In . SVG Version: 6.00 Build 0)  -->
<svg version="1.1" id="Layer_1" xmlns:sketch="http://www.bohemiancoding.com/sketch/ns"
	 xmlns="http://www.w3.org/2000/svg" xmlns:xlink="http://www.w3.org/1999/xlink" x="0px" y="0px" viewBox="-367 262.3 106 71"
	 enable-background="new -367 262.3 106 71" xml:space="preserve">
<title>logo</title>
<desc>Created with Sketch.</desc>
<g id="Page-1" sketch:type="MSPage">
	<g id="Artboard-7" transform="translate(-531.000000, -127.000000)" sketch:type="MSArtboardGroup">
		<g id="logo" transform="translate(531.000000, 127.000000)" sketch:type="MSLayerGroup">
			<path id="Fill-1" sketch:type="MSShapeGroup" fill="#237132" d="M-345.9,306.8l2.7-0.6l5.3-1.7l-0.6,4.1l-6.2,2.3L-345.9,306.8"
				/>
			<g id="Group-4" transform="translate(21.058036, 38.448505)">
				<g id="Clip-3">
				</g>
				<defs>
					<filter id="Adobe_OpacityMaskFilter" filterUnits="userSpaceOnUse" x="-366.8" y="262.4" width="4.9" height="2.1">
						<feColorMatrix  type="matrix" values="1 0 0 0 0  0 1 0 0 0  0 0 1 0 0  0 0 0 1 0"/>
					</filter>
				</defs>
				<mask maskUnits="userSpaceOnUse" x="-366.8" y="262.4" width="4.9" height="2.1" id="mask-2">
					<g filter="url(#Adobe_OpacityMaskFilter)">
						<path id="path-1" fill="#FFFFFF" d="M-366.8,263.5C-366.8,263.5-366.8,263.5-366.8,263.5l0.3,1.1c0,0,0,0,0,0c0,0,0,0,0,0
							L-366.8,263.5 M-362.2,262.4C-362.2,262.4-362.2,262.4-362.2,262.4c0,0.3,0.1,0.6,0.2,1c0-0.1,0-0.1,0-0.1
							C-362,263-362.1,262.7-362.2,262.4"/>
					</g>
				</mask>
				<path id="Fill-2" sketch:type="MSShapeGroup" mask="url(#mask-2)" fill="none" d="M-366.8,263.5
					C-366.8,263.5-366.8,263.5-366.8,263.5l0.3,1.1c0,0,0,0,0,0c0,0,0,0,0,0L-366.8,263.5 M-362.2,262.4
					C-362.2,262.4-362.2,262.4-362.2,262.4c0,0.3,0.1,0.6,0.2,1c0-0.1,0-0.1,0-0.1C-362,263-362.1,262.7-362.2,262.4"/>
			</g>
			<path id="Fill-5" sketch:type="MSShapeGroup" fill="#FDD9CE" d="M-309.7,282.6c2-0.9,8.3-4.4,9.8-5.5c-0.3-2.2-4-10.8,0.4-10.4
				c2.8,0.3,3.2,6,2.5,9.1c3.1-3.7,11.3-9.5,13-7.8c1.6,1.6-5.1,6.8-7.2,8.5c3-1.4,10.9-4.5,11.7-2.2c0.8,2.3-7.9,4.5-11.3,4.9
				c2.7,0.3,10.4,1.7,10,3.6c-0.4,1.7-6.6,0-9.9-0.6c2,1.9,4.6,5.7,3.4,6.5c-0.7,0.5-3.7-1.6-5.9-5.8c-0.8,1.3-4.3,1.9-6.3,0.9
				c-2.9,0.5-7.7,2.8-9.1,3.5L-309.7,282.6"/>
			<path id="Fill-6" sketch:type="MSShapeGroup" fill="#E7A186" d="M-296.1,276.8c0.2,0.4,0.3,0.9,0.2,1.4c0,0.5-0.2,0.9-0.4,1.4
				c-0.5,0.8-1.4,1.4-2.3,1.5c0.4-0.2,0.8-0.5,1.1-0.8c0.3-0.3,0.6-0.6,0.8-1c0.2-0.4,0.4-0.8,0.5-1.2
				C-296.1,277.7-296.1,277.3-296.1,276.8"/>
			<path id="Fill-7" sketch:type="MSShapeGroup" fill="#E7A186" d="M-296,277c0.2,0.4,0.3,0.7,0.4,1.1c0.1,0.4,0.2,0.8,0.2,1.1
				l0.2,1.1c0.1,0.4,0.1,0.7,0.2,1.1c-0.3-0.3-0.4-0.7-0.6-1c-0.1-0.4-0.2-0.8-0.3-1.2c-0.1-0.4-0.1-0.8-0.1-1.2
				C-296,277.8-296,277.4-296,277"/>
			<path id="Fill-8" sketch:type="MSShapeGroup" fill="#2F2F2F" d="M-261.9,322c0.9-1.7,0.9-3.8-0.1-5.8c-2-3.8-8.1-5.4-12.5-1.8
				c-1.4-2.2-6.3-3.4-8-1.2c-1.2-0.9-4-1.5-6-0.4l-0.2-0.5l-6.7-0.1l0,0.7c-0.8-0.7-4-1.5-6.1-0.2l0.1-1.5l-6.7,1.5
				c-0.7-0.3-2-0.6-3.1-0.3l-3.1,0h0c-1.7,0-3.2,0.2-4.5,0.7l-0.1-0.4l-5.6,0.8c-1-0.8-3.9-1.6-6.6-0.7c-0.1-0.1-0.2-0.1-0.3-0.2
				l0-0.1c-0.3-4.1-0.7-5.4-0.7-5.4l-1.4-1.9l-4.5-0.8l-3.1,4.3h-0.8l-4.1-2l-3.2,2.2v3.2c0,0,2.3,8.5,6.1,16l0.2-0.3
				c0,0.2,0.1,0.4,0.1,0.6l7.4,1.1l-0.1-1.1l5.2-1.3l5.6,1.8l0,0.4l5.7-0.5l-1.6,1.5c0,0,5.6,3.2,9.3,2.9c2.1-0.2,3.9-0.5,5.4-1.5
				c0.9-0.6,1.9-1.6,2.6-3.3c1.3,0.7,2.5,1.1,4.5,0.6l0,0.2l11.3-1.1l6.4-1.8l6.1,3l0.7-2.1c1.4,1,3.1,1.4,4.7,1.4
				c4.4,0,8.3-2.9,8.3-2.9L-261.9,322"/>
			<path id="Fill-9" sketch:type="MSShapeGroup" fill="#D6A38D" d="M-345.9,301.4l1.1,3.6c0,0,4.8,0.3,4.4-1
				c-0.2-0.7-0.8-3.6-0.8-3.6L-345.9,301.4"/>
			<path id="Fill-10" sketch:type="MSShapeGroup" fill="#A9A9A9" d="M-300.5,284.1c-0.1,0-0.2,0.1-0.4,0.1c-0.2,0.5-0.3,1.1-0.5,1.6
				l0.1,0.1c0,0,0,0-0.1,0.1c-0.1,0.4-0.3,0.9-0.4,1.3C-301.3,286.3-300.9,285.2-300.5,284.1"/>
			<path id="Fill-11" sketch:type="MSShapeGroup" fill="#A89F9C" d="M-299,278.6c-0.6,1.4-1.1,2.9-1.5,4.3c-0.1,0.4-0.3,0.8-0.4,1.3
				c0.1,0,0.2-0.1,0.4-0.1c0.1-0.4,0.2-0.7,0.4-1.1C-299.7,281.6-299.3,280.1-299,278.6"/>
			<path id="Fill-12" sketch:type="MSShapeGroup" fill="#A89F9C" d="M-367,262.3"/>
			<path id="Fill-13" sketch:type="MSShapeGroup" fill="#A89F9C" d="M-292.7,278.6c0.2,0.3,0.3,0.7,0.4,1.1c0.1,0.4,0.2,0.8,0.3,1.1
				l0.5,2.3l0.6,2.3l0.3,1.1l0,0.2c0.1,0.1,0.1,0.1,0.2,0.2l-0.1-0.4c-0.1-0.4-0.1-0.8-0.2-1.2c-0.1-0.8-0.3-1.6-0.5-2.3
				c-0.2-0.8-0.4-1.5-0.6-2.3c-0.1-0.4-0.2-0.8-0.4-1.1c-0.1-0.2-0.2-0.4-0.2-0.5C-292.5,278.9-292.6,278.8-292.7,278.6"/>
			<path id="Fill-14" sketch:type="MSShapeGroup" fill="#A9A9A9" d="M-290.3,287.3C-290.3,287.3-290.3,287.3-290.3,287.3
				L-290.3,287.3C-290.3,287.3-290.3,287.3-290.3,287.3C-290.3,287.3-290.3,287.3-290.3,287.3"/>
			<path id="Fill-15" sketch:type="MSShapeGroup" fill="#A9A9A9" d="M-306.6,291.1c-0.3,0.4-0.6,0.8-0.9,1.3
				c-0.3,0.4-0.5,0.9-0.8,1.3c-0.2,0.5-0.5,0.9-0.6,1.4c-0.2,0.5-0.4,1-0.5,1.5c0.2-0.5,0.5-0.9,0.7-1.4l0.7-1.4
				C-307.5,293-307,292.1-306.6,291.1"/>
			<path id="Fill-16" sketch:type="MSShapeGroup" fill="#A9A9A9" d="M-309,289.3C-309,289.3-309,289.3-309,289.3
				c-0.9,1.3-1.7,2.7-2.5,4.1c-0.4,0.7-0.7,1.4-1.1,2.2c-0.3,0.7-0.7,1.5-0.9,2.3c0.2-0.4,0.3-0.7,0.5-1.1l0.6-1.1l1.1-2.1
				C-310.4,292.1-309.7,290.7-309,289.3"/>
			<path id="Fill-17" sketch:type="MSShapeGroup" fill="#A9A9A9" d="M-285.4,286.4c0,0,0.1,0.1,0.2,0.4c0.1,0.2,0.2,0.6,0.4,1
				c0.3,0.8,0.8,2,1.2,3.1c0.2,0.6,0.4,1.1,0.6,1.7c0.2,0.5,0.3,1,0.5,1.5c0.1,0.4,0.3,0.8,0.4,1c0.1,0.3,0.1,0.4,0.1,0.4
				s-0.1-0.6-0.3-1.5c-0.1-0.4-0.2-1-0.4-1.5c-0.1-0.3-0.2-0.6-0.3-0.8c-0.1-0.3-0.2-0.6-0.3-0.9c-0.2-0.6-0.4-1.1-0.7-1.7
				c-0.1-0.3-0.2-0.5-0.3-0.7c-0.1-0.2-0.2-0.5-0.3-0.7c-0.2-0.4-0.4-0.7-0.5-1C-285.3,286.5-285.4,286.4-285.4,286.4"/>
			<path id="Fill-18" sketch:type="MSShapeGroup" fill="#A9A9A9" d="M-282.2,286.2c0,0,0.1,0.1,0.2,0.3c0.1,0.2,0.3,0.5,0.5,0.9
				c0.1,0.2,0.2,0.4,0.3,0.6c0.1,0.2,0.2,0.4,0.3,0.6c0.2,0.5,0.5,0.9,0.7,1.4c0.2,0.5,0.5,1,0.7,1.4c0.2,0.5,0.5,0.9,0.7,1.2
				c0.2,0.4,0.4,0.7,0.5,0.9c0.1,0.2,0.2,0.3,0.2,0.3s0-0.1-0.1-0.4c-0.1-0.2-0.2-0.5-0.4-0.9c-0.3-0.8-0.8-1.8-1.3-2.7
				c-0.1-0.2-0.3-0.5-0.4-0.7c-0.1-0.2-0.3-0.5-0.4-0.7c-0.3-0.4-0.5-0.8-0.8-1.2c-0.2-0.3-0.4-0.6-0.6-0.8
				C-282.1,286.3-282.2,286.2-282.2,286.2"/>
			<path id="Fill-19" sketch:type="MSShapeGroup" fill="#FDD9CE" d="M-355.5,323.6c0.8-0.2,1.6-0.5,2.4-0.9c0.9,0.7,2.2,0.8,3.1,0.6
				c0.4,0.1,1.2,0.6,1.5,0.3c0.7-0.5,0.4-0.8,0-1c0.5,0.2,1.2,0,1.4-0.6c0.2-0.8-0.7-0.9-1.2-1.1c0.4,0,1.5,0.3,1.7-0.7
				c0.2-0.9-1.3-1-1.7-0.8c1.2-0.7,5.1-2.5,4.4-3.5c-0.7-1-5.4,1.2-7.3,2.8c0.7-1.5,1.4-4.2,0-4.6c-2.2-0.6-1.5,3.8-1.6,5
				c-0.8,0.5-2.2,1-3.2,1.3L-355.5,323.6"/>
			<path id="Fill-20" sketch:type="MSShapeGroup" fill="#FDD9CE" d="M-334.3,282.2c1.4-0.6,1.9-3.2,1.8-4.5c-0.4-3-4.6-4.8-6.1-1.8
				c-0.3-0.5-0.6-1-0.8-1.5l-2-7.9l-16.5,4.4l-0.6,7.5l0.1,0c-0.3,0.8-0.5,1.5-0.7,2.4c-2.6-2.1-5.7,1.4-4.7,4.3
				c0.4,1.2,2.1,3.3,3.6,3.2c0.1,0,0.1,0,0.2,0c0,2.4,0.4,4.8,1.2,7c2.5,6.7,9.6,7.9,16.1,6.2c5.7-1.5,9.7-5.8,9.7-11.9
				c0-2.7-0.7-5-1.8-7.2C-334.7,282.3-334.5,282.3-334.3,282.2"/>
			<path id="Fill-21" sketch:type="MSShapeGroup" fill="#FFFFFF" d="M-353.3,279.3c-2.1,0.5-3.6,3.3-3,5.6c0.7,2.6,8,0.5,7.6-1.3
				C-349.3,281.3-351.4,278.8-353.3,279.3"/>
			<g id="Group-24" transform="translate(13.250000, 18.162791)">
				<g id="Clip-23">
				</g>
				<defs>
					<filter id="Adobe_OpacityMaskFilter_1_" filterUnits="userSpaceOnUse" x="-366.9" y="262.3" width="4.9" height="5.6">
						<feColorMatrix  type="matrix" values="1 0 0 0 0  0 1 0 0 0  0 0 1 0 0  0 0 0 1 0"/>
					</filter>
				</defs>
				<mask maskUnits="userSpaceOnUse" x="-366.9" y="262.3" width="4.9" height="5.6" id="mask-4">
					<g filter="url(#Adobe_OpacityMaskFilter_1_)">
						<path id="path-3" fill="#FFFFFF" d="M-364.2,264.2c0.1,0.4,0.2,0.8,0.2,1.2c0,0.4-0.1,1.7-0.9,1.9c-0.1,0-0.2,0-0.3,0
							c-0.7,0-1-0.6-1.2-1c0-0.1-0.1-0.2-0.1-0.3c-0.3,1.1-0.4,1.9,0.1,1.9c0,0,0,0,0,0c2.2-0.2,4.7-1.4,4.5-2.4v0c0,0,0,0,0,0
							c0,0,0,0,0,0c0,0,0,0,0,0v0c0,0,0,0,0,0c0,0,0,0,0,0c0,0,0,0,0,0c0,0,0,0,0,0c0,0,0,0,0,0c0,0,0,0,0,0c0,0,0,0,0,0
							c0,0,0,0,0,0c0,0,0,0,0,0c0,0,0,0,0,0C-362.3,265.4-363.1,264.7-364.2,264.2 M-363.6,262.3c0.8,0.9,1.4,2,1.6,3.1
							c-0.2-0.7-0.4-1.4-0.8-2.1c0,0,0,0,0,0C-363,263-363.3,262.6-363.6,262.3"/>
					</g>
				</mask>
				<path id="Fill-22" sketch:type="MSShapeGroup" mask="url(#mask-4)" fill="none" d="M-364.2,264.2c0.1,0.4,0.2,0.8,0.2,1.2
					c0,0.4-0.1,1.7-0.9,1.9c-0.1,0-0.2,0-0.3,0c-0.7,0-1-0.6-1.2-1c0-0.1-0.1-0.2-0.1-0.3c-0.3,1.1-0.4,1.9,0.1,1.9c0,0,0,0,0,0
					c2.2-0.2,4.7-1.4,4.5-2.4v0c0,0,0,0,0,0c0,0,0,0,0,0c0,0,0,0,0,0v0c0,0,0,0,0,0c0,0,0,0,0,0c0,0,0,0,0,0c0,0,0,0,0,0
					c0,0,0,0,0,0c0,0,0,0,0,0c0,0,0,0,0,0c0,0,0,0,0,0c0,0,0,0,0,0c0,0,0,0,0,0C-362.3,265.4-363.1,264.7-364.2,264.2 M-363.6,262.3
					c0.8,0.9,1.4,2,1.6,3.1c-0.2-0.7-0.4-1.4-0.8-2.1c0,0,0,0,0,0C-363,263-363.3,262.6-363.6,262.3"/>
			</g>
			<path id="Fill-25" sketch:type="MSShapeGroup" fill="#14C7E2" d="M-354,279.6c-0.2,0.9-0.2,1.3,0,2.1c0.2,0.9,0.4,1.8,0.9,2.8
				c0.2,0.5,0.6,1.2,1.5,1c0.8-0.2,0.9-1.5,0.9-1.9c0-1.3-0.7-3.1-1.4-4.1C-352.9,278.6-353.8,278.4-354,279.6"/>
			<path id="Fill-26" sketch:type="MSShapeGroup" d="M-353.4,280.6c-0.1,0.6,0,0.9,0.1,1.5c0.1,0.6,0.3,1.3,0.6,1.9
				c0.2,0.3,0.5,0.9,0.9,0.6c0.3-0.2,0.3-0.9,0.3-1.2c0-0.9-0.3-2.1-0.8-2.8C-352.8,280-353.3,279.8-353.4,280.6"/>
			<path id="Fill-27" sketch:type="MSShapeGroup" fill="#EDC0B0" d="M-356.3,285.1c0.1,0.4,0.5,0.5,0.8,0.6c0.3,0.1,0.7,0.2,1,0.2
				c0.7,0.1,1.4,0,2.1-0.1c0.3-0.1,0.7-0.1,1-0.2c0.3-0.1,0.7-0.2,1-0.4c0.6-0.3,1.2-0.7,1.6-1.3c-0.2,0.7-0.8,1.3-1.4,1.7
				c-0.6,0.4-1.4,0.6-2.1,0.8c-0.7,0.1-1.5,0.1-2.2,0c-0.4-0.1-0.7-0.2-1.1-0.4c-0.2-0.1-0.3-0.2-0.5-0.3
				C-356.2,285.4-356.3,285.3-356.3,285.1"/>
			<g>
				<defs>
					<polygon id="SVGID_1_" points="-366,263.3 -365,263.3 -366,264.3 					"/>
				</defs>
				<defs>
					<polygon id="SVGID_2_" points="-368,261.3 -369,261.3 -368,260.3 					"/>
				</defs>
				<clipPath id="SVGID_3_">
					<use xlink:href="#SVGID_1_"  overflow="visible"/>
				</clipPath>
				<clipPath id="SVGID_4_" clip-path="url(#SVGID_3_)">
					<use xlink:href="#SVGID_2_"  overflow="visible"/>
				</clipPath>
				<g transform="matrix(0.1136 0 0 0 -351.507 283.8111)" clip-path="url(#SVGID_4_)" enable-background="new    ">
					
						<image overflow="visible" width="26" height="36" id="Image-28" xlink:href="2AFD132A04FA0F44.png"  sketch:type="MSBitmapLayer" transform="matrix(0.1136 0 0 0 -351.507 283.8111)">
					</image>
				</g>
			</g>
			<g id="Group-31" transform="translate(10.410714, 17.691030)">
				<g id="Clip-30">
				</g>
				<defs>
					<filter id="Adobe_OpacityMaskFilter_2_" filterUnits="userSpaceOnUse" x="-366.8" y="262.4" width="2.4" height="4.8">
						<feColorMatrix  type="matrix" values="1 0 0 0 0  0 1 0 0 0  0 0 1 0 0  0 0 0 1 0"/>
					</filter>
				</defs>
				<mask maskUnits="userSpaceOnUse" x="-366.8" y="262.4" width="2.4" height="4.8" id="mask-6">
					<g filter="url(#Adobe_OpacityMaskFilter_2_)">
						<path id="path-5" fill="#FFFFFF" d="M-364.6,262.4c-1.4,1-2.5,2.8-2.2,4.8c0.6-1.7,1.4-2.5,2.3-2.8c0-0.1,0-0.2-0.1-0.3
							C-364.6,263.4-364.6,263-364.6,262.4"/>
					</g>
				</mask>
				<path id="Fill-29" sketch:type="MSShapeGroup" mask="url(#mask-6)" fill="none" d="M-364.6,262.4c-1.4,1-2.5,2.8-2.2,4.8
					c0.6-1.7,1.4-2.5,2.3-2.8c0-0.1,0-0.2-0.1-0.3C-364.6,263.4-364.6,263-364.6,262.4"/>
			</g>
			<g id="Group-34" transform="translate(10.410714, 20.521595)">
				<g id="Clip-33">
				</g>
				<defs>
					<filter id="Adobe_OpacityMaskFilter_3_" filterUnits="userSpaceOnUse" x="-366.9" y="262.3" width="0.1" height="0.6">
						<feColorMatrix  type="matrix" values="1 0 0 0 0  0 1 0 0 0  0 0 1 0 0  0 0 0 1 0"/>
					</filter>
				</defs>
				<mask maskUnits="userSpaceOnUse" x="-366.9" y="262.3" width="0.1" height="0.6" id="mask-8">
					<g filter="url(#Adobe_OpacityMaskFilter_3_)">
						<path id="path-7" fill="#FFFFFF" d="M-366.8,262.3c0,0.2-0.1,0.4-0.1,0.6c0,0,0-0.1,0-0.1
							C-366.9,262.7-366.8,262.5-366.8,262.3C-366.8,262.4-366.8,262.3-366.8,262.3"/>
					</g>
				</mask>
				<path id="Fill-32" sketch:type="MSShapeGroup" mask="url(#mask-8)" fill="none" d="M-366.8,262.3c0,0.2-0.1,0.4-0.1,0.6
					c0,0,0-0.1,0-0.1C-366.9,262.7-366.8,262.5-366.8,262.3C-366.8,262.4-366.8,262.3-366.8,262.3"/>
			</g>
			<g id="Group-37" transform="translate(10.410714, 20.521595)">
				<g id="Clip-36">
				</g>
				<defs>
					<filter id="Adobe_OpacityMaskFilter_4_" filterUnits="userSpaceOnUse" x="-366.9" y="262.4" width="0.1" height="0.5">
						<feColorMatrix  type="matrix" values="1 0 0 0 0  0 1 0 0 0  0 0 1 0 0  0 0 0 1 0"/>
					</filter>
				</defs>
				<mask maskUnits="userSpaceOnUse" x="-366.9" y="262.4" width="0.1" height="0.5" id="mask-10">
					<g filter="url(#Adobe_OpacityMaskFilter_4_)">
						<path id="path-9" fill="#FFFFFF" d="M-366.8,262.4C-366.8,262.4-366.8,262.4-366.8,262.4
							C-366.8,262.4-366.8,262.4-366.8,262.4c0,0.2-0.1,0.4-0.1,0.5C-366.9,262.7-366.8,262.5-366.8,262.4"/>
					</g>
				</mask>
				<path id="Fill-35" sketch:type="MSShapeGroup" mask="url(#mask-10)" fill="none" d="M-366.8,262.4
					C-366.8,262.4-366.8,262.4-366.8,262.4C-366.8,262.4-366.8,262.4-366.8,262.4c0,0.2-0.1,0.4-0.1,0.5
					C-366.9,262.7-366.8,262.5-366.8,262.4"/>
			</g>
			<g id="Group-40" transform="translate(12.776786, 17.219269)">
				<g id="Clip-39">
				</g>
				<defs>
					<filter id="Adobe_OpacityMaskFilter_5_" filterUnits="userSpaceOnUse" x="-367" y="262.4" width="3.2" height="2.8">
						<feColorMatrix  type="matrix" values="1 0 0 0 0  0 1 0 0 0  0 0 1 0 0  0 0 0 1 0"/>
					</filter>
				</defs>
				<mask maskUnits="userSpaceOnUse" x="-367" y="262.4" width="3.2" height="2.8" id="mask-12">
					<g filter="url(#Adobe_OpacityMaskFilter_5_)">
						<path id="path-11" fill="#FFFFFF" d="M-364.1,264c-0.1,0.1-0.3,0.2-0.4,0.3c0,0-0.1,0-0.1,0c0.1,0.2,0.1,0.4,0.2,0.6
							c0.3,0.1,0.5,0.2,0.7,0.3C-363.9,264.8-364,264.4-364.1,264 M-365.8,262.4c-0.4,0.1-0.8,0.3-1.1,0.5c-0.1,0.6,0,1,0.1,1.6
							c0,0.1,0,0.2,0.1,0.3c0.2-0.1,0.4-0.1,0.6-0.2c-0.1-0.5-0.1-0.8,0-1.3c0.1-0.4,0.2-0.5,0.4-0.6
							C-365.9,262.7-365.8,262.5-365.8,262.4"/>
					</g>
				</mask>
				<path id="Fill-38" sketch:type="MSShapeGroup" mask="url(#mask-12)" fill="none" d="M-364.1,264c-0.1,0.1-0.3,0.2-0.4,0.3
					c0,0-0.1,0-0.1,0c0.1,0.2,0.1,0.4,0.2,0.6c0.3,0.1,0.5,0.2,0.7,0.3C-363.9,264.8-364,264.4-364.1,264 M-365.8,262.4
					c-0.4,0.1-0.8,0.3-1.1,0.5c-0.1,0.6,0,1,0.1,1.6c0,0.1,0,0.2,0.1,0.3c0.2-0.1,0.4-0.1,0.6-0.2c-0.1-0.5-0.1-0.8,0-1.3
					c0.1-0.4,0.2-0.5,0.4-0.6C-365.9,262.7-365.8,262.5-365.8,262.4"/>
			</g>
			<g id="Group-43" transform="translate(13.486607, 17.691030)">
				<g id="Clip-42">
				</g>
				<defs>
					<filter id="Adobe_OpacityMaskFilter_6_" filterUnits="userSpaceOnUse" x="-367" y="262.4" width="1.8" height="2">
						<feColorMatrix  type="matrix" values="1 0 0 0 0  0 1 0 0 0  0 0 1 0 0  0 0 0 1 0"/>
					</filter>
				</defs>
				<mask maskUnits="userSpaceOnUse" x="-367" y="262.4" width="1.8" height="2" id="mask-14">
					<g filter="url(#Adobe_OpacityMaskFilter_6_)">
						<path id="path-13" fill="#FFFFFF" d="M-366.6,262.4c-0.2,0-0.3,0.2-0.4,0.6c-0.1,0.5,0,0.8,0,1.3c0.1,0,0.3,0,0.4,0
							c0.4,0,0.8,0.1,1.2,0.2c0-0.2-0.1-0.4-0.2-0.6c0,0,0,0,0,0c-0.3,0-0.6-0.2-0.8-0.5c0,0-0.1,0.1-0.1,0.1c0,0,0,0-0.1,0
							c-0.2,0-0.3-0.2-0.4-0.4C-366.9,262.8-366.8,262.5-366.6,262.4L-366.6,262.4C-366.6,262.4-366.6,262.4-366.6,262.4"/>
					</g>
				</mask>
				<path id="Fill-41" sketch:type="MSShapeGroup" mask="url(#mask-14)" fill="none" d="M-366.6,262.4c-0.2,0-0.3,0.2-0.4,0.6
					c-0.1,0.5,0,0.8,0,1.3c0.1,0,0.3,0,0.4,0c0.4,0,0.8,0.1,1.2,0.2c0-0.2-0.1-0.4-0.2-0.6c0,0,0,0,0,0c-0.3,0-0.6-0.2-0.8-0.5
					c0,0-0.1,0.1-0.1,0.1c0,0,0,0-0.1,0c-0.2,0-0.3-0.2-0.4-0.4C-366.9,262.8-366.8,262.5-366.6,262.4L-366.6,262.4
					C-366.6,262.4-366.6,262.4-366.6,262.4"/>
			</g>
			<g id="Group-46" transform="translate(14.906250, 16.983389)">
				<g id="Clip-45">
				</g>
				<defs>
					<filter id="Adobe_OpacityMaskFilter_7_" filterUnits="userSpaceOnUse" x="-366.8" y="262.5" width="0.7" height="0.4">
						<feColorMatrix  type="matrix" values="1 0 0 0 0  0 1 0 0 0  0 0 1 0 0  0 0 0 1 0"/>
					</filter>
				</defs>
				<mask maskUnits="userSpaceOnUse" x="-366.8" y="262.5" width="0.7" height="0.4" id="mask-16">
					<g filter="url(#Adobe_OpacityMaskFilter_7_)">
						<path id="path-15" fill="#FFFFFF" d="M-366.8,262.5c0.2,0.1,0.5,0.2,0.7,0.4c0,0,0,0,0,0c0,0,0,0-0.1,0
							c-0.2-0.1-0.4-0.2-0.5-0.3C-366.7,262.5-366.8,262.5-366.8,262.5"/>
					</g>
				</mask>
				<path id="Fill-44" sketch:type="MSShapeGroup" mask="url(#mask-16)" fill="none" d="M-366.8,262.5c0.2,0.1,0.5,0.2,0.7,0.4
					c0,0,0,0,0,0c0,0,0,0-0.1,0c-0.2-0.1-0.4-0.2-0.5-0.3C-366.7,262.5-366.8,262.5-366.8,262.5"/>
			</g>
			<g id="Group-49" transform="translate(14.669643, 16.983389)">
				<g id="Clip-48">
				</g>
				<defs>
					<filter id="Adobe_OpacityMaskFilter_8_" filterUnits="userSpaceOnUse" x="-366.9" y="262.5" width="1" height="1">
						<feColorMatrix  type="matrix" values="1 0 0 0 0  0 1 0 0 0  0 0 1 0 0  0 0 0 1 0"/>
					</filter>
				</defs>
				<mask maskUnits="userSpaceOnUse" x="-366.9" y="262.5" width="1" height="1" id="mask-18">
					<g filter="url(#Adobe_OpacityMaskFilter_8_)">
						<path id="path-17" fill="#FFFFFF" d="M-366.8,262.5c-0.1,0-0.1,0-0.2,0c0.2,0.3,0.4,0.6,0.6,1c0.2-0.2,0.3-0.4,0.5-0.6
							c-0.2-0.2-0.5-0.3-0.7-0.4C-366.6,262.5-366.7,262.5-366.8,262.5"/>
					</g>
				</mask>
				<path id="Fill-47" sketch:type="MSShapeGroup" mask="url(#mask-18)" fill="none" d="M-366.8,262.5c-0.1,0-0.1,0-0.2,0
					c0.2,0.3,0.4,0.6,0.6,1c0.2-0.2,0.3-0.4,0.5-0.6c-0.2-0.2-0.5-0.3-0.7-0.4C-366.6,262.5-366.7,262.5-366.8,262.5"/>
			</g>
			<g>
				<defs>
					<polygon id="SVGID_5_" points="-366,263.3 -365,263.3 -366,264.3 					"/>
				</defs>
				<defs>
					<polygon id="SVGID_6_" points="-368,261.3 -369,261.3 -368,260.3 					"/>
				</defs>
				<clipPath id="SVGID_7_">
					<use xlink:href="#SVGID_5_"  overflow="visible"/>
				</clipPath>
				<clipPath id="SVGID_8_" clip-path="url(#SVGID_7_)">
					<use xlink:href="#SVGID_6_"  overflow="visible"/>
				</clipPath>
				<g transform="matrix(0.1136 0 0 0 -351.8477 281.4335)" clip-path="url(#SVGID_8_)" enable-background="new    ">
					
						<image overflow="visible" width="9" height="16" id="Image-50" xlink:href="2AFD132A04FA0F45.png"  sketch:type="MSBitmapLayer" transform="matrix(0.1136 0 0 0 -351.8477 281.4335)">
					</image>
				</g>
			</g>
			<g id="Group-53" transform="translate(13.723214, 16.983389)">
				<g id="Clip-52">
				</g>
				<defs>
					<filter id="Adobe_OpacityMaskFilter_9_" filterUnits="userSpaceOnUse" x="-366.8" y="262.5" width="1.7" height="2.1">
						<feColorMatrix  type="matrix" values="1 0 0 0 0  0 1 0 0 0  0 0 1 0 0  0 0 0 1 0"/>
					</filter>
				</defs>
				<mask maskUnits="userSpaceOnUse" x="-366.8" y="262.5" width="1.7" height="2.1" id="mask-20">
					<g filter="url(#Adobe_OpacityMaskFilter_9_)">
						<path id="path-19" fill="#FFFFFF" d="M-366,262.5c-0.3,0-0.5,0.1-0.8,0.1c0,0.2-0.1,0.3-0.1,0.5c0,0,0,0,0.1,0
							c0.2,0,0.4,0.2,0.6,0.5c0.2,0.3,0.3,0.6,0.5,1c0,0,0.1,0,0.1,0c0.2,0,0.3-0.1,0.4-0.3c-0.1-0.3-0.2-0.6-0.4-0.8
							C-365.6,263.1-365.8,262.7-366,262.5"/>
					</g>
				</mask>
				<path id="Fill-51" sketch:type="MSShapeGroup" mask="url(#mask-20)" fill="none" d="M-366,262.5c-0.3,0-0.5,0.1-0.8,0.1
					c0,0.2-0.1,0.3-0.1,0.5c0,0,0,0,0.1,0c0.2,0,0.4,0.2,0.6,0.5c0.2,0.3,0.3,0.6,0.5,1c0,0,0.1,0,0.1,0c0.2,0,0.3-0.1,0.4-0.3
					c-0.1-0.3-0.2-0.6-0.4-0.8C-365.6,263.1-365.8,262.7-366,262.5"/>
			</g>
			<g id="Group-56" transform="translate(13.486607, 17.691030)">
				<g id="Clip-55">
				</g>
				<defs>
					<filter id="Adobe_OpacityMaskFilter_10_" filterUnits="userSpaceOnUse" x="-366.8" y="262.4" width="1.5" height="1.4">
						<feColorMatrix  type="matrix" values="1 0 0 0 0  0 1 0 0 0  0 0 1 0 0  0 0 0 1 0"/>
					</filter>
				</defs>
				<mask maskUnits="userSpaceOnUse" x="-366.8" y="262.4" width="1.5" height="1.4" id="mask-22">
					<g filter="url(#Adobe_OpacityMaskFilter_10_)">
						<path id="path-21" fill="#FFFFFF" d="M-366.5,262.4C-366.5,262.4-366.5,262.4-366.5,262.4
							C-366.6,262.4-366.6,262.4-366.5,262.4L-366.5,262.4c-0.3,0.1-0.4,0.4-0.3,0.6c0.1,0.2,0.2,0.4,0.4,0.4c0,0,0,0,0.1,0
							c0,0,0.1,0,0.1-0.1c0.2,0.3,0.5,0.5,0.8,0.5c0,0,0,0,0,0c-0.1-0.4-0.3-0.7-0.5-1C-366,262.6-366.3,262.4-366.5,262.4"/>
					</g>
				</mask>
				<path id="Fill-54" sketch:type="MSShapeGroup" mask="url(#mask-22)" fill="none" d="M-366.5,262.4
					C-366.5,262.4-366.5,262.4-366.5,262.4C-366.6,262.4-366.6,262.4-366.5,262.4L-366.5,262.4c-0.3,0.1-0.4,0.4-0.3,0.6
					c0.1,0.2,0.2,0.4,0.4,0.4c0,0,0,0,0.1,0c0,0,0.1,0,0.1-0.1c0.2,0.3,0.5,0.5,0.8,0.5c0,0,0,0,0,0c-0.1-0.4-0.3-0.7-0.5-1
					C-366,262.6-366.3,262.4-366.5,262.4"/>
			</g>
			<path id="Fill-57" sketch:type="MSShapeGroup" fill="#BF795E" d="M-349.5,281.5c-0.5-0.7-1.1-1.3-1.8-1.7
				c-0.3-0.2-0.7-0.4-1.1-0.5c-0.4-0.1-0.8-0.1-1.1,0c-0.4,0.1-0.7,0.3-1,0.6c-0.3,0.3-0.6,0.6-0.8,0.9c-0.5,0.7-0.9,1.4-1.1,2.2
				c0.1-0.8,0.4-1.7,0.8-2.4c0.2-0.4,0.5-0.7,0.8-1c0.3-0.3,0.7-0.6,1.2-0.7c0.5-0.1,1-0.1,1.4,0c0.4,0.1,0.8,0.4,1.2,0.6
				C-350.3,280-349.8,280.7-349.5,281.5"/>
			<path id="Fill-58" sketch:type="MSShapeGroup" fill="#EBC9BF" d="M-356.5,283.5c0,0.5,0,1,0.1,1.4c-0.1-0.4-0.1-0.7-0.1-1.1
				C-356.5,283.7-356.5,283.6-356.5,283.5"/>
			<path id="Fill-59" sketch:type="MSShapeGroup" fill="#ECECEC" d="M-356.5,283.8c0,0.4,0,0.7,0.1,1.1
				C-356.4,284.5-356.5,284.2-356.5,283.8"/>
			<g id="Group-62" transform="translate(10.410714, 17.219269)">
				<g id="Clip-61">
				</g>
				<defs>
					<filter id="Adobe_OpacityMaskFilter_11_" filterUnits="userSpaceOnUse" x="-366.9" y="262.3" width="2.5" height="4.3">
						<feColorMatrix  type="matrix" values="1 0 0 0 0  0 1 0 0 0  0 0 1 0 0  0 0 0 1 0"/>
					</filter>
				</defs>
				<mask maskUnits="userSpaceOnUse" x="-366.9" y="262.3" width="2.5" height="4.3" id="mask-24">
					<g filter="url(#Adobe_OpacityMaskFilter_11_)">
						<path id="path-23" fill="#FFFFFF" d="M-366.9,266.2C-366.9,266.2-366.9,266.2-366.9,266.2c0,0.2,0,0.3,0,0.4
							C-366.9,266.4-366.9,266.3-366.9,266.2 M-364.4,262.3c-0.1,0.1-0.3,0.2-0.4,0.3c0,0-0.1,0-0.1,0.1
							C-364.8,262.6-364.6,262.5-364.4,262.3C-364.5,262.4-364.5,262.4-364.4,262.3C-364.4,262.3-364.4,262.3-364.4,262.3"/>
					</g>
				</mask>
				<path id="Fill-60" sketch:type="MSShapeGroup" mask="url(#mask-24)" fill="none" d="M-366.9,266.2
					C-366.9,266.2-366.9,266.2-366.9,266.2c0,0.2,0,0.3,0,0.4C-366.9,266.4-366.9,266.3-366.9,266.2 M-364.4,262.3
					c-0.1,0.1-0.3,0.2-0.4,0.3c0,0-0.1,0-0.1,0.1C-364.8,262.6-364.6,262.5-364.4,262.3C-364.5,262.4-364.5,262.4-364.4,262.3
					C-364.4,262.3-364.4,262.3-364.4,262.3"/>
			</g>
			<g id="Group-65" transform="translate(10.410714, 17.219269)">
				<g id="Clip-64">
				</g>
				<defs>
					<filter id="Adobe_OpacityMaskFilter_12_" filterUnits="userSpaceOnUse" x="-366.9" y="262.4" width="2.4" height="5.3">
						<feColorMatrix  type="matrix" values="1 0 0 0 0  0 1 0 0 0  0 0 1 0 0  0 0 0 1 0"/>
					</filter>
				</defs>
				<mask maskUnits="userSpaceOnUse" x="-366.9" y="262.4" width="2.4" height="5.3" id="mask-26">
					<g filter="url(#Adobe_OpacityMaskFilter_12_)">
						<path id="path-25" fill="#FFFFFF" d="M-364.5,262.4c-0.2,0.1-0.3,0.2-0.5,0.3c-0.3,0.2-0.5,0.5-0.7,0.8
							c-0.5,0.6-0.9,1.4-1.1,2.2c0,0.2-0.1,0.3-0.1,0.5c0,0.1,0,0.3,0,0.4c0,0.4,0,0.7,0.1,1.1c-0.3-2,0.8-3.8,2.2-4.8
							C-364.5,262.7-364.5,262.6-364.5,262.4"/>
					</g>
				</mask>
				<path id="Fill-63" sketch:type="MSShapeGroup" mask="url(#mask-26)" fill="none" d="M-364.5,262.4c-0.2,0.1-0.3,0.2-0.5,0.3
					c-0.3,0.2-0.5,0.5-0.7,0.8c-0.5,0.6-0.9,1.4-1.1,2.2c0,0.2-0.1,0.3-0.1,0.5c0,0.1,0,0.3,0,0.4c0,0.4,0,0.7,0.1,1.1
					c-0.3-2,0.8-3.8,2.2-4.8C-364.5,262.7-364.5,262.6-364.5,262.4"/>
			</g>
			<g id="Group-68" transform="translate(12.776786, 16.747508)">
				<g id="Clip-67">
				</g>
				<defs>
					<filter id="Adobe_OpacityMaskFilter_13_" filterUnits="userSpaceOnUse" x="-366.9" y="262.4" width="1.4" height="1">
						<feColorMatrix  type="matrix" values="1 0 0 0 0  0 1 0 0 0  0 0 1 0 0  0 0 0 1 0"/>
					</filter>
				</defs>
				<mask maskUnits="userSpaceOnUse" x="-366.9" y="262.4" width="1.4" height="1" id="mask-28">
					<g filter="url(#Adobe_OpacityMaskFilter_13_)">
						<path id="path-27" fill="#FFFFFF" d="M-365.7,262.4c-0.2,0-0.3,0-0.5,0.1c-0.2,0.1-0.4,0.1-0.6,0.3c0,0,0,0.1,0,0.1
							c0,0,0,0,0,0c0,0.2-0.1,0.4-0.1,0.5c0.4-0.2,0.7-0.4,1.1-0.5c0-0.2,0.1-0.3,0.2-0.4C-365.6,262.4-365.7,262.4-365.7,262.4"/>
					</g>
				</mask>
				<path id="Fill-66" sketch:type="MSShapeGroup" mask="url(#mask-28)" fill="none" d="M-365.7,262.4c-0.2,0-0.3,0-0.5,0.1
					c-0.2,0.1-0.4,0.1-0.6,0.3c0,0,0,0.1,0,0.1c0,0,0,0,0,0c0,0.2-0.1,0.4-0.1,0.5c0.4-0.2,0.7-0.4,1.1-0.5c0-0.2,0.1-0.3,0.2-0.4
					C-365.6,262.4-365.7,262.4-365.7,262.4"/>
			</g>
			<g id="Group-71" transform="translate(14.433036, 16.747508)">
				<g id="Clip-70">
				</g>
				<defs>
					<filter id="Adobe_OpacityMaskFilter_14_" filterUnits="userSpaceOnUse" x="-366.9" y="262.5" width="0.6" height="0.2">
						<feColorMatrix  type="matrix" values="1 0 0 0 0  0 1 0 0 0  0 0 1 0 0  0 0 0 1 0"/>
					</filter>
				</defs>
				<mask maskUnits="userSpaceOnUse" x="-366.9" y="262.5" width="0.6" height="0.2" id="mask-30">
					<g filter="url(#Adobe_OpacityMaskFilter_14_)">
						<path id="path-29" fill="#FFFFFF" d="M-366.9,262.5C-366.8,262.5-366.8,262.5-366.9,262.5c0.2,0.1,0.4,0.2,0.5,0.2
							c0,0,0.1,0,0.1,0C-366.4,262.6-366.6,262.6-366.9,262.5C-366.8,262.5-366.8,262.5-366.9,262.5"/>
					</g>
				</mask>
				<path id="Fill-69" sketch:type="MSShapeGroup" mask="url(#mask-30)" fill="none" d="M-366.9,262.5
					C-366.8,262.5-366.8,262.5-366.9,262.5c0.2,0.1,0.4,0.2,0.5,0.2c0,0,0.1,0,0.1,0C-366.4,262.6-366.6,262.6-366.9,262.5
					C-366.8,262.5-366.8,262.5-366.9,262.5"/>
			</g>
			<g id="Group-74" transform="translate(14.433036, 16.983389)">
				<g id="Clip-73">
				</g>
				<defs>
					<filter id="Adobe_OpacityMaskFilter_15_" filterUnits="userSpaceOnUse" x="-366.8" y="262.3" width="0.4" height="0.1">
						<feColorMatrix  type="matrix" values="1 0 0 0 0  0 1 0 0 0  0 0 1 0 0  0 0 0 1 0"/>
					</filter>
				</defs>
				<mask maskUnits="userSpaceOnUse" x="-366.8" y="262.3" width="0.4" height="0.1" id="mask-32">
					<g filter="url(#Adobe_OpacityMaskFilter_15_)">
						<path id="path-31" fill="#FFFFFF" d="M-366.8,262.3C-366.8,262.4-366.7,262.4-366.8,262.3c0.1,0.1,0.1,0.1,0.1,0.1
							c0.1,0,0.1,0,0.2,0c0.1,0,0.1,0,0.2,0C-366.5,262.4-366.6,262.4-366.8,262.3"/>
					</g>
				</mask>
				<path id="Fill-72" sketch:type="MSShapeGroup" mask="url(#mask-32)" fill="none" d="M-366.8,262.3
					C-366.8,262.4-366.7,262.4-366.8,262.3c0.1,0.1,0.1,0.1,0.1,0.1c0.1,0,0.1,0,0.2,0c0.1,0,0.1,0,0.2,0
					C-366.5,262.4-366.6,262.4-366.8,262.3"/>
			</g>
			<g id="Group-77" transform="translate(13.959821, 16.747508)">
				<g id="Clip-76">
				</g>
				<defs>
					<filter id="Adobe_OpacityMaskFilter_16_" filterUnits="userSpaceOnUse" x="-367" y="262.4" width="0.8" height="0.4">
						<feColorMatrix  type="matrix" values="1 0 0 0 0  0 1 0 0 0  0 0 1 0 0  0 0 0 1 0"/>
					</filter>
				</defs>
				<mask maskUnits="userSpaceOnUse" x="-367" y="262.4" width="0.8" height="0.4" id="mask-34">
					<g filter="url(#Adobe_OpacityMaskFilter_16_)">
						<path id="path-33" fill="#FFFFFF" d="M-366.7,262.4c-0.1,0.1-0.2,0.3-0.2,0.4c0.3-0.1,0.5-0.1,0.8-0.1c0,0,0,0,0,0
							c0,0,0-0.1-0.1-0.1c0,0,0-0.1-0.1-0.1C-366.5,262.5-366.6,262.4-366.7,262.4"/>
					</g>
				</mask>
				<path id="Fill-75" sketch:type="MSShapeGroup" mask="url(#mask-34)" fill="none" d="M-366.7,262.4c-0.1,0.1-0.2,0.3-0.2,0.4
					c0.3-0.1,0.5-0.1,0.8-0.1c0,0,0,0,0,0c0,0,0-0.1-0.1-0.1c0,0,0-0.1-0.1-0.1C-366.5,262.5-366.6,262.4-366.7,262.4"/>
			</g>
			<path id="Fill-78" sketch:type="MSShapeGroup" fill="#B17057" d="M-352.9,279.1c-1.7,0-3.1,1.9-3.5,3.8c0.3-0.8,0.7-1.5,1.1-2.2
				c0.2-0.3,0.5-0.6,0.7-0.8c0,0,0,0,0.1-0.1c0.1-0.1,0.3-0.2,0.4-0.3c0.2-0.1,0.4-0.2,0.6-0.3
				C-353.3,279.2-353.1,279.2-352.9,279.1c0,0.1,0.1,0.1,0.1,0.1c0.1,0,0.2,0,0.4,0.1c0,0,0.1,0,0.1,0c0.2,0,0.4,0.1,0.5,0.2
				c0.1,0,0.2,0,0.3,0C-352,279.2-352.5,279.1-352.9,279.1"/>
			<path id="Fill-79" sketch:type="MSShapeGroup" fill="#FFFFFF" d="M-344.2,276.7c-2,0.7-3.2,4-2.3,6.2c1,2.5,8-0.2,7.4-2
				C-339.9,278.6-342.4,275.9-344.2,276.7"/>
			<g id="Group-82" transform="translate(22.950893, 17.455150)">
				<g id="Clip-81">
				</g>
				<defs>
					<filter id="Adobe_OpacityMaskFilter_17_" filterUnits="userSpaceOnUse" x="-366.8" y="262.3" width="4.7" height="4">
						<feColorMatrix  type="matrix" values="1 0 0 0 0  0 1 0 0 0  0 0 1 0 0  0 0 0 1 0"/>
					</filter>
				</defs>
				<mask maskUnits="userSpaceOnUse" x="-366.8" y="262.3" width="4.7" height="4" id="mask-36">
					<g filter="url(#Adobe_OpacityMaskFilter_17_)">
						<path id="path-35" fill="#FFFFFF" d="M-362.1,263.4C-362.1,263.4-362.1,263.4-362.1,263.4
							C-362.1,263.4-362.1,263.4-362.1,263.4 M-364.8,262.3c0.1,0.6,0.1,1.2,0.1,1.6c0,0.4-0.3,1.7-1.2,1.8c0,0-0.1,0-0.1,0
							c-0.3,0-0.6-0.1-0.7-0.3c0,0.5,0.1,0.9,0.4,0.9c0,0,0,0,0.1,0c0.8-0.1,1.5-0.4,2.2-0.7c0,0,0,0,0,0c0,0,0,0,0,0
							c1.3-0.6,2.2-1.4,2-2.1c0,0,0,0,0,0v0c0,0,0,0,0,0c0,0,0,0,0,0c0,0,0,0,0,0C-362.4,263.4-363.5,262.7-364.8,262.3"/>
					</g>
				</mask>
				<path id="Fill-80" sketch:type="MSShapeGroup" mask="url(#mask-36)" fill="none" d="M-362.1,263.4
					C-362.1,263.4-362.1,263.4-362.1,263.4C-362.1,263.4-362.1,263.4-362.1,263.4 M-364.8,262.3c0.1,0.6,0.1,1.2,0.1,1.6
					c0,0.4-0.3,1.7-1.2,1.8c0,0-0.1,0-0.1,0c-0.3,0-0.6-0.1-0.7-0.3c0,0.5,0.1,0.9,0.4,0.9c0,0,0,0,0.1,0c0.8-0.1,1.5-0.4,2.2-0.7
					c0,0,0,0,0,0c0,0,0,0,0,0c1.3-0.6,2.2-1.4,2-2.1c0,0,0,0,0,0v0c0,0,0,0,0,0c0,0,0,0,0,0c0,0,0,0,0,0
					C-362.4,263.4-363.5,262.7-364.8,262.3"/>
			</g>
			<path id="Fill-83" sketch:type="MSShapeGroup" fill="#14C7E2" d="M-344.4,277.1c-0.3,0.8-0.3,1.3-0.3,2.1c0,0.9,0.2,1.8,0.5,2.8
				c0.1,0.5,0.4,1.2,1.3,1.1c0.8-0.1,1.1-1.3,1.2-1.8c0.1-1.2-0.3-3.2-0.9-4.3C-343.2,276.2-344,275.9-344.4,277.1"/>
			<path id="Fill-84" sketch:type="MSShapeGroup" d="M-344,278.4c-0.2,0.6-0.1,0.9-0.1,1.5c0,0.6,0.1,1.3,0.4,1.9
				c0.1,0.3,0.3,1,0.8,0.7c0.4-0.2,0.4-0.9,0.4-1.2c0.1-0.9,0-2.1-0.4-2.9C-343.2,277.8-343.7,277.6-344,278.4"/>
			<path id="Fill-85" sketch:type="MSShapeGroup" fill="#EDC0B0" d="M-346.5,283c0.2,0.3,0.5,0.5,0.8,0.6c0.3,0.1,0.7,0.1,1,0.1
				c0.7,0,1.4-0.1,2.1-0.3c0.3-0.1,0.7-0.2,1-0.3c0.3-0.1,0.6-0.3,0.9-0.5c0.6-0.4,1.1-0.8,1.5-1.5c-0.2,0.7-0.7,1.4-1.3,1.8
				c-0.6,0.5-1.3,0.8-2,1c-0.7,0.2-1.5,0.3-2.2,0.2c-0.4,0-0.7-0.1-1.1-0.3c-0.2-0.1-0.3-0.2-0.5-0.3
				C-346.4,283.4-346.5,283.2-346.5,283"/>
			<g id="Group-88" transform="translate(26.026786, 15.568106)">
				<g id="Clip-87">
				</g>
				<defs>
					<filter id="Adobe_OpacityMaskFilter_18_" filterUnits="userSpaceOnUse" x="-366.8" y="262.5" width="1.7" height="2.9">
						<feColorMatrix  type="matrix" values="1 0 0 0 0  0 1 0 0 0  0 0 1 0 0  0 0 0 1 0"/>
					</filter>
				</defs>
				<mask maskUnits="userSpaceOnUse" x="-366.8" y="262.5" width="1.7" height="2.9" id="mask-38">
					<g filter="url(#Adobe_OpacityMaskFilter_18_)">
						<path id="path-37" fill="#FFFFFF" d="M-365.2,265.3C-365.2,265.3-365.2,265.3-365.2,265.3
							C-365.2,265.3-365.2,265.3-365.2,265.3C-365.2,265.3-365.2,265.3-365.2,265.3 M-366.8,262.5c0.8,0.9,1.3,1.8,1.7,2.8
							c-0.3-0.8-0.7-1.6-1.2-2.4C-366.5,262.8-366.7,262.6-366.8,262.5"/>
					</g>
				</mask>
				<path id="Fill-86" sketch:type="MSShapeGroup" mask="url(#mask-38)" fill="none" d="M-365.2,265.3
					C-365.2,265.3-365.2,265.3-365.2,265.3C-365.2,265.3-365.2,265.3-365.2,265.3C-365.2,265.3-365.2,265.3-365.2,265.3
					 M-366.8,262.5c0.8,0.9,1.3,1.8,1.7,2.8c-0.3-0.8-0.7-1.6-1.2-2.4C-366.5,262.8-366.7,262.6-366.8,262.5"/>
			</g>
			<g id="Group-91" transform="translate(24.843750, 14.860465)">
				<g id="Clip-90">
				</g>
				<defs>
					<filter id="Adobe_OpacityMaskFilter_19_" filterUnits="userSpaceOnUse" x="-366.8" y="262.4" width="2.9" height="3.6">
						<feColorMatrix  type="matrix" values="1 0 0 0 0  0 1 0 0 0  0 0 1 0 0  0 0 0 1 0"/>
					</filter>
				</defs>
				<mask maskUnits="userSpaceOnUse" x="-366.8" y="262.4" width="2.9" height="3.6" id="mask-40">
					<g filter="url(#Adobe_OpacityMaskFilter_19_)">
						<path id="path-39" fill="#FFFFFF" d="M-364,266C-364,266-364,266-364,266C-364,266-364,266-364,266 M-366.8,262.4
							C-366.8,262.4-366.8,262.4-366.8,262.4C-366.8,262.4-366.8,262.4-366.8,262.4C-366.8,262.4-366.8,262.4-366.8,262.4"/>
					</g>
				</mask>
				<path id="Fill-89" sketch:type="MSShapeGroup" mask="url(#mask-40)" fill="none" d="M-364,266C-364,266-364,266-364,266
					C-364,266-364,266-364,266 M-366.8,262.4C-366.8,262.4-366.8,262.4-366.8,262.4C-366.8,262.4-366.8,262.4-366.8,262.4
					C-366.8,262.4-366.8,262.4-366.8,262.4"/>
			</g>
			<g>
				<defs>
					<polygon id="SVGID_9_" points="-366,263.3 -365,263.3 -366,264.3 					"/>
				</defs>
				<defs>
					<polygon id="SVGID_10_" points="-368,261.3 -369,261.3 -368,260.3 					"/>
				</defs>
				<clipPath id="SVGID_11_">
					<use xlink:href="#SVGID_9_"  overflow="visible"/>
				</clipPath>
				<clipPath id="SVGID_12_" clip-path="url(#SVGID_11_)">
					<use xlink:href="#SVGID_10_"  overflow="visible"/>
				</clipPath>
				<g transform="matrix(0.1136 0 0 0 -342.1941 281.0938)" clip-path="url(#SVGID_12_)" enable-background="new    ">
					
						<image overflow="visible" width="29" height="35" id="Image-92" xlink:href="2AFD132A04FA0F43.png"  sketch:type="MSBitmapLayer" transform="matrix(0.1136 0 0 0 -342.1941 281.0938)">
					</image>
				</g>
			</g>
			<g id="Group-95" transform="translate(20.111607, 14.860465)">
				<g id="Clip-94">
				</g>
				<defs>
					<filter id="Adobe_OpacityMaskFilter_20_" filterUnits="userSpaceOnUse" x="-366.8" y="262.5" width="2.1" height="5.5">
						<feColorMatrix  type="matrix" values="1 0 0 0 0  0 1 0 0 0  0 0 1 0 0  0 0 0 1 0"/>
					</filter>
				</defs>
				<mask maskUnits="userSpaceOnUse" x="-366.8" y="262.5" width="2.1" height="5.5" id="mask-42">
					<g filter="url(#Adobe_OpacityMaskFilter_20_)">
						<path id="path-41" fill="#FFFFFF" d="M-364.7,262.5c-1.4,1.1-2.5,3.5-2,5.5c0.4-1.6,1.1-2.5,1.9-2.9c0-0.3,0-0.5-0.1-0.8
							C-364.9,263.6-364.9,263.1-364.7,262.5"/>
					</g>
				</mask>
				<path id="Fill-93" sketch:type="MSShapeGroup" mask="url(#mask-42)" fill="none" d="M-364.7,262.5c-1.4,1.1-2.5,3.5-2,5.5
					c0.4-1.6,1.1-2.5,1.9-2.9c0-0.3,0-0.5-0.1-0.8C-364.9,263.6-364.9,263.1-364.7,262.5"/>
			</g>
			<g id="Group-98" transform="translate(22.004464, 14.388704)">
				<g id="Clip-97">
				</g>
				<defs>
					<filter id="Adobe_OpacityMaskFilter_21_" filterUnits="userSpaceOnUse" x="-366.8" y="262.4" width="2.9" height="3.1">
						<feColorMatrix  type="matrix" values="1 0 0 0 0  0 1 0 0 0  0 0 1 0 0  0 0 0 1 0"/>
					</filter>
				</defs>
				<mask maskUnits="userSpaceOnUse" x="-366.8" y="262.4" width="2.9" height="3.1" id="mask-44">
					<g filter="url(#Adobe_OpacityMaskFilter_21_)">
						<path id="path-43" fill="#FFFFFF" d="M-364,264.6c-0.1,0.1-0.3,0.2-0.4,0.3c-0.1,0-0.1,0-0.2,0c0,0.1,0,0.2,0,0.2
							c0.2,0,0.5,0.1,0.7,0.2C-363.9,265.1-363.9,264.9-364,264.6 M-365.5,262.4c-0.4,0.1-0.7,0.3-1.1,0.5c-0.2,0.6-0.2,1.1-0.2,1.8
							c0,0.3,0,0.5,0.1,0.8c0.2-0.1,0.4-0.2,0.6-0.3c0-0.4,0-0.7,0.1-1.2c0-0.2,0.1-0.4,0.2-0.5c0,0,0,0,0,0c0-0.5,0.2-0.9,0.5-1.1
							c0,0,0,0,0,0C-365.3,262.4-365.4,262.4-365.5,262.4"/>
					</g>
				</mask>
				<path id="Fill-96" sketch:type="MSShapeGroup" mask="url(#mask-44)" fill="none" d="M-364,264.6c-0.1,0.1-0.3,0.2-0.4,0.3
					c-0.1,0-0.1,0-0.2,0c0,0.1,0,0.2,0,0.2c0.2,0,0.5,0.1,0.7,0.2C-363.9,265.1-363.9,264.9-364,264.6 M-365.5,262.4
					c-0.4,0.1-0.7,0.3-1.1,0.5c-0.2,0.6-0.2,1.1-0.2,1.8c0,0.3,0,0.5,0.1,0.8c0.2-0.1,0.4-0.2,0.6-0.3c0-0.4,0-0.7,0.1-1.2
					c0-0.2,0.1-0.4,0.2-0.5c0,0,0,0,0,0c0-0.5,0.2-0.9,0.5-1.1c0,0,0,0,0,0C-365.3,262.4-365.4,262.4-365.5,262.4"/>
			</g>
			<g id="Group-101" transform="translate(22.714286, 15.568106)">
				<g id="Clip-100">
				</g>
				<defs>
					<filter id="Adobe_OpacityMaskFilter_22_" filterUnits="userSpaceOnUse" x="-366.8" y="262.4" width="1.6" height="1.7">
						<feColorMatrix  type="matrix" values="1 0 0 0 0  0 1 0 0 0  0 0 1 0 0  0 0 0 1 0"/>
					</filter>
				</defs>
				<mask maskUnits="userSpaceOnUse" x="-366.8" y="262.4" width="1.6" height="1.7" id="mask-46">
					<g filter="url(#Adobe_OpacityMaskFilter_22_)">
						<path id="path-45" fill="#FFFFFF" d="M-366.7,262.9c-0.1,0.5-0.1,0.8-0.1,1.2c0.3-0.1,0.6-0.1,0.9-0.1c0.2,0,0.4,0,0.6,0
							c0-0.1,0-0.2,0-0.2h0c-0.3,0-0.6-0.2-0.8-0.5c0,0-0.1,0.1-0.1,0.1c0,0,0,0-0.1,0C-366.5,263.4-366.7,263.2-366.7,262.9
							C-366.7,263-366.7,262.9-366.7,262.9 M-366.5,262.4C-366.5,262.4-366.5,262.4-366.5,262.4
							C-366.5,262.5-366.5,262.5-366.5,262.4L-366.5,262.4C-366.5,262.4-366.5,262.4-366.5,262.4"/>
					</g>
				</mask>
				<path id="Fill-99" sketch:type="MSShapeGroup" mask="url(#mask-46)" fill="none" d="M-366.7,262.9c-0.1,0.5-0.1,0.8-0.1,1.2
					c0.3-0.1,0.6-0.1,0.9-0.1c0.2,0,0.4,0,0.6,0c0-0.1,0-0.2,0-0.2h0c-0.3,0-0.6-0.2-0.8-0.5c0,0-0.1,0.1-0.1,0.1c0,0,0,0-0.1,0
					C-366.5,263.4-366.7,263.2-366.7,262.9C-366.7,263-366.7,262.9-366.7,262.9 M-366.5,262.4C-366.5,262.4-366.5,262.4-366.5,262.4
					C-366.5,262.5-366.5,262.5-366.5,262.4L-366.5,262.4C-366.5,262.4-366.5,262.4-366.5,262.4"/>
			</g>
			<g id="Group-104" transform="translate(24.133929, 14.624585)">
				<g id="Clip-103">
				</g>
				<defs>
					<filter id="Adobe_OpacityMaskFilter_23_" filterUnits="userSpaceOnUse" x="-366.9" y="262.3" width="0.8" height="0.8">
						<feColorMatrix  type="matrix" values="1 0 0 0 0  0 1 0 0 0  0 0 1 0 0  0 0 0 1 0"/>
					</filter>
				</defs>
				<mask maskUnits="userSpaceOnUse" x="-366.9" y="262.3" width="0.8" height="0.8" id="mask-48">
					<g filter="url(#Adobe_OpacityMaskFilter_23_)">
						<path id="path-47" fill="#FFFFFF" d="M-366.9,262.3c0,0,0.1,0.1,0.1,0.1c0.1,0.2,0.2,0.4,0.3,0.7c0.1-0.2,0.3-0.4,0.4-0.5
							c0,0,0,0,0,0c-0.1,0-0.1-0.1-0.2-0.1C-366.5,262.5-366.7,262.4-366.9,262.3"/>
					</g>
				</mask>
				<path id="Fill-102" sketch:type="MSShapeGroup" mask="url(#mask-48)" fill="none" d="M-366.9,262.3c0,0,0.1,0.1,0.1,0.1
					c0.1,0.2,0.2,0.4,0.3,0.7c0.1-0.2,0.3-0.4,0.4-0.5c0,0,0,0,0,0c-0.1,0-0.1-0.1-0.2-0.1C-366.5,262.5-366.7,262.4-366.9,262.3"/>
			</g>
			<g>
				<defs>
					<polygon id="SVGID_13_" points="-366,263.3 -365,263.3 -366,264.3 					"/>
				</defs>
				<defs>
					<polygon id="SVGID_14_" points="-368,261.3 -369,261.3 -368,260.3 					"/>
				</defs>
				<clipPath id="SVGID_15_">
					<use xlink:href="#SVGID_13_"  overflow="visible"/>
				</clipPath>
				<clipPath id="SVGID_16_" clip-path="url(#SVGID_15_)">
					<use xlink:href="#SVGID_14_"  overflow="visible"/>
				</clipPath>
			</g>
			<g id="Group-108" transform="translate(22.950893, 14.388704)">
				<g id="Clip-107">
				</g>
				<defs>
					<filter id="Adobe_OpacityMaskFilter_24_" filterUnits="userSpaceOnUse" x="-367" y="262.4" width="2.1" height="2.5">
						<feColorMatrix  type="matrix" values="1 0 0 0 0  0 1 0 0 0  0 0 1 0 0  0 0 0 1 0"/>
					</filter>
				</defs>
				<mask maskUnits="userSpaceOnUse" x="-367" y="262.4" width="2.1" height="2.5" id="mask-50">
					<g filter="url(#Adobe_OpacityMaskFilter_24_)">
						<path id="path-49" fill="#FFFFFF" d="M-366.7,263.6c-0.2,0.1-0.2,0.2-0.2,0.5c0,0,0-0.1,0-0.1
							C-366.9,263.8-366.8,263.7-366.7,263.6 M-366.2,262.4c-0.3,0.2-0.5,0.6-0.5,1.1c0.1-0.1,0.1-0.1,0.2-0.1
							c0.2,0,0.5,0.2,0.6,0.6c0.1,0.3,0.2,0.6,0.3,0.9c0.1,0,0.1,0,0.2,0c0.2,0,0.3-0.1,0.4-0.3c-0.1-0.4-0.2-0.9-0.4-1.2
							c-0.1-0.3-0.2-0.5-0.3-0.7c0,0-0.1-0.1-0.1-0.1C-365.9,262.5-366,262.5-366.2,262.4"/>
					</g>
				</mask>
				<path id="Fill-106" sketch:type="MSShapeGroup" mask="url(#mask-50)" fill="none" d="M-366.7,263.6c-0.2,0.1-0.2,0.2-0.2,0.5
					c0,0,0-0.1,0-0.1C-366.9,263.8-366.8,263.7-366.7,263.6 M-366.2,262.4c-0.3,0.2-0.5,0.6-0.5,1.1c0.1-0.1,0.1-0.1,0.2-0.1
					c0.2,0,0.5,0.2,0.6,0.6c0.1,0.3,0.2,0.6,0.3,0.9c0.1,0,0.1,0,0.2,0c0.2,0,0.3-0.1,0.4-0.3c-0.1-0.4-0.2-0.9-0.4-1.2
					c-0.1-0.3-0.2-0.5-0.3-0.7c0,0-0.1-0.1-0.1-0.1C-365.9,262.5-366,262.5-366.2,262.4"/>
			</g>
			<g id="Group-111" transform="translate(22.950893, 15.568106)">
				<g id="Clip-110">
				</g>
				<defs>
					<filter id="Adobe_OpacityMaskFilter_25_" filterUnits="userSpaceOnUse" x="-367" y="262.3" width="1.4" height="1.4">
						<feColorMatrix  type="matrix" values="1 0 0 0 0  0 1 0 0 0  0 0 1 0 0  0 0 0 1 0"/>
					</filter>
				</defs>
				<mask maskUnits="userSpaceOnUse" x="-367" y="262.3" width="1.4" height="1.4" id="mask-52">
					<g filter="url(#Adobe_OpacityMaskFilter_25_)">
						<path id="path-51" fill="#FFFFFF" d="M-366.5,262.3c-0.1,0-0.2,0-0.2,0.1c0,0,0,0,0,0l0,0c0,0,0,0,0,0
							c-0.1,0.1-0.1,0.2-0.2,0.4c0,0,0,0.1,0,0.1c0,0,0,0,0,0.1c0.1,0.2,0.2,0.4,0.4,0.4c0,0,0,0,0.1,0c0,0,0.1,0,0.1-0.1
							c0.2,0.3,0.5,0.5,0.8,0.5h0c-0.1-0.3-0.2-0.6-0.3-0.9C-366,262.5-366.3,262.3-366.5,262.3"/>
					</g>
				</mask>
				<path id="Fill-109" sketch:type="MSShapeGroup" mask="url(#mask-52)" fill="none" d="M-366.5,262.3c-0.1,0-0.2,0-0.2,0.1
					c0,0,0,0,0,0l0,0c0,0,0,0,0,0c-0.1,0.1-0.1,0.2-0.2,0.4c0,0,0,0.1,0,0.1c0,0,0,0,0,0.1c0.1,0.2,0.2,0.4,0.4,0.4c0,0,0,0,0.1,0
					c0,0,0.1,0,0.1-0.1c0.2,0.3,0.5,0.5,0.8,0.5h0c-0.1-0.3-0.2-0.6-0.3-0.9C-366,262.5-366.3,262.3-366.5,262.3"/>
			</g>
			<path id="Fill-112" sketch:type="MSShapeGroup" fill="#BF795E" d="M-340.3,278.5c-0.3-0.3-0.6-0.6-0.9-0.8
				c-0.3-0.2-0.7-0.4-1-0.6c-0.3-0.2-0.7-0.3-1.1-0.3c-0.4-0.1-0.7,0-1,0.1c-0.3,0.1-0.6,0.4-0.9,0.6c-0.3,0.3-0.5,0.6-0.7,0.9
				c-0.4,0.6-0.8,1.4-0.9,2.1c0-0.8,0.2-1.6,0.6-2.3c0.2-0.4,0.4-0.7,0.7-1c0.3-0.3,0.6-0.6,1-0.8c0.4-0.2,0.9-0.2,1.3-0.1
				c0.4,0.1,0.8,0.2,1.2,0.4c0.4,0.2,0.7,0.5,1,0.7C-340.8,277.8-340.5,278.2-340.3,278.5"/>
			<path id="Fill-113" sketch:type="MSShapeGroup" fill="#EBC9BF" d="M-346.7,280c0,0.1,0,0.1-0.1,0.2c0,0.1,0,0.1,0,0.2
				c0-0.1,0-0.1,0-0.2C-346.8,280.2-346.7,280.1-346.7,280"/>
			<path id="Fill-114" sketch:type="MSShapeGroup" fill="#ECECEC" d="M-346.7,280C-346.7,280-346.7,280-346.7,280
				c0,0.1-0.1,0.2-0.1,0.3C-346.7,280.2-346.7,280.1-346.7,280"/>
			<path id="Fill-115" sketch:type="MSShapeGroup" fill="#EBC9BF" d="M-346.7,282.4c0,0.1,0,0.2,0.1,0.3c0,0.1,0.1,0.1,0.1,0.2
				C-346.6,282.7-346.7,282.6-346.7,282.4"/>
			<g id="Group-118" transform="translate(20.111607, 17.926910)">
				<g id="Clip-117">
				</g>
				<defs>
					<filter id="Adobe_OpacityMaskFilter_26_" filterUnits="userSpaceOnUse" x="-367" y="262.3" width="0" height="0">
						<feColorMatrix  type="matrix" values="1 0 0 0 0  0 1 0 0 0  0 0 1 0 0  0 0 0 1 0"/>
					</filter>
				</defs>
				<mask maskUnits="userSpaceOnUse" x="-367" y="262.3" width="0" height="0" id="mask-54">
					<g filter="url(#Adobe_OpacityMaskFilter_26_)">
						<path id="path-53" fill="#EBC9BF" d="M-367,262.3"/>
					</g>
				</mask>
				<path id="Fill-116" sketch:type="MSShapeGroup" mask="url(#mask-54)" fill="#EBC9BF" d="M-367,262.3"/>
			</g>
			<g id="Group-121" transform="translate(20.111607, 14.624585)">
				<g id="Clip-120">
				</g>
				<defs>
					<filter id="Adobe_OpacityMaskFilter_27_" filterUnits="userSpaceOnUse" x="-366.9" y="262.4" width="2.4" height="5.9">
						<feColorMatrix  type="matrix" values="1 0 0 0 0  0 1 0 0 0  0 0 1 0 0  0 0 0 1 0"/>
					</filter>
				</defs>
				<mask maskUnits="userSpaceOnUse" x="-366.9" y="262.4" width="2.4" height="5.9" id="mask-56">
					<g filter="url(#Adobe_OpacityMaskFilter_27_)">
						<path id="path-55" fill="#FFFFFF" d="M-364.5,262.4c-0.3,0.1-0.6,0.4-0.8,0.6c-0.3,0.3-0.5,0.6-0.7,0.9
							c-0.3,0.5-0.6,1-0.8,1.5c0,0.1,0,0.2-0.1,0.3c0,0.1,0,0.2,0,0.3c0,0.6,0,1.1,0,1.5c0,0.3,0.1,0.5,0.2,0.8
							c-0.4-2,0.6-4.4,2-5.5C-364.6,262.6-364.6,262.5-364.5,262.4C-364.5,262.4-364.5,262.4-364.5,262.4"/>
					</g>
				</mask>
				<path id="Fill-119" sketch:type="MSShapeGroup" mask="url(#mask-56)" fill="none" d="M-364.5,262.4c-0.3,0.1-0.6,0.4-0.8,0.6
					c-0.3,0.3-0.5,0.6-0.7,0.9c-0.3,0.5-0.6,1-0.8,1.5c0,0.1,0,0.2-0.1,0.3c0,0.1,0,0.2,0,0.3c0,0.6,0,1.1,0,1.5
					c0,0.3,0.1,0.5,0.2,0.8c-0.4-2,0.6-4.4,2-5.5C-364.6,262.6-364.6,262.5-364.5,262.4C-364.5,262.4-364.5,262.4-364.5,262.4"/>
			</g>
			<g id="Group-124" transform="translate(22.241071, 14.388704)">
				<g id="Clip-123">
				</g>
				<defs>
					<filter id="Adobe_OpacityMaskFilter_28_" filterUnits="userSpaceOnUse" x="-366.8" y="262.4" width="1.1" height="0.5">
						<feColorMatrix  type="matrix" values="1 0 0 0 0  0 1 0 0 0  0 0 1 0 0  0 0 0 1 0"/>
					</filter>
				</defs>
				<mask maskUnits="userSpaceOnUse" x="-366.8" y="262.4" width="1.1" height="0.5" id="mask-58">
					<g filter="url(#Adobe_OpacityMaskFilter_28_)">
						<path id="path-57" fill="#FFFFFF" d="M-365.9,262.4c-0.2,0-0.5,0-0.7,0.1c0,0-0.1,0-0.1,0c0,0,0,0,0,0.1
							c0,0.1-0.1,0.2-0.1,0.3c0.3-0.3,0.7-0.4,1.1-0.5C-365.8,262.4-365.8,262.4-365.9,262.4"/>
					</g>
				</mask>
				<path id="Fill-122" sketch:type="MSShapeGroup" mask="url(#mask-58)" fill="none" d="M-365.9,262.4c-0.2,0-0.5,0-0.7,0.1
					c0,0-0.1,0-0.1,0c0,0,0,0,0,0.1c0,0.1-0.1,0.2-0.1,0.3c0.3-0.3,0.7-0.4,1.1-0.5C-365.8,262.4-365.8,262.4-365.9,262.4"/>
			</g>
			<path id="Fill-125" sketch:type="MSShapeGroup" fill="#B17057" d="M-343.7,276.5c-1.5,0-2.6,1.7-3,3.4c0,0,0,0,0,0
				c0,0.1,0,0.2,0,0.4c0-0.1,0-0.1,0.1-0.2c0,0,0-0.1,0-0.1c0.2-0.5,0.4-1,0.8-1.5c0.2-0.3,0.5-0.6,0.7-0.9c0.2-0.2,0.5-0.5,0.8-0.6
				c0,0,0.1,0,0.1,0c0.2-0.1,0.5-0.1,0.7-0.1c0.1,0,0.1,0,0.2,0c0.2,0,0.4-0.1,0.5-0.1c0.1,0,0.2,0,0.3,0
				C-343,276.6-343.4,276.5-343.7,276.5"/>
			<path id="Fill-126" sketch:type="MSShapeGroup" fill="#BF795E" d="M-337.3,277.1c0.1-0.2,0.3-0.4,0.5-0.5
				c0.2-0.1,0.5-0.2,0.7-0.2c0.5,0,1,0.2,1.4,0.5c0.2,0.2,0.4,0.4,0.5,0.6c0.1,0.2,0.2,0.4,0.3,0.7c0.1,0.2,0.1,0.5,0.1,0.7
				c0,0.2-0.1,0.5-0.2,0.7c0-0.5-0.2-0.8-0.4-1.2c-0.1-0.2-0.2-0.4-0.3-0.5c-0.1-0.2-0.2-0.3-0.4-0.4c-0.3-0.2-0.7-0.4-1-0.5
				C-336.5,276.8-336.9,276.9-337.3,277.1"/>
			<path id="Fill-127" sketch:type="MSShapeGroup" fill="#BF795E" d="M-335.6,276.7c0.3,0.2,0.4,0.5,0.6,0.8c0.1,0.3,0.2,0.7,0.2,1
				c0,0.2,0,0.3,0,0.5c0,0.2,0,0.4-0.1,0.5c-0.1,0.2-0.2,0.3-0.3,0.5c-0.1,0.1-0.3,0.2-0.5,0.2c0.1-0.1,0.2-0.2,0.2-0.4
				c0-0.1,0.1-0.3,0.1-0.4c0-0.1,0-0.3,0-0.4c0-0.2,0-0.3,0-0.5c0-0.3,0-0.6-0.1-0.9C-335.4,277.3-335.5,277-335.6,276.7"/>
			<path id="Fill-128" sketch:type="MSShapeGroup" fill="#3F1F1A" d="M-347.5,277.1c0.7-1,1.7-1.6,2.7-2.3l0,0
				c1.1-0.2,3.1-0.2,3.4-0.1c0.2,0.4,0.1,0.7,0,1.1c-0.4-0.1-2.2-0.4-2.8-0.4c-0.4,0.2-2.1,1.3-2.8,2.2
				C-347.2,277.6-347.5,277.3-347.5,277.1"/>
			<path id="Fill-129" sketch:type="MSShapeGroup" fill="#3F1F1A" d="M-350.9,277.9c-1.1-0.6-2.3-0.7-3.4-0.9l0,0
				c-1,0.3-2.9,1.2-3.1,1.4c0,0.5,0.2,0.7,0.5,1c0.3-0.3,1.8-1.3,2.3-1.5c0.5,0,2.5,0.2,3.5,0.7C-351,278.5-350.9,278.1-350.9,277.9
				"/>
			<path id="Fill-130" sketch:type="MSShapeGroup" fill="#F2B9A7" d="M-352.8,274.7c0,0,0.3-0.2,0.8-0.4c0.3-0.1,0.6-0.2,0.9-0.3
				c0.3-0.1,0.7-0.2,1-0.3c0.4-0.1,0.7-0.2,1-0.2c0.2,0,0.3-0.1,0.5-0.1c0.2,0,0.3,0,0.4,0c0.3,0,0.5,0,0.6-0.1c0.1,0,0.1,0,0.1-0.1
				c0,0,0-0.1,0-0.1c0,0,0,0,0,0.1c0,0-0.1,0.1-0.1,0.1c-0.1,0.1-0.4,0.1-0.6,0.2c-0.1,0-0.3,0-0.4,0.1c-0.2,0-0.3,0.1-0.5,0.1
				c-0.2,0-0.3,0.1-0.5,0.1c-0.2,0-0.3,0.1-0.5,0.1c-0.7,0.2-1.4,0.3-1.9,0.5C-352.5,274.6-352.8,274.7-352.8,274.7"/>
			<path id="Fill-131" sketch:type="MSShapeGroup" fill="#F2B9A7" d="M-353.6,273.4c0,0,0.5-0.2,1.2-0.4c0.4-0.1,0.8-0.2,1.2-0.3
				c0.4-0.1,0.9-0.2,1.4-0.3c0.2-0.1,0.5-0.1,0.7-0.2c0.2-0.1,0.5-0.1,0.7-0.2c0.4-0.1,0.9-0.2,1.2-0.3c0.4-0.1,0.7-0.1,0.9-0.1
				c0.1,0,0.2,0,0.2,0c0.1,0,0.1,0,0.1,0s0,0-0.1,0c-0.1,0-0.1,0-0.2,0c-0.2,0-0.5,0.1-0.8,0.2c-0.3,0.1-0.7,0.2-1.2,0.4
				c-0.4,0.1-0.9,0.2-1.4,0.4c-0.5,0.1-1,0.2-1.4,0.3c-0.4,0.1-0.9,0.2-1.2,0.2C-353.2,273.3-353.6,273.4-353.6,273.4"/>
			<path id="Fill-132" sketch:type="MSShapeGroup" fill="#BF795E" d="M-360.4,282.5c-0.5,0-0.9,0.1-1.2,0.3
				c-0.3,0.2-0.5,0.6-0.7,0.9c-0.1,0.2-0.1,0.3-0.2,0.5c0,0.2-0.1,0.4-0.1,0.6c0,0.4,0,0.8,0.2,1.2c-0.2-0.1-0.4-0.3-0.5-0.5
				c-0.1-0.2-0.2-0.5-0.2-0.7c0-0.2,0-0.5,0-0.7c0-0.2,0.1-0.5,0.2-0.7c0.2-0.5,0.6-0.9,1.1-1.1c0.2-0.1,0.5-0.2,0.8-0.1
				C-360.8,282.3-360.6,282.3-360.4,282.5"/>
			<path id="Fill-133" sketch:type="MSShapeGroup" fill="#BF795E" d="M-346.2,299.7c0.4,0.2,0.9,0.4,1.3,0.5c0.4,0.1,0.9,0.1,1.3,0
				c0.1,0,0.2-0.1,0.3-0.1c0.1-0.1,0.2-0.1,0.3-0.2c0.2-0.1,0.4-0.3,0.6-0.4c0.4-0.3,0.7-0.6,0.9-1c0,0.2-0.1,0.5-0.2,0.7
				c-0.1,0.2-0.3,0.4-0.5,0.6c-0.2,0.2-0.4,0.4-0.6,0.5c-0.1,0.1-0.2,0.1-0.3,0.2c-0.1,0.1-0.2,0.1-0.4,0.2
				c-0.3,0.1-0.5,0.1-0.8,0.1c-0.3,0-0.5-0.1-0.8-0.2C-345.5,300.5-345.9,300.1-346.2,299.7"/>
			<path id="Fill-134" sketch:type="MSShapeGroup" fill="#BF795E" d="M-362.2,283.1c0,0,0-0.1,0-0.1c0,0,0.1-0.1,0.1-0.1
				c0.1,0,0.2,0,0.3,0.1c0.2,0.1,0.3,0.2,0.5,0.3c0.1,0.1,0.3,0.3,0.4,0.4c0.1,0.1,0.1,0.1,0.2,0.2c0.1,0.1,0.1,0.1,0.2,0.3
				c0.1,0.3,0.3,0.7,0.3,1.1c0,0.2,0,0.4-0.1,0.6c-0.1,0.2-0.2,0.3-0.4,0.4c0.2-0.3,0.2-0.6,0.1-1c-0.1-0.3-0.2-0.6-0.3-0.9
				c0,0-0.1-0.1-0.1-0.2l-0.1-0.2c-0.1-0.1-0.2-0.3-0.3-0.4c-0.1-0.1-0.2-0.3-0.3-0.4c-0.1-0.1-0.1-0.1-0.2-0.1
				C-362.1,283-362.1,283-362.2,283.1"/>
			<path id="Fill-135" sketch:type="MSShapeGroup" fill="#E5B0A5" d="M-359.1,286.7c0.7,0.6-1,1.6-1,1.6s-0.1,5,2.1,8.8
				c-1.3-2.4-1.6-6.7-1.2-7.5C-357.8,286.6-359.1,286.7-359.1,286.7"/>
			<path id="Fill-136" sketch:type="MSShapeGroup" fill="#E5B0A5" d="M-357.8,273.4c0,0,0.1-1.5,1.7-2.1c1.6-0.6,8.3-1.8,8.2-0.9
				c-0.1,0.4-2.3,1.9-2.1,1.5c0,0,0.4,0.4,1,0.8c1.3,0.8,3.9,1.6,7.3-1.3c0.3-0.3-5.5-2.2-5.5-2.2s-6-0.2-6.1-0.2
				c-0.1,0-4.5,2.2-4.5,2.2l-0.3,0.1L-357.8,273.4"/>
			<path id="Fill-137" sketch:type="MSShapeGroup" fill="#F1B6A5" d="M-359,286.8c-0.3,0.2-0.6,0.5-0.4,0.7c0,0,0.1,0.1,0.1,0.1
				C-359,287.4-358.9,287.1-359,286.8 M-358.5,286.5c0,0-0.2,0.1-0.4,0.2c0.1,0.1,0.2,0.2,0.3,0.4
				C-358.1,286.8-358.5,286.5-358.5,286.5"/>
			<path id="Fill-138" sketch:type="MSShapeGroup" fill="#DB9584" d="M-358.9,286.7c0,0-0.1,0-0.1,0.1c0.2,0.3,0,0.6-0.3,0.8
				c0.1,0.1,0.1,0.1,0.2,0.1c0.1,0,0.2-0.3,0.5-0.6c0,0,0,0,0,0C-358.6,286.9-358.8,286.8-358.9,286.7"/>
			<path id="Fill-139" sketch:type="MSShapeGroup" fill="#6F4511" d="M-360.8,272.6c0.6,2.8,0.8,10.7,1.4,14.9
				c0.3-0.2,0.4-0.5,0.9-1c-0.6-2.8,1-14,0.6-15.5C-358.6,271.3-359.9,271.7-360.8,272.6"/>
			<path id="Fill-140" sketch:type="MSShapeGroup" fill="#512D1D" d="M-360,276.7c0.1-0.2,0.2-0.4,0.3-0.5c0.1-0.1,0.3-0.2,0.4-0.3
				c0.2-0.1,0.3-0.2,0.5-0.2c0.2-0.1,0.3-0.1,0.5-0.1c-0.1,0.2-0.2,0.3-0.3,0.5c-0.1,0.1-0.3,0.2-0.4,0.3c-0.1,0.1-0.3,0.2-0.5,0.2
				C-359.7,276.6-359.8,276.7-360,276.7"/>
			<path id="Fill-141" sketch:type="MSShapeGroup" fill="#512D1D" d="M-359.9,275.4c0.1-0.1,0.1-0.2,0.2-0.3
				c0.1-0.1,0.2-0.1,0.3-0.2c0.1-0.1,0.2-0.1,0.3-0.1c0.1,0,0.2,0,0.4,0.1c-0.1,0.1-0.2,0.2-0.2,0.3c-0.1,0.1-0.2,0.1-0.3,0.2
				c-0.1,0-0.2,0.1-0.3,0.1C-359.6,275.4-359.7,275.4-359.9,275.4"/>
			<path id="Fill-142" sketch:type="MSShapeGroup" fill="#F1B6A5" d="M-336.6,280.2L-336.6,280.2c0.1,0.1,0.2,0.2,0.3,0.3
				c-0.3,0-0.3-0.1-0.4-0.1c-0.1,0-0.2,0-0.6,0.1c0,0,0.1,0.1,0.2,0.1c0.1,0.1,0.3,0.1,0.4,0.1c0.2,0,0.3-0.1,0.3-0.3
				C-336.3,280.3-336.4,280.2-336.6,280.2"/>
			<path id="Fill-143" sketch:type="MSShapeGroup" fill="#6F4511" d="M-341.2,266.4c0.5,2.1,1.6,6,2.8,9.3c0.6,2.9,1.1,3.8,2,4.9
				c-0.5,0-0.1-0.2-1,0c-0.6-2.2-5.8-12-6.2-13.4C-342.7,267-342.4,266.5-341.2,266.4"/>
			<path id="Fill-144" sketch:type="MSShapeGroup" fill="#3C221D" d="M-341.1,266.7l0.6,2.3c0,0-1.5,1.6-1.9,2.2
				C-341.4,269.5-341,268.1-341.1,266.7"/>
			<path id="Fill-145" sketch:type="MSShapeGroup" fill="#6F4511" d="M-358.2,271.2c1.8-9.5,11.1-9.4,13.9-8.2
				c3.3,1.5,4.1,4.9,2.3,7.6c-2.1,3-7.3,2.1-9.2,0.6c1.4,0,2.5-0.5,2.8-0.9c0.5-0.7-0.4-1.4-3.9-0.6
				C-354.3,270.2-358.1,271.2-358.2,271.2"/>
			<path id="Fill-146" sketch:type="MSShapeGroup" fill="#AE7721" d="M-341.1,266.7c0,0,0,0.1,0,0.1
				C-341.1,266.8-341.1,266.7-341.1,266.7C-341.1,266.7-341.1,266.7-341.1,266.7"/>
			<path id="Fill-147" sketch:type="MSShapeGroup" fill="#915E2C" d="M-341.1,266.7C-341.1,266.7-341.1,266.8-341.1,266.7
				c0.1,0.6,0.1,1.1,0,1.6c0,0,0,0,0,0C-340.8,267.9-340.9,267.3-341.1,266.7"/>
			<path id="Fill-148" sketch:type="MSShapeGroup" fill="#AE7721" d="M-341.6,265.5l-3.2,3.4l-3.4,1.2l2.8,0.1c0,0,2.8-1.6,4.3-1.9
				c0.1-0.5,0.1-1.1,0-1.6c0,0,0-0.1,0-0.1C-341.3,266-341.6,265.5-341.6,265.5"/>
			<path id="Fill-149" sketch:type="MSShapeGroup" fill="#512D1D" d="M-357.6,269c0.6-0.9,1.4-1.5,2.2-2.1c0.9-0.5,1.9-0.9,2.8-1.2
				c1-0.3,2-0.6,3-0.7c1-0.1,2.1-0.2,3.2,0.2c0.3,0.1,0.5,0.2,0.8,0.3c0.1,0.1,0.2,0.1,0.4,0.2c0.1,0.1,0.2,0.2,0.3,0.3
				c0.4,0.4,0.6,1,0.7,1.6c0,0.6-0.1,1.1-0.3,1.6c-0.2,0.5-0.5,1-0.8,1.4c-0.3,0.4-0.7,0.8-1.2,1.1c-0.5,0.2-1,0.4-1.5,0.4
				c-0.5,0-1.1-0.1-1.5-0.2c-0.5-0.2-1-0.3-1.4-0.5c1,0.2,2,0.5,3,0.4c0.5-0.1,0.9-0.2,1.4-0.5c0.4-0.3,0.7-0.6,1-1
				c0.5-0.8,0.9-1.7,0.8-2.6c0-0.4-0.2-0.9-0.5-1.2c-0.1-0.1-0.2-0.2-0.2-0.2c-0.1-0.1-0.2-0.1-0.3-0.2c-0.2-0.1-0.4-0.2-0.6-0.3
				c-0.9-0.3-1.9-0.3-2.9-0.2c-1,0.1-2,0.3-2.9,0.6c-1,0.3-1.9,0.6-2.8,1C-356.1,267.7-356.9,268.3-357.6,269"/>
			<path id="Fill-150" sketch:type="MSShapeGroup" fill="#E5B0A5" d="M-342.3,283.8c-3.6,0.3-4.9,0.5-4.5-3.9
				c-0.3,1.3-0.2,2-0.1,2.7c0.3,1.5,3.4,3.5,3.4,4.8c-0.2-0.3-0.9-0.3-3-0.1c-2.1,1-2.4,1.1-2.3,1.5c-0.3,0.1-0.4-0.3-0.4-0.6
				c0.1-0.5,0.3-1,1.4-1.5c-0.5,0-0.8,0.1-1,0.4c0-0.2,0-0.2,0.1-0.4c-0.1,0.4-0.3,0.9-0.5,1.4c-0.2,0.5-0.3,1.2,0.7,0.9
				c1.4,0,4.1-0.7,4.7-1c0.2-0.1,0.3-0.3,0.3-0.4c0.2-0.8-0.8-2-1.2-2.6C-345.4,284-343.2,284.1-342.3,283.8"/>
			<path id="Fill-151" sketch:type="MSShapeGroup" fill="#E5B0A5" d="M-349.5,281.4c0,0,1.2,2.2,0,3.4c-0.1,0.1-0.2,0.2-0.3,0.3
				c0.2-0.2,0.7-0.1,0.8-0.2c0.2,0,0.4,0.5,0.4,0.7C-348.5,284.3-348.5,282.7-349.5,281.4"/>
			<path id="Fill-152" sketch:type="MSShapeGroup" fill="#8D5F43" d="M-344.8,288.2c-0.1,0-0.1,0-0.2,0.1
				C-344.9,288.3-344.8,288.3-344.8,288.2"/>
			<path id="Fill-153" sketch:type="MSShapeGroup" fill="#804D36" d="M-344.2,287.5c-0.5,0-1.6,0.9-1.6,0.9c0.3-0.1,0.6-0.1,0.8-0.2
				c0.1,0,0.1,0,0.2-0.1c0.7-0.2,0.9-0.4,0.8-0.6C-344.1,287.6-344.1,287.5-344.2,287.5"/>
			<path id="Fill-154" sketch:type="MSShapeGroup" fill="#8D5F43" d="M-347,288.7c-0.4,0.1-0.7,0.1-1,0.1c0,0,0,0,0,0
				C-347.8,288.9-347.5,288.8-347,288.7"/>
			<path id="Fill-155" sketch:type="MSShapeGroup" fill="#804D36" d="M-347.7,288.3c-0.2,0-0.5,0.1-0.6,0.3c-0.1,0.2,0,0.3,0.2,0.3
				c0.3,0,0.6-0.1,1-0.1c0.2,0,0.4-0.1,0.5-0.1C-346.5,288.6-347.2,288.3-347.7,288.3"/>
			<path id="Fill-156" sketch:type="MSShapeGroup" fill="#4B0506" d="M-350,294.4l10-2.1c0,0,1.8,4-4.1,5
				C-348,298-349.1,297.2-350,294.4"/>
			<path id="Fill-157" sketch:type="MSShapeGroup" fill="#FFFFFF" d="M-340.1,293.1c0.2-0.3,0-0.8,0-0.9l-9.8,2.1
				c0,0.1,0.1,0.5,0.4,0.6C-346,295.3-341.1,293.7-340.1,293.1"/>
			<path id="Fill-158" sketch:type="MSShapeGroup" fill="#FFFFFF" d="M-339.9,294.8c0-0.6,0.1-0.3,0-0.8c-0.8,1.3-6,3.2-9.2,2.1
				c0.1,0.5,0,0,0.2,0.4c0.9,1,2.3,1.2,4.9,0.8C-341.4,296.8-340.3,295.8-339.9,294.8C-339.9,294.8-339.9,294.7-339.9,294.8"/>
			<path id="Fill-159" sketch:type="MSShapeGroup" fill="#C86755" d="M-350,294.4c0.8-0.3,1.6-0.6,2.4-0.8c0.4-0.1,0.8-0.2,1.2-0.3
				c0.4-0.1,0.8-0.2,1.2-0.3c0.2-0.1,0.4-0.1,0.6-0.2c0.2,0,0.4-0.1,0.6-0.1c0.4-0.1,0.9-0.1,1.3-0.2c0.9-0.1,1.7-0.1,2.6-0.2
				c-0.8,0.3-1.7,0.5-2.5,0.6l-1.2,0.3c-0.4,0.1-0.8,0.2-1.2,0.3c-0.8,0.3-1.7,0.4-2.5,0.6C-348.3,294.2-349.1,294.3-350,294.4"/>
			<path id="Fill-160" sketch:type="MSShapeGroup" fill="#C86755" d="M-349.3,296c0.3,0.4,0.7,0.7,1.2,0.8c0.5,0.1,0.9,0.2,1.4,0.2
				c1,0.1,2,0,2.9-0.2c0.9-0.2,1.9-0.6,2.7-1.1c0.4-0.3,0.8-0.6,1-1c0.3-0.4,0.4-0.9,0.4-1.4c0.2,0.5,0.1,1-0.1,1.5
				c-0.2,0.5-0.6,0.9-1,1.2c-0.4,0.3-0.9,0.6-1.3,0.8c-0.5,0.2-1,0.4-1.5,0.5c-0.5,0.1-1,0.2-1.6,0.2c-0.5,0-1,0-1.6-0.1
				c-0.5-0.1-1-0.2-1.5-0.5C-348.7,296.9-349.2,296.5-349.3,296"/>
			<path id="Fill-161" sketch:type="MSShapeGroup" fill="#FFFFFF" d="M-345.6,316.3c0,0,0.7,0.4,0.6,1c0.3-0.2,1.2-0.7,1-1.1
				C-344.2,315.8-345,316-345.6,316.3"/>
			<path id="Fill-162" sketch:type="MSShapeGroup" fill="#FFFFFF" d="M-352.2,314.6c0,0,0.2-0.1,0.3,0c0.2,0.3,0,1.4-0.1,1.7
				c-0.2-0.1-0.4-0.2-0.7-0.1C-352.7,315.5-352.6,314.8-352.2,314.6"/>
			<path id="Fill-163" sketch:type="MSShapeGroup" fill="#EBEBEB" d="M-333.6,305.2c0,0,1.1-1,1.7-1.6c1-1,7.7-8,8.5-9.2
				c0.8-1.3,6.1-7.1,9.6-9.6c2.1-1.5,5.8-3.2,7.9-4.5c-0.1-0.2-0.1-0.4-0.1-0.5c1.2-0.7,2-1.2,2-1.2l2.7,7.3c0,0-0.5,0.2-1.3,0.6
				c0,0-0.1-0.1-0.1-0.2c0-0.1-0.1-0.2-0.1-0.2c-3.2,1.5-9.9,5.1-10.9,5.8c-1.2,0.9-17.6,15.2-18.2,15.1
				C-332.2,306.6-332.3,305.9-333.6,305.2"/>
			<path id="Fill-164" sketch:type="MSShapeGroup" fill="#DADADA" d="M-332.2,306.5L-332.2,306.5c0.1,0.2,0.2,0.5,0.3,0.7
				C-332,307-332.1,306.7-332.2,306.5 M-313.8,292C-313.8,292-313.8,292-313.8,292L-313.8,292 M-313.8,292
				C-313.8,292-313.8,292-313.8,292C-313.8,292-313.8,292-313.8,292 M-309.5,289.6c-2.1,1.1-3.8,2.1-4.3,2.4
				C-313.3,291.7-311.6,290.7-309.5,289.6 M-302.9,286.2c-0.3,0.1-0.6,0.3-0.9,0.4C-303.5,286.5-303.2,286.4-302.9,286.2
				 M-302.9,286.2C-302.9,286.2-302.9,286.2-302.9,286.2c0,0.1,0.1,0.1,0.1,0.2C-302.8,286.3-302.9,286.2-302.9,286.2"/>
			<path id="Fill-165" sketch:type="MSShapeGroup" fill="#C8C8C8" d="M-302.2,283.7c0,0-5.5,2.9-12.1,7.7
				c-6.8,4.9-14.4,12.3-18,15.1c0.1,0.2,0.2,0.5,0.3,0.7c0,0,0,0,0,0c0.6,0,16.9-14.2,18.2-15.1c0,0,0,0,0,0c0,0,0,0,0,0
				c0,0,0,0,0,0c0,0,0,0,0,0c0,0,0,0,0,0c0.5-0.3,2.2-1.3,4.3-2.4c1.9-1,4-2.1,5.7-2.9c0.3-0.2,0.6-0.3,0.9-0.4c0,0,0,0,0,0
				c0,0,0.1,0.1,0.1,0.2c0,0,0.1,0.1,0.1,0.2c0.8-0.4,1.3-0.6,1.3-0.6L-302.2,283.7"/>
			<path id="Fill-166" sketch:type="MSShapeGroup" fill="#EBEBEB" d="M-348.5,308.6c-0.4,0.7-0.9,2.4-0.4,4.1c-0.1-0.3-0.9,0-0.9,0
				s-11.5,3.9-13.4,5.7c-1.3,1.3,3.2,1.9,5.8,1.9c0-0.1,0-0.3,0-0.4c0.9,0,1.5,0,1.5,0l0.7,4.7l-2,0l-0.1-0.4l-0.1,0
				c0.2,0-9.5-1.8-9.5-4.8C-366.8,315.6-360.1,312.8-348.5,308.6"/>
			<path id="Fill-167" sketch:type="MSShapeGroup" fill="#DADADA" d="M-355.3,323.5L-355.3,323.5l0.2,1L-355.3,323.5"/>
			<path id="Fill-168" sketch:type="MSShapeGroup" fill="#D8BAB0" d="M-355.5,322.4L-355.5,322.4l0.2,1.1L-355.5,322.4"/>
			<path id="Fill-169" sketch:type="MSShapeGroup" fill="#C8C8C8" d="M-366.8,319.2c0,3,9.5,4.8,9.5,4.8c0,0,0,0,0,0l0.1,0l0.1,0.4
				l2,0l-0.3-2.1c0,0-0.4,0-0.9,0c-0.3,0-0.7,0-1.1,0c0,0.1,0,0.3,0,0.4c0-0.1,0-0.3-0.1-0.4C-360.4,322.3-365.2,321.8-366.8,319.2"
				/>
			<path id="Fill-170" sketch:type="MSShapeGroup" fill="#DADADA" d="M-349,311.3c0,0-0.1,0-0.1,0.1c0,0.4,0.1,0.8,0.2,1.3
				c0,0,0,0,0,0c0-0.1,0-0.1,0-0.2c-0.1-0.2-0.1-0.3-0.1-0.3V312c-0.1-0.2-0.1-0.2,0-0.5V311.3"/>
			<path id="Fill-171" sketch:type="MSShapeGroup" fill="#DADADA" d="M-367,262.3"/>
			<path id="Fill-172" sketch:type="MSShapeGroup" fill="#C8C8C8" d="M-349.1,311.4c-9.4,4-11.8,4.4-14.1,7
				c1.9-1.8,13.4-5.7,13.4-5.7s0.4-0.1,0.6-0.1c0.1,0,0.2,0,0.3,0.1C-349.1,312.2-349.1,311.8-349.1,311.4"/>
			<path id="Fill-173" sketch:type="MSShapeGroup" fill="#EBEBEB" d="M-345.4,303c-0.1-0.1-0.5,3.8-0.5,3.8l8.9,10.2l-0.7-12.5
				l-3.2-2.7c0,0-0.4,1.4-1.8,1.7S-344.5,303.4-345.4,303"/>
			<path id="Fill-174" sketch:type="MSShapeGroup" d="M-341.8,315.5l3.4-0.3l-0.2,1.8h0.1c0.5-0.8,1.5-1.8,3.5-1.8
				c1.5,0,2.7,0.8,3.2,2h0c0.5-0.6,1.3-2.4,3.7-2c6.4,1,3.1,11.9,3.1,11.9l-2.7-0.7c0,0,1.7-8.3-1.7-8.2c-0.9,0-1.4,0.6-1.7,1.3
				c-0.1,0.3-0.1,0.6-0.1,0.9l0.1,5.2l-2.4,0.6c0,0,0.2-8.2-3-8c-2.7,0.2-1.5,9.3-1.5,9.3l-2.7-0.3
				C-340.7,327-341.8,316.5-341.8,315.5"/>
			<path id="Fill-175" sketch:type="MSShapeGroup" d="M-291.7,315.5l2.5-0.2l0.7,1.8h0.1c0.5-0.8,1.5-1.8,3.5-1.8
				c1.5,0,2.7,0.8,3.2,2h0c0.5-0.6,1.3-2.5,3.7-2c5.7,1.1,2.4,11.3,2.4,11.3l-1.9-0.9c0,0,1.3-8.9-1.8-7.5c-2.5,1.1-1.1,6.4-1.1,6.4
				l-2.4,0.7c0,0-0.2-7.3-3.4-7c-2.7,0.2-2.3,8.3-2.3,8.3l-3,0.2C-291.6,326.6-291.7,316.5-291.7,315.5"/>
			<path id="Fill-176" sketch:type="MSShapeGroup" d="M-323.5,316.3l3.1-0.5l0.6,1.8h0.1c0.6-1.7,3-2.4,5.4-2.3l-1.9,3.1
				c-5.7,0.3-3.1,8.7-3.1,8.7l-2.8,0.3C-322.7,320.1-322.9,318.7-323.5,316.3"/>
			<path id="Fill-177" sketch:type="MSShapeGroup" d="M-304.6,326.2c-0.7,7.7-10,4.6-11,4l1.9-1.9c5.9,1.4,6.4-2.9,6.4-2.9h0
				c-0.7,0.9-1.8,1.5-3.1,1.5c-2.9,0-4.5-2.4-4.5-5.7c0-3.7,1.7-5.7,4.8-6.1c1.6-0.2,2.6,0.7,3.2,1.7h0l0.1-1.4l3-0.7
				C-303.8,315.5-303.9,318.6-304.6,326.2L-304.6,326.2z M-310,317.6c-1.3,0-1.8,2-1.8,4.1c0,1.7,1.1,2.7,2.6,2.7
				c0.9,0,1.6-0.7,1.6-1.6C-307.2,318.3-309,317.6-310,317.6L-310,317.6z"/>
			<path id="Fill-178" sketch:type="MSShapeGroup" d="M-292.6,326.5l-3.3,0.5l-0.2-1.2h-0.1c-0.8,0.9-2.4,1.7-3.8,1.4
				c-2-0.4-2.9-1.9-3.1-3.4c-0.5-3.1,2.2-4.7,6.6-4.5c0,0-0.1-3.4-6.1-0.5l0-2.1c0.8-0.5,2.5-1.6,4.6-1.5c3.6,0.2,5.1,2.2,5.1,5
				C-292.8,323.1-293.4,323.9-292.6,326.5L-292.6,326.5z M-296.4,321.1c-2,0.1-4.7,0.7-4.3,2.4
				C-299.7,327.8-295.6,322.9-296.4,321.1L-296.4,321.1z"/>
			<path id="Fill-179" sketch:type="MSShapeGroup" d="M-270.4,322c-0.9,3.3,3.7,2.6,6.9,0.6l0.5,2.4c-3.6,2.4-10.5,3.1-10.5-4.2
				c0-2.9,1.2-5.5,5.9-5.7c3.8-0.1,5.7,4.2,4,6.6L-270.4,322L-270.4,322z M-265.2,320.1c0.5-0.9-1-3.2-2.7-2.9
				c-2.1,0.3-2.2,1.8-2.3,2.8L-265.2,320.1L-265.2,320.1z"/>
			<path id="Fill-180" sketch:type="MSShapeGroup" fill="#FFFFFF" d="M-342.4,314.3l3.4-0.3l-0.2,1.8h0.1c0.5-0.8,1.5-1.8,3.5-1.8
				c1.5,0,2.7,0.8,3.2,2h0c0.5-0.6,1.3-2.4,3.7-2c6.4,1,3.1,11.9,3.1,11.9l-2.7-0.7c0,0,1.7-8.3-1.7-8.2c-0.9,0-1.4,0.6-1.7,1.3
				c-0.1,0.3-0.1,0.6-0.1,0.9l0.1,5.2l-2.4,0.6c0,0,0.2-8.2-3-8c-2.7,0.2-1.5,9.3-1.5,9.3l-2.7-0.3
				C-341.3,325.9-342.4,315.4-342.4,314.3"/>
			<path id="Fill-181" sketch:type="MSShapeGroup" fill="#FFFFFF" d="M-292.3,314.3l2.5-0.2l0.7,1.8h0.1c0.5-0.8,1.5-1.8,3.5-1.8
				c1.5,0,2.7,0.8,3.2,2h0c0.5-0.6,1.3-2.5,3.7-2c5.7,1.1,2.4,11.3,2.4,11.3l-1.9-0.9c0,0,1.3-8.9-1.8-7.5c-2.5,1.1-1.1,6.4-1.1,6.4
				l-2.4,0.7c0,0-0.2-7.3-3.4-7c-2.7,0.2-2.3,8.3-2.3,8.3l-3,0.2C-292.2,325.5-292.3,315.4-292.3,314.3"/>
			<path id="Fill-182" sketch:type="MSShapeGroup" fill="#FFFFFF" d="M-324,315.1l3.1-0.5l0.6,1.8h0.1c0.6-1.7,3-2.4,5.4-2.3
				l-1.9,3.1c-5.7,0.3-3.1,8.7-3.1,8.7l-2.8,0.3C-323.3,319-323.5,317.6-324,315.1"/>
			<path id="Fill-183" sketch:type="MSShapeGroup" fill="#FFFFFF" d="M-305.2,325.1c-0.7,7.7-10,4.6-11,4l1.9-1.9
				c5.9,1.4,6.4-2.9,6.4-2.9h0c-0.7,0.9-1.8,1.5-3.1,1.5c-2.9,0-4.5-2.4-4.5-5.7c0-3.7,1.7-5.7,4.8-6.1c1.6-0.2,2.6,0.7,3.2,1.7h0
				l0.1-1.4l3-0.7C-304.4,314.4-304.5,317.4-305.2,325.1L-305.2,325.1z M-310.6,316.5c-1.3,0-1.8,2-1.8,4.1c0,1.7,1.1,2.7,2.6,2.7
				c1,0,1.6-0.7,1.6-1.6C-307.8,317.2-309.6,316.5-310.6,316.5L-310.6,316.5z"/>
			<path id="Fill-184" sketch:type="MSShapeGroup" fill="#FFFFFF" d="M-293.2,325.4l-3.3,0.5l-0.2-1.2h-0.1
				c-0.8,0.9-2.4,1.7-3.8,1.4c-2-0.4-2.9-1.9-3.1-3.4c-0.5-3.1,2.2-4.7,6.6-4.5c0,0-0.1-3.4-6.1-0.5l0-2.1c0.8-0.5,2.5-1.6,4.6-1.5
				c3.6,0.2,5.1,2.2,5.1,5C-293.4,321.9-294,322.8-293.2,325.4L-293.2,325.4z M-297,320c-2,0.1-4.7,0.7-4.3,2.4
				C-300.3,326.7-296.2,321.8-297,320L-297,320z"/>
			<path id="Fill-185" sketch:type="MSShapeGroup" fill="#FFFFFF" d="M-271,320.8c-0.9,3.3,3.7,2.6,6.9,0.6l0.5,2.4
				c-3.6,2.4-10.5,3.1-10.5-4.2c0-2.9,1.2-5.5,5.9-5.7c3.8-0.1,5.7,4.2,4,6.6L-271,320.8L-271,320.8z M-265.7,319
				c0.5-0.9-1-3.2-2.7-2.9c-2.1,0.3-2.2,1.8-2.3,2.8L-265.7,319L-265.7,319z"/>
			<path id="Fill-186" sketch:type="MSShapeGroup" fill="#2F2F2F" d="M-346.6,304.6c0,0-0.2,2.7,1.2,3.8c2-0.3,2.8-1.8,2.8-1.8
				s1,0.6,2.3-0.8c1.4,0.6,3.5-0.4,3.5-0.4s0-1.6-1.1-3.3c-1,0.1-2.5,1.5-2.5,1.5s-1.9-0.2-2.9,0.9
				C-344.4,303.8-346.6,304.6-346.6,304.6"/>
			<path id="Fill-187" sketch:type="MSShapeGroup" fill="#3F3F3F" d="M-340,305.3C-340,305.3-340,305.3-340,305.3
				c-0.1,0.2-0.2,0.4-0.3,0.5C-340.1,305.7-340,305.5-340,305.3 M-342.2,306.5c-0.7-0.6-0.6-2.2-0.6-2.2
				C-342.8,304.7-342.6,305.5-342.2,306.5 M-342,304.3C-342.1,304.3-342.1,304.2-342,304.3C-342.1,304.2-342.1,304.3-342,304.3
				c0.1,0.3,0.5,1,0.7,1.7C-341.7,305.5-341.9,304.6-342,304.3 M-340.3,305.4c-0.1-0.7-0.8-1.3-0.8-1.3
				C-340.6,304.4-340.3,304.7-340.3,305.4 M-340.8,303.7c-0.6,0-1.8,0.1-2.5,0.9c0,0.1,0,0.3-0.1,0.4c0,0,0,0,0,0c0,0,0,0.3,0.1,0.5
				c0,0,0,0,0,0c0,0.2,0.1,0.3,0.2,0.5c0,0,0,0,0,0s0,0,0,0c0,0.1,0.1,0.1,0.1,0.2c0,0,0,0,0,0v0c0.2,0.3,0.4,0.5,0.4,0.5
				s0.2,0.1,0.6,0.1c0.3,0,0.6-0.1,1-0.3c-0.3,0.2-0.6,0.3-0.6,0.3c0.7-0.3,1.2-1,1.7-1.5c0,0,0,0.1,0,0.1c0,0,0,0,0,0
				c0-0.3,0-0.6-0.1-0.9c-0.1-0.2-0.2-0.4-0.2-0.4h0c-0.1-0.1-0.1-0.2-0.1-0.2S-340.6,303.7-340.8,303.7"/>
			<path id="Fill-188" sketch:type="MSShapeGroup" d="M-340.3,305.9c-0.2,0.2-0.5,0.4-0.7,0.6C-340.8,306.3-340.5,306.1-340.3,305.9
				C-340.3,305.9-340.3,305.9-340.3,305.9"/>
			<path id="Fill-189" sketch:type="MSShapeGroup" d="M-340.3,305.8C-340.3,305.8-340.3,305.9-340.3,305.8c-0.3,0.3-0.5,0.5-0.7,0.6
				C-340.8,306.3-340.6,306.1-340.3,305.8C-340.3,305.9-340.3,305.9-340.3,305.8C-340.3,305.9-340.3,305.9-340.3,305.8"/>
			<path id="Fill-190" sketch:type="MSShapeGroup" d="M-340,305.2c-0.5,0.6-0.9,1.2-1.7,1.5c0,0,0.3-0.1,0.6-0.3
				c0.2-0.1,0.4-0.3,0.7-0.6c0,0,0,0,0.1-0.1C-340.2,305.7-340.1,305.5-340,305.2C-340,305.3-340,305.3-340,305.2
				C-340,305.3-340,305.2-340,305.2"/>
			<path id="Fill-191" sketch:type="MSShapeGroup" fill="#080B1F" d="M-338.1,302.7c0,0-1.6,1.2-2.2,1.2c0.1,0.1,0.1,0.3,0.2,0.4
				C-339.6,304-338.1,302.7-338.1,302.7"/>
			<path id="Fill-192" sketch:type="MSShapeGroup" fill="#0D0F2B" d="M-340.3,303.9L-340.3,303.9c0,0,0.1,0.2,0.2,0.4
				C-340.2,304.2-340.2,304-340.3,303.9"/>
			<path id="Fill-193" sketch:type="MSShapeGroup" fill="#080B1F" d="M-337.3,304.7c-0.3,0.1-0.6,0.1-0.9,0.1c-0.2,0-0.4,0-0.6,0
				c-0.2,0-0.4,0-0.5,0c-0.2,0-0.4,0-0.7,0.1c0,0.2,0,0.3,0,0.5c0,0,0,0,0,0C-339.2,305.2-337.6,304.9-337.3,304.7"/>
			<path id="Fill-194" sketch:type="MSShapeGroup" fill="#0D0F2B" d="M-340,305.2C-340,305.3-340,305.3-340,305.2
				C-340,305.3-340,305.3-340,305.2C-340,305.3-340,305.3-340,305.2C-340,305.3-340,305.3-340,305.2"/>
			<path id="Fill-195" sketch:type="MSShapeGroup" d="M-340,305.3C-340,305.3-340,305.3-340,305.3C-340,305.3-340,305.3-340,305.3"
				/>
			<path id="Fill-196" sketch:type="MSShapeGroup" fill="#080B1F" d="M-343.4,305c-1,0.2-2.5,0.6-2.6,0.6c-0.2,0.1-0.1,0.2-0.1,0.2
				s1.9-0.2,2.8-0.3C-343.3,305.3-343.4,305.1-343.4,305"/>
			<path id="Fill-197" sketch:type="MSShapeGroup" fill="#0D0F2B" d="M-343.4,305C-343.4,305-343.4,305-343.4,305
				c0,0.2,0,0.4,0.1,0.5c0,0,0,0,0,0C-343.4,305.2-343.4,305-343.4,305"/>
			<path id="Fill-198" sketch:type="MSShapeGroup" fill="#080B1F" d="M-343.1,305.9c0,0-1.8,0.9-2.3,1.2c0.5-0.2,1.3-0.2,1.6-0.4
				c0.3-0.2,0.8-0.6,0.8-0.6c0,0,0,0,0,0C-343.1,306.1-343.1,306-343.1,305.9C-343.1,306-343.1,306-343.1,305.9"/>
			<path id="Fill-199" sketch:type="MSShapeGroup" fill="#080B1F" d="M-367,262.3"/>
			<path id="Fill-200" sketch:type="MSShapeGroup" d="M-342.9,304.4c0,0,0,1.6,0.6,2.2C-342.6,305.5-342.8,304.7-342.9,304.4"/>
			<path id="Fill-201" sketch:type="MSShapeGroup" d="M-342,304.3c0.1,0.3,0.4,1.2,0.7,1.7C-341.5,305.4-341.9,304.6-342,304.3
				 M-342.1,304.2C-342.1,304.2-342.1,304.3-342.1,304.2C-342.1,304.3-342.1,304.2-342.1,304.2"/>
			<path id="Fill-202" sketch:type="MSShapeGroup" d="M-341.1,304.1c0,0,0.7,0.6,0.8,1.3C-340.3,304.7-340.6,304.4-341.1,304.1"/>
			<path id="Fill-203" sketch:type="MSShapeGroup" fill="#EBEBEB" d="M-357.9,320.2L-357.9,320.2c0.1,0,0.3,0,0.4,0L-357.9,320.2"/>
			<path id="Fill-204" sketch:type="MSShapeGroup" fill="#D7D7D7" d="M-357.9,320.2c0,0,0,0.6,0.3,2.2c0,0,0,0,0,0
				c-0.1-1,0.1-2.2,0.1-2.2C-357.6,320.2-357.7,320.2-357.9,320.2"/>
			<path id="Fill-205" sketch:type="MSShapeGroup" fill="#B8B8B8" d="M-357.5,322.4c0,0.1,0,0.3,0.1,0.4
				C-357.5,322.7-357.5,322.6-357.5,322.4C-357.5,322.4-357.5,322.4-357.5,322.4"/>
			<path id="Fill-206" sketch:type="MSShapeGroup" fill="#EBEBEB" d="M-305.9,280.3l-0.7,0.4v0
				C-306.4,280.6-306.1,280.5-305.9,280.3"/>
			<path id="Fill-207" sketch:type="MSShapeGroup" fill="#D7D7D7" d="M-305.9,280.3L-305.9,280.3c-0.2,0.1-0.4,0.3-0.7,0.4
				c0,0,1.3,2.1,1.9,2.4C-305.7,281.7-305.9,280.3-305.9,280.3"/>
			<path id="Fill-208" sketch:type="MSShapeGroup" fill="#4A4E56" d="M-304.5,279.6c-0.3,0-1.3,0.5-0.5,0.7c0.8,0.2,0.8-0.9,0.4-0.6
				"/>
			<path id="Fill-209" sketch:type="MSShapeGroup" fill="#4A4E56" d="M-356.5,320.2c-0.4-0.1-0.9,0.5-0.3,0.5c0.4,0,0.6-0.4,0.1-0.4
				"/>
			<path id="Fill-210" sketch:type="MSShapeGroup" fill="#FFFFFF" d="M-306.8,305.1l7.4-19l13.8,4.1l-11.3,20L-306.8,305.1"/>
			<path id="Fill-211" sketch:type="MSShapeGroup" fill="#DFDFDF" d="M-306.8,305.1l0.8,0.3l7.1-18.3l12.1,3.6l-10.4,18.4l-9.1-4.7
				L-306.8,305.1l0.8,0.3L-306.8,305.1l-0.4,0.7l9.9,5.1c0.4,0.2,0.9,0.1,1.1-0.3l11.3-20c0.1-0.2,0.1-0.5,0-0.7
				c-0.1-0.2-0.3-0.4-0.5-0.5l-13.8-4.1c-0.4-0.1-0.9,0.1-1,0.5l-7.4,19c-0.2,0.4,0,0.8,0.4,1L-306.8,305.1"/>
			<path id="Fill-212" sketch:type="MSShapeGroup" fill="#FFFFFF" d="M-306.8,305l7.3-18.9l13.6,4.1l-11.3,19.8L-306.8,305"/>
			<path id="Fill-213" sketch:type="MSShapeGroup" d="M-299.4,286.3l13.5,4l-11.2,19.6l-9.6-4.9L-299.4,286.3 M-299.5,286.1l-7.4,19
				l9.8,5.1l11.4-20L-299.5,286.1"/>
			<path id="Fill-214" sketch:type="MSShapeGroup" d="M-304.3,304.3L-304.3,304.3l15.6-13.2l0.4,0.5L-304.3,304.3"/>
			<path id="Fill-215" sketch:type="MSShapeGroup" d="M-297.2,302.9c-0.7,0.9-2.3,0.6-2.8,1.6c-0.3,0.7,0.1,1.5,0.8,1.5
				c-0.4,0.4-1,0.6-1,0.6l1.7,0.9c0,0-0.2-0.5,0-1.2c0.7,1,1.7,0.2,1.6-0.6C-296.8,304.8-297.2,303.9-297.2,302.9"/>
			<path id="Fill-216" sketch:type="MSShapeGroup" d="M-296.8,288.5c-0.8,1.1-2.6,0.9-3,2.1c-0.3,0.9,0.3,1.8,1.1,1.6
				c-0.4,0.5-1.1,0.8-1.1,0.8l2.1,0.9c0,0-0.3-0.6-0.1-1.3c0.9,1.1,1.9,0.1,1.8-0.8C-296.1,290.6-296.8,289.7-296.8,288.5"/>
			<path id="Fill-217" sketch:type="MSShapeGroup" fill="#FA2636" d="M-276.9,302.8c3.1-0.4,4.2,2.6,1.9,5.2c-3.5,3.9-8.7-1.2-6-4.5
				C-279.8,302.2-278.8,301.8-276.9,302.8"/>
			<path id="Fill-218" sketch:type="MSShapeGroup" fill="#FA2636" d="M-281,298.9c1.3,1.1,2.9,1.4,0.9,4.4c-2.1,3.2-8.4-0.8-6.4-4.6
				C-285.5,297.2-281.7,294.7-281,298.9"/>
			<path id="Fill-219" sketch:type="MSShapeGroup" fill="#007A00" d="M-277.2,303.4c-0.6-0.7-0.6-2.2-0.6-3.3
				c0.1-1.1,0.3-2.5,0.7-3.7c-1.3,1.1-2.8,2-4.2,2.7l-0.2-0.4c1.6-0.8,3.5-2,4.8-3.4c0.3-0.7,0.7-1.3,1.2-1.7l0.4-0.4l-0.1,0.7
				c-0.3,0.6-0.7,1.2-1.2,1.7c-0.6,1.3-1,3.1-1.1,4.6c-0.1,1.4,0.1,2.5,0.5,2.9L-277.2,303.4"/>
			<path id="Fill-220" sketch:type="MSShapeGroup" fill="#FFFFFF" d="M-281.9,297.6c-0.5-0.7-1.5-0.8-2.1-0.5
				c-0.5,0.2-1.4,0.8-1.6,1.5C-284.8,297.9-282.9,296.6-281.9,297.6"/>
			<path id="Fill-221" sketch:type="MSShapeGroup" fill="#FFFFFF" d="M-279.8,303.6c1.6-1.7,1.5,0,2.9,0.3
				C-278,304.9-278.4,302.6-279.8,303.6"/>
			<path id="Fill-222" sketch:type="MSShapeGroup" fill="#671D00" d="M-281.2,298.7c-1.2-0.8-0.2,0.7,0,0.7
				C-280.8,299.2-281.4,298.9-281.2,298.7"/>
			<path id="Fill-223" sketch:type="MSShapeGroup" fill="#671D00" d="M-276.9,303c0,0,0,0.1,0.1,0.1c-0.1,0.2-0.6,0-0.5-0.3
				c-0.2,0,0.1,0.7,0.5,0.6C-276.5,303.4-276.6,302.8-276.9,303"/>
			<path id="Fill-224" sketch:type="MSShapeGroup" fill="#991437" d="M-281.5,304.4c-0.3,0.1-0.5,0.1-0.8,0.1c-0.3,0-0.5,0-0.8-0.1
				c0.4,0.1,0.7,0.1,1,0.1c0.2,0,0.4,0,0.5-0.1C-281.5,304.5-281.5,304.4-281.5,304.4"/>
			<path id="Fill-225" sketch:type="MSShapeGroup" fill="#96030C" d="M-279.6,302.6c-0.1,0.2-0.3,0.5-0.5,0.8
				c-0.4,0.6-0.9,0.9-1.5,1.1c0,0,0,0.1,0,0.1C-280.7,304.3-280.1,303.6-279.6,302.6"/>
			<path id="Fill-226" sketch:type="MSShapeGroup" fill="#991437" d="M-285.9,302.6c0.6,0.7,1.3,1.3,2.2,1.6
				C-284.6,303.9-285.4,303.4-285.9,302.6C-285.9,302.6-285.9,302.6-285.9,302.6"/>
			<path id="Fill-227" sketch:type="MSShapeGroup" fill="#96030C" d="M-279.6,302.5c-0.7,1-1.7,1.4-2.7,1.4c-1.5,0-3.1-0.8-3.7-1.2
				c0.6,0.7,1.4,1.3,2.2,1.6c0,0,0,0,0,0c0.2,0.1,0.4,0.1,0.6,0.2c0.3,0.1,0.5,0.1,0.8,0.1c0.3,0,0.5,0,0.8-0.1
				c0.6-0.2,1.1-0.5,1.5-1.1C-279.9,303.1-279.7,302.8-279.6,302.5C-279.6,302.5-279.6,302.5-279.6,302.5"/>
			<path id="Fill-228" sketch:type="MSShapeGroup" fill="#991437" d="M-274.4,307.3c-0.2,0.2-0.3,0.5-0.6,0.7
				c-0.1,0.1-0.2,0.2-0.3,0.4C-275,308-274.7,307.7-274.4,307.3 M-281.4,307c0.3,0.9,1.1,1.7,2,2.2c0.5,0.2,1,0.4,1.5,0.4
				c0.8,0,1.6-0.3,2.3-0.8c0,0,0,0,0,0c-0.7,0.6-1.5,0.8-2.2,0.8C-279.4,309.5-280.9,308.4-281.4,307"/>
			<path id="Fill-229" sketch:type="MSShapeGroup" fill="#96030C" d="M-281.4,307C-281.4,307-281.4,307-281.4,307
				c0.6,1.4,2,2.5,3.6,2.5c0.7,0,1.5-0.2,2.2-0.8c0.1-0.1,0.2-0.2,0.3-0.3c0.1-0.1,0.2-0.2,0.3-0.4c0.2-0.2,0.4-0.5,0.6-0.7
				c0,0,0,0,0,0c-0.9,0.9-2.2,1.3-3.4,1.3C-279.1,308.6-280.5,308-281.4,307"/>
			<path id="Fill-230" sketch:type="MSShapeGroup" fill="#671D00" d="M-274.8,292.8c0.2,0.1,0.3,0.1,0.5,0.3
				c-0.3,0.5-1.5,2.6-1.7,1.6C-276.2,294.4-275.3,293.1-274.8,292.8C-274.8,292.8-275,292.9-274.8,292.8"/>
			<path id="Fill-231" sketch:type="MSShapeGroup" fill="#6FC77B" d="M-312.7,299.1c-3-0.9-6.4,1-7.3,3.5c-1.4,3.7,0,7.1,4.1,7.9
				c2.9,0.6,5.6-0.4,6.9-3.1C-307.6,304.3-309,300.1-312.7,299.1"/>
			<path id="Fill-232" sketch:type="MSShapeGroup" fill="#FFFFFF" d="M-311.9,302.7c-1.5-3.2-6.1-1.8-6.8,1.1c-0.4,1.5,0,3.2,1,4.5
				c1.2,1.5,3.5,1.5,5.2,0.2C-310.9,307.3-311.1,304.5-311.9,302.7"/>
			<path id="Fill-233" sketch:type="MSShapeGroup" fill="#009E3B" d="M-311.9,302.7l0.2-0.1c-0.3-0.7-0.8-1.1-1.3-1.4
				c-0.5-0.3-1.1-0.4-1.7-0.4c-0.9,0-1.8,0.3-2.6,0.8c-0.7,0.5-1.3,1.3-1.6,2.2c-0.1,0.4-0.1,0.8-0.1,1.2c0,1.2,0.4,2.5,1.2,3.4
				c0.6,0.8,1.6,1.2,2.6,1.2c1,0,2-0.3,2.8-1c0.5-0.4,0.8-0.8,1-1.4c0.2-0.5,0.3-1.2,0.3-1.8c0-1-0.2-2-0.6-2.9l0,0L-311.9,302.7
				l-0.2,0.1c0.3,0.8,0.5,1.8,0.5,2.7c0,0.6-0.1,1.2-0.3,1.7c-0.2,0.5-0.5,0.9-0.9,1.2c-0.8,0.6-1.7,0.9-2.6,0.9
				c-0.9,0-1.8-0.3-2.4-1.1c-0.7-0.9-1.1-2.1-1.1-3.2c0-0.4,0-0.8,0.1-1.1c0.2-0.8,0.7-1.5,1.4-2c0.7-0.5,1.5-0.8,2.4-0.8
				c0.5,0,1.1,0.1,1.5,0.4c0.5,0.3,0.9,0.7,1.2,1.3L-311.9,302.7l-0.2,0.1L-311.9,302.7"/>
			<path id="Fill-234" sketch:type="MSShapeGroup" fill="#009E3B" d="M-314.4,302.4c-0.3-0.8-2.2-0.4-1.7,0.7
				C-315.7,303.8-313.9,303.3-314.4,302.4"/>
			<path id="Fill-235" sketch:type="MSShapeGroup" fill="#009E3B" d="M-314.3,304c-0.3,0.4-0.5,0.7-0.7,1.1c-0.3,0.3-0.5,0.7-0.7,1
				c-0.2,0.4-0.3,0.7-0.3,1.1c0,0.3,0.3,0.6,0.6,0.7c0.2,0.1,0.4,0.1,0.5,0.1c0.1,0,0.3-0.1,0.3-0.2c0.1-0.1,0.1-0.3,0.2-0.5
				c0-0.2,0-0.4,0-0.6c0-0.2-0.1-0.3-0.2-0.3c-0.1-0.1-0.3-0.1-0.5-0.1c-0.2,0-0.4,0-0.6,0.1c-0.2,0.1-0.4,0.2-0.5,0.3
				c0.1-0.2,0.2-0.4,0.4-0.5c0.2-0.2,0.4-0.3,0.6-0.3c0.2,0,0.5,0,0.8,0.1c0.3,0.1,0.4,0.4,0.5,0.7c0,0.1,0,0.3,0,0.4
				c0,0.1,0,0.2,0,0.4c0,0.2-0.1,0.5-0.2,0.7c-0.1,0.2-0.4,0.4-0.7,0.5c-0.3,0-0.5,0-0.8-0.1c-0.2-0.1-0.5-0.2-0.6-0.4
				c-0.2-0.2-0.3-0.5-0.3-0.7c0-0.5,0.2-1,0.4-1.4c0.2-0.4,0.5-0.8,0.7-1.1C-315.1,304.4-314.7,304.2-314.3,304"/>
			<path id="Fill-236" sketch:type="MSShapeGroup" fill="#FFFFFF" d="M-315.2,299.8c-0.4,0.3-0.9,0.5-1.3,0.7
				c-0.4,0.3-0.8,0.5-1.1,0.8c-0.4,0.3-0.7,0.6-1.1,0.9c-0.4,0.3-0.7,0.7-1.1,1c0.2-0.5,0.4-0.9,0.7-1.3c0.3-0.4,0.6-0.8,1-1.1
				C-317.3,300.2-316.2,299.8-315.2,299.8"/>
			<path id="Fill-237" sketch:type="MSShapeGroup" fill="#5C2F12" d="M-344,290.4c-0.4,0-1.1,0.1-1.3,0.5c-0.3-0.2-0.7-0.1-1.1,0
				c-0.6,0.2-4.6,1.9-5,2.4c0.6,0,5.7-0.7,6.1-1.8c0.6,0.5,4.9-0.4,5.6-0.7C-340.2,290.5-343.3,290.4-344,290.4"/>
		</g>
	</g>
</g>
</svg>
