<?xml version="1.0" encoding="UTF-8" standalone="no"?>
<svg width="43px" height="54px" viewBox="0 0 43 54" version="1.1" xmlns="http://www.w3.org/2000/svg" xmlns:xlink="http://www.w3.org/1999/xlink" xmlns:sketch="http://www.bohemiancoding.com/sketch/ns">
    <!-- Generator: Sketch 3.4 (15588) - http://www.bohemiancoding.com/sketch -->
    <title>Object_01</title>
    <desc>Created with Sketch.</desc>
    <defs></defs>
    <g id="Page-1" stroke="none" stroke-width="1" fill="none" fill-rule="evenodd" sketch:type="MSPage">
        <g id="Artboard-7" sketch:type="MSArtboardGroup" transform="translate(-188.000000, -242.000000)">
            <g id="Object_01" sketch:type="MSLayerGroup" transform="translate(188.000000, 242.000000)">
                <path d="M32.2726316,32.17725 C42.0087368,30.975 45.7112632,40.4445 38.4042807,48.69375 C27.2884035,61.2405 10.5591404,44.97075 19.330386,34.37025 C22.9099474,30.0435 26.0874211,28.845 32.2726316,32.17725" id="Fill-1" fill="#F7002A" sketch:type="MSShapeGroup"></path>
                <path d="M19.3220877,19.68075 C23.435,23.31975 28.6206491,24.1455 22.2513684,33.78525 C15.48,44.031 -4.64852632,31.29375 1.97573684,19.22175 C4.77073684,14.1285 16.9329474,6.30225 19.3220877,19.68075" id="Fill-2" fill="#F7002A" sketch:type="MSShapeGroup"></path>
                <path d="M31.4488421,34.09875 C29.6164386,31.7655 29.455,27.14025 29.6428421,23.67 C29.8374737,20.08725 30.5224561,15.78825 31.829807,11.8785 C27.7425439,15.408 22.7673684,18.33975 18.533,20.49525 L17.802,19.07625 C22.8624211,16.5 29.0061404,12.7995 33.2525789,8.3385 C34.3124912,6.138 35.627386,4.2195 37.2274386,2.8485 L38.5604386,1.7055 L38.4721754,3.801 C37.5405088,5.7015 36.2112807,7.50675 34.6278246,9.20175 C32.6249298,13.45575 31.5031579,18.98925 31.2451579,23.75625 C30.9999825,28.27575 31.5212632,31.6005 32.713193,33.117 L31.4488421,34.09875" id="Fill-3" fill="#006A00" sketch:type="MSShapeGroup"></path>
                <path d="M16.3090702,15.4245 C14.7542807,13.155 11.4591228,12.9555 9.57919298,13.83 C7.91275439,14.60475 5.21808772,16.467 4.60250877,18.49575 C7.09047368,16.491 13.2658772,12.312 16.3090702,15.4245" id="Fill-4" fill="#FFFFFF" sketch:type="MSShapeGroup"></path>
                <path d="M22.9484211,34.554 C28.2004561,29.12475 27.8474035,34.54575 32.2334035,35.40225 C28.8394211,38.80875 27.6188246,31.57725 22.9484211,34.554" id="Fill-5" fill="#FFFFFF" sketch:type="MSShapeGroup"></path>
                <path d="M18.5058421,18.9855 C14.5294737,16.548 17.7748421,21.35775 18.6076842,21.12525 C19.9768947,20.74125 17.9083684,19.7985 18.5058421,18.9855" id="Fill-6" fill="#531300" sketch:type="MSShapeGroup"></path>
                <path d="M32.1647544,32.7165 C32.2537719,32.58075 32.3035614,32.9265 32.4574561,33.14775 C32.0417895,33.753 30.5179298,33.06075 30.7714035,32.34 C30.0735965,32.36775 31.0331754,34.683 32.4076667,34.22175 C33.5007719,33.85425 33.1801579,32.12625 32.0908246,32.679" id="Fill-7" fill="#531300" sketch:type="MSShapeGroup"></path>
                <path d="M23.8084211,31.18125 C20.7818246,37.05675 17.9792807,39.19425 10.4867193,36.6405 C7.61854386,35.664 5.39838596,33.897 3.46187719,31.57575 C6.50733333,33.9315 18.5013158,39.33525 23.8084211,31.18125" id="Fill-8" fill="#86002A" sketch:type="MSShapeGroup"></path>
                <path d="M40.2374386,46.2465 C34.1246491,52.011 23.6582982,51.95175 17.7869123,45.30825 C18.8128772,48.1755 21.3642105,50.79375 24.2135263,52.22625 C28.1529298,54.2055 32.8919825,53.448 36.1909123,50.7765 C38.002193,49.3095 39.0922807,48.132 40.2374386,46.2465" id="Fill-9" fill="#86002A" sketch:type="MSShapeGroup"></path>
                <path d="M38.8493684,0.393 C39.5260526,0.831 39.7840526,0.858 40.4365965,1.3995 C39.354807,2.92875 35.5134737,9.79725 34.8579123,6.37875 C34.6406491,5.24625 37.3209825,1.28325 38.8652105,0.38175 C39.0711579,0.23175 38.4548246,0.71175 38.6087193,0.56925" id="Fill-10" fill="#531300" sketch:type="MSShapeGroup"></path>
            </g>
        </g>
    </g>
</svg>