<?xml version="1.0" encoding="UTF-8" standalone="no"?>
<svg width="48px" height="49px" viewBox="0 0 48 49" version="1.1" xmlns="http://www.w3.org/2000/svg" xmlns:xlink="http://www.w3.org/1999/xlink" xmlns:sketch="http://www.bohemiancoding.com/sketch/ns">
    <!-- Generator: Sketch 3.4 (15588) - http://www.bohemiancoding.com/sketch -->
    <title>Object_03</title>
    <desc>Created with Sketch.</desc>
    <defs></defs>
    <g id="Page-1" stroke="none" stroke-width="1" fill="none" fill-rule="evenodd" sketch:type="MSPage">
        <g id="Artboard-7" sketch:type="MSArtboardGroup" transform="translate(-69.000000, -244.000000)">
            <g id="Object_03" sketch:type="MSLayerGroup" transform="translate(69.000000, 244.000000)">
                <path d="M10.7841667,11.4891667 C-18.475,31.2733333 21.5225,56.6575 31.7425,46.185 C35.6183333,42.2133333 38.2158333,40.34 41.7425,38.4533333 C51.9366667,32.9983333 47.265,11.7766667 34.0766667,2.7025 C25.945,-2.89083333 17.5683333,3.37666667 10.7841667,11.4891667" id="Fill-1" fill="#6AB838" sketch:type="MSShapeGroup"></path>
                <path d="M36.1358333,40.9166667 C35.8433333,41.2333333 34.87,42.7383333 34.25,43.4608333 C35.4141667,42.875 36.5991667,41.97 37.4675,41.0191667 C37.0825,41.3533333 36.6766667,41.74 36.2783333,42.0933333 C36.9758333,41.4641667 37.7883333,40.9116667 38.6008333,40.5175 C37.47,40.7358333 36.1575,40.8141667 35.2066667,41.6216667 C35.6433333,41.3516667 36.0425,41.1066667 36.495,40.8675 C35.6016667,41.22 34.9808333,41.8941667 34.5783333,42.5208333" id="Fill-2" fill="#531300" sketch:type="MSShapeGroup"></path>
                <path d="M9.54,13.9233333 L8.5575,14.8783333 C3.43833333,18.4916667 1.76666667,22.62 1.76583333,26.3858333 C1.76416667,31.485 4.82666667,35.9191667 6.54083333,37.5083333 C5.1525,35.825 3.155,30.9533333 3.15833333,27.0641667 C3.16,24.3483333 4.13666667,22.1116667 6.97666667,21.7733333 C12.4266667,21.1225 17.2366667,15.2191667 18.4916667,13.9275 C16.2858333,15.7608333 11.6616667,18.7475 7.93083333,19.8766667 C7.61583333,19.9716667 7.35583333,20.0158333 7.14583333,20.0158333 C6.61166667,20.0158333 6.39333333,19.7325 6.39166667,19.2825 C6.38833333,17.9466667 8.2975,15.1416667 9.54,13.9233333" id="Fill-3" fill="#CCF986" sketch:type="MSShapeGroup"></path>
                <path d="M34.25,43.4608333 C34.2625,43.4566667 34.1925,43.2983333 34.1958333,42.9558333 C34.2,42.6125 34.2775,42.0808333 34.59,41.4966667 C34.8866667,40.9041667 35.3575,40.2675 35.9425,39.6216667 C36.5266667,38.9775 37.2183333,38.3175 37.9408333,37.6233333 C39.3841667,36.2441667 40.9908333,34.7016667 41.9525,32.9083333 C42.0766667,32.6866667 42.1766667,32.455 42.285,32.2291667 L42.3583333,32.0558333 L42.3958333,31.97 L42.4241667,31.905 C42.4358333,31.8783333 42.3358333,32.105 42.38,32.0025 L42.385,31.9875 L42.5441667,31.53 C42.5775,31.2791667 42.6758333,30.7383333 42.71,30.2208333 C42.8175,30.0966667 42.79,29.0916667 42.5591667,26.7166667 C42.4325,25.4916667 42.2158333,24.2491667 41.9883333,23.0208333 C41.7491667,21.7933333 41.4833333,20.5808333 41.2025,19.4083333 C40.6383333,17.0616667 40.0016667,14.8825 39.3933333,13.0216667 C39.0891667,12.09 38.7775,11.2475 38.4925,10.495 C38.1925,9.755 37.9383333,9.08666667 37.6808333,8.56416667 C37.425,8.04 37.2316667,7.605 37.0683333,7.33166667 C36.9158333,7.04416667 36.8341667,6.89083333 36.8341667,6.89083333 C36.8341667,6.89083333 36.9841667,6.98 37.265,7.14666667 C37.5408333,7.3225 37.9525,7.58833333 38.4175,7.99 C39.3758333,8.77 40.6158333,10.0541667 41.8208333,11.79 C43.025,13.5225 44.2166667,15.685 45.1783333,18.1341667 C45.6633333,19.3575 46.0975,20.6516667 46.4475,22 C46.8091667,23.3466667 47.075,24.7483333 47.2525,26.1891667 C47.4025,27.6333333 47.4683333,29.1233333 47.275,30.6783333 C47.1625,31.4725 47.0325,32.2291667 46.645,33.205 L46.44,33.6441667 L46.3783333,33.7825 L46.3241667,33.8783333 L46.2516667,34.0066667 L46.1075,34.2608333 C45.91,34.595 45.6991667,34.9183333 45.4683333,35.2158333 C44.5725,36.435 43.5091667,37.36 42.4883333,38.1066667 C41.4558333,38.8433333 40.4491667,39.4025 39.5308333,39.8733333 C37.6875,40.8025 36.2008333,41.4175 35.3308333,42.0858333 C34.9058333,42.4183333 34.6066667,42.7516667 34.4625,43.0166667 C34.3041667,43.2833333 34.2566667,43.4691667 34.25,43.4608333" id="Fill-4" fill="#009245" sketch:type="MSShapeGroup"></path>
                <path d="M15.6608333,12.585 C15.4666667,12.585 15.15,12.6991667 14.6808333,12.9683333 L12.3208333,14.9875 C11.9891667,16.205 12.13,16.6616667 12.5041667,16.6616667 C13.0625,16.6616667 14.14,15.6425 14.9341667,14.6225 C15.7283333,13.6041667 16.2383333,12.585 15.6608333,12.585" id="Fill-5" fill="#2C850C" sketch:type="MSShapeGroup"></path>
                <path d="M10.3516667,12.8833333 C8.8275,14.16 3.14083333,21.9183333 8.42666667,19.7758333 C9.9225,19.1683333 14.1316667,17.8791667 13.9066667,15.7366667 C13.1166667,15.9275 16.4758333,13.8525 15.875,12.6858333 C15.5,11.955 13.4791667,14.1491667 13.8658333,13.5841667 C12.8341667,13.0858333 11.3966667,11.8983333 10.3516667,12.8833333" id="Fill-6" fill="#009245" sketch:type="MSShapeGroup"></path>
                <path d="M13.1475,14.7483333 C13.7825,15.5875 14.1358333,13.9516667 14.5625,13.4091667 C13.5425,11.5675 11.12,10.145 9.4775,9.04916667 C7.9675,8.04166667 4.57416667,5.7275 2.71666667,6.02916667 C2.57416667,7.1475 2.225,7.47083333 1.33916667,8.41666667 C4.67333333,10.2966667 10.7241667,11.195 13.1475,14.7483333" id="Fill-7" fill="#531300" sketch:type="MSShapeGroup"></path>
                <path d="M24.4433333,1.87583333 C21.1966667,1.87583333 16.9408333,6.48583333 14.9241667,8.35916667 L14.9925,8.45083333 C15.3033333,8.12083333 15.5816667,7.98 15.8333333,7.98 C17.1466667,7.98083333 17.6933333,11.8266667 18.0458333,12.4958333 C17.9066667,12.0591667 17.8408333,11.6291667 17.84,11.2116667 C17.8383333,9.87833333 18.5058333,8.67083333 19.6033333,7.75083333 C21.3683333,6.2725 24.7875,6.32166667 26.1966667,4.58 C26.52,4.17916667 26.665,3.79166667 26.665,3.44 C26.6675,2.59333333 25.8316667,1.96166667 24.6625,1.88333333 C24.59,1.87833333 24.5175,1.87583333 24.4433333,1.87583333" id="Fill-8" fill="#CCF986" sketch:type="MSShapeGroup"></path>
                <path d="M1.96833333,8.14 C0.549166667,9.19666667 1.01083333,7.29583333 1.56166667,6.54666667 C1.85916667,6.14166667 1.94,5.87833333 2.41166667,6.03666667 C3.33666667,6.34833333 2.37416667,7.39333333 2.04666667,7.86666667" id="Fill-9" fill="#833D26" sketch:type="MSShapeGroup"></path>
            </g>
        </g>
    </g>
</svg>