<?xml version="1.0" encoding="UTF-8" standalone="no"?>
<svg width="67px" height="79px" viewBox="0 0 67 79" version="1.1" xmlns="http://www.w3.org/2000/svg" xmlns:xlink="http://www.w3.org/1999/xlink" xmlns:sketch="http://www.bohemiancoding.com/sketch/ns">
    <!-- Generator: Sketch 3.4 (15588) - http://www.bohemiancoding.com/sketch -->
    <title>Object_02</title>
    <desc>Created with Sketch.</desc>
    <defs></defs>
    <g id="Page-1" stroke="none" stroke-width="1" fill="none" fill-rule="evenodd" sketch:type="MSPage">
        <g id="Artboard-7" sketch:type="MSArtboardGroup" transform="translate(-120.000000, -220.000000)">
            <g id="Object_02" sketch:type="MSLayerGroup" transform="translate(120.000000, 220.000000)">
                <path d="M2.99684112,69.191992 C-7.52654206,78.632808 13.7168411,77.574208 18.9522336,77.47056 C32.1549907,77.21144 47.6307383,76.881536 59.6669439,70.640536 C65.306215,67.715008 70.5535047,63.194312 62.2674206,60.332616 C52.5674486,56.980488 41.2131402,53.71052 31.0560654,54.411408 C19.9271776,55.17992 9.95920561,63.113416 1.72509346,70.25312 L2.99684112,69.191992" id="Fill-1" fill="#8E5A2C" sketch:type="MSShapeGroup"></path>
                <path d="M2.99684112,69.191992 C-7.52654206,78.632808 70.5535047,63.194312 62.2674206,60.332616 C52.5674486,56.980488 41.2131402,53.71052 31.0560654,54.411408 C19.9271776,55.17992 9.95920561,63.113416 1.72509346,70.25312 L2.99684112,69.191992" id="Fill-2" fill="#42210B" sketch:type="MSShapeGroup"></path>
                <path d="M34.4016822,63.251192 C34.0065701,60.005872 33.3603645,56.692296 33.4749533,53.453928 C32.144972,53.621408 30.697271,53.662488 29.4173832,53.235256 C31.1456075,56.615824 30.3115514,61.197824 31.103028,64.905768 C22.9421776,67.692888 25.9321308,81.248656 35.1180187,78.028616 C42.1260935,75.570768 41.7472617,62.45108 34.4016822,63.251192" id="Fill-3" fill="#D79F1E" sketch:type="MSShapeGroup"></path>
                <path d="M28.3466355,66.604584 C28.1450093,66.80872 27.9590374,67.0236 27.7880935,67.247328 L27.7887196,67.247328 C27.9590374,67.0236 28.1450093,66.80872 28.3466355,66.604584 M28.3572804,66.59384 C28.3541495,66.597 28.3510187,66.60016 28.3478879,66.60332 C28.3510187,66.60016 28.3541495,66.597 28.3572804,66.59384 M28.3647944,66.586256 C28.3647944,66.586888 28.3641682,66.586888 28.3635421,66.58752 C28.3641682,66.58752 28.3647944,66.586256 28.3647944,66.586256 M33.4611776,54.317872 L33.4611776,54.317872 C33.4730748,57.280056 34.0416355,60.294064 34.4016822,63.251192 C34.0416355,60.294064 33.4730748,57.280056 33.4611776,54.317872" id="Fill-4" fill="#752319" sketch:type="MSShapeGroup"></path>
                <path d="M29.4173832,53.235256 C31.1456075,56.615824 30.3115514,61.197824 31.103028,64.905768 C29.9859439,65.288128 29.0773738,65.871464 28.3647944,66.586256 C28.3647944,66.586256 28.3641682,66.58752 28.3635421,66.58752 C28.3616636,66.589416 28.3591589,66.591944 28.3572804,66.59384 C28.3541495,66.597 28.3510187,66.60016 28.3478879,66.60332 C28.3478879,66.603952 28.3472617,66.603952 28.3466355,66.604584 C28.1450093,66.80872 27.9590374,67.0236 27.7887196,67.247328 C31.9884299,65.391776 34.572,64.1164 37.4598879,64.1164 C37.5782336,64.1164 37.6972056,64.118296 37.8168037,64.12272 C37.0672804,63.552024 36.1386729,63.216432 35.0322336,63.216432 C34.8281028,63.216432 34.6183364,63.227808 34.4016822,63.251192 C34.0416355,60.294064 33.4730748,57.280056 33.4611776,54.317872 L33.4611776,54.214224 C33.4611776,53.96016 33.4655607,53.706728 33.4749533,53.453928 C32.9139065,53.524712 32.3315701,53.572744 31.7498598,53.572744 C30.9533738,53.572744 30.157514,53.482368 29.4173832,53.235256" id="Fill-5" fill="#CE6F24" sketch:type="MSShapeGroup"></path>
                <path d="M1.72509346,70.25312 C11.0957009,54.57952 5.90727103,47.865784 8.09885981,34.358048 C9.84085981,23.622264 11.5715888,10.09936 29.6052336,11.819664 C47.6031869,13.536176 45.5481028,30.337896 51.4190561,39.506952 C54.9800748,45.06792 62.0601589,57.690856 66.180972,62.791728 C46.2080841,53.594232 22.5326636,51.712768 1.72509346,70.25312" id="Fill-6" fill="#FBCA37" sketch:type="MSShapeGroup"></path>
                <path d="M21.7380561,14.616896 C10.2403551,20.90024 13.7775794,38.490064 12.4450935,49.471696 C11.922243,53.786992 10.0618972,60.68148 6.41571963,63.503992 C8.45765421,61.231952 10.6097944,59.751176 12.0612523,56.912232 C14.6241589,51.904264 15.7061776,46.206784 16.2227664,40.639496 C16.9328411,32.994192 14.1344953,19.43716 21.7380561,14.616896" id="Fill-7" fill="#FFFFFF" sketch:type="MSShapeGroup"></path>
                <path d="M35.6421215,16.387128 C44.2231308,18.644 44.9726542,30.566048 47.1917944,37.40176 C49.5699813,44.7298 55.7878318,51.063072 60.6850935,56.852192 C54.593729,51.557296 48.8574019,46.351512 45.6313832,38.598136 C43.8186262,34.243024 43.475486,29.629424 41.8092523,25.292008 C40.5281121,21.958208 37.7654579,18.797576 35.6421215,16.387128" id="Fill-8" fill="#F8931E" sketch:type="MSShapeGroup"></path>
                <path d="M6.87971028,58.244488 C6.87971028,58.244488 7.04000935,58.092176 7.33994393,57.807144 C7.6361215,57.517056 8.0794486,57.103096 8.66929907,56.600656 C9.2578972,56.097584 9.99176636,55.510456 10.8621402,54.872768 C11.7431589,54.251512 12.7481589,53.558208 13.9153364,52.921784 C16.2309065,51.62492 19.0993832,50.378616 22.311,49.531104 C23.9171215,49.098184 25.5921215,48.763224 27.2978037,48.439008 C29.003486,48.117952 30.7436075,47.828496 32.4906168,47.583912 C35.9890187,47.126344 39.5068318,46.829936 42.8230187,46.803392 C44.4930093,46.797704 46.092243,46.991728 47.5919159,47.252112 C49.0915888,47.517552 50.4879439,47.880952 51.7496729,48.29744 C53.0095234,48.722776 54.124729,49.222688 55.081514,49.7226 C55.5536449,49.985512 55.9919626,50.237048 56.3883271,50.48416 C56.7727944,50.7496 57.135972,50.978384 57.4446729,51.211592 C57.7477383,51.453648 58.0176168,51.66916 58.2530561,51.856864 C58.483486,52.049624 58.6600654,52.236696 58.8134766,52.375736 C59.1134112,52.6614 59.2737103,52.81308 59.2737103,52.81308 C59.2737103,52.81308 59.105271,52.670248 58.7903084,52.401648 C58.6306355,52.270824 58.4452897,52.095128 58.2060935,51.91564 C57.9643925,51.739944 57.6857477,51.538336 57.3745421,51.31208 C57.0589533,51.093408 56.6888879,50.881056 56.298785,50.633312 C55.896785,50.40516 55.4528318,50.173216 54.9769439,49.933056 C54.0101402,49.47928 52.8924299,49.031824 51.6425981,48.636192 C50.387757,48.25636 49.0020467,47.932144 47.5186542,47.707152 C46.0358879,47.487216 44.4541869,47.34312 42.8255234,47.351968 C39.5475327,47.404424 36.046,47.729272 32.5738972,48.20896 C30.8356542,48.439008 29.1024206,48.712664 27.4023738,49.01792 C25.7042056,49.326336 24.0317103,49.647392 22.4481308,50.060088 C19.2709533,50.874104 16.4018505,51.994008 14.0818972,53.23336 C11.7575607,54.465128 9.95357009,55.738608 8.74631776,56.695456 C8.14331776,57.17388 7.67181308,57.556872 7.36248598,57.832424 C7.04752336,58.101024 6.87971028,58.244488 6.87971028,58.244488" id="Fill-9" fill="#512809" sketch:type="MSShapeGroup"></path>
                <path d="M7.59729907,54.168088 C7.59729907,54.168088 7.74570093,54.025888 8.02497196,53.759184 C8.29985981,53.488056 8.71375701,53.102536 9.26228037,52.63296 C10.3587009,51.699496 11.9867383,50.412112 14.1551589,49.206256 C16.3191963,48.004824 18.9979439,46.852688 21.9972897,46.080384 C23.4969626,45.684752 25.0586262,45.376968 26.6484673,45.0774 C28.2389346,44.781624 29.8613364,44.513656 31.4912523,44.297512 C34.7517103,43.875968 38.040972,43.638968 41.1223458,43.613688 C44.2062243,43.556808 47.1103925,43.855112 49.5073645,44.492168 C51.9124766,45.115952 53.7640561,46.099976 54.9619159,46.895032 C55.5667944,47.2894 56.0057383,47.650272 56.3044206,47.894224 C56.5968411,48.146392 56.752757,48.281008 56.752757,48.281008 C56.752757,48.281008 56.5893271,48.15524 56.2843832,47.920768 C55.9750561,47.691352 55.5123178,47.366504 54.8986729,46.997416 C54.2862804,46.626432 53.5167196,46.219424 52.5975047,45.840856 C51.6795421,45.457864 50.6100467,45.117216 49.4240841,44.831552 C48.236243,44.553472 46.9269252,44.349336 45.5324486,44.241896 C44.137972,44.1294 42.6620935,44.128768 41.1317383,44.15784 C38.0678972,44.209664 34.8105701,44.474472 31.5726542,44.921296 C29.952757,45.131752 28.3359907,45.376968 26.751785,45.65884 C25.1682056,45.94324 23.6084206,46.236488 22.1319159,46.612528 C19.1701402,47.357656 16.489514,48.377072 14.3223458,49.520992 C13.2359439,50.087264 12.2791589,50.679448 11.438215,51.216648 C10.6097944,51.772176 9.90472897,52.285992 9.33992523,52.729024 C8.77762617,53.173952 8.33617757,53.528504 8.04751402,53.785096 C7.75384112,54.034736 7.59729907,54.168088 7.59729907,54.168088" id="Fill-10" fill="#512809" sketch:type="MSShapeGroup"></path>
                <path d="M23.1056075,12.528136 C19.9710093,11.61932 17.3210654,5.058528 20.0774579,2.681576 C22.4631589,0.626312 26.1581776,2.335872 26.8144019,5.23928 C27.395486,7.80836 24.5658318,9.199392 24.7530561,11.171232 C25.1231215,15.063088 29.48,7.517008 29.5275888,5.823248 C29.7386075,-1.69692 17.4425421,-1.77908 15.8558318,4.883464 C15.0543364,8.2476 22.039243,15.382248 22.6973458,12.193176" id="Fill-11" fill="#FBCA37" sketch:type="MSShapeGroup"></path>
                <path d="M20.3548505,1.209016 C20.3548505,1.209016 20.2402617,1.297496 20.040514,1.452968 C19.9353178,1.523752 19.8194766,1.62424 19.6936168,1.738632 C19.5646262,1.849864 19.422486,1.974368 19.2784673,2.128576 C19.1275607,2.272672 18.9804112,2.443312 18.8301308,2.626592 C18.6679533,2.799128 18.5471028,3.02096 18.3886822,3.221304 C18.2621963,3.443768 18.1175514,3.664336 18.0092243,3.90892 C17.8802336,4.143392 17.7988318,4.40188 17.7036542,4.654048 C17.6347757,4.9138 17.5477383,5.170392 17.5201869,5.434568 C17.468215,5.694952 17.4644579,5.955336 17.4481776,6.208136 C17.4713458,6.458408 17.4563178,6.707416 17.5089159,6.935568 C17.5377196,7.169408 17.5915701,7.384288 17.6516822,7.583368 C17.6973925,7.787504 17.7825514,7.958776 17.8420374,8.119936 C17.8996449,8.282992 17.967271,8.417608 18.0286355,8.52568 C18.141972,8.752568 18.2070935,8.882128 18.2070935,8.882128 C18.2070935,8.882128 18.105028,8.77848 17.9259439,8.597728 C17.8351495,8.50672 17.7274486,8.392328 17.6335234,8.238752 C17.5339626,8.0896 17.4024673,7.927176 17.3179346,7.718616 C17.2146168,7.51764 17.1138037,7.29328 17.0524393,7.039216 C16.9635234,6.791472 16.9372243,6.51592 16.8971495,6.23152 C16.8965234,5.94712 16.8645888,5.646288 16.9215701,5.349248 C16.947243,5.047784 17.0342804,4.754536 17.1087944,4.458128 C17.2215047,4.175624 17.3229439,3.887432 17.4725981,3.628944 C17.5978318,3.357184 17.7875607,3.130296 17.9428505,2.896456 C18.1281963,2.684104 18.294757,2.468592 18.4926262,2.30364 C18.6754673,2.124152 18.8633178,1.973104 19.0499159,1.851128 C19.2233645,1.71588 19.4062056,1.618552 19.5658785,1.53576 C19.7224206,1.444752 19.8620561,1.383448 19.981028,1.343 C20.218972,1.25768 20.3548505,1.209016 20.3548505,1.209016" id="Fill-12" fill="#FFFFFF" sketch:type="MSShapeGroup"></path>
                <path d="M26.2746449,11.16744 C26.2746449,11.16744 26.3428972,10.736416 26.6234206,10.146128 C26.8901682,9.555208 27.3422617,8.835992 27.7761963,8.135104 C27.9934766,7.785608 28.203243,7.434216 28.3785701,7.099256 C28.5513925,6.763032 28.6972897,6.442608 28.7887103,6.153784 C28.8870187,5.867488 28.9377383,5.613424 28.9621589,5.43204 C28.9865794,5.2456 29.0009813,5.139424 29.0009813,5.139424 C29.0009813,5.139424 29.0354206,5.23928 29.0867664,5.42572 C29.1174486,5.518624 29.129972,5.63428 29.1399907,5.768896 C29.1594019,5.904776 29.1575234,6.057088 29.1418692,6.223936 C29.1237103,6.559528 29.0285327,6.94252 28.880757,7.32804 C28.739243,7.718616 28.5238411,8.096552 28.3071869,8.4688 C27.8500841,9.197496 27.3178411,9.847192 26.9271121,10.33636 C26.5376355,10.819208 26.2746449,11.16744 26.2746449,11.16744" id="Fill-13" fill="#F8931E" sketch:type="MSShapeGroup"></path>
                <path d="M38.3803551,67.759248 C38.3803551,67.759248 38.3765981,67.820552 38.3690841,67.936208 C38.3609439,68.051232 38.3615701,68.213024 38.3365234,68.419688 C38.3208692,68.624456 38.2832991,68.869672 38.2407196,69.145224 C38.1918785,69.420776 38.1317664,69.726664 38.0466075,70.05404 C37.970215,70.381416 37.8706542,70.732176 37.7504299,71.09368 C37.638972,71.45708 37.4974579,71.831856 37.3427944,72.209792 C37.192514,72.590888 37.0059159,72.965664 36.8211963,73.342336 C36.6151869,73.705104 36.4160654,74.077984 36.1693551,74.400304 C36.0528879,74.581056 35.9382991,74.706824 35.8293458,74.845864 C35.7836355,74.91096 35.6746822,75.00576 35.6032991,75.086656 L35.461785,75.232648 L35.4605327,75.233912 L35.4135701,75.273728 C35.1580935,75.491768 34.7967944,75.721816 34.456785,75.919632 C33.7592336,76.312736 33.0591776,76.625576 32.4555514,76.788 C32.1499813,76.879008 31.8788505,76.912504 31.6271308,76.927672 C31.3929439,76.913136 31.1750374,76.877744 31.0159907,76.80064 C30.9364673,76.755768 30.8650841,76.71532 30.8037196,76.68056 C30.7436075,76.626208 30.6985234,76.570592 30.6584486,76.530144 C30.5782991,76.448616 30.5357196,76.405008 30.5357196,76.405008 C30.5357196,76.405008 30.5476168,76.465048 30.5695327,76.578176 C30.5826822,76.634424 30.5933271,76.703944 30.6171215,76.784208 C30.6559439,76.861944 30.7091682,76.956112 30.7792991,77.06292 C30.8500561,77.17036 30.9521215,77.243672 31.0623271,77.351112 C31.1756636,77.44844 31.3196822,77.505952 31.4724673,77.591272 C31.7799159,77.70756 32.1518598,77.808048 32.5438411,77.817528 C32.6264953,77.821952 32.7104019,77.82448 32.7949346,77.82448 C33.5212897,77.82448 34.3146449,77.660792 35.1142617,77.358064 C35.5632243,77.178576 36.0071776,76.98076 36.4805607,76.633792 L36.5701028,76.567432 L36.5920187,76.550368 L36.6032897,76.542152 L36.6458692,76.5036 L36.6778037,76.474528 L36.8067944,76.35824 C36.8969626,76.272288 36.9714766,76.220464 37.0716636,76.102912 C37.2657757,75.886136 37.4636449,75.661144 37.6070374,75.450056 C38.8424673,73.705736 39.1768411,71.63088 39.072271,70.133672 C39.0528598,69.758264 38.986486,69.414456 38.919486,69.118048 C38.8581215,68.819112 38.7673271,68.567576 38.6852991,68.365336 C38.6189252,68.1612 38.5156075,68.013944 38.4680187,67.91156 C38.4110374,67.812336 38.3803551,67.759248 38.3803551,67.759248" id="Fill-14" fill="#CE6F24" sketch:type="MSShapeGroup"></path>
            </g>
        </g>
    </g>
</svg>